<svg width="1096" height="444" viewBox="0 0 1096 444" fill="none" xmlns="http://www.w3.org/2000/svg">
<rect y="56" width="212" height="48" rx="12" fill="#16213A"/>
<path d="M0 12C0 5.37258 5.37258 0 12 0H200C206.627 0 212 5.37258 212 12V36C212 42.6274 206.627 48 200 48H12C5.37259 48 0 42.6274 0 36V12Z" fill="#341F78"/>
<rect y="112" width="212" height="48" rx="12" fill="#16213A"/>
<rect y="168" width="212" height="48" rx="12" fill="#16213A"/>
<rect y="224" width="212" height="162" rx="12" fill="#556316"/>
<rect y="394" width="212" height="48" rx="12" fill="#16213A"/>
<rect x="220" width="212" height="48" rx="12" fill="#16213A"/>
<rect x="220" y="56" width="212" height="108" rx="12" fill="#711671"/>
<rect x="220" y="172" width="212" height="48" rx="12" fill="#16213A"/>
<rect x="220" y="228" width="212" height="48" rx="12" fill="#16213A"/>
<rect x="220" y="284" width="212" height="48" rx="12" fill="#224787"/>
<path d="M220 352C220 345.373 225.373 340 232 340H420C426.627 340 432 345.373 432 352V376C432 382.627 426.627 388 420 388H232C225.373 388 220 382.627 220 376V352Z" fill="#16213A"/>
<rect x="220" y="396" width="212" height="48" rx="12" fill="#16213A"/>
<rect x="440" width="212" height="48" rx="12" fill="#16213A"/>
<rect x="440" y="284" width="212" height="48" rx="12" fill="#16213A"/>
<rect x="440" y="112" width="212" height="48" rx="12" fill="#16213A"/>
<path d="M440 68C440 61.3726 445.373 56 452 56H640C646.627 56 652 61.3726 652 68V92C652 98.6274 646.627 104 640 104H452C445.373 104 440 98.6274 440 92V68Z" fill="#16213A"/>
<rect x="440" y="168" width="212" height="108" rx="12" fill="#224787"/>
<rect x="440" y="340" width="212" height="48" rx="12" fill="#16213A"/>
<rect x="440" y="396" width="212" height="48" rx="12" fill="#16213A"/>
<rect x="660" width="212" height="48" rx="12" fill="#16213A"/>
<rect x="660" y="56" width="212" height="164" rx="12" fill="#341F78"/>
<rect x="660" y="228" width="212" height="48" rx="12" fill="#16213A"/>
<rect x="660" y="284" width="212" height="48" rx="12" fill="#16213A"/>
<rect x="660" y="340" width="212" height="104" rx="12" fill="#556316"/>
<rect x="884" width="212" height="108" rx="12" fill="#887613"/>
<rect x="884" y="116" width="212" height="48" rx="12" fill="#16213A"/>
<rect x="884" y="172" width="212" height="48" rx="12" fill="#16213A"/>
<rect x="884" y="228" width="212" height="48" rx="12" fill="#16213A"/>
<rect x="884" y="284" width="212" height="48" rx="12" fill="#16213A"/>
<rect x="884" y="340" width="212" height="48" rx="12" fill="#16213A"/>
<path d="M884 408C884 401.373 889.373 396 896 396H1084C1090.63 396 1096 401.373 1096 408V432C1096 438.627 1090.63 444 1084 444H896C889.373 444 884 438.627 884 432V408Z" fill="#711671"/>
<rect y="340" width="1096" height="104" fill="url(#paint0_linear_3855_2080)"/>
<rect width="1096" height="102" transform="matrix(1 0 0 -1 0 102)" fill="url(#paint1_linear_3855_2080)"/>
<defs>
<linearGradient id="paint0_linear_3855_2080" x1="548" y1="444" x2="548" y2="340" gradientUnits="userSpaceOnUse">
<stop stop-color="#0F172A"/>
<stop offset="1" stop-color="#0F172A" stop-opacity="0"/>
</linearGradient>
<linearGradient id="paint1_linear_3855_2080" x1="548" y1="102" x2="548" y2="0" gradientUnits="userSpaceOnUse">
<stop stop-color="#0F172A"/>
<stop offset="1" stop-color="#0F172A" stop-opacity="0"/>
</linearGradient>
</defs>
</svg>
