<svg width="176" height="49" viewBox="0 0 176 49" fill="none" xmlns="http://www.w3.org/2000/svg">
<path d="M6.77051 35.3491C11.6365 34.7405 16.1692 34.1995 20.702 33.5909C21.0353 33.5233 21.3019 33.1176 22.0351 32.509C19.9021 32.2385 18.2356 31.9004 16.5692 31.8328C12.1698 31.6976 7.83704 31.6976 3.43763 31.6976C2.90437 31.6976 2.37111 31.63 1.83785 31.7652C0.104749 32.1033 -0.495174 33.2528 0.438034 34.8081C0.904638 35.5519 1.4379 36.2281 2.03782 36.8367C4.30418 39.1358 6.6372 41.3673 8.97022 43.5987C9.37017 44.0045 9.97008 44.2073 10.77 44.6807C10.9033 41.232 7.50375 40.2853 6.77051 37.5805C7.37043 37.7158 7.9037 37.7834 8.3703 37.9186C26.3679 42.9225 44.2988 42.3816 62.1631 37.5129C64.0295 37.0396 65.8292 36.2958 67.629 35.6196C68.5622 35.2815 69.3621 34.5376 68.8288 33.3881C68.3622 32.2385 67.429 32.2385 66.3625 32.7119C54.4308 38.1215 41.7658 38.7301 28.9675 38.5272C22.3018 38.4596 15.7693 37.7158 9.30351 36.1605C8.50362 35.9576 7.70372 35.6872 6.77051 35.3491Z" fill="#94A3B8"/>
<path d="M86.1353 26.6849C86.1874 27.2685 86.3771 27.8006 86.7043 28.2813C87.0404 28.7513 87.4588 29.1552 87.9595 29.4928C88.4594 29.8208 89.0204 30.0649 89.6426 30.225C90.2639 30.3755 90.8907 30.4225 91.5229 30.3661C91.7175 30.3487 91.9156 30.3163 92.1172 30.2689C92.318 30.2118 92.4972 30.1321 92.6548 30.0298C92.8123 29.9275 92.9385 29.8035 93.0333 29.6577C93.1273 29.5023 93.1648 29.3176 93.1457 29.1036C93.1092 28.695 92.9273 28.3044 92.5999 27.9316C92.2822 27.558 91.8726 27.1975 91.3709 26.85C90.8685 26.4929 90.2983 26.1467 89.6605 25.8114C89.0219 25.4665 88.3739 25.1272 87.7167 24.7937C87.0594 24.4602 86.4119 24.1258 85.7741 23.7905C85.1354 23.4455 84.5653 23.0993 84.0637 22.7519C83.5612 22.3948 83.1463 22.0298 82.8189 21.657C82.5003 21.2737 82.3228 20.8777 82.2864 20.4692C82.2516 20.0801 82.3168 19.7116 82.4818 19.3635C82.6557 19.0048 82.8958 18.6745 83.2023 18.3727C83.5087 18.0708 83.8712 17.7933 84.2898 17.5403C84.7084 17.2872 85.1495 17.0665 85.6131 16.878C86.0767 16.6896 86.5438 16.5401 87.0143 16.4294C87.4937 16.3082 87.9523 16.2281 88.39 16.189C88.711 16.1604 89.0621 16.1389 89.4431 16.1245C89.8331 16.0995 90.1969 16.1111 90.5346 16.1594C90.8811 16.1971 91.1727 16.2789 91.4094 16.4049C91.6462 16.5308 91.7767 16.73 91.801 17.0023C91.8088 17.0899 91.8042 17.203 91.7872 17.3418C91.7693 17.4709 91.7057 17.6922 91.5964 18.0059C91.4854 18.3002 91.344 18.5285 91.1722 18.6909C91.0093 18.8427 90.7868 18.9312 90.5047 18.9563C90.1059 18.9919 89.6789 18.9859 89.2236 18.9383C88.7772 18.8801 88.3303 18.871 87.8829 18.9109C87.6397 18.9326 87.393 18.9693 87.1427 19.0211C86.9012 19.0622 86.6814 19.126 86.4832 19.2123C86.2842 19.2889 86.1271 19.396 86.0119 19.5338C85.8959 19.6618 85.8461 19.8182 85.8626 20.003C85.8791 20.1878 86.0291 20.3852 86.3125 20.5952C86.6057 20.8044 86.9837 21.0305 87.4466 21.2735C87.9192 21.5156 88.4528 21.7818 89.0474 22.0718C89.641 22.3522 90.2471 22.6609 90.8654 22.9979C91.4926 23.3243 92.1078 23.6812 92.711 24.0685C93.3134 24.4462 93.8551 24.8587 94.3362 25.3059C94.8262 25.7426 95.2264 26.2167 95.5368 26.7283C95.8569 27.239 96.0425 27.7813 96.0937 28.3551C96.1562 29.0555 96.0509 29.6875 95.7776 30.2511C95.5044 30.8147 95.1309 31.2991 94.6572 31.7041C94.1835 32.1091 93.6481 32.4265 93.0509 32.6563C92.4546 32.8958 91.8647 33.0416 91.281 33.0937C90.6877 33.1466 90.0781 33.1275 89.4523 33.0363C88.8371 32.9539 88.2357 32.8066 87.6481 32.5943C87.0613 32.3918 86.5039 32.1327 85.9757 31.8171C85.4563 31.4908 84.9967 31.1201 84.5969 30.7047C84.1962 30.2797 83.8654 29.8141 83.6046 29.3079C83.3534 28.8009 83.2023 28.2604 83.151 27.6865C83.1293 27.4434 83.1222 27.1989 83.1297 26.9531C83.146 26.6967 83.1897 26.4722 83.2608 26.2796C83.331 26.0773 83.4387 25.9108 83.5839 25.7802C83.7282 25.6398 83.922 25.5588 84.1652 25.5371C84.243 25.5302 84.3314 25.5321 84.4304 25.5429C84.5285 25.5439 84.7027 25.5725 84.9528 25.6286C85.2427 25.691 85.5033 25.8099 85.7347 25.9853C85.9749 26.1502 86.1084 26.3834 86.1353 26.6849ZM96.8657 21.8447C96.8501 21.6697 96.8897 21.5092 96.9846 21.3635C97.0786 21.2081 97.2087 21.0739 97.3751 20.961C97.5407 20.8384 97.7327 20.7379 97.9512 20.6596C98.1795 20.5804 98.4103 20.5304 98.6438 20.5095C98.7313 20.5017 98.8343 20.5023 98.9528 20.5114C99.0712 20.5204 99.191 20.544 99.312 20.5823C99.4331 20.6205 99.536 20.675 99.6208 20.7459C99.7153 20.8159 99.777 20.9035 99.806 21.0088C100.126 22.7254 100.421 24.4394 100.691 26.1506C100.961 27.8522 101.174 29.5784 101.33 31.3292C101.348 31.5335 101.297 31.7292 101.177 31.9165C101.066 32.1028 100.914 32.2684 100.721 32.413C100.538 32.5666 100.329 32.6931 100.093 32.7926C99.8664 32.8913 99.6461 32.9502 99.4321 32.9693C99.1598 32.9936 98.9255 32.9507 98.7294 32.8408C98.5333 32.7308 98.4218 32.5251 98.3949 32.2235C98.2378 30.4629 98.0289 28.7266 97.7683 27.0145C97.5077 25.3023 97.2068 23.5791 96.8657 21.8447ZM101.885 13.8229C101.898 13.9688 101.838 14.1163 101.704 14.2655C101.58 14.4138 101.404 14.5815 101.176 14.7686C100.957 14.9548 100.697 15.1741 100.396 15.4264C100.094 15.6691 99.7777 15.9669 99.4464 16.32C99.124 16.6626 98.7931 17.0745 98.4537 17.5558C98.1134 18.0273 97.7902 18.5807 97.4841 19.2159C97.4185 19.359 97.3149 19.4614 97.1733 19.5231C97.0415 19.5838 96.888 19.6221 96.7129 19.6377C96.5476 19.6524 96.3805 19.6477 96.2116 19.6236C96.0517 19.5888 95.9005 19.5435 95.7583 19.4876C95.6249 19.421 95.5101 19.343 95.4139 19.2536C95.3265 19.1535 95.2776 19.0451 95.2672 18.9284C95.2438 18.6658 95.2925 18.333 95.4134 17.93C95.5432 17.5165 95.7203 17.084 95.9447 16.6325C96.178 16.1705 96.4506 15.7099 96.7626 15.2507C97.0834 14.7808 97.4232 14.3583 97.7819 13.9832C98.1495 13.5974 98.5231 13.2797 98.9028 13.0301C99.2922 12.7797 99.6766 12.6375 100.056 12.6037C100.231 12.5881 100.42 12.6202 100.623 12.7001C100.836 12.7792 101.032 12.8843 101.21 13.0154C101.398 13.136 101.552 13.2741 101.674 13.4299C101.805 13.5752 101.875 13.7061 101.885 13.8229ZM108.91 13.9313C108.865 13.4255 108.979 13.0526 109.252 12.8125C109.524 12.5725 109.996 12.4225 110.667 12.3626C110.901 12.3418 111.107 12.3479 111.287 12.3809C111.466 12.4139 111.619 12.4836 111.747 12.5899C111.873 12.6865 111.979 12.829 112.064 13.0174C112.158 13.1953 112.243 13.428 112.318 13.7154C112.521 14.5699 112.729 15.4681 112.94 16.41C113.161 17.3414 113.371 18.2736 113.572 19.2067C113.782 20.1292 113.98 21.0331 114.167 21.9185C114.353 22.7941 114.52 23.6126 114.666 24.3741C114.821 25.125 114.945 25.7954 115.037 26.3852C115.137 26.9645 115.203 27.4244 115.233 27.7648C115.264 28.115 115.257 28.4147 115.211 28.664C115.174 28.9123 115.084 29.1164 114.942 29.2762C114.809 29.4351 114.624 29.5595 114.387 29.6493C114.158 29.7285 113.869 29.7837 113.519 29.815C113.179 29.8453 112.898 29.7821 112.679 29.6252C112.468 29.4675 112.347 29.2087 112.315 28.8488C112.282 28.4792 112.209 27.9906 112.096 27.383C111.982 26.7657 111.843 26.082 111.678 25.332C111.513 24.582 111.329 23.7846 111.126 22.9399C110.933 22.0944 110.731 21.2594 110.52 20.435C110.319 19.6098 110.121 18.8186 109.926 18.0615C109.74 17.2937 109.572 16.6175 109.421 16.0328C109.27 15.4385 109.149 14.9542 109.056 14.58C108.963 14.1962 108.915 13.9799 108.91 13.9313ZM117.533 25.03C117.519 24.8647 117.522 24.6781 117.542 24.4704C117.563 24.2626 117.562 24.0372 117.541 23.794C117.526 23.6286 117.442 23.5087 117.288 23.4342C117.144 23.3588 116.98 23.2754 116.795 23.184C116.61 23.0927 116.438 22.9708 116.277 22.8185C116.126 22.6653 116.037 22.433 116.009 22.1218C115.989 21.898 116.028 21.6691 116.124 21.435C116.231 21.2 116.393 20.9796 116.609 20.774C117.145 20.2948 117.704 19.8576 118.287 19.4625C118.879 19.0665 119.471 18.7244 120.063 18.4363C120.664 18.1473 121.261 17.9127 121.853 17.7324C122.445 17.5521 123.018 17.4373 123.572 17.3878C124.506 17.3044 125.397 17.4014 126.246 17.6787C127.103 17.9453 127.86 18.3533 128.517 18.9025C129.182 19.4412 129.726 20.0986 130.149 20.8747C130.58 21.6401 130.836 22.4801 130.918 23.3944C130.997 24.2893 130.884 25.1573 130.576 25.9985C130.278 26.8291 129.84 27.5741 129.261 28.2336C128.683 28.8931 127.981 29.4362 127.156 29.8627C126.342 30.2981 125.463 30.558 124.52 30.6422C123.596 30.7246 122.726 30.6454 121.91 30.4044C121.095 30.1635 120.376 29.7962 119.753 29.3028C119.13 28.7995 118.624 28.1878 118.236 27.4674C117.848 26.7374 117.613 25.9249 117.533 25.03ZM124.607 27.9872C125.015 27.9508 125.431 27.8303 125.854 27.6259C126.277 27.4215 126.654 27.1476 126.986 26.8042C127.327 26.4502 127.594 26.0342 127.787 25.5562C127.989 25.0774 128.065 24.551 128.014 23.9771C127.961 23.3935 127.806 22.8583 127.547 22.3716C127.288 21.8849 126.952 21.4737 126.54 21.1379C126.136 20.7915 125.667 20.5344 125.132 20.3664C124.607 20.1975 124.048 20.1396 123.455 20.1925C122.375 20.2889 121.574 20.6447 121.05 21.2601C120.526 21.8658 120.315 22.7473 120.418 23.9049C120.475 24.5371 120.62 25.1173 120.853 25.6456C121.096 26.1632 121.405 26.6062 121.781 26.9746C122.156 27.3333 122.582 27.6041 123.059 27.7871C123.546 27.9691 124.062 28.0358 124.607 27.9872ZM152.523 23.5694C152.783 23.301 153.049 23.1547 153.322 23.1304C153.477 23.1165 153.622 23.1429 153.755 23.2094C153.889 23.2759 154.04 23.3849 154.211 23.5364C154.377 23.7471 154.495 23.9228 154.567 24.0635C154.647 24.1936 154.693 24.3267 154.705 24.4629C154.731 24.7547 154.61 25.0449 154.342 25.3336C153.91 25.7644 153.435 26.1597 152.918 26.5195C152.4 26.8697 151.854 27.1782 151.28 27.4452C150.706 27.7121 150.107 27.9273 149.485 28.0907C148.863 28.2639 148.241 28.3782 147.618 28.4338C146.83 28.5041 146.082 28.4679 145.373 28.3253C144.665 28.1924 144.022 27.9654 143.445 27.6444C142.877 27.3225 142.385 26.9203 141.969 26.4378C141.553 25.9455 141.238 25.3805 141.024 24.7426C140.912 24.4781 140.814 24.3104 140.729 24.2395C140.653 24.158 140.532 24.1247 140.367 24.1394C140.007 24.1716 139.722 24.1088 139.512 23.951C139.302 23.7933 139.182 23.5491 139.152 23.2184C139.14 23.0822 139.142 22.9938 139.158 22.9531L139.161 22.6587C139.179 22.3042 139.248 22.0431 139.371 21.8753C139.503 21.7066 139.719 21.6089 140.021 21.5819L140.24 21.5624C140.648 21.526 140.918 21.3107 141.05 20.9166C141.292 20.2185 141.621 19.5714 142.039 18.9753C142.456 18.3792 142.939 17.8606 143.488 17.4194C144.036 16.9685 144.631 16.6066 145.274 16.3335C145.925 16.0499 146.596 15.8773 147.286 15.8157C148.006 15.7514 148.687 15.7985 149.328 15.957C149.979 16.1048 150.554 16.3427 151.054 16.6707C151.554 16.9986 151.957 17.3989 152.264 17.8716C152.581 18.3433 152.765 18.8662 152.816 19.4401C152.851 19.8389 152.806 20.2106 152.68 20.5552C152.554 20.8998 152.356 21.2116 152.087 21.4905C151.817 21.7597 151.48 21.9908 151.075 22.1838C150.681 22.3759 150.223 22.5197 149.702 22.6152L144.685 23.5776C144.49 23.595 144.334 23.658 144.216 23.7665C144.108 23.8742 144.062 24.0107 144.076 24.1761C144.099 24.429 144.213 24.6639 144.419 24.8809C144.634 25.097 144.906 25.2835 145.233 25.4406C145.57 25.587 145.947 25.6955 146.365 25.766C146.793 25.8357 147.226 25.851 147.664 25.8119C148.082 25.7746 148.506 25.6975 148.937 25.5806C149.377 25.4532 149.804 25.2925 150.218 25.0987C150.642 24.904 151.048 24.6814 151.438 24.431C151.826 24.1708 152.188 23.8836 152.523 23.5694ZM148.933 20.0954C149.076 20.0532 149.197 19.9738 149.294 19.8573C149.391 19.731 149.432 19.5852 149.417 19.4199C149.404 19.274 149.338 19.1425 149.22 19.0256C149.102 18.9087 148.946 18.8099 148.752 18.7291C148.558 18.6386 148.336 18.575 148.088 18.5384C147.84 18.5017 147.579 18.4955 147.307 18.5198C146.908 18.5554 146.505 18.6503 146.097 18.8043C145.689 18.9584 145.324 19.1478 145.001 19.3728C144.677 19.588 144.418 19.8218 144.225 20.0744C144.031 20.3172 143.944 20.5505 143.964 20.7742C143.984 20.9979 144.13 21.0976 144.402 21.0733C144.568 21.0585 144.833 21.0152 145.2 20.9433C145.566 20.8714 145.97 20.7912 146.413 20.7026C146.856 20.6043 147.302 20.5008 147.753 20.3919C148.205 20.283 148.598 20.1842 148.933 20.0954ZM158.331 13.5065C158.982 13.4483 159.661 13.4759 160.368 13.5894C161.073 13.6931 161.725 13.8556 162.323 14.0767C162.92 14.2881 163.419 14.5427 163.818 14.8404C164.217 15.1381 164.43 15.4426 164.458 15.7539C164.472 15.9095 164.42 16.0907 164.301 16.2974C164.181 16.4944 164.032 16.6891 163.853 16.8815C163.673 17.0642 163.472 17.2244 163.249 17.3619C163.034 17.4889 162.84 17.5602 162.665 17.5758C162.431 17.5966 162.16 17.5228 161.851 17.3543C161.551 17.1849 161.216 16.9992 160.845 16.797C160.483 16.5842 160.089 16.3987 159.663 16.2406C159.237 16.0826 158.786 16.0248 158.309 16.0673C157.998 16.0951 157.747 16.1959 157.557 16.3698C157.375 16.533 157.297 16.7509 157.321 17.0232C157.343 17.2664 157.482 17.504 157.738 17.7361C157.993 17.9584 158.322 18.184 158.724 18.4127C159.137 18.6407 159.599 18.8788 160.112 19.1272C160.624 19.3756 161.148 19.6426 161.683 19.9282C162.228 20.2129 162.762 20.5281 163.283 20.8738C163.804 21.2195 164.274 21.6039 164.694 22.0273C165.124 22.4497 165.48 22.9229 165.762 23.4467C166.044 23.9609 166.212 24.5341 166.269 25.1664C166.317 25.7111 166.264 26.2158 166.11 26.6806C165.955 27.1454 165.712 27.5544 165.381 27.9075C165.05 28.2606 164.644 28.5468 164.163 28.7662C163.683 28.9855 163.146 29.1217 162.553 29.1746C161.804 29.2415 161.103 29.1864 160.45 29.0094C159.797 28.8421 159.225 28.5794 158.732 28.2214C158.239 27.8634 157.837 27.4189 157.525 26.8879C157.222 26.356 157.042 25.7594 156.983 25.0979C156.906 24.242 157.002 23.606 157.268 23.19C157.545 22.7731 158.014 22.5352 158.675 22.4762C159.084 22.4397 159.417 22.4885 159.674 22.6224C159.931 22.7563 160.069 22.9351 160.089 23.1589C160.1 23.2756 160.091 23.3989 160.063 23.5288C160.035 23.649 160.002 23.7794 159.966 23.9199C159.938 24.0498 159.912 24.1895 159.886 24.3388C159.87 24.4874 159.868 24.6346 159.881 24.7805C159.904 25.0334 159.984 25.2713 160.121 25.4944C160.259 25.7174 160.433 25.9078 160.643 26.0655C160.864 26.2321 161.11 26.3572 161.382 26.4407C161.654 26.5243 161.936 26.553 162.228 26.527C163.006 26.4575 163.367 26.1018 163.309 25.4599C163.264 24.9541 163.022 24.4952 162.584 24.0834C162.144 23.6618 161.604 23.2639 160.962 22.8898C160.32 22.5059 159.629 22.1263 158.89 21.7511C158.16 21.375 157.473 20.9756 156.827 20.5528C156.182 20.13 155.635 19.6689 155.189 19.1695C154.741 18.6603 154.49 18.0897 154.433 17.4574C154.386 16.9322 154.45 16.4411 154.625 15.9843C154.81 15.5266 155.078 15.1252 155.43 14.7801C155.78 14.4253 156.201 14.1377 156.691 13.9175C157.191 13.6964 157.737 13.5594 158.331 13.5065ZM165.117 8.7977C165.066 8.665 165.021 8.54645 164.982 8.44205C164.953 8.33679 164.934 8.23066 164.924 8.12367C164.9 7.85131 164.962 7.61535 165.111 7.41578C165.27 7.21534 165.519 7.09994 165.86 7.06955C167.367 6.93501 168.226 7.22112 168.436 7.9279C168.693 8.82661 168.936 9.73148 169.164 10.6425C169.392 11.5536 169.603 12.4809 169.795 13.4246C169.996 14.3577 170.169 15.3129 170.315 16.2901C170.47 17.2567 170.593 18.2507 170.684 19.272C170.702 19.4666 170.709 19.6571 170.706 19.8437C170.702 20.0205 170.677 20.1844 170.632 20.3356C170.586 20.4769 170.513 20.5962 170.414 20.6933C170.324 20.7895 170.192 20.8454 170.017 20.861L168.776 20.7953C168.52 20.7887 168.334 20.7318 168.216 20.6247C168.108 20.5069 168.034 20.337 167.995 20.115C167.758 18.3419 167.397 16.4966 166.912 14.579C166.427 12.6613 165.829 10.7343 165.117 8.7977ZM169.725 26.4903C169.443 26.5155 169.172 26.4956 168.911 26.4306C168.661 26.3745 168.437 26.2769 168.238 26.1377C168.05 26.0075 167.893 25.845 167.768 25.6502C167.643 25.4555 167.569 25.2366 167.547 24.9934C167.511 24.5849 167.642 24.2398 167.94 23.9583C168.249 23.6759 168.675 23.5104 169.22 23.4618C169.473 23.4392 169.72 23.4661 169.962 23.5426C170.204 23.6093 170.419 23.7126 170.608 23.8526C170.806 23.9918 170.969 24.1636 171.095 24.368C171.22 24.5627 171.293 24.7719 171.313 24.9957C171.35 25.4139 171.223 25.7537 170.933 26.0149C170.653 26.285 170.251 26.4434 169.725 26.4903Z" fill="#94A3B8"/>
</svg>
