<svg width="181" height="9" viewBox="0 0 181 9" fill="none" xmlns="http://www.w3.org/2000/svg">
<path d="M41.6168 7.34951C41.5725 7.26164 41.6122 7.18493 41.7564 7.15868C42.0453 7.10604 42.3982 7.13477 42.5094 6.91292C43.1861 6.92103 43.8224 6.92866 44.4959 6.93673C44.6057 6.99749 44.7441 7.07408 44.8942 7.15701C45.0045 7.15834 45.1312 7.15986 45.252 7.1613C45.3945 7.23988 45.531 7.31521 45.6619 7.38746C45.8028 7.31429 45.9432 7.24133 46.0699 7.17559C46.2159 7.16897 46.3392 7.16339 46.4626 7.15782C46.5538 7.10498 46.6451 7.05221 46.7388 6.99809C47.0364 6.92865 47.3384 6.94917 47.6399 6.9985C47.7313 7.0543 47.8212 7.10925 47.9233 7.1717C48.4121 7.23536 48.9214 7.19118 49.4235 7.21525C49.7132 7.16572 49.8338 6.90546 50.2606 7.00295C50.3765 7.06757 50.5147 7.14456 50.6626 7.227C51.1598 7.23296 51.6714 7.23909 52.1783 7.24517C52.321 7.32554 52.4591 7.40337 52.5895 7.47685C52.8515 7.47999 53.1059 7.48303 53.3403 7.48584C53.4957 7.40564 53.6362 7.33308 53.7859 7.25576C54.1656 7.26031 54.5448 7.26485 54.9054 7.26917C55.0155 7.20555 55.1068 7.15279 55.198 7.09995C55.2518 7.08564 55.3057 7.0587 55.3597 7.05904C56.0004 7.06369 56.6411 7.07066 57.2817 7.08175C57.4018 7.08381 57.5213 7.10672 57.6409 7.12009C57.7309 7.17511 57.8208 7.23004 57.9122 7.28576C58.1535 7.34608 58.4124 7.33237 58.6563 7.31871C58.8529 7.30766 58.9625 7.20955 58.9281 7.0774C58.9071 6.99663 58.9647 6.93423 59.1174 6.88236C59.7288 6.88969 60.3655 6.89732 61.035 6.90534C61.148 6.96854 61.2861 7.04568 61.4328 7.1278C61.8033 7.13224 62.1867 7.13683 62.5646 7.14136C62.7042 7.21937 62.8392 7.29476 62.9679 7.36651C63.1137 7.29154 63.2544 7.21921 63.4046 7.14197C63.656 7.14498 63.9069 7.14799 64.1382 7.15076C64.3859 7.0075 64.6141 6.87564 64.868 6.72882C64.9952 6.79365 65.1248 6.85982 65.2807 6.93934C65.5001 6.94197 65.7525 6.94499 66.0052 6.94802C66.1496 7.02942 66.2875 7.1071 66.4321 7.18857C67.0615 7.19611 67.7015 7.20378 68.472 7.21302C68.671 7.09335 68.9353 6.93432 69.1949 6.77811C69.5603 6.78248 69.9391 6.78703 70.2972 6.79132C70.4076 6.85874 70.4975 6.91369 70.5875 6.9687C71.0157 7.04621 71.4456 7.04508 71.8767 6.98849C71.9679 6.93564 72.0591 6.88289 72.1987 6.80211C72.9122 6.80997 73.6746 6.81979 74.4665 6.8289C74.591 6.76661 74.7328 6.69594 74.8982 6.6133C75.2488 6.61751 75.6295 6.62207 76.0106 6.62664C76.1565 6.54865 76.296 6.47414 76.5055 6.3622C76.7307 6.53902 76.9616 6.72024 77.1244 6.84804C77.6385 6.8542 78.017 6.85874 78.374 6.86302C78.4869 6.79773 78.5781 6.74498 78.6688 6.69252C78.9009 6.66221 78.9198 6.81966 79.3542 6.8795C79.2603 6.87566 79.4463 6.88742 79.6324 6.89004C79.9833 6.8951 80.0017 6.88881 80.0803 6.63945C80.104 6.56426 80.1312 6.49909 80.276 6.44844C80.5097 6.45124 80.7629 6.45428 81.0412 6.45761C81.1593 6.52498 81.2968 6.60328 81.431 6.67974C81.5667 6.60659 81.7059 6.53161 81.8264 6.46672C82.232 6.47158 82.6136 6.47616 82.9803 6.48055C83.1773 6.58397 83.3007 6.73492 83.6111 6.71183C83.7365 6.70249 83.8185 6.76438 83.9228 6.81879C84.2846 7.00756 84.2826 7.00001 84.7134 6.83252C85.1374 6.66759 85.158 6.66839 85.5025 6.86811C85.5487 6.89486 85.5926 6.92297 85.6375 6.95048C85.7628 6.95608 85.888 6.96177 86.0232 6.96789C86.1573 6.89557 86.2965 6.8205 86.4395 6.74341C87.2019 6.75254 87.9704 6.76176 88.7305 6.77087C88.8749 6.6934 89.0143 6.61868 89.1333 6.55477C89.797 6.56273 90.4344 6.57037 91.0597 6.57786C91.1618 6.64015 91.2516 6.69509 91.3428 6.75066C91.7653 6.85228 92.1978 6.82188 92.6305 6.78995C92.8587 6.658 93.0867 6.52606 93.315 6.39412C93.4374 6.38714 93.5597 6.38024 93.7037 6.37212C93.8323 6.44154 93.9715 6.51674 94.119 6.59631C94.2305 6.60098 94.356 6.60628 94.4911 6.61201C94.623 6.68729 94.7604 6.76572 94.8977 6.84408C95.2799 6.84867 95.6638 6.85327 96.0375 6.85775C96.1836 6.77983 96.3231 6.70541 96.4406 6.64281C97.7471 6.65847 99.0251 6.67379 100.29 6.68895C100.676 6.92621 100.679 6.92501 101.093 6.8903C101.321 6.75835 101.549 6.6264 101.796 6.48329C101.926 6.55157 102.057 6.62048 102.207 6.69906C102.437 6.70182 102.69 6.70486 102.956 6.70804C103.216 6.5671 103.487 6.42048 103.757 6.27446C104.302 6.58205 104.336 6.58301 104.839 6.31293C105.272 6.24908 105.716 6.29748 106.157 6.29594C106.605 6.29434 107.054 6.30514 107.502 6.31051C107.951 6.31589 108.399 6.32126 108.848 6.32664C109.296 6.33202 109.745 6.34399 110.193 6.34083C110.631 6.3378 111.076 6.39566 111.504 6.31725C111.6 6.26191 111.691 6.20914 111.802 6.14499C112.161 6.1493 112.54 6.15384 112.964 6.15892C113.068 6.21597 113.207 6.29164 113.362 6.37587C113.723 6.38019 114.105 6.38477 114.482 6.3893C114.627 6.47131 114.764 6.54952 114.899 6.62591C115.926 6.63823 116.95 6.6505 117.962 6.66263C118.11 6.58428 118.25 6.51026 118.397 6.43251C119.162 6.44168 119.927 6.45085 120.658 6.4596C120.816 6.38378 120.947 6.32103 121.076 6.25964C121.192 6.33063 121.282 6.38555 121.379 6.44467C122.048 6.55127 122.754 6.42111 123.412 6.53555C123.519 6.60068 123.609 6.6556 123.718 6.72208C124.462 6.731 125.226 6.74016 126.033 6.74983C126.14 6.69477 126.28 6.62239 126.436 6.54196C126.542 6.54322 126.668 6.54473 126.785 6.54614C126.933 6.46871 127.072 6.39568 127.205 6.32567C127.338 6.39786 127.47 6.46972 127.592 6.53589C127.74 6.46582 127.87 6.40369 127.998 6.34299C128.116 6.41485 128.206 6.46979 128.31 6.5335C128.795 6.60108 129.305 6.55301 129.85 6.58069C129.965 6.63988 130.105 6.71241 130.26 6.79183C130.362 6.79894 130.485 6.80746 130.626 6.81729C130.757 6.74912 130.897 6.67625 131.051 6.59642C131.159 6.59772 131.286 6.59923 131.405 6.60066C131.551 6.52445 131.689 6.45202 131.823 6.38225C131.962 6.45916 132.1 6.53576 132.21 6.59659C132.499 6.60005 132.75 6.60307 132.97 6.60571C133.205 6.52498 133.155 6.40388 133.168 6.25758C133.332 6.18244 133.532 6.0906 133.763 5.98488C134.064 6.04428 134.183 6.28788 134.538 6.37978C134.636 6.32958 134.773 6.2596 134.904 6.19252C135.044 6.26897 135.182 6.3451 135.33 6.42606C135.581 6.42908 135.833 6.43209 136.066 6.43489C136.174 6.50081 136.264 6.55574 136.396 6.63661C136.91 6.67508 137.468 6.68023 138.002 6.65533C138.118 6.58829 138.209 6.53544 138.329 6.46666C138.455 6.53056 138.584 6.59596 138.729 6.66946C138.853 6.606 138.988 6.53718 139.122 6.46804C139.254 6.54138 139.391 6.61772 139.52 6.68931C139.783 6.69246 140.037 6.69551 140.267 6.69828C140.418 6.62344 140.551 6.55715 140.682 6.4917C140.791 6.55778 140.88 6.61272 140.972 6.66852C141.197 6.70306 141.24 6.56377 141.418 6.50887C141.533 6.56768 141.663 6.63387 141.819 6.71346C142.038 6.71609 142.29 6.71912 142.543 6.72215C142.688 6.80354 142.825 6.88122 142.97 6.96269C143.343 6.96716 143.727 6.97176 144.11 6.97636C144.249 6.90169 144.388 6.82664 144.513 6.75932C144.785 6.76258 145.038 6.76562 145.259 6.76826C145.427 6.85257 145.566 6.97986 145.715 6.98513C146.004 6.99519 146.159 7.09126 146.358 7.18555C146.579 7.29002 146.821 7.25628 147.004 7.11705C147.005 7.04422 147.006 6.96868 147.007 6.86834C147.166 6.83707 147.334 6.80398 147.651 6.74144C147.843 6.67415 148.073 6.49201 148.355 6.34327C148.61 6.34632 148.866 6.34939 149.117 6.35241C149.256 6.43188 149.394 6.51034 149.537 6.59171C149.918 6.59628 150.3 6.60085 150.671 6.6053C150.771 6.66656 150.861 6.72148 150.951 6.77641C151.36 6.91677 151.821 6.77887 152.239 6.87245C152.329 6.92739 152.419 6.98232 152.51 7.03797C152.73 7.06339 152.779 6.93069 152.965 6.86877C153.425 6.87427 153.931 6.88034 154.49 6.88704C154.589 6.9396 154.728 7.01419 154.879 7.09465C155.006 7.02782 155.141 6.95668 155.281 6.88296C155.977 6.8913 156.682 6.89975 157.387 6.9082C157.388 6.79608 157.381 6.68356 157.397 6.57223C157.401 6.54353 157.468 6.51211 157.519 6.49373C157.605 6.46237 157.733 6.4897 157.766 6.57773C157.805 6.68476 157.773 6.80077 157.771 6.9128C158.476 6.92125 159.181 6.9297 159.932 6.9387C160.002 7.06408 160.035 7.21512 160.165 7.3264C160.295 7.43746 160.444 7.56324 160.691 7.60774C160.785 7.55345 160.876 7.50068 160.982 7.43964C161.518 7.3647 162.09 7.4592 162.612 7.41997C162.757 7.26322 162.77 7.23409 162.782 7.07972C162.954 6.97321 162.957 6.97395 163.333 7.20078C163.468 7.12948 163.603 7.05803 163.742 6.98521C164.12 6.98975 164.504 6.99435 164.879 6.99885C165.022 7.07991 165.16 7.1579 165.304 7.23929C165.941 7.24693 166.579 7.25457 167.203 7.26205C167.44 7.4071 167.665 7.54446 167.894 7.68429C168.196 7.6342 168.355 7.48586 168.476 7.39626C168.56 7.24608 168.616 7.14617 168.671 7.04887C169.992 7.06471 171.272 7.08005 172.563 7.09552C172.732 7.15559 172.765 7.25401 172.776 7.37248C172.782 7.43291 172.895 7.49054 172.957 7.54653C173.096 7.47256 173.236 7.39828 173.382 7.32053C174.404 7.33278 175.426 7.34502 176.491 7.35779C176.543 7.25635 176.594 7.15546 176.686 6.97384C176.776 6.93322 176.976 6.84201 177.319 6.68617C177.19 6.71322 177.245 6.69156 177.301 6.69161C177.621 6.69204 177.942 6.69767 178.262 6.70151C178.608 6.59879 178.826 6.4089 179.118 6.2592C179.235 6.2606 179.361 6.26211 179.481 6.26355C179.559 6.20389 179.673 6.15434 179.695 6.09253C179.746 5.94932 179.637 5.7887 179.777 5.65484C179.872 5.56407 180.107 5.51845 180.09 5.39347C180.064 5.20896 180.297 5.13527 180.507 4.99715C180.169 4.83245 179.828 4.66594 179.34 4.42847C179.38 4.42894 179.192 4.42747 179.005 4.4243C178.675 4.41872 178.667 4.41838 178.577 4.1536C178.552 4.08007 178.516 4.01533 178.386 3.9637C177.885 3.9577 177.374 3.95158 176.878 3.94564C176.521 3.851 176.788 3.57181 176.463 3.48266C176.325 3.48101 176.198 3.47949 176.082 3.4781C175.887 3.55147 175.906 3.66531 175.874 3.77544C175.858 3.83251 175.727 3.91965 175.644 3.92021C175.008 3.92491 174.372 3.91179 173.792 3.90484C173.608 3.83848 173.581 3.77413 173.574 3.69361C173.554 3.46313 173.253 3.36313 172.951 3.47311C172.845 3.51167 172.766 3.57637 172.675 3.62921C172.302 3.68774 171.921 3.6418 171.507 3.65009C171.388 3.70848 171.246 3.77791 171.073 3.86224C170.731 3.85814 170.351 3.85359 169.934 3.84859C169.824 3.78799 169.686 3.71142 169.536 3.6284C169.041 3.62247 168.53 3.61635 168.013 3.61015C167.878 3.68162 167.738 3.7561 167.605 3.82704C167.472 3.82544 167.345 3.82392 167.225 3.82248C166.859 3.59895 166.499 3.37921 166.139 3.15946C166.083 3.14809 166.027 3.12743 165.97 3.12675C164.752 3.11037 163.535 3.09616 162.285 3.08118C162.162 3.14154 162.02 3.21136 161.861 3.28928C161.739 3.22327 161.607 3.15155 161.463 3.07373C161.224 3.07087 160.969 3.06781 160.709 3.0647C160.574 3.13677 160.434 3.21135 160.302 3.28153C160.168 3.27992 160.042 3.27841 159.935 3.27713C159.782 3.19323 159.643 3.11732 159.495 3.03643C159.115 3.03188 158.736 3.02733 158.376 3.02301C158.267 2.95661 158.19 2.88812 158.083 2.85073C157.984 2.8159 157.853 2.80868 157.734 2.80051C157.681 2.79685 157.592 2.81098 157.572 2.83375C157.372 3.05912 156.863 2.95652 156.636 3.14483C156.503 3.25575 156.312 3.23679 156.109 3.23561C155.98 3.163 155.842 3.08556 155.697 3.00376C155.581 3.00238 155.454 3.00085 155.331 2.99938C155.19 2.91888 155.052 2.84059 154.918 2.76444C154.786 2.75913 154.66 2.75415 154.548 2.7497C154.401 2.67006 154.262 2.59461 154.133 2.5248C153.99 2.53253 153.867 2.53913 153.745 2.54579C153.38 2.75693 153.014 2.96805 152.637 3.18648C152.397 3.1836 152.144 3.18057 151.861 3.17717C151.611 3.03167 151.338 2.87327 151.071 2.71772C150.936 2.72052 150.811 2.7232 150.7 2.72551C150.55 2.80152 150.409 2.87305 150.257 2.94996C149.878 2.94542 149.5 2.94088 149.145 2.93663C148.598 3.22811 148.572 3.2278 148.032 2.92384C147.807 2.92114 147.557 2.91815 147.307 2.91514C147.156 2.83468 147.017 2.76009 146.868 2.68051C146.758 2.67532 146.633 2.66932 146.495 2.6627C146.23 2.50872 145.958 2.35041 145.692 2.19588C145.554 2.19942 145.429 2.20264 145.304 2.20587C145.179 2.24978 145.116 2.31181 145.135 2.39084C145.165 2.52069 145.067 2.61723 144.87 2.63789C144.686 2.65715 144.526 2.66359 144.363 2.74169C143.99 2.92104 143.967 2.91688 143.582 2.731C143.475 2.67967 143.396 2.61797 143.268 2.6262C143.126 2.63542 143.012 2.62096 142.923 2.56502C142.834 2.50955 142.743 2.455 142.654 2.4007C142.462 2.45365 142.447 2.55274 142.428 2.66433C142.417 2.72674 142.305 2.78227 142.24 2.83969C141.982 2.83661 141.727 2.83354 141.473 2.8305C141.193 2.67487 140.969 2.48651 140.643 2.36544C140.445 2.35377 140.262 2.36428 140.14 2.46906C140.045 2.5496 139.955 2.57526 139.867 2.54002C139.747 2.49264 139.715 2.42591 139.747 2.33919C139.759 2.30486 139.739 2.26603 139.734 2.22924C139.689 2.20173 139.646 2.15232 139.599 2.1502C139.093 2.12801 138.586 2.11326 138.072 2.09633C137.927 2.17046 137.787 2.24271 137.629 2.32335C137.397 2.32057 137.143 2.31752 136.875 2.31431C136.749 2.24259 136.612 2.16422 136.477 2.08776C136.219 2.08466 135.963 2.08159 135.71 2.07855C135.645 2.14055 135.558 2.19607 135.524 2.26168C135.388 2.5226 135.394 2.52508 135.09 2.52593C134.902 2.52639 134.714 2.52197 134.578 2.52034C134.401 2.60478 134.271 2.66729 134.142 2.72845C134.026 2.65723 133.936 2.6023 133.844 2.5461C133.553 2.56091 133.433 2.82565 133.013 2.71638C132.781 2.58086 132.509 2.42222 132.233 2.26083C132.11 2.25936 131.983 2.25784 131.874 2.25653C131.73 2.17862 131.598 2.1073 131.459 2.03272C131.267 2.33977 130.568 2.14278 130.382 2.43673C130.011 2.51179 129.627 2.42 129.312 2.46768C128.963 2.40407 128.852 2.13794 128.44 2.22142C128.306 2.14729 128.168 2.07069 128.018 1.98776C127.907 1.98644 127.781 1.98492 127.648 1.98333C127.514 2.0548 127.374 2.12936 127.228 2.2072C125.954 2.19193 124.674 2.17659 123.414 2.16148C123.266 2.23604 123.132 2.30349 123 2.37033C122.759 2.22323 122.534 2.08593 122.309 1.94848C121.937 1.88365 121.556 1.91868 121.179 1.90254C120.842 2.01241 120.617 2.19802 120.331 2.34717C120.208 2.3457 120.081 2.34418 119.95 2.3426C119.816 2.26723 119.678 2.18939 119.531 2.10696C119.413 2.10555 119.287 2.10404 119.155 2.10245C118.973 1.92994 118.702 1.86469 118.373 1.83898C118.274 1.8312 118.196 1.73358 118.099 1.68329C118.071 1.66853 118.011 1.6751 117.966 1.67193C117.738 1.80388 117.51 1.93581 117.282 2.06776C117.157 2.07185 117.033 2.07595 116.894 2.08049C116.764 2.00701 116.626 1.92947 116.48 1.84768C116.236 1.84476 115.981 1.84169 115.733 1.83872C115.593 1.76064 115.459 1.6855 115.325 1.61058C115.09 1.7464 114.862 1.87826 114.587 2.03724C114.388 2.04075 114.141 2.04508 113.912 2.04914C113.54 1.94154 113.335 1.74118 113.039 1.58382C112.673 1.57942 112.292 1.57486 111.884 1.56996C111.765 1.63341 111.626 1.70814 111.481 1.78568C110.465 1.7735 109.44 1.76122 108.414 1.74892C108.155 1.59579 107.903 1.43678 107.648 1.28353C107.376 1.44069 107.148 1.57255 106.918 1.70519C106.581 1.6951 106.319 1.77665 106.117 1.94393C105.871 1.94098 105.618 1.93795 105.341 1.93463C105.222 1.86671 105.084 1.78836 104.943 1.70802C104.181 1.69888 103.412 1.68966 102.653 1.68056C102.512 1.75436 102.377 1.82527 102.243 1.89604C102.143 1.83509 102.053 1.78016 101.946 1.71487C101.67 1.61764 101.347 1.68033 101.039 1.6633C100.791 1.64955 100.539 1.65516 100.336 1.65272C100.2 1.56957 100.11 1.51462 100.017 1.4581C99.7497 1.43637 99.7002 1.66586 99.436 1.64053C99.1252 1.61069 99.0015 1.76039 98.8019 1.85703C98.4335 1.85261 98.0519 1.84804 97.6706 1.84347C97.5261 1.9214 97.387 1.99646 97.2438 2.07371C96.7377 2.06764 96.2254 2.0615 95.7249 2.0555C95.5829 2.12943 95.4482 2.19958 95.3111 2.27093C95.1151 2.0936 94.8461 2.01631 94.5146 2.01156C94.1536 1.79103 93.7937 1.57128 93.4283 1.34814C93.2922 1.41997 93.1558 1.49203 93.0142 1.56682C92.8936 1.56537 92.7663 1.56384 92.6516 1.56247C92.5033 1.6409 92.3636 1.71484 92.2164 1.79266C91.9639 1.78964 91.7117 1.78661 91.4742 1.78377C91.3682 1.84511 91.2768 1.89789 91.1855 1.95073C90.758 2.03527 90.3273 2.00328 89.8961 1.95363C89.6711 1.81625 89.4461 1.67888 89.2203 1.54087C88.8691 1.55805 88.6309 1.446 88.4273 1.28547C88.3058 1.28401 88.1796 1.2825 88.0457 1.2809C87.9134 1.35138 87.7733 1.42589 87.6282 1.50304C87.378 1.50004 87.1229 1.49698 86.8829 1.4941C86.7323 1.57312 86.5923 1.64661 86.4798 1.70563C86.064 1.70065 85.6836 1.69609 85.3203 1.69173C85.2144 1.62707 85.1244 1.57214 85.0345 1.51713C84.6712 1.42249 84.288 1.47811 83.8559 1.45232C83.7538 1.39964 83.6266 1.31644 83.4721 1.26042C83.3746 1.22515 83.2326 1.2133 83.1169 1.22122C82.8637 1.23856 82.7897 1.45527 82.5043 1.43589C82.2799 1.42057 82.157 1.49627 82.0237 1.57426C81.9783 1.60083 81.9324 1.62711 81.8811 1.65672C80.9913 1.64605 80.0959 1.63532 79.194 1.62451C79.0636 1.55243 78.9269 1.47686 78.7902 1.40121C78.6988 1.45397 78.6107 1.50871 78.5149 1.55855C78.4787 1.57742 78.4256 1.58484 78.38 1.59739C78.1552 1.46001 77.9302 1.32271 77.703 1.18399C77.3296 1.25011 77.2052 1.49179 76.7473 1.59611C76.6293 1.5947 76.3743 1.59164 76.1283 1.58869C75.7828 1.67615 76.0437 1.96174 75.714 2.039C75.5703 2.03727 75.4441 2.03576 75.3229 2.03431C75.1199 1.87271 74.8799 1.76281 74.5297 1.77868C74.3038 1.64075 74.0788 1.50338 73.8282 1.35035C73.6049 1.34767 73.3558 1.34468 73.0457 1.34097C72.9519 1.38742 72.81 1.45763 72.6537 1.53518C72.5305 1.46784 72.3976 1.39526 72.2644 1.32237C72.1311 1.39338 71.9924 1.4672 71.8654 1.53472C71.5981 1.53152 71.3443 1.52848 71.1131 1.52571C70.957 1.44107 70.8179 1.36572 70.689 1.2959C70.5456 1.30364 70.4231 1.31031 70.3004 1.31697C70.2092 1.36981 70.1179 1.42256 69.9795 1.50258C69.7815 1.5061 69.5346 1.51051 69.2255 1.51595C69.1252 1.56271 68.9818 1.6298 68.7679 1.72953C68.2136 1.72924 67.5789 1.71419 66.918 1.71053C66.7921 1.64377 66.6523 1.56972 66.489 1.48322C66.1381 1.47902 65.7574 1.47445 65.3761 1.46988C65.2321 1.38842 65.0945 1.31051 64.951 1.22936C64.8328 1.22794 64.705 1.22641 64.5807 1.22492C64.4403 1.30065 64.3012 1.37571 64.1683 1.44735C64.0317 1.45013 63.9063 1.45266 63.7809 1.45519C63.7352 1.48161 63.6912 1.50914 63.6438 1.53422C63.2985 1.71591 63.1983 1.71548 62.8514 1.55401C62.4683 1.37576 62.4085 1.37503 62.0597 1.54327C62.0105 1.56701 61.9679 1.59565 61.899 1.6355C61.2883 1.62819 60.6538 1.62058 59.9658 1.61233C59.8676 1.55993 59.7279 1.48534 59.5791 1.40591C59.4696 1.40057 59.3447 1.39449 59.2065 1.3878C59.0766 1.31371 58.9393 1.23536 58.7981 1.15485C58.6771 1.1534 58.549 1.15187 58.2894 1.14876C58.0858 1.26651 57.8163 1.42236 57.5383 1.58316C57.3307 1.58067 57.0807 1.57768 56.8541 1.57496C56.7411 1.50596 56.6512 1.45102 56.5187 1.37015C56.3159 1.36207 56.0687 1.35228 55.7912 1.34128C55.6604 1.40334 55.5172 1.47122 55.3488 1.55104C55.2322 1.49028 55.1016 1.42214 54.9501 1.34329C54.4671 1.3375 53.9571 1.33139 53.4517 1.32533C53.1771 1.16737 52.9097 1.01353 52.6426 0.859912C52.2637 1.07901 51.8987 1.29006 51.5137 1.51281C51.0266 1.50697 50.5195 1.50089 49.9359 1.4939C49.5922 1.28426 49.2003 1.04516 48.8094 0.806759C48.552 0.955559 48.3239 1.08749 48.089 1.22331C47.8775 1.27247 47.5934 1.22451 47.4362 1.37273C47.317 1.48513 47.1205 1.47464 46.9086 1.46877C46.783 1.39993 46.6442 1.32387 46.4914 1.24013C45.3593 1.22656 44.2078 1.21276 43.049 1.19887C42.9165 1.26935 42.7764 1.34392 42.6411 1.41592C42.3813 1.41281 42.1263 1.40975 41.8857 1.40687C41.7374 1.32434 41.5992 1.24743 41.4877 1.18542C40.56 1.1743 39.667 1.16359 38.7903 1.15309C38.6832 1.21496 38.592 1.26773 38.5007 1.32057C38.4476 1.33605 38.3949 1.36471 38.3415 1.36484C38.0213 1.36534 37.7006 1.36445 37.3806 1.35402C37.0677 1.34376 36.7493 1.37854 36.4477 1.31533C36.3972 1.28451 36.3555 1.25486 36.3067 1.22987C36.0242 1.08475 35.8565 1.05385 35.6576 1.15623C35.4633 1.25619 35.2954 1.33485 35.0087 1.33901C34.8602 1.34118 34.7196 1.46767 34.5575 1.54663C34.2001 1.54235 33.8173 1.53776 33.4276 1.53309C33.2961 1.45898 33.158 1.38107 33.0256 1.3064C32.5087 1.30021 31.9975 1.29408 31.5028 1.28815C31.3508 1.36754 31.2106 1.44072 31.0996 1.49868C30.6822 1.49367 30.3025 1.48912 29.9395 1.48477C29.8327 1.41956 29.7428 1.36461 29.6074 1.28193C29.0968 1.24373 28.5387 1.23905 28.0261 1.2622C27.843 1.31759 27.7972 1.38215 27.8412 1.46993C27.8853 1.55764 27.8423 1.62663 27.7015 1.66159C27.6174 1.68244 27.5241 1.64118 27.4307 1.56559C27.3929 1.53499 27.342 1.51012 27.2807 1.47273C26.533 1.46377 25.7685 1.45461 25.0035 1.44544C24.8573 1.36441 24.7189 1.28767 24.5695 1.20482C24.4587 1.2035 24.3319 1.20198 24.1996 1.20039C24.067 1.2694 23.9287 1.34136 23.7962 1.41029C23.6571 1.33384 23.5183 1.25769 23.4108 1.19867C22.4781 1.18749 21.5858 1.1768 20.6976 1.16615C20.5406 1.44441 19.9705 1.28523 19.7646 1.48982C19.5861 1.66723 19.1271 1.51255 18.9792 1.75922C18.9768 1.95455 18.9741 2.18095 18.9716 2.38953C18.8284 2.48546 18.7055 2.5676 18.5969 2.64015C18.5953 2.77148 18.5939 2.88577 18.5921 3.03438C18.5078 3.09761 18.395 3.18197 18.2526 3.28852C18.1465 3.4785 18.2227 3.70607 18.1968 3.93002C18.3321 4.10399 18.5757 4.21983 18.823 4.33337C18.9468 4.32719 19.0696 4.32098 19.1925 4.3147C19.2837 4.26186 19.3749 4.2091 19.4685 4.15504C19.7673 4.09012 20.069 4.10506 20.3697 4.15888C20.4612 4.21477 20.5512 4.26969 20.6412 4.32471C21.0144 4.3856 21.3958 4.35327 21.7731 4.36849C22.1034 4.48954 22.3264 4.67859 22.6096 4.83573C22.7318 4.8372 22.8613 4.83138 22.986 4.8438C23.0372 4.84891 23.0935 4.88888 23.1205 4.9209C23.1663 4.97523 23.1104 5.03896 22.9629 5.06493C22.8467 5.08539 22.7134 5.07286 22.6015 5.07477C22.4523 5.15087 22.3115 5.2228 22.2076 5.27587C21.9096 5.2723 21.6589 5.2693 21.4292 5.26654C21.3186 5.19904 21.2287 5.14411 21.1373 5.08831C20.9152 5.0586 20.8693 5.19436 20.6782 5.25561C20.4795 5.25323 20.2301 5.25024 19.924 5.24657C19.8277 5.19544 19.6879 5.12114 19.5359 5.04043C19.4098 5.10642 19.2749 5.17703 19.1336 5.25089C18.8881 5.24795 18.632 5.24488 18.3743 5.24179C18.0523 5.14595 18.3226 4.86587 17.9641 4.78013C17.8389 4.78281 17.7137 4.78549 17.5899 4.78819C17.4028 4.87987 17.2771 5.02924 16.967 4.99856C16.8413 4.98612 16.76 5.04894 16.6519 5.09685C16.2487 5.27559 16.2337 5.27332 15.8684 5.08823C15.7632 5.03497 15.6808 4.99198 15.5567 4.97739C15.3739 4.95591 15.147 5.00837 15.1129 5.11862C15.0793 5.22648 15.1261 5.3459 14.9105 5.42282C14.6787 5.42004 14.4254 5.41701 14.1487 5.41369C14.0292 5.34554 13.8919 5.26711 13.7517 5.18716C13.6295 5.1857 13.5014 5.18416 13.3734 5.18278C13.1452 5.31488 12.917 5.44676 12.689 5.57871C12.6369 5.59559 12.585 5.62736 12.5328 5.62705C12.0267 5.62485 11.5206 5.61724 11.1224 5.61247C10.8792 5.50703 10.7322 5.39174 10.58 5.38813C10.2799 5.38089 10.13 5.27292 9.94025 5.15557C9.77009 5.14896 9.58356 5.1375 9.39678 5.13549C9.04867 5.13179 9.04062 5.13496 8.95428 5.38965C8.92912 5.46382 8.89812 5.52862 8.75853 5.5784C8.26414 5.57248 7.75421 5.56636 7.24515 5.56026C7.10052 5.63819 6.96135 5.71322 6.82199 5.78843C6.69647 5.78692 6.56867 5.78539 6.45344 5.78401C6.31278 5.70661 6.17993 5.6335 6.0566 5.56569C5.91119 5.63563 5.77983 5.69877 5.6511 5.76077C5.53601 5.6905 5.44606 5.63556 5.35454 5.5796C5.08934 5.56325 5.03808 5.78983 4.77038 5.76376C4.45821 5.73328 4.33902 5.8874 4.14481 5.97845C4.01161 5.90409 3.87684 5.82868 3.74433 5.75472C3.10312 5.74703 2.46331 5.73936 1.83641 5.73185C1.68776 5.81043 1.54788 5.88431 1.41891 5.95251C1.27655 5.95755 1.15256 5.96203 1.02837 5.96643C0.845861 6.07203 0.66337 6.17757 0.479112 6.28408C0.477302 6.43509 0.475479 6.58719 0.473674 6.73773C0.602208 6.8218 0.73041 6.90547 0.863472 6.99238C0.861671 7.1427 0.859864 7.29342 0.85817 7.43474C0.943932 7.51869 1.04776 7.55216 1.17958 7.55111C1.30758 7.55009 1.4359 7.55293 1.56404 7.55532C1.89605 7.56147 1.90439 7.56182 1.99308 7.82535C2.01787 7.89903 2.05272 7.96385 2.18445 8.01572C2.42816 8.01864 2.68249 8.02169 2.94558 8.02484C3.21395 7.87764 3.49043 7.72612 3.75634 7.58022C3.90097 7.58947 4.02452 7.59737 4.14803 7.60544C4.37302 7.74289 4.59782 7.8802 4.85245 8.03568C4.97941 7.97583 5.10952 7.91446 5.27124 7.83814C5.61254 7.84223 5.99238 7.84678 6.37262 7.85134C6.52108 7.77376 6.66131 7.70049 6.80203 7.62701C6.93369 7.69988 7.07037 7.77562 7.2138 7.85499C8.487 7.87025 9.76697 7.88559 11.0407 7.90085C11.1367 7.95943 11.2266 8.01443 11.3166 8.06929C11.3667 8.0898 11.4158 8.12728 11.4664 8.12835C11.974 8.1387 12.4821 8.14317 12.9772 8.14911C13.1737 7.83359 13.8743 8.03136 14.0589 7.73739C14.1156 7.72723 14.1722 7.70769 14.2289 7.70829C15.8308 7.72579 17.4328 7.74537 19.0347 7.76457C19.3726 7.65548 19.5964 7.46947 19.8837 7.32017C20.1335 7.32317 20.3885 7.32623 20.6486 7.32934C20.782 7.4044 20.9202 7.48231 21.0661 7.56442C21.1846 7.56584 21.3108 7.56736 21.4177 7.56864C21.5705 7.65238 21.7093 7.72845 21.8159 7.78684C22.1089 7.79035 22.3601 7.79336 22.591 7.79613C23.1412 7.50337 23.1704 7.50348 23.6756 7.78898C23.7752 7.80086 23.8855 7.77017 23.9143 7.68504C23.9505 7.57869 23.8884 7.45629 24.116 7.37696C24.4686 7.38118 24.849 7.38574 25.2663 7.39074C25.512 7.53364 25.7842 7.69188 26.0451 7.84371C27.5945 7.86228 29.13 7.88069 30.6574 7.899C30.8937 7.76234 31.1219 7.63041 31.3982 7.47067C31.5948 7.46706 31.8417 7.4625 32.1142 7.45748C32.4473 7.37189 32.6549 7.17536 32.956 7.02499C33.1929 7.02783 33.4455 7.03086 33.7275 7.03424C33.8428 7.09932 33.9805 7.17707 34.125 7.25847C34.4985 7.26294 34.8825 7.26754 35.2606 7.27208C35.4019 7.35274 35.5393 7.43111 35.6818 7.51248C36.0625 7.51704 36.4443 7.52162 36.8026 7.52591C36.9597 7.61079 37.0989 7.68599 37.2009 7.74114C37.4996 7.74472 37.7501 7.74773 37.9817 7.7505C38.1775 7.63607 38.3296 7.53151 38.6299 7.53154C38.7821 7.53159 38.9322 7.41993 39.1445 7.3339C39.3195 7.33599 39.5691 7.33899 39.8741 7.34264C39.9709 7.39409 40.1107 7.46846 40.2728 7.55464C40.4969 7.55733 40.7497 7.56036 41.0297 7.56371C41.1473 7.49925 41.2797 7.41924 41.4271 7.35072C41.4666 7.33244 41.5523 7.34897 41.6168 7.34951ZM61.0786 4.15472C60.9028 4.04738 60.7283 3.94083 60.5473 3.83033C60.6076 3.78471 60.662 3.70284 60.7305 3.69901C60.9754 3.68552 61.2565 3.6568 61.4584 3.71191C61.7142 3.7817 61.722 3.94631 61.5838 4.08561C61.464 4.20646 61.2514 4.14207 61.0786 4.15472ZM48.3907 3.77405C48.1176 3.61904 48.1173 3.46739 48.3915 3.31794C48.4352 3.34318 48.4789 3.36788 48.5216 3.39319C48.5654 3.41921 48.6172 3.44253 48.6496 3.47299C48.7325 3.55093 48.9833 3.58649 48.8876 3.70584C48.7892 3.82873 48.5625 3.76177 48.3907 3.77405ZM62.4261 3.93755C62.4266 3.90074 62.41 3.85955 62.4322 3.82844C62.4544 3.79732 62.5088 3.76875 62.561 3.75249C62.6462 3.726 62.7418 3.75821 62.8077 3.84075C62.8316 3.87079 62.7985 3.91496 62.8127 3.94969C62.848 4.03559 62.8099 4.09869 62.6764 4.13638C62.5446 4.1737 62.4265 4.07936 62.4261 3.93755ZM27.0938 5.04191C27.0517 4.99057 27.0925 4.93743 27.2276 4.89519C27.2425 4.89056 27.318 4.93951 27.3491 4.96956C27.3992 5.01805 27.3525 5.07329 27.2174 5.11553C27.2024 5.12016 27.1361 5.06784 27.0938 5.04191Z" fill="#4F46E5"/>
</svg>
