<svg width="28" height="28" viewBox="0 0 28 28" fill="none" xmlns="http://www.w3.org/2000/svg">
<path fill-rule="evenodd" clip-rule="evenodd" d="M5.72522 10.162C8.40394 10.162 10.5754 8.01005 10.5754 5.35545C10.5754 5.18663 10.5667 5.01985 10.5495 4.85553L10.5499 4.85557C10.5476 4.83087 10.5464 4.80585 10.5464 4.78055C10.5464 4.33665 10.9095 3.9768 11.3575 3.9768L11.3675 3.97682H14.2505L14.256 3.9768L14.2615 3.97682H14.2693C14.7111 3.98381 15.0671 4.34102 15.0671 4.78055C15.0671 4.94808 15.0154 5.10363 14.9269 5.23239C14.924 5.23663 14.921 5.24085 14.918 5.24504L4.82286 19.5143L4.82499 19.516C4.0971 20.3567 3.6573 21.4496 3.6573 22.6442C3.6573 25.2988 5.8288 27.4508 8.50752 27.4508C10.2064 27.4508 11.7012 26.5852 12.5675 25.2749L24.6432 8.24207C25.2533 7.43828 25.6149 6.43871 25.6149 5.35545C25.6149 2.71328 23.4637 0.568897 20.8023 0.548871C20.7939 0.548807 20.7856 0.548828 20.7772 0.548849C20.7731 0.54886 20.7689 0.548871 20.7647 0.548871H5.76282C5.75448 0.548807 5.74613 0.548828 5.73778 0.548849C5.7336 0.54886 5.72941 0.548871 5.72522 0.548871C3.0465 0.548871 0.875 2.70085 0.875 5.35545C0.875 8.01005 3.0465 10.162 5.72522 10.162ZM22.0426 27.4507H14.1231L20.9385 17.8376H22.0426C22.0506 17.8376 22.0585 17.8375 22.0665 17.8375C22.0703 17.8375 22.0741 17.8375 22.078 17.8376C24.7404 17.8564 26.8929 20.0012 26.8929 22.6441C26.8929 25.2871 24.7404 27.4319 22.078 27.4507C22.0701 27.4508 22.0623 27.4508 22.0544 27.4507C22.0505 27.4507 22.0466 27.4507 22.0426 27.4507ZM6.31315 27.4507L6.28701 27.431V27.4507H6.31315Z" fill="#4F46E5"/>
</svg>
