<svg width="24" height="24" viewBox="0 0 24 24" fill="none" xmlns="http://www.w3.org/2000/svg">
<path d="M12 22.9565C18.0511 22.9565 22.9565 18.0511 22.9565 12C22.9565 5.94886 18.0511 1.04346 12 1.04346C5.94886 1.04346 1.04346 5.94886 1.04346 12C1.04346 18.0511 5.94886 22.9565 12 22.9565Z" stroke="#334155" stroke-width="2.08696"/>
<path d="M8.86963 8.66067C8.86963 8.08437 9.33681 7.61719 9.91311 7.61719C10.1087 7.61719 10.3003 7.67215 10.4661 7.7758L15.8017 11.1105C16.2904 11.4159 16.4389 12.0597 16.1335 12.5484C16.0495 12.6828 15.936 12.7963 15.8017 12.8802L10.4661 16.2149C10.3003 16.3186 10.1087 16.3735 9.91311 16.3735C9.37797 16.3735 8.93693 15.9707 8.87665 15.4518L8.86963 15.3301V8.66067Z" fill="#334155" stroke="#334155" stroke-width="1.04348"/>
</svg>
