<svg width="131" height="169" viewBox="0 0 131 169" fill="none" xmlns="http://www.w3.org/2000/svg">
<path d="M77.7108 55.3572C77.0582 53.6353 76.4977 51.8833 75.7334 50.213C74.6943 47.9372 74.2434 45.0838 73.7754 42.6363C72.8221 37.6402 72.6332 32.2556 74.939 27.5816C75.1301 27.1973 75.3449 26.8108 75.6755 26.536C76.6245 25.7459 78.2519 26.4287 79.1085 27.0792C80.1863 27.8972 80.7295 29.3507 81.131 30.5874C82.6575 35.3 83.1749 40.2767 84.4202 45.071C85.5388 49.3778 87.237 53.5129 88.4823 57.7854C88.6454 58.3415 88.8 58.934 88.6583 59.4966C88.4222 60.4262 86.7325 61.373 85.9531 61.8368C84.9934 62.4057 83.6344 63.0455 82.533 62.483C80.8197 61.6049 79.9072 60.0397 79.0441 58.3973C78.5245 57.4075 78.1016 56.3877 77.7108 55.3572Z" fill="#F78A74"/>
<path d="M83.9654 46.8913C81.8677 47.1597 79.7787 47.4882 77.709 47.9197C76.5905 48.1537 75.4697 48.5445 74.3361 48.6346C74.2609 48.6411 74.1794 48.6454 74.1193 48.5981C74.0635 48.5552 74.042 48.4801 74.027 48.4114C73.3421 45.5494 72.7431 42.6381 72.6486 39.6881C72.6014 38.2282 72.6485 36.7167 72.947 35.2804C73.2089 34.0094 73.3163 32.6954 73.6019 31.4137C73.8788 30.1748 74.2223 28.8759 74.6389 27.68C74.8256 27.1433 75.124 26.6473 75.5126 26.2308C75.6629 26.0698 75.8326 25.9174 76.0408 25.8422C76.2942 25.7499 76.5754 25.7821 76.8416 25.8293C77.6102 25.9668 78.3574 26.2158 79.0552 26.5679C80.0728 27.0832 80.6268 28.0429 80.9768 29.0906C81.8935 31.8388 82.6385 34.6535 83.2504 37.4853C83.6605 39.3833 84.0705 41.2812 84.4505 43.1856C84.6373 44.1217 84.8005 45.0642 84.9894 46.0003C85.0582 46.3395 85.2664 46.6658 84.8756 46.8677C84.6116 47.0051 84.2445 46.8548 83.9654 46.8913Z" fill="#4B9EA7"/>
<path d="M81.0772 61.0586C81.2253 61.4043 81.3992 61.7457 81.6526 62.0248C82.7433 63.2335 84.5961 62.7612 85.9294 62.3168C91.2153 60.5541 96.2907 58.2182 101.351 55.8865C102.624 55.3004 103.9 54.7121 105.143 54.0616C106.315 53.4497 107.462 52.7777 108.499 51.9576C108.662 51.8287 108.829 51.6849 108.902 51.4895C108.971 51.3049 108.943 51.0988 108.911 50.9055C108.803 50.2722 108.477 48.1896 107.818 48.0007C107.464 47.8997 106.575 48.327 106.216 48.4301C105.699 48.5782 105.186 48.7349 104.668 48.8831C100.228 50.1476 95.7368 51.234 91.2088 52.1379C89.3173 52.5158 87.4065 52.8657 85.5987 53.5399C84.171 54.0702 82.6466 54.7486 81.6654 55.9617C80.5232 57.3723 80.3773 59.4248 81.0772 61.0586Z" fill="#F78A74"/>
<path d="M84.9044 53.1028C85.4605 52.9331 86.0402 52.8537 86.622 52.8666C86.6736 52.8687 86.7874 52.8838 86.7874 52.9568C86.7874 53.0276 86.6736 53.0491 86.622 53.0469C84.6683 53.0019 82.8541 54.1419 82.0103 55.9003C81.7806 56.3812 81.626 56.8943 81.5551 57.4225C81.5379 57.5513 81.2095 57.5406 81.2267 57.4225C81.4993 55.3979 82.9507 53.6975 84.9044 53.1028Z" fill="#DB6357"/>
<path d="M43.1238 159.147C43.1109 159.102 43.0916 159.061 43.0658 159.021C42.9284 158.808 42.645 158.754 42.3938 158.726C41.1357 158.585 39.8669 158.546 38.6023 158.613C38.4262 158.621 38.2373 158.638 38.0977 158.746C37.8916 158.907 37.868 159.203 37.8616 159.463C37.8508 159.901 37.7585 165.412 37.6704 165.412C37.6576 165.627 37.6469 165.846 37.7027 166.052C37.8573 166.621 38.4584 166.932 39.0037 167.153C39.6714 167.424 40.3606 167.667 41.0799 167.714C42.5055 167.808 44.3798 166.469 44.0449 164.865C43.9676 164.495 43.7851 164.161 43.6456 163.808C43.1024 162.439 43.2441 160.912 43.1646 159.441C43.1603 159.347 43.1539 159.244 43.1238 159.147Z" fill="#F7967C"/>
<path d="M52.0496 168.82C52.0346 168.844 52.0174 168.861 52.0002 168.882L36.5934 168.949C36.5805 168.837 36.5676 168.726 36.559 168.614C36.5376 168.363 36.5311 168.111 36.5354 167.858C36.5569 166.903 36.7845 165.964 37.2654 165.114C37.3685 164.932 37.5058 164.739 37.7163 164.691C37.946 164.642 38.1672 164.788 38.369 164.908C39.1333 165.359 40.2519 165.597 41.0999 165.273C41.6539 165.061 42.1305 164.689 42.517 164.251C42.6844 164.06 42.8497 163.856 43.0687 163.719C43.307 163.568 43.5861 163.549 43.8567 163.611C44.621 163.785 45.2994 164.429 45.98 164.803C46.7594 165.232 47.5753 165.602 48.4126 165.909C49.119 166.168 49.8446 166.383 50.5209 166.712C50.9417 166.918 51.646 167.309 51.9938 167.792C52.2171 168.103 52.2943 168.455 52.0496 168.82Z" fill="#4B9EA7"/>
<path d="M52.0485 168.823C52.0335 168.847 52.0163 168.864 51.9991 168.886L36.5923 168.952C36.5794 168.841 36.5665 168.729 36.5579 168.617C36.5365 168.366 36.53 168.115 36.5343 167.861L51.9927 167.795C52.216 168.106 52.2932 168.458 52.0485 168.823Z" fill="#D9E3F9"/>
<path d="M48.5584 166.482C48.4854 166.313 48.2599 166.259 48.1032 166.197C47.2165 165.84 46.3577 165.413 45.5354 164.93C45.0717 164.655 44.6186 164.361 44.1806 164.05C44.1119 164 44.0153 163.988 43.9338 164.015C43.8844 164.033 43.7985 164.097 43.8694 164.149C44.7024 164.741 45.5784 165.271 46.4973 165.729C46.946 165.952 47.4054 166.158 47.8713 166.345C47.9636 166.384 48.1161 166.411 48.1848 166.491C48.2663 166.585 48.1848 166.721 48.1311 166.809C48.0431 166.953 47.5557 167.476 47.6802 167.659C47.8735 167.942 48.1912 167.395 48.2406 167.281C48.2878 167.176 48.3415 167.075 48.4038 166.978C48.4918 166.839 48.6335 166.656 48.5584 166.482Z" fill="#2F7A84"/>
<path d="M39.4613 167.594C39.2444 166.559 38.727 165.54 37.7673 164.983C37.6965 164.943 37.5805 164.943 37.5097 164.986C37.4453 165.024 37.4453 165.084 37.5097 165.123C38.4071 165.643 38.8945 166.63 39.0963 167.598C39.1263 167.734 39.4849 167.714 39.4613 167.594Z" fill="#2F7A84"/>
<path d="M45.4264 164.139C45.3813 164.126 45.3319 164.122 45.2868 164.13C45.2503 164.137 45.2053 164.148 45.1795 164.176C44.9884 164.375 44.7952 164.577 44.6041 164.777C44.5483 164.835 44.6084 164.89 44.6707 164.91C44.7158 164.923 44.7652 164.927 44.8102 164.918C44.8467 164.912 44.8918 164.901 44.9176 164.873C45.1087 164.674 45.3019 164.472 45.493 164.272C45.5467 164.212 45.4887 164.156 45.4264 164.139Z" fill="#D9E3F9"/>
<path d="M46.2323 164.621C46.1571 164.599 46.0455 164.599 45.9854 164.657C45.8007 164.833 45.629 165.02 45.4722 165.217C45.4529 165.241 45.44 165.263 45.4551 165.293C45.4701 165.32 45.5087 165.342 45.5388 165.351C45.5839 165.363 45.6333 165.368 45.6784 165.359C45.7127 165.353 45.7642 165.342 45.7857 165.314C45.9446 165.117 46.1142 164.928 46.2988 164.754C46.3568 164.698 46.2924 164.638 46.2323 164.621Z" fill="#D9E3F9"/>
<path d="M47.197 165.111C47.1842 165.083 47.1434 165.062 47.1133 165.053C47.0682 165.04 47.0188 165.036 46.9737 165.045C46.9394 165.051 46.8879 165.062 46.8664 165.09C46.729 165.263 46.5937 165.437 46.4563 165.611C46.437 165.635 46.4241 165.656 46.4392 165.686C46.452 165.714 46.4928 165.736 46.5229 165.744C46.568 165.757 46.6174 165.762 46.6625 165.753C46.6968 165.747 46.7483 165.736 46.7698 165.708C46.9072 165.534 47.0425 165.36 47.1799 165.186C47.1992 165.163 47.2121 165.141 47.197 165.111Z" fill="#D9E3F9"/>
<path d="M48.1369 165.439C48.0596 165.417 47.9523 165.417 47.8879 165.475C47.6839 165.66 47.5079 165.875 47.3662 166.109C47.3512 166.135 47.3662 166.165 47.3855 166.184C47.4113 166.21 47.4585 166.225 47.495 166.229C47.568 166.238 47.6754 166.229 47.7183 166.16C47.7505 166.105 47.787 166.051 47.8235 165.999C47.8428 165.974 47.8621 165.948 47.8815 165.922C47.8815 165.922 47.8879 165.913 47.8922 165.909C47.8943 165.905 47.9029 165.894 47.9029 165.894C47.9137 165.881 47.9244 165.868 47.933 165.855C48.0167 165.755 48.1069 165.66 48.2035 165.572C48.2615 165.518 48.1949 165.456 48.1369 165.439Z" fill="#D9E3F9"/>
<path d="M51.4046 66.8026C51.3938 67.2642 51.3788 67.7258 51.3595 68.1874C51.3444 68.5524 51.3294 68.9153 51.3122 69.2781C51.3058 69.4284 51.2993 69.5744 51.2929 69.7225C51.1254 73.6579 50.9408 77.5934 50.7541 81.5245C50.7326 81.9732 50.7132 82.4176 50.6896 82.8621C50.681 83.0274 50.6724 83.1906 50.666 83.3559C50.6574 83.504 50.6509 83.6522 50.6445 83.8003C50.6145 84.438 50.5844 85.0735 50.5544 85.7133C50.5479 85.8249 50.5436 85.9344 50.5372 86.0461C50.5157 86.4712 50.4964 86.8984 50.4749 87.3235C50.3547 89.7947 50.2323 92.2616 50.1099 94.7306C50.1013 94.8745 50.0949 95.0183 50.0884 95.1643C50.0391 96.1648 49.9876 97.1631 49.9382 98.1615C49.9167 98.6059 49.8952 99.0525 49.8716 99.4991C49.7836 101.29 49.6934 103.082 49.6054 104.875C49.5839 105.294 49.5646 105.712 49.5431 106.131C49.5345 106.279 49.5281 106.425 49.5217 106.576C49.483 107.351 49.4444 108.126 49.4057 108.901C49.3971 109.072 49.3885 109.244 49.38 109.416C49.3155 110.717 49.2533 112.016 49.191 113.315C49.1674 113.759 49.1481 114.208 49.1245 114.653C49.0794 115.569 49.0386 116.488 48.9957 117.405C48.9914 117.502 48.9871 117.596 48.9828 117.693C48.9806 117.744 48.9785 117.798 48.9763 117.849C48.796 121.849 48.6414 125.847 48.504 129.84C48.4976 129.991 48.4932 130.139 48.4889 130.287C48.3537 134.242 48.2378 138.196 48.1347 142.155C48.1326 142.304 48.1261 142.45 48.124 142.6C48.0209 147.69 47.7203 152.899 47.4563 158.03C47.3833 159.49 47.3124 160.95 47.2501 162.41H34.6366C34.4906 156.012 34.336 149.614 34.1686 143.216C33.8787 132.271 33.3763 121.33 32.9577 110.389C32.6034 101.118 32.3071 91.8429 32.2513 82.5615C32.2191 77.2026 32.5111 71.9489 33.2947 66.6394C33.941 62.266 34.89 57.7917 37.417 54.1633C38.0482 53.2573 38.7846 52.4028 39.7013 51.7866C41.6959 50.4447 44.3946 50.3932 46.5996 51.3486C52.7078 53.9915 51.469 60.8748 51.4153 66.4569C51.411 66.5772 51.4088 66.691 51.4046 66.8026Z" fill="#A9CCFF"/>
<path d="M63.7402 159.148C63.7273 159.103 63.708 159.062 63.6823 159.022C63.5449 158.809 63.2614 158.755 63.0081 158.727C61.7499 158.586 60.4811 158.547 59.2165 158.614C59.0405 158.622 58.8515 158.639 58.712 158.747C58.5059 158.908 58.4822 159.204 58.4758 159.464C58.4651 159.902 58.3728 165.413 58.2847 165.413C58.2718 165.628 58.2611 165.847 58.3169 166.053C58.4715 166.622 59.0705 166.933 59.618 167.154C60.2857 167.425 60.9749 167.668 61.692 167.715C63.1176 167.809 64.9919 166.47 64.657 164.866C64.5797 164.496 64.3972 164.161 64.2598 163.809C63.7166 162.44 63.8561 160.913 63.7789 159.442C63.7789 159.348 63.7703 159.245 63.7402 159.148Z" fill="#F7967C"/>
<path d="M72.6675 168.819C72.6525 168.843 72.6353 168.86 72.6181 168.881L57.2113 168.948C57.1985 168.836 57.1856 168.725 57.177 168.613C57.1555 168.362 57.1491 168.111 57.1534 167.857C57.1748 166.902 57.4025 165.964 57.8834 165.113C57.9864 164.931 58.1238 164.738 58.3342 164.69C58.564 164.641 58.7851 164.787 58.9869 164.907C59.7512 165.358 60.8698 165.596 61.7179 165.272C62.2718 165.06 62.7484 164.688 63.1349 164.25C63.3023 164.059 63.4676 163.855 63.6866 163.718C63.925 163.567 64.2019 163.548 64.4746 163.61C65.2389 163.784 65.9174 164.428 66.598 164.802C67.3773 165.231 68.1932 165.601 69.0305 165.908C69.7369 166.168 70.4625 166.382 71.1388 166.711C71.5597 166.917 72.2639 167.308 72.6117 167.791C72.835 168.102 72.9123 168.454 72.6675 168.819Z" fill="#4B9EA7"/>
<path d="M72.6665 168.817C72.6515 168.841 72.6343 168.858 72.6171 168.88L57.2104 168.946C57.1975 168.835 57.1846 168.723 57.176 168.611C57.1546 168.36 57.1481 168.109 57.1524 167.856L72.6107 167.789C72.834 168.1 72.9113 168.452 72.6665 168.817Z" fill="#D9E3F9"/>
<path d="M69.1775 166.482C69.1045 166.313 68.879 166.259 68.7223 166.197C67.8356 165.84 66.9768 165.413 66.1545 164.93C65.6886 164.655 65.2377 164.361 64.7997 164.05C64.731 164 64.6344 163.988 64.5507 164.015C64.5013 164.033 64.4154 164.097 64.4863 164.149C65.3193 164.741 66.1953 165.271 67.1142 165.729C67.5629 165.952 68.0223 166.158 68.4882 166.345C68.5806 166.384 68.7331 166.411 68.8018 166.491C68.8833 166.585 68.8017 166.721 68.7502 166.809C68.6622 166.953 68.1748 167.476 68.2993 167.659C68.4926 167.942 68.8103 167.395 68.8597 167.281C68.9069 167.176 68.9606 167.075 69.0229 166.978C69.1088 166.839 69.2526 166.656 69.1775 166.482Z" fill="#2F7A84"/>
<path d="M60.0789 167.601C59.862 166.566 59.3446 165.546 58.3849 164.99C58.3141 164.95 58.1981 164.949 58.1273 164.992C58.0607 165.031 58.0607 165.091 58.1273 165.13C59.0247 165.649 59.5121 166.637 59.7139 167.605C59.7461 167.741 60.1046 167.721 60.0789 167.601Z" fill="#2F7A84"/>
<path d="M66.0461 164.139C66.001 164.126 65.9516 164.122 65.9065 164.13C65.87 164.137 65.8249 164.148 65.7991 164.176C65.6081 164.375 65.4149 164.577 65.2238 164.777C65.1701 164.835 65.228 164.89 65.2903 164.91C65.3354 164.923 65.3848 164.927 65.4299 164.918C65.4664 164.912 65.5115 164.901 65.5373 164.873C65.7283 164.674 65.9194 164.472 66.1126 164.272C66.1663 164.212 66.1084 164.156 66.0461 164.139Z" fill="#D9E3F9"/>
<path d="M66.8524 164.622C66.7773 164.6 66.6657 164.6 66.6056 164.658C66.4209 164.834 66.2491 165.021 66.0924 165.218C66.0731 165.242 66.0602 165.263 66.0752 165.294C66.0881 165.321 66.1289 165.343 66.159 165.352C66.2041 165.364 66.2534 165.369 66.2985 165.36C66.3329 165.354 66.3844 165.343 66.4059 165.315C66.5626 165.118 66.7344 164.929 66.919 164.755C66.9748 164.699 66.9104 164.639 66.8524 164.622Z" fill="#D9E3F9"/>
<path d="M67.8154 165.114C67.8025 165.086 67.7617 165.065 67.7316 165.056C67.6865 165.043 67.6372 165.039 67.5921 165.047C67.5577 165.054 67.5062 165.065 67.4847 165.093C67.3473 165.266 67.2121 165.44 67.0746 165.614C67.0553 165.638 67.0425 165.659 67.0575 165.689C67.0704 165.717 67.1112 165.739 67.1412 165.747C67.1863 165.76 67.2357 165.765 67.2808 165.756C67.3151 165.75 67.3666 165.739 67.3881 165.711C67.5255 165.537 67.6608 165.363 67.7982 165.189C67.8154 165.166 67.8304 165.144 67.8154 165.114Z" fill="#D9E3F9"/>
<path d="M68.7548 165.442C68.6775 165.42 68.5702 165.42 68.5058 165.478C68.3018 165.663 68.1257 165.878 67.984 166.112C67.969 166.138 67.984 166.168 68.0033 166.187C68.0291 166.213 68.0763 166.228 68.1128 166.232C68.1858 166.241 68.2932 166.232 68.334 166.163C68.3662 166.107 68.4027 166.054 68.4392 166.002C68.4564 165.976 68.4757 165.951 68.495 165.925C68.495 165.925 68.5015 165.916 68.5058 165.912C68.5079 165.908 68.5164 165.897 68.5164 165.897C68.5272 165.884 68.5358 165.871 68.5465 165.858C68.6302 165.757 68.7204 165.663 68.817 165.575C68.8815 165.521 68.8128 165.459 68.7548 165.442Z" fill="#D9E3F9"/>
<path d="M62.7925 67.7842C63.516 75.1548 65.2186 82.4717 66.3329 89.7994C67.5159 97.5865 68.5228 105.399 69.3494 113.232C69.4417 114.103 69.5297 114.999 69.3043 115.847C68.7783 117.833 66.7301 118.986 64.7999 119.69C62.3975 120.566 59.7116 121.09 57.3005 120.231C52.8734 118.651 53.4638 113.689 52.8369 109.955C52.0296 105.161 51.0849 100.386 50.209 95.6027C49.129 89.1274 47.8409 82.6779 46.66 76.2219C45.4835 69.7959 44.103 63.9218 47.0186 57.6976C47.4866 56.6972 48.0684 55.731 48.8671 54.9688C50.604 53.3092 53.2556 52.8004 55.5893 53.3672C61.9273 54.9001 62.2279 62.0346 62.7925 67.7842Z" fill="#A9CCFF"/>
<path d="M69.273 117.692C69.2708 117.743 69.2686 117.797 69.2665 117.848C69.0861 121.848 68.9316 125.846 68.7941 129.839C68.7877 129.99 68.7834 130.138 68.7791 130.286C68.6439 134.241 68.5279 138.195 68.4249 142.155C68.4227 142.303 68.4163 142.449 68.4141 142.599C68.3111 147.689 68.0105 152.898 67.7464 158.029C67.6713 159.489 67.6026 160.949 67.5403 162.409C67.5403 162.409 67.3256 162.409 67.3127 162.409C65.2924 162.409 63.2743 162.409 61.2539 162.409C59.998 162.409 58.742 162.409 57.486 162.409C57.0265 162.409 54.9289 162.667 54.9139 162.046C54.8259 158.461 55.0449 154.878 55.1222 151.294C55.1608 149.506 55.1672 147.715 55.0814 145.929C55.0084 144.435 55.0255 143.005 54.9976 141.523C54.901 136.559 54.8065 131.593 54.7099 126.63C54.624 122.205 53.8425 117.775 54.1453 113.383C54.2891 111.302 54.7422 109.029 56.3803 107.738C57.5976 106.779 59.2701 106.562 60.7988 106.807C63.1497 107.182 65.2495 108.537 66.9649 110.192C67.1195 110.34 67.2634 110.489 67.3986 110.632C69.3803 112.758 69.4125 114.549 69.2837 117.404C69.2794 117.501 69.2773 117.595 69.273 117.692Z" fill="#A9CCFF"/>
<path d="M69.9981 124.321C59.7055 126.887 48.6528 122.185 38.3472 124.699C36.4321 105.593 35.451 86.3946 35.4102 67.1941C35.4038 64.7122 35.4145 62.2281 35.4252 59.7462C35.4274 59.2545 35.4359 58.7349 35.685 58.3098C36.3119 57.2385 37.89 57.4382 39.0944 57.7387C43.6332 58.8702 48.3265 59.3812 53.0026 59.2524C55.1152 59.1944 57.2708 59.0033 59.3684 59.3468C62.3978 59.8428 62.5416 60.4998 62.8079 63.3445C63.2652 68.2311 63.9995 73.0876 64.826 77.9247C66.5114 87.7858 68.609 97.5933 69.6159 107.557C70.1806 113.127 70.3953 118.737 69.9981 124.321Z" fill="#E6EEFC"/>
<path d="M77.6824 36.2587C77.1177 38.2962 76.2246 40.2285 75.2842 42.1221C74.2128 44.2777 73.0664 46.4075 71.6579 48.3634C69.8716 50.8432 67.6838 53.0138 65.8782 55.4807C64.6179 57.2004 63.5509 59.0597 62.6985 61.0156C61.7453 63.2013 60.719 65.827 58.4002 66.3831C57.769 66.5355 57.1078 66.5033 56.4594 66.4647C52.3758 66.2135 48.3095 65.6682 44.3032 64.833C41.4606 64.2404 35.8182 64.0407 35.5155 60.3265C35.4275 59.2422 35.7023 58.1666 35.9879 57.1189C37.4993 51.5689 39.1976 46.0554 41.452 40.7567C43.0729 36.9479 45.0782 33.4548 47.2424 29.9402C48.7453 27.4947 50.3126 25.0665 52.305 22.9839C53.2282 22.0199 54.2652 20.9185 55.4503 20.2873C56.6462 19.6496 58.0031 19.3899 59.3213 19.1408C60.4399 18.9283 61.5649 18.7157 62.7028 18.6706C64.268 18.6084 65.8224 18.8746 67.3875 18.8338C67.9157 18.8188 68.416 18.6449 68.9355 18.6749C69.644 18.7136 70.3869 18.9819 71.0889 19.1C72.244 19.2954 73.5258 19.5273 74.5413 20.1477C77.1284 21.7322 77.8026 25.7149 78.1805 28.4459C78.539 31.0459 78.3866 33.7253 77.6824 36.2587Z" fill="#4B9EA7"/>
<path d="M37.0955 53.1961C38.9999 52.859 40.8935 52.4468 42.7356 51.8478C44.7517 51.193 46.6904 50.3084 48.4874 49.1834C50.3575 48.0111 52.0729 46.6113 53.6295 45.0504C55.1925 43.4831 56.5988 41.7677 57.917 39.99C58.705 38.9272 59.4585 37.8387 60.1949 36.7373C60.4118 36.8124 60.6286 36.8876 60.8433 36.9649C62.1444 37.4329 63.4326 37.9375 64.7466 38.3669C66.1142 38.8113 67.5075 39.1784 68.9031 39.5155C71.1918 40.0673 73.4998 40.5375 75.7864 41.1C75.6211 41.4435 75.4536 41.7849 75.284 42.1262C74.2126 44.2818 73.0661 46.4116 71.6577 48.3675C69.8714 50.8473 67.6836 53.0179 65.878 55.4848C64.6177 57.2045 63.5507 59.0638 62.6983 61.0197C61.7451 63.2054 60.7188 65.8311 58.4 66.3872C57.7688 66.5396 57.1076 66.5074 56.4592 66.4688C52.3756 66.2176 48.3092 65.6722 44.303 64.8371C41.4604 64.2445 35.818 64.0448 35.5153 60.3305C35.4273 59.2463 35.7021 58.1707 35.9876 57.1229C36.344 55.8133 36.7112 54.5058 37.0955 53.1961Z" fill="#E6EEFC"/>
<path d="M75.6617 41.2614C75.7691 41.2292 75.8206 41.0832 75.84 40.9501C75.8915 40.6066 76.0139 40.2631 76.1019 39.9238C76.1964 39.561 76.2865 39.196 76.3681 38.8289C76.5313 38.0946 76.6622 37.3539 76.7502 36.6089C76.9027 35.3185 76.9499 34.0175 76.9091 32.7207C76.864 31.2715 76.7095 29.8265 76.4776 28.3966C76.235 26.9152 75.8872 25.1869 75.1336 23.5895C73.8518 20.8758 71.4193 18.864 68.7828 18.3337C67.3056 18.0374 66.054 18.3509 65.3455 19.1968C65.0277 19.5768 64.8538 20.0191 64.6907 20.4764C64.0895 22.1618 63.7867 23.9094 63.4905 25.5991C63.2843 26.7821 63.0718 28.0059 62.7583 29.1803C61.9511 32.2183 60.9034 35.2155 59.6452 38.0903L60.65 38.5304C61.9296 35.6041 62.9967 32.5532 63.8168 29.4616C64.141 28.2421 64.3579 26.9947 64.5683 25.7881C64.856 24.1435 65.1522 22.4431 65.7212 20.8435C65.8543 20.47 65.981 20.1415 66.1828 19.901C66.829 19.1303 68.1688 19.3299 68.5638 19.4094C70.8654 19.871 73.0017 21.653 74.1396 24.0597C74.8352 25.5326 75.1636 27.1686 75.3934 28.5749C76.1963 33.4936 76.0053 37.5664 74.8094 41.0274C74.8115 41.0231 75.271 41.1691 75.3054 41.1798C75.3827 41.2034 75.4621 41.2249 75.5393 41.2549C75.5887 41.27 75.6274 41.2721 75.6617 41.2614Z" fill="#E6EEFC"/>
<path d="M40.8295 44.4358C41.3577 42.671 41.976 40.9384 42.3839 39.15C42.9421 36.711 44.3162 34.1711 45.4305 31.9425C47.7085 27.3952 50.8302 23.0025 55.5021 20.6923C55.8864 20.5012 56.2943 20.3273 56.7237 20.3101C58.7805 20.2243 59.242 23.7518 59.1304 25.1924C59.0188 26.618 58.5701 27.9942 58.0956 29.3447C55.1993 37.5805 51.2939 45.417 47.3993 53.2277C47.2168 53.5927 47.0257 53.9706 46.7037 54.2197C46.3494 54.4966 45.8814 54.5803 45.4348 54.619C43.9791 54.7457 41.0764 54.5868 40.3336 53.0238C39.507 51.2847 39.7324 49.4877 40.0437 47.6585C40.2284 46.5613 40.5139 45.4943 40.8295 44.4358Z" fill="#F7967C"/>
<path d="M49.2692 44.1054C49.1898 44.084 49.1082 44.0647 49.0288 44.0432C48.492 43.9058 47.9574 43.7662 47.4228 43.6245C45.1749 43.0234 42.8777 42.4007 40.7114 41.5462C40.7736 40.7926 41.2159 40.0197 41.5186 39.3284C41.8728 38.5254 42.2486 37.731 42.6351 36.9431C43.3972 35.3908 44.2303 33.8729 44.9688 32.3099C45.9629 30.3003 46.9612 28.2843 48.2129 26.4229C49.1791 24.9887 50.3019 23.6447 51.6352 22.5368C52.2363 22.0366 52.8847 21.6072 53.5031 21.137C54.86 20.1064 57.0563 19.6641 58.4648 20.8214C59.3708 21.5642 59.5318 22.5433 59.6177 23.6339C59.7208 24.9286 59.5597 26.1266 59.2355 27.3826C58.3317 30.8993 56.8932 34.2508 55.4611 37.5872C54.8793 38.9441 54.2975 40.2988 53.7135 41.6557C53.4215 42.3342 53.1317 43.0126 52.8397 43.6889C52.7259 43.9552 52.625 44.4361 52.4339 44.6486C52.2192 44.8891 51.9615 44.7989 51.6438 44.7173C50.8537 44.5134 50.0615 44.3094 49.2692 44.1054Z" fill="#4B9EA7"/>
<path d="M41.3225 52.3461C41.3697 52.7197 41.4427 53.0954 41.6059 53.4346C42.3187 54.8967 44.2296 54.9568 45.6337 54.8989C51.2008 54.6691 56.725 53.8297 62.2342 52.9923C63.6211 52.7819 65.008 52.5694 66.3843 52.2903C67.681 52.0262 68.9693 51.6998 70.1909 51.1974C70.3841 51.118 70.5838 51.0278 70.7083 50.8604C70.8264 50.7015 70.8565 50.4975 70.8779 50.3C70.9488 49.6624 71.2128 47.5712 70.631 47.2062C70.3197 47.0108 69.345 47.174 68.9736 47.174C68.4368 47.174 67.8979 47.1804 67.3612 47.1804C62.7452 47.1654 58.1291 46.9657 53.5282 46.5793C51.6045 46.4183 49.6721 46.225 47.7484 46.371C46.2284 46.487 44.5773 46.7145 43.2977 47.6077C41.8099 48.649 41.1035 50.5813 41.3225 52.3461Z" fill="#F7967C"/>
<path d="M74.5822 30.9285C74.5328 31.0895 74.4448 31.2785 74.2773 31.2849C74.1206 31.2935 74.0132 31.1325 73.9424 30.9929C73.7642 30.6408 73.4099 29.1723 72.9977 29.2088C72.8238 29.2238 72.6757 29.3397 72.5383 29.4492C72.0896 29.8121 71.6408 30.1728 71.1899 30.5356C71.1212 30.5914 71.0096 30.643 70.9559 30.5721C70.9388 30.5485 70.9344 30.5184 70.9323 30.4905C70.8679 29.9387 70.9602 29.6468 71.1513 29.1615C71.3703 28.6055 71.4368 27.9914 71.6429 27.4268C71.9607 26.5551 72.476 25.7586 73.1351 25.1059C73.4164 24.8289 74.6573 23.5128 74.8956 24.3115C75.0459 24.816 75.0803 25.3936 75.1211 25.9174C75.207 27.0081 75.1619 28.1095 74.9858 29.1873C74.8892 29.7777 74.754 30.3596 74.5822 30.9285Z" fill="#2F7A84"/>
<path d="M68.1985 22.4876C68.439 23.7286 68.8018 24.9459 69.1625 26.1547C69.4824 27.226 70.1974 28.0526 71.0347 28.7697C71.1249 28.847 71.2193 28.9243 71.3331 28.9608C71.5113 29.0166 71.7089 28.9608 71.8634 28.8556C72.441 28.4648 72.645 27.722 73.1903 27.2818C73.7807 26.8052 74.5536 26.4445 75.187 26.0065C76.1252 25.3624 77.042 24.6861 77.9351 23.9798C78.4461 23.5761 78.9592 23.151 79.3972 22.6701C79.7128 22.3266 79.9876 21.9509 80.2023 21.5344C81.1255 19.7309 80.8164 17.5066 80.1358 15.686C79.7944 14.7735 79.4229 14.1122 78.3645 13.9662C77.4756 13.8439 76.5289 14.0671 75.7066 14.4493C74.5 15.0075 73.4759 15.8856 72.3766 16.6306C71.6702 17.1094 70.8436 17.3885 70.0621 17.7406C69.5383 17.9768 68.5442 18.0992 68.1599 18.5329C67.7176 19.0353 67.9108 20.1732 67.9581 20.7722C68.0053 21.3497 68.089 21.9208 68.1985 22.4876Z" fill="#F7967C"/>
<path d="M75.0996 25.5541C75.1232 25.7044 75.1533 25.8547 75.1855 26.005C76.1237 25.3609 77.0405 24.6846 77.9337 23.9782C78.4446 23.5746 78.9578 23.1495 79.3958 22.6686C79.3485 22.5677 79.3034 22.4668 79.2562 22.368C78.786 21.3417 78.3201 19.8023 76.9288 19.7959C75.4002 19.7916 74.8978 22.0545 74.8162 23.2268C74.7668 23.9847 74.9837 24.8027 75.0996 25.5541Z" fill="#DB6357"/>
<path d="M90.8559 16.7907C90.8452 16.8229 90.8345 16.8572 90.8216 16.8894C90.7336 17.1492 90.4759 17.4219 90.3385 17.6774C90.1689 17.9951 89.9756 18.3 89.7459 18.5791C89.3273 19.0879 88.6144 19.2618 88.1979 19.7664C88.009 19.9961 87.9682 20.2945 87.8888 20.5758C87.7943 20.9086 87.7127 21.2435 87.644 21.5806C87.5023 22.2698 87.4121 22.9697 87.3756 23.6739C87.3499 24.1634 87.3327 24.7002 86.9978 25.0587C86.4567 25.6384 85.686 25.2756 85.0784 25.0673C84.4214 24.844 83.7472 25.4173 83.3028 25.8252C82.6952 26.3813 82.195 27.0189 81.5595 27.5557C80.7737 28.2191 79.8891 28.5948 78.9831 27.97C77.7013 27.0855 76.718 25.8016 76.0975 24.376C75.6102 23.2595 75.3418 22.0551 75.2452 20.842C75.1614 19.7964 74.7084 18.6306 74.9768 17.5851C75.2581 16.4965 74.4358 15.9984 74.0815 15.0215C73.7144 14.0103 73.927 12.7286 74.2318 11.7345C74.5711 10.6245 75.1249 9.59611 75.6767 8.57414C76.2242 7.56076 76.7953 6.51948 77.6992 5.80883C78.7598 4.9758 80.1747 4.69454 81.5208 4.7933C82.867 4.88992 84.1616 5.33434 85.4176 5.82171C86.7831 6.34987 88.0326 6.86085 89.0954 7.88711C89.849 8.61708 90.4094 9.43938 91.0105 10.2874C91.5666 11.0711 91.6933 12.0845 91.6739 13.0442C91.646 14.3259 91.2638 15.5733 90.8559 16.7907Z" fill="#F7967C"/>
<path d="M73.2869 17.5306C74.0898 17.7582 74.9508 17.6036 75.7559 17.3889C77.0054 17.054 78.1905 16.5559 79.3435 15.974C79.9489 15.6692 80.608 15.3793 81.1834 15.0358C81.7653 14.6901 82.2655 14.0568 82.7765 13.6038C83.3025 13.1379 83.8414 12.6784 84.4619 12.3499C85.0824 12.0214 85.7952 11.8261 86.4887 11.9227C86.8558 11.9742 87.2014 12.103 87.5407 12.2619C87.7403 12.3542 87.9357 12.4573 88.129 12.5603C88.7709 12.8974 89.4107 13.2366 90.0505 13.5737C90.5701 13.8464 91.1863 14.1255 91.7166 13.8764C92.0386 13.7261 92.2555 13.3998 92.3478 13.0563C92.4337 12.7385 92.4251 12.4057 92.3907 12.0772C92.3886 12.0493 92.3864 12.0236 92.3821 11.9957C92.0214 8.8675 89.8702 6.41994 87.0426 5.21118C86.5101 4.9836 85.9798 4.7689 85.4646 4.51341C84.9364 4.24933 84.3352 4.2021 83.7491 4.12695C82.4029 3.9509 81.0396 3.89079 79.6827 3.94232C79.642 3.2059 79.5968 2.4609 79.3521 1.76527C79.1073 1.06965 78.635 0.421252 77.9565 0.135702C77.2781 -0.149847 76.3893 0.0154783 75.9813 0.629517C75.6507 1.12547 75.6893 1.776 75.786 2.36428C75.9083 3.11358 76.1015 3.84999 76.3635 4.56279C75.4016 4.67014 74.4892 5.15321 73.8579 5.88748C73.8172 5.93686 73.7742 5.99698 73.7935 6.0571C73.8129 6.12366 73.8923 6.14727 73.961 6.16016C74.384 6.23959 74.8112 6.29326 75.2406 6.31903C74.8606 6.73984 74.1134 6.72911 73.83 7.21862C73.6905 7.46123 73.7248 7.7983 73.9288 7.98938C74.1327 8.17617 74.4698 8.16544 74.6631 7.96792C74.5815 8.07312 74.5256 8.18046 74.4848 8.28781C74.3775 8.5841 74.3969 8.89327 74.3239 9.23678C74.1822 9.91094 73.9975 10.5786 73.8171 11.2421C73.4586 12.5431 73.0507 13.8313 72.5912 15.1002C72.4624 15.4545 72.3314 15.8087 72.2949 16.1844C72.2198 16.9337 72.5891 17.3331 73.2869 17.5306Z" fill="#404082"/>
<path d="M88.3105 18.697C88.3448 18.6454 88.3728 18.5875 88.3878 18.5295C88.5145 18.055 87.9412 17.6428 87.6234 17.3916C87.2069 17.0631 86.6874 16.8914 86.1764 16.7733C85.6826 16.6595 85.1244 16.5972 84.7057 16.8828C84.6821 16.8999 84.6584 16.9193 84.652 16.9472C84.6198 17.1104 85.382 17.2628 85.4937 17.2993C85.6547 17.353 85.8071 17.426 85.9574 17.5054C86.5113 17.7952 87.0438 18.1431 87.4517 18.6175C87.5397 18.7206 87.6278 18.8322 87.7501 18.8902C87.967 18.9911 88.1902 18.8773 88.3105 18.697Z" fill="#272443"/>
<path d="M80.8289 17.7576C80.8417 17.7448 80.8567 17.7319 80.8696 17.7169C81.9324 16.6541 82.5249 13.7041 80.5283 13.264C79.8262 13.1094 79.0705 13.4014 78.5766 13.921C77.6126 14.9301 77.1703 17.4227 78.4435 18.3803C79.2186 18.9664 80.2363 18.3309 80.8289 17.7576Z" fill="#F7967C"/>
<path d="M85.4737 19.7966C85.6412 19.5282 85.901 19.3178 86.223 19.2856C86.3197 19.2749 86.4206 19.2749 86.5129 19.3092C86.6138 19.3479 86.6503 19.4252 86.6653 19.5282C86.6889 19.6957 86.6353 19.8717 86.5494 20.0134C86.5108 20.0779 86.4656 20.1358 86.4163 20.1916C86.3819 20.241 86.3454 20.2883 86.3068 20.3312C86.0964 20.5631 85.7185 20.7713 85.4201 20.5674C85.1474 20.3849 85.3449 20.0049 85.4737 19.7966Z" fill="#272443"/>
<path d="M81.2154 22.2668C81.2326 22.1401 81.5611 22.1509 81.5439 22.2668C81.4859 22.6769 81.473 23.1106 81.619 23.5035C81.7371 23.8191 81.9604 24.1218 82.2803 24.2549C82.334 24.2785 82.3899 24.3215 82.3383 24.3794C82.2932 24.431 82.173 24.4374 82.1129 24.4116C81.75 24.2592 81.4752 23.9715 81.3249 23.6087C81.1489 23.1857 81.151 22.7155 81.2154 22.2668Z" fill="#DB6357"/>
<path d="M73.9247 7.9888C74.1286 8.17559 74.4657 8.16485 74.6589 7.96733C74.5773 8.07253 74.5215 8.17988 74.4808 8.28723C74.704 8.23355 74.9101 8.12191 75.0626 7.95015C74.9445 8.37525 74.9059 8.97212 75.3245 9.11811C75.6316 9.22546 75.9386 8.97856 76.1833 8.76386C76.9176 8.11976 77.8644 7.57873 78.8241 7.74619C80.1788 7.98021 80.9066 9.44231 82.0252 10.2431C82.5684 10.6317 83.2233 10.8658 83.891 10.9108C84.7777 10.9688 85.5742 10.84 86.3664 11.3381C86.7915 11.6043 87.1716 11.9264 87.5387 12.2677C87.7384 12.3601 87.9338 12.4631 88.127 12.5662C88.7689 12.9032 89.4087 13.2425 90.0485 13.5796C90.5681 13.8522 91.1843 14.1313 91.7146 13.8823C92.0366 13.732 92.2535 13.4056 92.3458 13.0621C92.4317 12.7444 92.4231 12.4116 92.3888 12.0831C92.3866 12.0552 92.3844 12.0294 92.3801 12.0015C92.0194 8.87335 89.8682 6.42579 87.0406 5.21704C86.5081 4.98946 85.9779 4.77476 85.4626 4.51926C84.9344 4.25519 84.3332 4.20795 83.7471 4.13281C82.4009 3.95675 81.0376 3.89664 79.6808 3.94817C79.64 3.21175 79.5949 2.46675 79.3501 1.77112C79.1054 1.0755 78.633 0.427113 77.9545 0.141564C77.2761 -0.143985 76.3873 0.0213315 75.9793 0.63537C75.6487 1.13132 75.6874 1.78186 75.784 2.37013C75.9063 3.11943 76.0995 3.85585 76.3615 4.56865C75.3996 4.676 74.4872 5.15907 73.8559 5.89334C73.8152 5.94272 73.7722 6.00284 73.7915 6.06295C73.8109 6.12951 73.8903 6.15313 73.959 6.16601C74.382 6.24545 74.8092 6.29912 75.2386 6.32488C74.8586 6.74569 74.1114 6.73496 73.828 7.22447C73.6885 7.46064 73.7207 7.79772 73.9247 7.9888Z" fill="#272443"/>
<path d="M84.0072 9.68877C84.8982 9.54278 85.8322 9.68877 86.6309 10.1117C87.4704 10.5562 88.0436 11.3312 88.8101 11.8723C89.2309 12.1707 89.7182 12.3983 90.2442 12.3768C90.2958 12.3747 90.4095 12.3961 90.4095 12.467C90.4095 12.54 90.2958 12.555 90.2442 12.5571C89.3253 12.5958 88.5524 12.0419 87.9062 11.4493C87.5648 11.138 87.2385 10.8095 86.867 10.5347C86.4913 10.2577 86.0683 10.0559 85.6175 9.93568C85.1215 9.80257 84.602 9.7811 84.0953 9.86483C84.0373 9.87342 83.9193 9.86698 83.8935 9.80257C83.8656 9.72957 83.9557 9.69522 84.0072 9.68877Z" fill="#404082"/>
<path d="M86.3152 8.81945C86.341 8.75289 86.4612 8.7486 86.517 8.75719C87.5325 8.88171 88.4901 9.36263 89.19 10.1119C89.2973 10.2279 88.9839 10.2858 88.9066 10.2043C88.2561 9.50649 87.3801 9.04917 86.4311 8.93323C86.3774 8.92465 86.2873 8.886 86.3152 8.81945Z" fill="#404082"/>
<path d="M80.9751 4.77736C81.8189 4.47678 82.7507 4.46604 83.6052 4.74085C83.661 4.75803 83.7125 4.80956 83.6631 4.86538C83.6137 4.92121 83.5 4.91906 83.4377 4.89759C82.6884 4.65498 81.8833 4.67 81.1404 4.93408C81.076 4.9577 80.9665 4.95555 80.915 4.90188C80.8656 4.84606 80.9214 4.79668 80.9751 4.77736Z" fill="#404082"/>
<path d="M77.1154 0.862823C77.4675 0.832765 77.8067 1.08181 78.015 1.34375C78.5066 1.96208 78.6419 2.85737 78.5087 3.61955C78.4873 3.74623 78.161 3.73334 78.1803 3.61955C78.2898 2.97975 78.2103 2.29916 77.9098 1.71947C77.7831 1.47472 77.6049 1.2407 77.358 1.10973C77.3151 1.08826 77.2142 1.02815 77.1648 1.04747C77.1176 1.06679 77.0918 1.1956 77.0789 1.23854C77.0274 1.41889 77.0059 1.60783 77.0037 1.79462C77.0037 1.91914 76.6731 1.91914 76.6753 1.79462C76.6753 1.47257 76.701 0.899321 77.1154 0.862823Z" fill="#404082"/>
<path d="M76.69 2.81873C76.8596 2.68991 77.0829 2.66844 77.2847 2.72427C77.4436 2.76935 77.6004 2.88099 77.6562 3.04202C77.6798 3.11072 77.596 3.14722 77.5424 3.15366C77.5016 3.16011 77.4565 3.15796 77.4157 3.14507C77.39 3.13649 77.3492 3.11931 77.3406 3.0914C77.3298 3.06135 77.3169 3.03343 77.2997 3.00767C77.2954 3.00337 77.2933 2.99908 77.289 2.99264C77.289 2.99049 77.2869 2.99049 77.2847 2.98835C77.274 2.97761 77.2654 2.96688 77.2547 2.95829C77.2525 2.95614 77.231 2.93896 77.2224 2.93252C77.2267 2.93682 77.2332 2.93897 77.2203 2.93038L77.2182 2.92823C77.2182 2.92823 77.2182 2.93038 77.2203 2.93038C77.2203 2.93038 77.2203 2.92823 77.2182 2.92823C77.2117 2.92394 77.2053 2.91964 77.1988 2.91535C77.1881 2.90891 77.1752 2.90247 77.1623 2.89603C77.1559 2.89388 77.1495 2.89173 77.143 2.88958C77.1366 2.88744 77.1301 2.88529 77.1237 2.88315C77.113 2.881 77.1001 2.87885 77.0894 2.8767C77.0851 2.8767 77.0807 2.8767 77.0743 2.8767C77.0721 2.8767 77.0678 2.8767 77.0657 2.8767C77.0593 2.8767 77.055 2.87885 77.0485 2.87885C77.0378 2.88314 77.0271 2.88529 77.0164 2.88958C77.0099 2.89388 77.0035 2.89603 76.997 2.89817C76.9906 2.90032 76.9863 2.90461 76.9799 2.9089C76.9799 2.9089 76.9777 2.90891 76.9777 2.91106C76.9176 2.95829 76.8252 2.96902 76.7523 2.94326C76.7243 2.93253 76.69 2.91964 76.6771 2.88958C76.6621 2.86597 76.6685 2.83591 76.69 2.81873Z" fill="#404082"/>
<path d="M77.2228 2.92887L77.2207 2.92676L77.2228 2.92887Z" fill="#404082"/>
<path d="M76.1252 7.52843C76.6877 7.47476 77.1965 7.18062 77.54 6.7362C77.6087 6.64602 77.9243 6.6997 77.8234 6.82852C77.437 7.32662 76.838 7.64437 76.2111 7.70449C76.151 7.71093 76.0393 7.71093 76.0092 7.64223C75.9813 7.57352 76.0758 7.53273 76.1252 7.52843Z" fill="#404082"/>
<path d="M74.3756 12.5082C74.5001 11.8405 74.6676 11.1814 74.8758 10.5351C74.9123 10.4256 75.2365 10.4492 75.1936 10.5823C74.9896 11.2114 74.8243 11.8555 74.7041 12.506C74.6805 12.637 74.3541 12.6241 74.3756 12.5082Z" fill="#272443"/>
<path d="M75.05 14.3158C75.1724 13.9121 75.3055 13.5128 75.4515 13.1178C75.4923 13.0083 75.8165 13.0362 75.7692 13.165C75.6232 13.56 75.4902 13.9594 75.3678 14.363C75.3485 14.4296 75.2197 14.4339 75.166 14.4253C75.108 14.4167 75.0285 14.3845 75.05 14.3158Z" fill="#272443"/>
<path d="M77.4678 11.3273C77.6031 11.0031 77.7405 10.6789 77.8757 10.3547C77.9208 10.2452 78.2472 10.2774 78.1935 10.402C78.0583 10.7262 77.9208 11.0503 77.7856 11.3745C77.7405 11.4819 77.4163 11.4518 77.4678 11.3273Z" fill="#272443"/>
<path d="M80.3771 11.5831C80.4995 11.3276 80.639 11.0785 80.7936 10.8402C80.8344 10.7779 80.9288 10.7651 80.9954 10.778C81.034 10.7844 81.1521 10.8252 81.1091 10.8896C80.9546 11.1279 80.8151 11.377 80.6927 11.6325C80.6626 11.6969 80.5509 11.7076 80.4908 11.6969C80.4436 11.6861 80.3449 11.6518 80.3771 11.5831Z" fill="#272443"/>
<path d="M75.823 10.2802C75.8723 10.1556 75.9217 10.0311 75.9732 9.90658C75.9839 9.87867 76.0247 9.86149 76.0484 9.8529C76.087 9.84002 76.1364 9.83572 76.1751 9.84431C76.2266 9.8529 76.3167 9.88511 76.2888 9.95596C76.2394 10.0805 76.1901 10.205 76.1407 10.3295C76.1299 10.3574 76.0891 10.3746 76.0655 10.3832C76.0269 10.3961 75.9775 10.4004 75.9389 10.3918C75.8873 10.3832 75.7951 10.351 75.823 10.2802Z" fill="#272443"/>
<path d="M76.8208 14.1199C76.9475 13.8859 77.0742 13.6497 77.203 13.4157C77.2373 13.3513 77.3425 13.3405 77.4048 13.3534C77.4499 13.362 77.555 13.3985 77.5207 13.4651C77.394 13.6991 77.2652 13.9352 77.1385 14.1693C77.1042 14.2337 76.999 14.2444 76.9367 14.2315C76.8916 14.2229 76.7843 14.1864 76.8208 14.1199Z" fill="#272443"/>
<path d="M73.1649 15.7642C73.2272 15.5667 73.3194 15.3777 73.4375 15.2081C73.4805 15.148 73.5707 15.133 73.6394 15.1459C73.6737 15.1523 73.7145 15.1609 73.7381 15.1867C73.7532 15.2038 73.7703 15.2318 73.7553 15.2554C73.6372 15.425 73.5449 15.6139 73.4827 15.8114C73.4741 15.8372 73.429 15.8587 73.4075 15.8651C73.3689 15.878 73.3194 15.8823 73.2808 15.8737C73.2228 15.8651 73.1413 15.8351 73.1649 15.7642Z" fill="#272443"/>
<path d="M66.5578 17.7614C66.5815 17.755 66.6051 17.7486 66.6308 17.7421C67.6721 17.4673 68.7413 17.302 69.8148 17.2483C69.9501 17.2419 70.1176 17.2569 70.1669 17.3814C70.1863 17.4265 70.182 17.478 70.1777 17.5274C70.1261 18.2703 70.2357 19.0325 70.3172 19.7753C70.416 20.6728 70.5469 21.5659 70.7079 22.4548C70.884 23.4123 71.0944 24.3634 71.3435 25.306C71.6312 26.3966 71.9038 27.5238 71.8201 28.6617C71.7771 29.2435 71.6376 29.8125 71.4036 30.3471C70.9742 31.3282 70.9291 30.4995 70.665 29.9198C70.6242 29.8297 70.5749 29.7352 70.4911 29.6794C70.4246 29.6364 70.3451 29.6235 70.2678 29.6107C69.394 29.4776 68.5008 29.4754 67.627 29.6085C67.1847 28.1078 66.9872 26.5491 66.8691 24.9925C66.7553 23.4832 66.5729 22.0082 66.4183 20.5031C66.3603 19.9385 65.8343 18.2552 66.3732 17.8473C66.429 17.8065 66.4934 17.7829 66.5578 17.7614Z" fill="#2F7A84"/>
<path d="M42.8342 49.0722C43.4654 48.2971 44.2791 47.6895 45.1572 47.2172C45.6167 46.9703 46.0976 46.7427 46.5914 46.5774C47.1303 46.397 47.6907 46.3433 48.2554 46.3283C48.9059 46.3111 49.5565 46.3133 50.207 46.3047C50.2585 46.3047 50.3723 46.324 50.3723 46.3949C50.3723 46.4657 50.2585 46.485 50.207 46.485C49.6509 46.4915 49.097 46.4958 48.5409 46.5044C47.9913 46.5108 47.4352 46.5301 46.9049 46.6869C46.4218 46.8307 45.9559 47.0476 45.5094 47.2794C45.08 47.5027 44.6656 47.7561 44.2791 48.048C43.8497 48.3722 43.4569 48.7437 43.1177 49.1623C43.0468 49.2504 42.7312 49.1988 42.8342 49.0722Z" fill="#DB6357"/>
<path d="M77.541 45.506C77.5431 45.5103 77.5452 45.5146 77.5474 45.5211C77.6676 45.7658 77.7342 46.0385 77.7363 46.3133C77.8308 46.1222 78.1077 46.0836 78.2945 46.1866C78.4813 46.2897 78.5908 46.4915 78.666 46.6912C78.857 47.1914 78.8206 47.6638 78.812 48.1855C78.8034 48.778 78.7561 49.3685 78.6853 49.9567C78.6402 50.3325 78.5779 50.7211 78.3718 51.0367C78.1507 51.378 77.7836 51.597 77.4121 51.758C76.7316 52.0543 75.9973 52.1917 75.2673 52.3291C74.9388 52.3914 74.6125 52.4515 74.284 52.5138C74.1487 52.5396 74.0113 52.5653 73.8739 52.546C73.7343 52.5267 73.6055 52.4644 73.4789 52.4043C72.1714 51.7623 70.8617 51.1225 69.5542 50.4806C69.4275 50.4183 69.2943 50.3496 69.2256 50.2294C69.1806 50.15 69.1677 50.0555 69.1591 49.9632C69.0776 49.0228 69.4704 47.9944 70.3013 47.5457C70.6191 47.3739 70.9776 47.2945 71.334 47.2387C71.9674 47.1377 72.6201 47.1012 73.247 47.2451C73.9104 47.3975 74.5202 47.7496 75.1922 47.8613C75.2351 47.8677 75.2802 47.8742 75.321 47.857C75.3725 47.8355 75.4004 47.7818 75.4219 47.7303C75.5571 47.3803 75.4283 46.9896 75.4283 46.6139C75.4283 46.3326 75.5056 46.0535 75.6494 45.8109C75.6924 45.7379 75.7439 45.6671 75.8147 45.622C75.9586 45.5339 76.154 45.579 76.2871 45.6842C76.4181 45.7894 76.5018 45.9419 76.5813 46.0922C76.3451 45.652 77.2275 44.9092 77.541 45.506Z" fill="#F7967C"/>
<path d="M76.4807 51.9656C76.8951 51.8518 77.3374 51.7509 77.726 51.562C78.1146 51.3752 78.3465 51.0639 78.4452 50.6474C78.5462 50.2158 78.5591 49.7542 78.5805 49.3141C78.6042 48.831 78.6063 48.348 78.5912 47.8649C78.5869 47.7425 78.9155 47.7382 78.9198 47.8649C78.9369 48.3845 78.9327 48.9019 78.9047 49.4214C78.879 49.8788 78.8661 50.3597 78.7351 50.802C78.6127 51.2099 78.3401 51.5083 77.9601 51.693C77.5478 51.8926 77.0883 52.0043 76.6482 52.1245C76.5838 52.1417 76.4722 52.1503 76.4228 52.0923C76.3756 52.0343 76.4185 51.9828 76.4807 51.9656Z" fill="#DB6357"/>
<path d="M76.3034 48.3149C78.0832 49.2209 79.9082 50.0432 81.7847 50.726C82.3107 50.917 82.8474 51.0974 83.4035 51.1554C83.9617 51.2133 84.5457 51.1382 85.0223 50.8462C85.2671 50.6959 85.4496 50.464 85.6235 50.2386C85.6428 50.215 85.6579 50.1849 85.6665 50.1549C85.6772 50.1227 85.6793 50.0883 85.6707 50.0582C85.6664 50.0432 85.6578 50.0282 85.645 50.0153C85.6171 49.9853 85.5741 49.9745 85.5333 49.9659C82.5469 49.2639 79.5647 48.4673 76.7844 47.1727C76.7221 47.1426 76.6598 47.1233 76.6018 47.1126C76.2669 47.0503 76.0179 47.2822 75.9191 47.6751C75.8397 47.9821 76.005 48.1625 76.3034 48.3149Z" fill="#E6EEFC"/>
<path d="M76.6021 47.1104C76.5913 47.2692 76.7395 47.4217 76.879 47.5204C77.4995 47.9584 78.2338 48.2053 78.953 48.4458C80.4452 48.9439 81.9395 49.4441 83.4316 49.9422C84.0478 50.1483 85.0719 50.5326 85.6624 50.0646L85.6731 50.056C85.6688 50.041 85.6602 50.026 85.6473 50.0131C85.6194 49.983 85.5765 49.9723 85.5357 49.9637C82.5492 49.2616 79.567 48.4651 76.7867 47.1705C76.7201 47.1426 76.66 47.1211 76.6021 47.1104Z" fill="#A9CCFF"/>
<path d="M79.4974 39.214C79.3964 39.025 79.1839 38.9198 78.9005 38.8146C78.6644 38.7266 78.2135 38.5119 77.9644 38.6407C77.7025 38.776 77.5952 39.302 77.5222 39.5553C76.9811 41.4619 76.4615 43.3727 75.9613 45.29C75.7594 46.065 75.0466 47.862 76.1287 48.3022C76.2704 48.3601 76.4336 48.3709 76.571 48.3065C76.8372 48.1819 76.8223 47.7633 76.8759 47.5121C76.9554 47.1514 77.0133 46.7864 77.1077 46.43C77.2688 45.8181 77.4491 45.2084 77.6467 44.6072C78.0353 43.4221 78.4926 42.2605 79.0164 41.1312C79.2247 40.6825 79.4459 40.2317 79.5382 39.7464C79.5854 39.5124 79.5682 39.3428 79.4974 39.214Z" fill="#404082"/>
<path d="M75.8798 47.4645C75.8798 47.4624 75.882 47.4581 75.882 47.4559C75.8906 47.4194 75.9078 47.3829 75.9314 47.355L75.9335 47.3529C75.9378 47.3486 75.94 47.3421 75.9442 47.3378C75.9722 47.3056 75.998 47.2842 76.0323 47.2627C76.0688 47.2412 76.1117 47.2305 76.1546 47.2283C76.1825 47.2262 76.2126 47.2284 76.2405 47.2348C76.2985 47.2391 76.3543 47.2541 76.3994 47.2842C76.4295 47.3056 76.4574 47.3357 76.4702 47.3722C76.4788 47.4001 76.481 47.4323 76.4832 47.4624C76.4853 47.5246 76.481 47.5869 76.4574 47.6449C76.4295 47.7114 76.3607 47.7522 76.2942 47.7715C76.2405 47.7866 76.1783 47.7866 76.1246 47.7737C76.0752 47.763 76.0237 47.7393 75.9893 47.6985C75.985 47.6921 75.9808 47.6857 75.9765 47.6792C75.9722 47.6771 75.9679 47.6728 75.9657 47.6706C75.9335 47.6513 75.9077 47.6277 75.8884 47.5933C75.8734 47.5654 75.8691 47.5311 75.8734 47.501C75.8734 47.486 75.8755 47.4752 75.8798 47.4645Z" fill="#272443"/>
<path d="M70.383 46.7612C70.7738 46.4456 71.2526 46.2159 71.755 46.1966C72.1028 46.1837 72.4463 46.2717 72.7748 46.3791C73.2257 46.5272 73.6679 46.7161 74.063 46.9802C74.3657 47.182 74.6405 47.4268 74.9647 47.5878C75.3469 47.7746 75.7784 47.8347 76.1907 47.9442C76.5578 48.0408 77.6227 48.3264 77.4402 48.8824C77.1074 49.9023 75.3361 49.0692 74.6856 49.0392C74.0458 49.0091 73.4747 49.1766 72.8714 49.3075C72.2015 49.4514 71.4501 49.3891 70.7909 49.2195C70.4388 49.1293 70.0911 48.9962 69.8141 48.7644C69.5436 48.5368 69.2623 48.1396 69.4362 47.8004C69.6316 47.4161 70.0567 47.0253 70.383 46.7612Z" fill="#F7967C"/>
<path d="M72.3677 49.1905C73.2286 49.2979 74.0681 48.9093 74.9312 49.0402C75.3584 49.1046 75.7577 49.2743 76.1785 49.358C76.5113 49.4245 77.2005 49.4417 77.2091 48.9522C77.2113 48.8363 77.5247 48.8513 77.5226 48.9737C77.514 49.4353 76.9386 49.5662 76.5736 49.5705C76.0991 49.5748 75.6547 49.3966 75.2017 49.2785C74.7959 49.1712 74.4073 49.1776 74.0036 49.2292C74.0187 49.2399 74.0294 49.2506 74.0359 49.2635C74.2892 49.8132 74.7272 50.2812 75.2683 50.5539C75.3155 50.5775 75.3713 50.6247 75.3176 50.6762C75.2682 50.7213 75.1566 50.7213 75.1008 50.6934C74.5018 50.3907 74.0123 49.9012 73.731 49.2893C73.7289 49.2828 73.7267 49.2764 73.7245 49.27C73.2715 49.343 72.8163 49.4202 72.3547 49.3644C72.3054 49.358 72.1981 49.3387 72.2045 49.2678C72.2088 49.1991 72.3204 49.1841 72.3677 49.1905Z" fill="#DB6357"/>
<path d="M69.622 33.8294C69.725 33.5374 70.1201 33.4537 70.3777 33.5675C70.4893 33.6168 70.5838 33.7135 70.6225 33.8315C70.6654 33.9625 70.6375 34.0849 70.5623 34.1987C70.5237 34.2567 70.4786 34.3168 70.4228 34.3619C70.3476 34.4198 70.2618 34.4499 70.1695 34.4585C70.1373 34.4606 70.105 34.4585 70.0728 34.4563C70.0492 34.4563 70.0256 34.4563 70.0041 34.452C69.7121 34.4134 69.5254 34.1021 69.622 33.8294Z" fill="#2F7A84"/>
<path d="M68.8563 36.8997C68.9593 36.6077 69.3544 36.524 69.612 36.6378C69.7236 36.6872 69.8181 36.7838 69.8567 36.9019C69.8997 37.0328 69.8718 37.1552 69.7966 37.269C69.758 37.327 69.715 37.3871 69.6571 37.4322C69.5819 37.4901 69.496 37.5202 69.4037 37.5288C69.3715 37.5309 69.3393 37.5288 69.3071 37.5266C69.2835 37.5266 69.2599 37.5266 69.2384 37.5223C68.9443 37.4837 68.7597 37.1724 68.8563 36.8997Z" fill="#2F7A84"/>
<path d="M51.8811 44.7743C52.8967 42.4985 54.0603 40.2935 55.1682 38.0606C56.2632 35.8535 57.3066 33.6099 58.0687 31.2611C58.4981 29.9364 58.8331 28.5817 59.0349 27.2033C59.0542 27.0767 59.3805 27.0874 59.3634 27.2033C59.0048 29.6445 58.2319 31.9976 57.2722 34.2626C56.2996 36.562 55.1445 38.7799 54.0238 41.0106C53.3926 42.2687 52.77 43.5333 52.1968 44.8194C52.1495 44.931 51.8253 44.8988 51.8811 44.7743Z" fill="#2F7A84"/>
<path d="M76.0434 40.4078C76.8764 38.4648 77.6601 36.5003 78.3944 34.5186C78.6026 33.9583 78.8044 33.3958 79.0041 32.8333C79.0428 32.7238 79.367 32.7495 79.3219 32.8805C78.6155 34.8729 77.8598 36.8481 77.0547 38.8019C76.8271 39.3537 76.5952 39.9054 76.359 40.4551C76.3139 40.5624 75.9897 40.5324 76.0434 40.4078Z" fill="#2F7A84"/>
<path d="M54.6164 20.8123C54.6422 20.7478 54.7645 20.7393 54.8182 20.75C55.6791 20.9175 56.4263 21.4306 56.9588 22.1198C57.5449 22.8798 57.8476 23.8116 58.0108 24.7477C58.0301 24.8615 57.7038 24.8765 57.6823 24.7477C57.3989 23.1224 56.5165 21.2739 54.7302 20.9239C54.6808 20.9132 54.5885 20.8831 54.6164 20.8123Z" fill="#2F7A84"/>
<path d="M39.163 56.145C39.236 56.1192 39.3262 56.1321 39.3885 56.1772C41.7845 57.9656 44.4682 59.3676 47.3065 60.3101C50.3144 61.3106 53.4727 61.7808 56.6266 61.9977C58.4022 62.12 60.182 62.1673 61.9618 62.1887C62.0155 62.1887 62.1272 62.2081 62.1272 62.2789C62.1272 62.3498 62.0134 62.3691 61.9618 62.3691C58.7392 62.3304 55.5037 62.2102 52.3155 61.7035C49.2302 61.2119 46.2266 60.3273 43.4269 58.9318C41.909 58.176 40.462 57.2807 39.1029 56.2674C39.0428 56.2223 39.1201 56.1621 39.163 56.145Z" fill="#A9CCFF"/>
<path d="M67.6351 122.012H72.7793V161.491H67.6351V122.012Z" fill="#272443"/>
<path d="M51.7776 120.471V122.236C51.7776 123.019 52.413 123.655 53.1967 123.655H86.986C87.7696 123.655 88.4052 123.019 88.4052 122.236V120.471C88.4052 119.687 87.7696 119.052 86.986 119.052H53.1988C52.413 119.052 51.7776 119.687 51.7776 120.471Z" fill="#272443"/>
<path d="M66.2763 129.468H74.1365V168.947H66.2763V129.468Z" fill="#272443"/>
<path d="M26.0843 158.433C26.3698 158.433 26.6339 158.285 26.7842 158.043L49.0592 121.879C49.2975 121.492 49.1773 120.986 48.7908 120.747C48.4044 120.509 47.8977 120.629 47.6594 121.016L25.6377 156.77L0.855007 155.771C0.397701 155.756 0.0177269 156.106 0.000549316 156.559C-0.0166245 157.012 0.335491 157.396 0.788506 157.414L26.0521 158.431C26.0607 158.433 26.0714 158.433 26.0843 158.433Z" fill="#272443"/>
<path d="M46.4381 117.992V121.283H88.4053V121.245H89.5002L93.0449 115.65V114.705H49.7273C47.9109 114.703 46.4381 116.176 46.4381 117.992Z" fill="#4B9EA7"/>
<path d="M49.8644 168.947H90.5498C90.5498 162.77 85.5409 157.761 79.364 157.761H61.0502C54.8733 157.761 49.8644 162.768 49.8644 168.947Z" fill="#272443"/>
<path d="M68.0967 140.527V155.479C68.0967 155.685 67.5493 155.687 67.5493 155.479V140.527C67.5471 140.321 68.0967 140.319 68.0967 140.527Z" fill="#404082"/>
<path d="M51.3311 167.469C51.7734 165.956 52.2328 164.408 53.1045 163.079C53.5382 162.419 54.0706 161.829 54.7061 161.357C55.3567 160.874 56.0824 160.509 56.8381 160.221C57.7012 159.892 58.6008 159.669 59.5025 159.472C59.5991 159.45 59.7924 159.469 59.8396 159.577C59.8911 159.693 59.7279 159.744 59.6485 159.761C58.1392 160.092 56.5998 160.519 55.3159 161.41C54.0363 162.297 53.2312 163.641 52.6708 165.067C52.353 165.878 52.104 166.713 51.8592 167.549C51.8077 167.731 51.2645 167.697 51.3311 167.469Z" fill="#404082"/>
<path d="M78.205 121.243H89.5003L93.045 115.648C93.7471 114.538 94.4491 113.43 95.1533 112.32C96.9697 109.452 98.786 106.586 100.602 103.717C103.097 99.7777 105.594 95.8358 108.089 91.8961C110.831 87.5678 113.572 83.2394 116.312 78.9111C118.865 74.8812 121.417 70.8492 123.97 66.8193C125.9 63.7706 127.83 60.724 129.761 57.6753C130.604 56.3441 131.691 55.2685 130.415 53.8558C129.95 53.3405 129.462 52.8274 128.852 52.4946C128.183 52.1296 127.412 52.0051 126.658 51.887C125.623 51.7238 124.58 51.5091 123.539 51.4791C122.549 51.4512 121.548 51.6658 120.576 51.6658C118.901 52.0824 117.482 53.2331 116.419 54.5943C115.356 55.9555 114.605 57.5293 113.854 59.0815C111.629 63.6782 109.401 68.2964 106.814 72.6977C104.201 77.1313 101.588 81.5648 98.975 86.0005C96.4286 90.3224 93.8801 94.6464 91.3338 98.9683C89.3156 102.393 87.2975 105.817 85.2793 109.244C84.2531 110.985 83.2289 112.724 82.2027 114.465C82.1554 114.545 82.1082 114.624 82.0609 114.704L79.4996 119.051L78.205 121.243Z" fill="#4B9EA7"/>
<path d="M82.9614 115.235C83.5303 115.145 83.9232 115.669 84.2925 116.016C84.7004 116.403 85.1084 116.791 85.5141 117.18C85.9951 117.644 86.4739 118.11 86.9505 118.578C89.7437 114.406 92.5005 110.209 95.2186 105.988C98.0139 101.649 100.769 97.2861 103.482 92.8955C106.198 88.5071 108.873 84.0928 111.508 79.6572C114.142 75.2194 116.738 70.7579 119.291 66.275C120.495 64.1581 121.663 62.0175 122.893 59.9178C123.995 58.0392 125.214 56.1863 126.811 54.6877C127.2 54.3249 127.608 53.9856 128.037 53.6722C128.14 53.597 128.291 53.5713 128.413 53.6185C128.484 53.6464 128.621 53.7452 128.512 53.8246C126.723 55.1343 125.352 56.8927 124.177 58.7541C122.921 60.7444 121.82 62.8312 120.658 64.8773C118.125 69.3473 115.548 73.7959 112.933 78.2208C110.308 82.663 107.641 87.0814 104.936 91.4763C102.252 95.8347 99.5276 100.169 96.7666 104.478C93.9819 108.824 91.1586 113.144 88.2945 117.436C87.9639 117.932 87.6311 118.427 87.3004 118.923C87.5151 119.136 87.7299 119.346 87.9424 119.559C88.3976 120.014 88.8484 120.469 89.2993 120.929C89.3873 121.017 89.2907 121.105 89.2005 121.135C89.091 121.171 88.9129 121.169 88.8248 121.081C88.1657 120.409 87.5001 119.741 86.8303 119.078C86.7444 119.054 86.6843 119.009 86.7036 118.951C85.9049 118.161 85.0976 117.38 84.2839 116.607C84.0649 116.399 83.8438 116.188 83.6227 115.982C83.5196 115.883 83.4144 115.787 83.3113 115.688C83.2641 115.645 83.219 115.602 83.1653 115.566C83.1482 115.555 83.131 115.546 83.1138 115.533C83.1031 115.527 83.0966 115.523 83.0924 115.523C82.9893 115.535 82.8154 115.52 82.7682 115.415C82.7209 115.306 82.8819 115.248 82.9614 115.235Z" fill="#2F7A84"/>
<path d="M20.0804 151.343C20.0718 151.382 20.0633 151.42 20.0547 151.461C19.9774 151.809 19.8056 152.232 19.827 152.59C19.8356 152.739 20.0246 152.99 19.9881 153.125C19.84 153.653 17.0897 153.703 16.4907 153.763C15.3334 153.879 14.1998 153.836 13.0426 153.81C12.7398 153.788 12.3899 153.733 12.2374 153.468C11.9626 152.988 12.4565 152.758 12.7957 152.567C13.2143 152.331 13.4698 152.208 13.7597 151.77C14.3222 150.916 14.5326 149.862 14.6657 148.863C14.7881 147.942 14.8654 147.002 15.151 146.111C15.5331 144.913 15.9603 144.735 17.1991 144.7C17.9506 144.7 18.672 144.762 19.4149 144.878C19.8099 144.941 20.746 144.85 21.0315 145.164C21.0959 145.235 21.1024 145.338 21.1045 145.434C21.1238 146.688 20.8491 147.925 20.5742 149.147C20.4089 149.881 20.2436 150.613 20.0804 151.343Z" fill="#F7967C"/>
<path d="M5.1928 156.23L14.369 156.43C15.1204 156.353 15.8719 156.26 16.6276 156.176C16.9454 156.142 17.3039 156.121 17.5466 156.333C17.6131 156.393 17.6646 156.449 17.7119 156.503L20.4622 156.563C20.5459 156.378 20.5373 156.103 20.548 155.848C20.5544 155.708 20.5674 155.573 20.6081 155.464C20.6554 155.328 20.7241 155.2 20.7563 155.06C20.7885 154.918 20.7863 154.772 20.7777 154.629C20.7391 154.053 20.5094 152.72 19.8868 152.37C19.7451 152.29 19.584 152.26 19.4015 152.301C17.5336 152.718 15.6658 153.134 13.7979 153.553C14.1285 153.147 14.4119 152.662 14.4162 152.134C14.4184 151.715 14.2702 151.421 14.0384 151.264C13.755 151.069 13.3492 151.08 12.9477 151.322C11.9451 151.93 11.0583 152.733 10.0192 153.274C8.65371 153.987 7.08429 154.218 5.72954 154.955C5.48908 155.084 5.29369 155.281 5.19063 155.515C5.09187 155.732 5.07901 155.979 5.1928 156.23Z" fill="#272443"/>
<path d="M5.1907 156.238L14.3669 156.438C15.1183 156.361 15.8698 156.268 16.6255 156.185C16.9433 156.15 17.3018 156.129 17.5445 156.341C17.611 156.402 17.6625 156.457 17.7098 156.511L20.4601 156.571C20.5438 156.387 20.5352 156.112 20.5459 155.856L5.18853 155.523C5.08977 155.74 5.07691 155.987 5.1907 156.238Z" fill="#404082"/>
<path d="M10.2496 152.636C10.4879 152.561 10.7949 152.599 10.9903 152.756C11.6215 153.267 12.1561 153.866 12.6027 154.536C12.738 154.738 12.3493 154.864 12.2162 154.881C11.9886 154.914 11.688 154.866 11.5528 154.665C11.1406 154.044 10.6317 153.499 10.0456 153.024C9.84809 152.868 10.0928 152.685 10.2496 152.636Z" fill="#404082"/>
<path d="M24.2118 148.437H11.0465C11.2654 147.481 11.4802 146.524 11.6906 145.566C12.3819 142.417 13.0367 139.256 13.6744 136.096C14.9518 129.771 16.1627 123.435 17.4853 117.119C17.5153 116.973 17.5454 116.827 17.5755 116.678C18.153 113.771 18.7649 110.871 19.3424 107.962C19.6817 106.257 20.2162 104.37 21.1631 102.813C21.4894 102.274 21.8651 101.776 22.301 101.338C24.2182 99.4017 27.3593 98.8799 29.8712 99.932C32.3832 100.984 34.1824 103.479 34.5688 106.175C35.0691 109.658 33.5662 112.898 32.5206 116.15L32.5185 116.159C30.3565 122.868 29.0704 129.934 27.312 136.772C26.3094 140.669 25.2745 144.557 24.2118 148.437Z" fill="#4B9EA7"/>
<path d="M83.1106 111.178C82.9002 111.706 82.6124 112.197 82.2303 112.635C80.6587 114.439 78.0222 114.759 75.6369 114.937C59.8136 116.118 43.9603 117.002 28.0854 116.214C26.8187 116.152 25.5262 116.073 24.3561 115.583C21.4899 114.381 20.7041 111.188 20.4701 108.382C20.3198 106.602 19.8904 105.181 20.6161 103.468C21.2194 102.046 22.2993 100.821 23.6648 100.093C24.3368 99.7363 25.0603 99.5001 25.7989 99.3348C28.9314 98.6349 32.3172 98.7916 35.5097 98.6886C39.0029 98.5769 42.496 98.4653 45.987 98.3536C52.9712 98.1303 59.9574 97.9092 66.9416 97.6859C70.7482 97.5657 74.7159 97.4734 78.1725 99.0729C82.6361 101.14 84.9591 106.557 83.1106 111.178Z" fill="#A9CCFF"/>
<path d="M83.2546 113.135C82.7522 113.826 82.2284 114.532 81.5027 114.983C80.2467 115.765 78.6386 115.642 77.1873 115.357C72.4746 114.431 68.0626 112.042 64.7133 108.602C61.6517 105.455 62.5813 101.938 65.4261 98.9431C67.8414 96.4011 70.2546 93.8591 72.67 91.317C74.1493 89.7605 76.0794 88.0622 78.1555 88.6054C79.0637 88.8416 79.8023 89.4814 80.5216 90.0825C83.1387 92.2725 85.947 94.2326 88.9055 95.9309C90.0241 96.5729 91.2221 97.232 91.8684 98.3484C93.133 100.532 89.9167 103.375 88.7981 105.144C87.0634 107.885 85.1569 110.511 83.2546 113.135Z" fill="#A9CCFF"/>
<path d="M109.798 66.5605C107.22 66.3179 105.378 64.727 103.868 62.7367C103.538 62.3009 103.211 61.8371 103.104 61.3004C102.99 60.7336 103.205 60.4094 103.48 59.9607C103.755 59.5141 103.868 58.9494 104.047 58.4363C104.115 58.2366 104.184 58.0391 104.257 57.8416C104.461 57.2941 104.682 56.7531 104.92 56.2206C105.356 55.248 105.79 54.3098 106.419 53.5412C106.574 53.3522 106.741 53.174 106.924 53.0066C107.16 52.7876 107.424 52.5922 107.72 52.4204C109.678 51.2868 111.943 50.6685 114.107 51.0206C115.071 51.1773 115.791 51.4114 116.143 52.4204C116.437 53.2685 116.405 54.2411 116.19 55.1214C115.881 56.416 115.22 57.5904 114.704 58.8163C114.374 59.6043 114.262 60.4695 114.069 61.3025C113.837 62.3116 113.727 63.3465 113.742 64.3813C113.749 64.7914 113.768 65.2315 113.611 65.6008C113.158 66.6764 110.756 66.6507 109.798 66.5605Z" fill="#F7967C"/>
<path d="M107.755 57.7224C107.021 57.9221 106.175 57.8705 105.417 57.9027C105.029 57.9199 104.638 57.9006 104.256 57.8448C104.46 57.2973 104.681 56.7563 104.919 56.2238C105.355 55.2512 105.789 54.313 106.418 53.5444C106.572 53.3554 106.74 53.1772 106.922 53.0098C107.193 53.0699 107.461 53.1343 107.723 53.1987C108.82 53.4585 110.422 53.6109 110.701 54.9743C111.008 56.4772 108.887 57.4132 107.755 57.7224Z" fill="#DB6357"/>
<path d="M110.955 40.814C110.378 41.2069 109.815 41.6321 109.373 42.1731C108.956 42.6819 108.926 43.4162 108.512 43.925C108.325 44.1547 108.04 44.2535 107.78 44.3866C107.473 44.5434 107.159 44.6915 106.842 44.8246C106.193 45.0994 105.526 45.3249 104.843 45.4988C104.368 45.619 103.844 45.7435 103.559 46.1407C103.097 46.7848 103.604 47.4676 103.928 48.0236C104.592 49.1637 102.389 51.3214 101.859 52.2618C101.695 52.5495 101.552 52.8586 101.528 53.1893C101.479 53.8699 102.29 54.6879 102.758 55.1216C104.59 56.8091 107.548 57.3136 109.961 57.1655C111.041 57.0989 112.267 56.9379 113.25 56.4634C114.264 55.9739 114.912 56.6824 115.941 56.837C117.003 56.998 118.219 56.5386 119.135 56.0448C120.157 55.4951 121.057 54.748 121.95 54.0073C122.835 53.273 123.745 52.5087 124.265 51.4803C124.874 50.278 124.87 48.833 124.511 47.5341C124.151 46.2352 123.464 45.0522 122.738 43.9143C121.952 42.6798 121.205 41.5526 119.99 40.7131C118.848 39.9231 117.566 39.3348 116.22 38.9848C115.681 38.8453 115.121 38.7422 114.569 38.8109C113.377 38.9612 112.327 39.9016 111.361 40.5392C111.228 40.6316 111.091 40.7217 110.955 40.814Z" fill="#F7967C"/>
<path d="M115.152 37.5477C115.021 37.6486 114.91 37.771 114.83 37.9169C114.379 38.7543 115.006 39.6002 115.345 40.3345C115.771 41.2534 116.135 42.2066 116.324 43.205C116.434 43.789 116.485 44.3901 116.41 44.9805C116.264 46.1464 115.631 47.1962 115.195 48.2697C114.718 49.442 114.311 50.6443 113.973 51.8638C113.628 53.109 113.372 54.3672 113.291 55.6596C113.237 56.4927 113.254 57.3665 113.636 58.1094C113.806 58.4378 114.225 58.9274 114.643 58.7663C114.811 58.7019 115.01 58.4722 115.167 58.3713C115.414 58.2146 115.659 58.0557 115.908 57.9032C116.683 57.4331 117.501 57.0337 118.349 56.7117C118.68 56.5871 119.012 56.5506 119.341 56.4476C119.712 56.3316 120.077 56.044 120.412 55.8507C121.194 55.3956 121.971 54.9361 122.677 54.3758C123.319 53.8669 123.893 53.5019 124.328 52.7698C124.732 52.0914 124.979 51.3356 125.209 50.5799C125.799 48.6347 125.331 46.3374 124.444 44.534C124.041 43.7138 123.528 42.9559 123.01 42.2023C122.36 41.2555 121.698 40.3065 120.9 39.4821C120.421 38.9883 119.891 38.5374 119.302 38.1767C118.63 37.7624 117.868 37.3008 117.069 37.1999C116.893 37.1784 116.717 37.1762 116.539 37.1805C116.213 37.187 115.884 37.2127 115.577 37.3222C115.425 37.3759 115.279 37.451 115.152 37.5477Z" fill="#272443"/>
<path d="M110.002 42.723C110.077 42.6865 110.163 42.6736 110.253 42.6865C110.597 42.7359 110.88 42.9763 111.129 43.1996C111.608 43.6312 111.911 44.0327 112.076 44.6639C112.198 45.1276 112.282 45.6343 112.097 46.0787C112.11 46.0465 111.756 45.6579 111.717 45.6064C111.421 45.2006 111.202 44.7498 110.88 44.359C110.747 44.198 110.607 44.0434 110.446 43.9103C110.311 43.8008 110.163 43.7085 110.036 43.5904C109.91 43.4723 109.8 43.322 109.779 43.1503C109.753 42.9549 109.852 42.796 110.002 42.723Z" fill="#C9644D"/>
<path d="M111.931 50.7481C111.941 50.733 111.952 50.7159 111.961 50.7008C112.794 49.4513 115.57 48.2898 116.394 50.1598C116.684 50.8168 116.544 51.6154 116.134 52.2037C115.333 53.3459 112.978 54.2691 111.787 53.2107C111.063 52.5644 111.484 51.4415 111.931 50.7481Z" fill="#F7967C"/>
<path d="M108.201 45.6499C108.192 45.5232 108.519 45.4825 108.527 45.6048C108.538 45.7723 108.57 45.9333 108.665 46.0729C108.75 46.2017 108.869 46.3069 108.989 46.4057C109.221 46.5946 109.483 46.7578 109.779 46.8243C109.835 46.8372 109.899 46.8759 109.854 46.9381C109.811 46.9961 109.702 47.0154 109.635 47.0004C109.294 46.9252 108.989 46.7535 108.72 46.5345C108.592 46.4293 108.458 46.3133 108.364 46.1738C108.254 46.0192 108.212 45.8367 108.201 45.6499Z" fill="#272443"/>
<path d="M107.072 50.6295C107.283 51.0933 106.823 51.7975 106.402 52.0058C106.031 52.1883 105.595 52.2119 105.185 52.1453C104.887 52.0981 104.59 52.0015 104.343 51.8254C104.176 51.7052 103.94 51.527 103.946 51.2972C103.957 50.9451 104.024 50.5952 104.142 50.2645C104.187 50.14 104.243 50.0133 104.35 49.9339C104.573 49.7707 104.88 49.8974 105.138 49.9962C105.423 50.1057 105.724 50.1744 106.029 50.2023C106.269 50.2238 106.521 50.2195 106.742 50.3182C106.911 50.3977 107.016 50.505 107.072 50.6295Z" fill="#F7967C"/>
<path d="M104.687 50.6443C104.76 50.6293 104.852 50.6507 104.906 50.7066C105.11 50.9256 105.408 51.0028 105.698 51.0179C105.93 51.0308 106.318 51.0651 106.451 50.8247C106.507 50.7216 106.825 50.7946 106.758 50.9148C106.578 51.2433 106.05 51.2176 105.73 51.2004C105.318 51.1768 104.899 51.0694 104.609 50.7581C104.56 50.7023 104.637 50.6529 104.687 50.6443Z" fill="#DB6357"/>
<path d="M109.206 59.0728C109.124 59.0492 109.043 59.0277 108.959 59.0105C108.551 58.9204 108.13 58.901 107.712 58.8817C106.743 58.8366 105.666 58.7164 104.719 58.9504C97.8805 60.6379 93.1464 66.306 89.0865 71.6799C87.7317 73.4726 72.2069 91.2626 72.6814 91.634C78.3881 96.0954 84.2772 100.323 90.3274 104.301C90.7805 104.598 91.2528 104.902 91.7895 104.967C92.921 105.104 93.5673 103.631 94.2436 102.929C98.0223 99.0003 101.85 95.5802 104.704 90.8783C107.626 86.0669 109.904 80.8948 112.081 75.7034C113.285 72.8285 114.659 69.9129 115.011 66.7783C115.144 65.5975 115.155 64.2685 114.726 63.1392C114.457 62.435 113.547 61.8059 112.967 61.3293C112.257 60.7453 111.499 60.2171 110.704 59.7555C110.228 59.4829 109.734 59.2252 109.206 59.0728Z" fill="#E6EEFC"/>
<path d="M71.0275 107.62C70.5745 107.65 70.1236 107.616 69.7307 107.399C68.8698 106.926 68.0432 105.175 68.5542 104.234C68.7495 103.871 69.091 103.612 69.4302 103.375C71.7962 101.729 74.5357 100.722 77.1744 99.5623C81.7732 97.542 86.1337 95.0236 90.5221 92.576C91.8103 91.8589 93.8628 90.5213 95.3528 91.2363C95.8488 91.4746 96.274 91.8374 96.7849 92.0113C97.283 92.181 97.764 92.3248 98.2299 92.5824C99.0994 93.0612 99.8529 93.7482 100.396 94.5813C100.686 95.0257 100.922 95.526 100.944 96.0563C100.974 96.8099 100.57 97.5119 100.106 98.1088C98.101 100.683 94.8977 101.984 91.7975 103.004C85.2685 105.151 78.5098 106.542 71.7102 107.54C71.4891 107.575 71.2572 107.607 71.0275 107.62Z" fill="#F7967C"/>
<path d="M86.7444 95.4235C87.5882 96.9693 88.2538 98.6031 88.8871 100.243C89.2371 101.149 89.7309 103.904 90.9719 104.035C91.1801 104.056 91.3862 103.994 91.5859 103.932C94.0248 103.161 96.4466 102.15 98.3703 100.465C100.966 98.1888 102.465 94.5883 100.831 91.3227C100.288 90.2363 99.3988 89.2852 98.2609 88.8644C97.4686 88.5703 96.5991 88.5467 95.7575 88.6175C94.7999 88.6991 93.8402 88.9031 92.9921 89.3539C92.129 89.8134 91.4184 90.509 90.6605 91.1295C89.6815 91.9303 88.6187 92.6238 87.4593 93.1262C86.3708 93.5964 86.1668 94.3607 86.7444 95.4235Z" fill="#E6EEFC"/>
<path d="M69.7242 102.57C70.5272 102.944 70.8964 103.483 71.1991 104.423C71.328 104.822 71.4396 105.226 71.5341 105.63C71.7209 106.424 71.7939 106.888 71.1004 107.476C69.8809 108.507 68.1483 109.2 66.684 109.906C65.3121 110.57 63.908 111.401 62.2741 111.414C62.0144 111.416 61.7439 111.394 61.4991 111.278C61.424 111.242 61.3466 111.195 61.2994 111.126C61.2071 110.988 61.2608 110.808 61.3745 110.712C61.4862 110.615 61.6429 110.581 61.7911 110.546C62.0487 110.484 64.668 109.408 64.6229 109.337C64.5929 109.292 64.565 109.247 64.537 109.2C64.58 109.271 61.4475 110.209 61.2049 110.278C60.7519 110.404 60.2753 110.533 59.7922 110.42C59.4852 110.347 59.1438 110.095 59.1739 109.795C59.1975 109.567 59.4208 109.44 59.6269 109.348C60.4556 108.981 61.3381 108.768 62.184 108.44C62.7508 108.221 63.3176 108.002 63.8844 107.783C63.8608 107.727 63.8371 107.669 63.8135 107.613C63.8071 107.596 61.9092 108.236 61.7267 108.3C60.9108 108.597 60.0434 108.779 59.1546 108.844C58.9785 108.857 58.8003 108.863 58.6242 108.807C58.4503 108.751 58.2807 108.62 58.2292 108.446C58.182 108.292 58.2357 108.131 58.3323 108.017C58.4289 107.903 58.5642 107.83 58.7016 107.766C59.3177 107.47 60.0069 107.319 60.651 107.077C61.5119 106.752 62.3729 106.433 63.2382 106.113C63.221 106.065 63.2038 106.016 63.1866 105.971C62.5017 106.171 61.7953 106.327 61.1233 106.514C60.5458 106.675 59.9382 106.933 59.3349 107.006C59.0107 107.047 58.7874 106.98 58.5491 106.722C58.4396 106.602 58.2979 106.224 58.4783 106.123C59.4079 105.606 60.3762 105.149 61.3745 104.756C61.7352 104.827 62.5511 104.329 62.9182 104.221C63.528 104.045 64.1699 103.946 64.7904 103.811C64.9085 103.785 65.0545 103.732 65.0652 103.609C65.0759 103.465 64.8913 103.399 64.7475 103.382C63.7964 103.259 62.4244 103.358 61.6708 102.705C60.9988 102.121 63.3669 102.04 63.7062 102.027C64.4404 101.999 65.1747 102.014 65.909 102.008C67.0426 101.997 68.2191 102.025 69.3034 102.396C69.4558 102.456 69.5954 102.51 69.7242 102.57Z" fill="#F7967C"/>
<path d="M103.018 90.9149C104.388 87.4754 105.653 83.9909 106.936 80.5557C108.13 77.3653 109.373 74.1405 109.85 70.7482C110.15 68.6056 110.719 63.3841 108.295 62.2483C107.615 61.9306 106.829 61.9027 106.086 62.0122C104.195 62.2891 102.928 63.5709 101.97 65.151C100.279 67.9421 99.437 71.1519 98.4988 74.2779C96.9143 79.5638 95.0035 84.7509 92.7792 89.8006C91.8903 91.8166 90.9392 93.8649 90.7825 96.0634C90.658 97.8153 91.564 97.9549 92.9746 98.5023C94.2434 98.9962 96.7769 100.641 98.0715 99.8142C98.6748 99.4298 99.0419 98.7729 99.3769 98.1395C100.624 95.7499 101.833 93.3388 103.018 90.9149Z" fill="#E6EEFC"/>
<path d="M114.567 61.9588C115.052 62.7832 115.382 63.7257 115.516 64.7885C115.78 66.9054 115.35 69.0395 114.921 71.1307C114.21 74.5938 113.437 78.0526 112.789 81.5285C112.184 84.7726 111.975 88.182 111.447 91.4755C110.895 94.9236 110.288 98.3609 109.629 101.79C108.976 105.182 107.915 108.624 107.488 112.044C107.308 112.844 107.108 113.678 106.578 114.304C105.637 115.412 104.001 115.526 102.55 115.556C99.6816 115.616 96.8132 115.679 93.9448 115.739C91.815 115.784 88.6698 115.468 86.716 116.353C85.9023 116.72 85.2367 117.345 84.6076 117.976C81.8895 120.7 79.53 123.764 76.799 126.478C74.0702 129.192 70.8734 131.592 67.1505 132.571C65.5338 132.996 63.8376 133.146 62.2854 133.767C59.5888 134.845 57.6479 137.185 55.6641 139.302C52.5918 142.578 49.0149 145.592 44.7832 147.231C40.53 148.875 35.1368 146.979 30.7548 146.194C26.5531 145.442 22.3536 144.689 18.1519 143.937C16.1939 143.587 13.5853 143.57 11.7668 142.776C11.4404 142.634 8.21565 140.362 8.06536 141.168C9.80013 132.008 12.136 122.961 15.0517 114.107C16.3119 110.277 17.3489 104.823 19.7643 101.569C21.7911 98.8397 25.5934 96.8559 28.6936 95.6944C32.7944 94.1593 37.1635 93.4937 41.3823 92.33C44.7724 91.3939 48.0659 90.1358 51.2542 88.6544C61.3343 83.9718 70.2271 77.1895 79.3862 70.9847C83.985 67.8694 88.674 64.8615 93.6185 62.3152C97.949 60.0866 103.018 56.9885 108.038 57.8709C110.767 58.3518 113.242 59.7087 114.567 61.9588Z" fill="#404082"/>
<path d="M87.0154 111.101C88.3851 107.926 89.697 104.729 90.953 101.506C92.209 98.2856 93.4048 95.0415 94.5427 91.7759C95.1847 89.9338 95.8095 88.0874 96.4128 86.2324C96.4493 86.1229 96.7734 86.1465 96.7305 86.2796C95.657 89.5667 94.5277 92.8344 93.3383 96.0785C92.1488 99.3247 90.9014 102.549 89.596 105.751C88.8596 107.556 88.1061 109.355 87.3331 111.146C87.2859 111.258 86.9617 111.228 87.0154 111.101Z" fill="#272443"/>
<path d="M57.5328 127.857C58.5161 126.042 59.4844 124.22 60.4398 122.39C61.3995 120.553 62.3442 118.708 63.2738 116.855C64.1992 115.011 65.1117 113.16 66.0091 111.301C66.9108 109.435 67.7975 107.561 68.6692 105.68C69.5366 103.808 70.3911 101.93 71.2306 100.045C71.3358 99.8084 71.441 99.5722 71.5441 99.3382C71.5913 99.2308 71.9176 99.2609 71.8618 99.3854C71.0266 101.273 70.1764 103.153 69.3112 105.028C68.4438 106.911 67.5592 108.785 66.6618 110.655C65.7686 112.514 64.8605 114.369 63.9373 116.216C63.0098 118.071 62.0694 119.917 61.114 121.757C60.1629 123.588 59.1967 125.413 58.2177 127.23C58.0953 127.457 57.973 127.683 57.8506 127.91C57.7926 128.011 57.4706 127.973 57.5328 127.857Z" fill="#272443"/>
<path d="M28.5166 139.808C30.1354 137.21 31.6748 134.565 33.1305 131.873C34.5797 129.198 35.9474 126.478 37.2312 123.719C37.9569 122.16 38.6547 120.588 39.3267 119.006C39.3718 118.899 39.6981 118.929 39.6444 119.053C38.4486 121.87 37.1668 124.651 35.8013 127.39C34.4444 130.113 33.0038 132.796 31.4838 135.431C30.625 136.921 29.7404 138.393 28.8322 139.853C28.7721 139.956 28.45 139.916 28.5166 139.808Z" fill="#272443"/>
<path d="M16.7967 126.023C17.1939 123.784 17.6534 121.557 18.1751 119.344C18.4692 118.101 18.7806 116.86 19.1112 115.625C19.1412 115.516 19.4654 115.535 19.4289 115.673C18.8385 117.869 18.3104 120.08 17.8445 122.307C17.3807 124.522 16.9771 126.753 16.6357 128.99C16.4425 130.255 16.2707 131.522 16.1183 132.791C16.1032 132.917 15.7748 132.909 15.7898 132.791C16.0625 130.528 16.3974 128.271 16.7967 126.023Z" fill="#272443"/>
</svg>
