<svg width="123" height="164" viewBox="0 0 123 164" fill="none" xmlns="http://www.w3.org/2000/svg">
<path d="M69.936 128.674C66.7988 128.674 63.7836 128.03 61.093 126.775C56.5618 124.66 52.5615 120.795 48.5031 114.609C46.1202 110.977 44.0244 107.119 42.272 103.143L42.711 102.95C44.4522 106.901 46.5368 110.734 48.9046 114.346C52.9105 120.456 56.8488 124.266 61.2956 126.341C67.964 129.452 76.6081 128.574 83.3195 124.105C89.3837 120.067 93.5096 112.948 94.9356 104.066C96.5248 94.1743 97.8101 84.0987 98.7557 74.1206C99.3449 67.9101 99.8159 61.6038 100.154 55.3783C100.251 53.5752 100.298 51.7214 100.341 49.9277C100.437 46.0607 100.536 42.0623 101.157 38.2178L101.63 38.2947C101.013 42.1073 100.915 46.0888 100.82 49.939C100.775 51.7365 100.73 53.594 100.63 55.4046C100.292 61.6376 99.8215 67.9495 99.2305 74.1675C98.2829 84.1568 96.9958 94.2419 95.4066 104.145C94.7274 108.378 93.4552 112.219 91.6277 115.558C89.5751 119.309 86.8676 122.321 83.5822 124.508C80.2931 126.698 76.4842 128.088 72.5628 128.529C71.6828 128.623 70.8047 128.674 69.936 128.674Z" fill="#272443"/>
<path d="M74.349 105.952C74.4729 109.238 74.6004 112.521 74.7205 115.807C74.7374 116.277 74.7674 116.788 75.0676 117.152C75.3697 117.52 75.8669 117.649 76.3304 117.756C78.6232 118.289 80.8091 118.546 83.1188 118.902C84.5748 119.099 85.9745 119.176 87.4493 119.064C87.6257 119.051 87.817 119.026 87.9409 118.899C88.0722 118.764 88.0853 118.555 88.0891 118.368C88.1641 115.501 88.2542 112.634 88.348 109.767C88.5413 103.881 88.8583 98.0043 89.0591 92.1409C89.2655 86.0993 89.5845 80.052 89.3499 74.0066C89.3199 73.2129 89.2618 72.4061 88.9916 71.6575C88.7345 70.9407 88.2936 70.3065 87.8583 69.6817C86.3085 67.4565 85.027 65.1355 82.4396 63.9722C79.7752 62.777 77.0959 63.4168 74.7449 64.9647C72.4934 66.447 73.1407 69.4284 73.2289 71.7794C73.2289 78.9131 73.6736 86.1424 73.8968 93.2536C74.0301 97.4865 74.1877 101.719 74.349 105.952Z" fill="#E6EEFC"/>
<path d="M87.739 163.473C86.8853 163.717 85.1366 163.929 84.4461 163.206C83.6956 162.422 82.977 161.598 82.0201 161.056C81.2639 160.628 80.5078 160.51 79.6954 160.379C79.4458 160.339 79.1907 160.298 78.928 160.245C78.9223 160.245 78.9186 160.244 78.9129 160.244C78.4401 160.15 77.9561 159.983 77.5489 159.733C76.9447 159.365 76.365 158.836 76.5057 158.105C76.5582 157.831 76.6802 157.577 76.8284 157.333C76.9241 157.178 77.031 157.024 77.1342 156.872C77.1567 156.838 77.1811 156.804 77.2037 156.769C77.6596 156.093 77.8472 155.305 78.5489 154.842C79.2038 154.41 80.0425 154.26 80.8099 154.401C81.476 154.521 82.4404 154.885 82.8457 155.463C83.3072 156.123 83.6131 157.011 84.0108 157.724C84.904 159.332 85.8965 160.9 87.1555 162.249C87.4895 162.608 87.7878 162.962 87.739 163.473Z" fill="#F7967C"/>
<path d="M89.6683 163.949C89.7771 163.913 89.8765 163.857 89.9009 163.782C89.9478 163.638 89.7958 163.514 89.6645 163.439C88.8145 162.955 87.9346 162.275 86.9308 162.3C86.3941 162.313 85.8744 162.444 85.3603 162.587C84.9606 162.698 84.6586 162.926 84.2439 162.694C84.0131 162.564 83.8349 162.36 83.651 162.17C82.8048 161.294 81.739 160.654 80.6208 160.17C79.9228 159.868 79.2023 159.624 78.4743 159.403C77.9902 159.255 77.0427 158.769 76.5567 159.071C76.3729 159.185 76.3503 159.455 76.4385 159.654C76.5267 159.851 76.6956 159.999 76.8401 160.163C77.5943 161.011 77.6788 162.242 77.8082 163.369C77.8514 163.737 78.1028 163.722 78.3917 163.726C78.4368 163.726 79.0109 163.741 79.0109 163.741C79.0109 163.349 79.0072 162.958 79.0072 162.566C79.0053 162.228 79.0034 161.895 79.0034 161.555C79.0015 161.242 78.8496 160.878 79.2323 160.711C79.2492 160.703 79.268 160.697 79.2867 160.69C79.4875 160.619 79.7108 160.632 79.9341 160.681C79.966 160.686 79.9997 160.696 80.0297 160.707C80.2962 160.774 80.5607 160.893 80.7859 160.973C82.1743 161.472 83.09 162.403 83.9268 163.533C84.0375 163.679 84.1444 163.788 84.2551 163.872L85.1952 163.895L85.4504 163.9L89.3718 164H89.3887C89.4562 164 89.5669 163.983 89.6683 163.949Z" fill="#A96950"/>
<path d="M78.0791 155.469C77.9346 154.726 77.8708 153.968 77.8051 153.214C77.4392 148.977 77.0302 144.746 76.5987 140.517C76.2215 136.813 74.8987 133.256 77.4317 130.059C78.246 129.03 79.4337 128.156 80.7415 128.226C82.4996 128.319 83.7492 130.076 84.0813 131.805C84.875 135.954 84.1001 140.446 83.706 144.602C83.3814 148.005 83.3064 151.458 82.7904 154.826C82.7172 155.3 82.6309 155.805 82.3063 156.16C82.0192 156.473 81.5915 156.616 81.1768 156.711C80.6515 156.833 80.415 156.7 79.9572 156.557C79.4168 156.391 78.777 156.749 78.3492 156.242C78.2179 156.087 78.1654 155.882 78.1222 155.681C78.1072 155.612 78.0922 155.541 78.0791 155.469Z" fill="#F7967C"/>
<path d="M87.6581 123.389C87.5137 126.883 87.388 130.379 87.2791 133.872C87.144 138.176 87.039 142.484 86.9583 146.79C86.9395 147.796 86.9076 148.806 86.8832 149.815H73.5991C73.6498 147.956 73.7173 146.096 73.7755 144.218C73.8693 141.162 73.965 138.105 74.0569 135.047C74.0663 134.773 74.0738 134.501 74.0813 134.229C74.1864 130.818 74.2915 127.406 74.3965 123.997C74.436 122.686 74.4772 121.372 74.5166 120.059C74.5223 119.913 74.526 119.768 74.5298 119.624C74.5373 119.376 74.5448 119.128 74.5523 118.883C74.5917 117.592 74.374 116.029 74.9669 114.835C75.4604 113.843 77.0946 113.154 78.0572 112.651C78.545 112.396 79.0723 112.195 79.6164 112.06C79.7233 112.032 79.8303 112.008 79.9391 111.987C80.6934 111.837 81.472 111.82 82.2169 111.967C83.9187 112.301 86.2997 112.52 87.2904 114.109C87.4405 114.349 87.5662 114.606 87.6694 114.877C87.6769 114.894 87.6825 114.912 87.69 114.931C87.7238 115.021 87.7557 115.115 87.7839 115.209C88.5419 117.646 87.7576 121.018 87.6581 123.389Z" fill="#E6EEFC"/>
<path d="M67.7665 91.0191C69.9806 96.4754 72.1965 101.933 74.4105 107.39C74.7595 108.249 75.1141 109.118 75.6695 109.861C76.724 111.272 78.4201 112.092 80.1482 112.439C81.8762 112.784 83.6568 112.705 85.4149 112.623C86.0191 112.595 86.6307 112.566 87.2105 112.386C87.8672 112.184 89.1619 111.544 89.4808 110.88C89.8486 110.11 89.3438 108.716 89.2088 107.9C88.8279 105.609 88.3738 103.329 87.8466 101.067C87.128 97.9839 86.0529 94.9443 85.4506 91.8634C84.1728 85.3189 81.9869 78.7182 79.9924 72.3575C79.5215 70.6839 78.9286 68.8451 77.4219 67.9764C76.6977 67.558 75.8477 67.4248 75.0146 67.3591C71.0782 67.0495 65.7251 68.1753 62.8976 71.1774C61.6855 72.4645 62.0607 74.0406 62.4285 75.6167C63.0064 78.0934 63.7682 80.5213 64.6181 82.9173C65.5882 85.6473 66.6764 88.3341 67.7665 91.0191Z" fill="#E6EEFC"/>
<path d="M63.9901 152.713C63.1345 152.473 61.5359 151.735 61.3277 150.758C61.1025 149.696 60.9205 148.619 60.3914 147.655C59.973 146.893 59.3913 146.396 58.7684 145.859C58.5751 145.694 58.3819 145.525 58.1849 145.343C58.1811 145.341 58.1774 145.335 58.1736 145.334C57.8209 145.007 57.4963 144.609 57.2805 144.183C56.9597 143.553 56.7439 142.799 57.2486 142.249C57.4381 142.043 57.6745 141.892 57.9278 141.761C58.0911 141.679 58.2618 141.603 58.4307 141.528C58.4682 141.512 58.5057 141.495 58.5432 141.478C59.2862 141.142 59.8585 140.57 60.701 140.545C61.4853 140.521 62.2771 140.834 62.8568 141.356C63.3597 141.808 63.9901 142.624 64.0314 143.328C64.0783 144.133 63.8719 145.048 63.8344 145.865C63.7518 147.701 63.7706 149.557 64.1346 151.368C64.2322 151.844 64.2997 152.304 63.9901 152.713Z" fill="#F7967C"/>
<path d="M65.3811 154.132C65.4918 154.158 65.6062 154.164 65.6663 154.111C65.7826 154.014 65.7169 153.828 65.6456 153.695C65.1766 152.837 64.7844 151.796 63.9157 151.291C63.4522 151.021 62.94 150.86 62.4297 150.712C62.0319 150.597 61.6529 150.633 61.4221 150.216C61.2945 149.986 61.2495 149.717 61.1932 149.46C60.9324 148.271 60.362 147.165 59.6659 146.167C59.2306 145.544 58.7447 144.957 58.2418 144.387C57.9078 144.008 57.3562 143.096 56.7839 143.098C56.5681 143.098 56.4049 143.317 56.3768 143.533C56.3486 143.747 56.4143 143.963 56.4518 144.175C56.6488 145.293 56.0747 146.385 55.5925 147.413C55.4349 147.749 55.6581 147.867 55.9021 148.023C55.9396 148.047 56.4218 148.361 56.4218 148.361C56.6282 148.027 56.8308 147.693 57.0372 147.359C57.2117 147.072 57.3862 146.785 57.5645 146.496C57.7277 146.229 57.7877 145.839 58.2024 145.899C58.2212 145.903 58.2399 145.906 58.2587 145.908C58.4669 145.953 58.6508 146.083 58.8141 146.24C58.8385 146.263 58.861 146.287 58.8816 146.312C59.073 146.511 59.2362 146.747 59.3863 146.935C60.3057 148.089 60.5965 149.363 60.7147 150.762C60.7316 150.944 60.7654 151.093 60.8161 151.224L61.6041 151.738L61.818 151.877L65.1034 154.02L65.1165 154.029C65.1728 154.063 65.276 154.108 65.3811 154.132Z" fill="#A96950"/>
<path d="M59.9695 140.833C60.2378 140.126 60.5793 139.447 60.9208 138.771C62.8346 134.974 64.7071 131.157 66.5609 127.331C68.1839 123.98 68.9269 120.26 72.762 118.869C73.9947 118.423 75.4639 118.301 76.5409 119.048C77.9875 120.05 78.1301 122.204 77.5034 123.847C76.0005 127.795 72.9834 131.212 70.4655 134.54C68.4015 137.268 66.5252 140.165 64.3187 142.76C64.0073 143.126 63.6677 143.511 63.2061 143.642C62.7971 143.758 62.358 143.653 61.9546 143.518C61.4424 143.346 61.3129 143.109 60.9977 142.747C60.6262 142.321 59.8925 142.291 59.795 141.636C59.765 141.435 59.8288 141.233 59.8963 141.04C59.9188 140.968 59.9432 140.901 59.9695 140.833Z" fill="#F7967C"/>
<path d="M89.5307 110.468C89.5325 110.678 89.5156 110.888 89.4856 111.1C89.4049 111.667 89.2173 112.237 88.9603 112.802C88.63 113.522 88.1835 114.235 87.6957 114.928C87.6169 115.04 87.5362 115.153 87.4536 115.265C86.5924 116.447 85.6392 117.564 84.9675 118.558C83.0105 121.455 81.0686 124.364 79.1416 127.279C78.2936 128.563 77.4493 129.848 76.6087 131.135C76.0702 131.957 75.5335 132.779 75.0007 133.601C74.6873 134.081 74.374 134.563 74.0625 135.045C73.4021 136.064 72.7454 137.083 72.0887 138.104C71.5445 138.95 70.9873 139.792 70.4357 140.638L64.0375 136.691L63.8105 136.552L59.1292 133.664C60.148 132.109 61.1837 130.563 62.2194 128.992C64.0544 126.212 65.8913 123.435 67.7244 120.652C69.6045 117.804 71.4845 114.958 73.3646 112.11C74.3046 110.685 75.2446 109.261 76.1846 107.837C76.695 107.064 77.1659 106.102 77.8095 105.36C77.8752 105.285 77.9408 105.212 78.0121 105.141C78.2091 104.938 78.4249 104.758 78.6613 104.612C79.6013 104.026 81.3538 104.299 82.4364 104.375C83.8455 104.475 85.294 105.01 86.3372 105.978C87.4217 106.982 88.9715 108.173 89.4106 109.663C89.4856 109.926 89.5288 110.192 89.5307 110.468Z" fill="#E6EEFC"/>
<path d="M88.7457 74.4877C88.3292 75.0168 87.4042 75.1219 86.8019 75.3358C85.8356 75.681 84.8562 75.8461 83.8392 75.9887C83.2013 76.0788 82.5615 76.167 81.9236 76.257L81.5295 76.3114C81.2969 76.3433 81.0642 76.3752 80.8334 76.409C80.7396 76.4222 80.6477 76.4353 80.5557 76.4484C79.8784 76.5422 79.2011 76.636 78.5237 76.7317C76.6268 76.9963 74.7242 77.2609 72.8085 77.3284C71.1443 77.3885 69.48 77.2965 67.827 77.107C67.7276 77.0957 67.63 77.0826 67.5305 77.0713C67.3673 77.0526 67.2041 77.0319 67.0427 77.0094C66.174 76.8931 65.2828 76.8218 64.4478 76.5366C63.7949 76.3133 62.7666 75.9268 62.3914 75.3264C62.125 74.9042 62.033 74.3995 61.9448 73.9098C61.457 71.1798 61.32 68.5493 61.5902 65.7874C61.7422 64.2375 61.9167 62.6915 62.1156 61.1473C62.4289 58.7137 62.8154 56.237 63.9506 54.0624C64.8137 52.4132 66.9208 51.9816 68.6169 51.7902C70.193 51.6139 71.7841 51.6777 73.3658 51.6589C75.274 51.6364 77.1765 51.4825 79.0847 51.4544C80.0266 51.4412 80.9666 51.46 81.9067 51.4975C82.6516 51.5257 83.95 51.3531 84.6179 51.6777C85.9426 52.3231 86.6349 54.9086 87.0121 56.177C87.0702 56.3721 87.1265 56.5654 87.179 56.7624C87.194 56.8149 87.2091 56.8675 87.2222 56.92C87.7776 58.9408 88.1697 60.9991 88.4455 63.078C88.8808 66.3634 89.0253 69.7013 89.0647 73.0186C89.0741 73.527 89.0628 74.0843 88.7457 74.4877Z" fill="#E6EEFC"/>
<path d="M89.7143 109.313C89.6993 109.885 89.6261 110.456 89.5042 111.015C89.4967 111.045 89.4911 111.073 89.4836 111.103C89.3541 111.685 89.174 112.251 88.9582 112.805C88.9582 112.807 88.9563 112.807 88.9563 112.807C88.7668 113.293 88.5492 113.767 88.3146 114.233C88.1476 114.563 87.9694 114.888 87.7874 115.208C87.0237 116.55 86.1456 117.83 85.2976 119.115C84.2168 120.753 83.1192 122.38 82.0047 123.993C81.1547 125.226 80.2935 126.453 79.4248 127.673C79.4811 127.682 79.528 127.706 79.5261 127.751C79.4679 129.534 79.4229 131.318 79.3891 133.101C79.3291 136.262 79.3047 139.424 79.3178 142.585C79.3291 144.996 79.3591 147.406 79.4116 149.817H79.1246C79.102 148.801 79.0833 147.785 79.0683 146.769C79.0232 143.608 79.0139 140.446 79.0439 137.283C79.0701 134.168 79.1358 131.054 79.2334 127.941C79.027 128.228 78.8206 128.517 78.6142 128.804C77.4678 130.395 76.3045 131.977 75.1243 133.544C75.0943 133.583 75.0455 133.602 74.9967 133.604C74.9798 133.604 74.9648 133.602 74.9479 133.6C74.916 133.594 74.8072 133.557 74.8466 133.502C74.9948 133.307 75.1412 133.11 75.2875 132.913C75.7285 132.322 76.1675 131.731 76.6047 131.138C76.6066 131.134 76.6103 131.132 76.6103 131.131C77.3308 130.153 78.0457 129.17 78.7512 128.185C79.8901 126.597 81.0121 124.997 82.1172 123.387C83.2224 121.775 84.3125 120.154 85.3857 118.52C86.0893 117.451 86.8117 116.381 87.4534 115.268C87.4553 115.267 87.4553 115.267 87.4553 115.267C87.5303 115.139 87.6035 115.01 87.6767 114.878C87.9018 114.473 88.1139 114.06 88.3109 113.64C88.7631 112.674 89.1158 111.655 89.2978 110.602C89.3522 110.294 89.3897 109.983 89.4122 109.67C89.4273 109.467 89.4366 109.259 89.4366 109.056C89.4404 108.564 89.2547 108.101 89.1552 107.619C88.6974 105.392 88.2095 103.174 87.6898 100.96C87.1682 98.7327 86.6128 96.5149 86.0274 94.3028C85.4458 92.1057 84.8341 89.9179 84.1905 87.7377C83.547 85.5574 82.8734 83.3866 82.1698 81.2251C81.65 79.6265 81.1134 78.0354 80.5599 76.4481C80.3667 75.8889 80.1678 75.3298 79.9689 74.7725C79.9276 74.6581 80.2109 74.6337 80.2466 74.7294C80.3404 74.9958 80.4361 75.2604 80.528 75.5249C80.6312 75.8195 80.7344 76.1141 80.8376 76.4086C80.877 76.5212 80.9164 76.6338 80.9558 76.7482C81.1622 76.6207 81.3536 76.4725 81.5356 76.3111C81.6801 76.1854 81.8151 76.0484 81.9465 75.9077C82.5263 75.2847 83.0291 74.5849 83.5545 73.9169C84.1305 73.1833 84.7065 72.4478 85.2844 71.7142C85.3463 71.6372 85.6203 71.6823 85.5321 71.793C85.2 72.217 84.8679 72.6392 84.5358 73.0632C83.9635 73.7912 83.395 74.5211 82.819 75.2472C82.5394 75.5981 82.2523 75.9452 81.9277 76.2567C81.6801 76.495 81.4117 76.7107 81.1134 76.889C81.0871 76.9059 81.0478 76.9134 81.0102 76.9134C81.5975 78.6095 82.166 80.3113 82.7158 82.0187C83.4138 84.1915 84.0836 86.3755 84.7197 88.5689C85.3557 90.751 85.958 92.9425 86.5321 95.1415C87.1044 97.3368 87.6467 99.5395 88.157 101.752C88.4291 102.928 88.6936 104.106 88.9469 105.287C89.0726 105.878 89.1983 106.467 89.3222 107.058C89.3803 107.334 89.4029 107.653 89.5061 107.913C89.6449 108.266 89.6993 108.546 89.7143 108.867C89.72 109.005 89.72 109.15 89.7143 109.313Z" fill="#6981B7"/>
<path d="M80.0045 111.587C79.9895 111.722 79.9688 111.856 79.9426 111.987C79.7362 113.021 79.1827 113.95 78.5635 114.796C77.7923 115.848 76.948 116.85 76.1524 117.886C75.6008 118.605 75.0567 119.329 74.5201 120.059C73.4356 121.528 72.383 123.02 71.3623 124.534C68.7111 128.455 66.2644 132.517 64.0354 136.694L63.8083 136.555C66.3282 131.838 69.1295 127.271 72.1879 122.886C72.9553 121.787 73.7358 120.699 74.5351 119.623C75.3306 118.552 76.1412 117.492 76.9668 116.443C77.7586 115.439 78.6235 114.458 79.192 113.304C79.3947 112.895 79.5354 112.48 79.6198 112.06C79.8075 111.148 79.7324 110.214 79.451 109.276C79.0607 107.972 78.4246 106.739 77.8693 105.501C77.8486 105.454 77.828 105.409 77.8073 105.364C77.2707 104.17 76.7379 102.973 76.2144 101.774C75.113 99.2563 74.0435 96.7252 73.0303 94.1697C71.0227 89.1075 69.2365 83.9458 67.9137 78.6603C67.7823 78.1312 67.6547 77.6021 67.5309 77.0711C66.4389 72.3428 65.7447 67.5264 65.6058 62.6724C65.6021 62.5636 65.891 62.5636 65.8929 62.6724C65.9117 63.3479 65.9417 64.0234 65.9792 64.6988C66.2269 68.8811 66.8798 73.0296 67.8255 77.1086C68.1163 78.362 68.4334 79.6097 68.7749 80.848C70.2328 86.1298 72.1203 91.2858 74.2011 96.3518C75.2443 98.8923 76.3382 101.412 77.4546 103.923C77.6366 104.332 77.8224 104.741 78.0062 105.148C78.3909 106 78.7793 106.85 79.1508 107.707C79.678 108.919 80.149 110.24 80.0045 111.587Z" fill="#6981B7"/>
<path d="M87.1813 56.7589C86.0592 56.757 84.9391 56.757 83.8171 56.757C83.7889 56.757 83.7608 56.7551 83.7326 56.7551C83.7326 56.7364 83.7326 56.7176 83.7326 56.6988C83.7814 55.2916 83.8358 53.8844 83.8996 52.4791C83.9052 52.3721 83.6182 52.3684 83.6125 52.4791C83.5469 53.9051 83.4925 55.3292 83.4456 56.7551C82.5618 56.7514 81.6762 56.742 80.7925 56.7664C80.6311 56.772 80.4679 56.7795 80.3065 56.7908C80.299 56.6144 80.2915 56.4362 80.2821 56.2598C80.2221 55.0684 80.1508 53.8769 80.0664 52.6873C80.0588 52.5766 79.7718 52.5804 79.7793 52.6873C79.875 54.0608 79.9557 55.4361 80.0195 56.8114C79.3027 56.8696 78.5897 56.9709 77.873 57.076C76.7866 57.2336 75.6833 57.3706 74.5876 57.2261C74.5369 57.2186 74.4338 57.2223 74.4112 57.2824C74.3868 57.3424 74.4675 57.3743 74.5126 57.38C76.3663 57.6276 78.1882 57.1154 80.027 56.969C80.0589 57.6557 80.0889 58.3425 80.1133 59.0292C80.1883 61.1288 80.2277 63.2283 80.2334 65.3279C80.2371 66.5212 80.2259 67.7145 80.2071 68.9079C80.2052 69.0054 80.4004 68.9979 80.4529 68.9641C81.2691 68.4538 82.1115 67.9172 82.7176 67.1573C83.0234 66.7726 83.2561 66.3411 83.3836 65.8664C83.53 65.3166 83.5525 64.7462 83.5619 64.1796C83.5994 61.7592 83.6482 59.3407 83.727 56.9221C84.6295 56.924 85.532 56.924 86.4345 56.924C86.6972 56.924 86.9599 56.924 87.2225 56.924C87.2113 56.864 87.1963 56.8114 87.1813 56.7589ZM83.3536 59.8717C83.3236 61.1044 83.2992 62.3371 83.2823 63.5698C83.2673 64.6674 83.303 65.8082 82.6857 66.767C82.1547 67.5944 81.3197 68.1686 80.496 68.6883C80.5279 66.6432 80.5279 64.598 80.4942 62.5529C80.4623 60.6822 80.4003 58.8134 80.314 56.9446C80.3328 56.9428 80.3534 56.9409 80.3722 56.9409C81.376 56.8883 82.3836 56.9127 83.3855 56.9127H83.4381C83.408 57.8997 83.378 58.8847 83.3536 59.8717Z" fill="#6981B7"/>
<path d="M82.5302 54.9533C82.5171 54.8032 82.457 54.6606 82.3332 54.5686C82.1887 54.4617 82.0105 54.4036 81.8303 54.3979C81.517 54.3867 81.1643 54.5799 81.1549 54.927C81.1549 54.9327 81.1549 54.9364 81.1568 54.9401C81.1549 54.9495 81.153 54.9589 81.1511 54.9683C81.1173 55.2291 81.2187 55.4955 81.4476 55.6381C81.684 55.7845 82.0705 55.8727 82.3107 55.6963C82.4214 55.6156 82.4645 55.4899 82.4908 55.3605C82.5208 55.2272 82.5415 55.0884 82.5302 54.9533Z" fill="#6981B7"/>
<path d="M70.5835 25.5623C69.9831 25.416 69.2983 25.142 68.6828 25.1308C68.0937 25.1195 67.4595 25.2659 66.8629 25.2884C65.5851 25.3353 64.3036 25.2771 63.0352 25.112C62.8438 25.0876 62.6412 25.0557 62.4892 24.9356C62.2847 24.7743 62.219 24.4966 62.1684 24.2395C61.8625 22.7197 61.5604 21.1249 62.007 19.6407C62.1984 19.0009 62.5211 18.4137 62.8532 17.832C63.069 17.453 63.2885 17.074 63.4799 16.6837C64.3486 14.9069 64.6038 12.8936 64.6582 10.9179C64.6807 10.1542 64.6732 9.38497 64.8027 8.63258C64.8927 8.1091 65.0466 7.59873 65.2061 7.09026C65.405 6.45232 65.6114 5.81439 65.8909 5.20647C66.6171 3.62851 67.8047 2.42957 69.2457 1.49143C70.1576 0.896644 71.2008 0.543895 72.2628 0.329998C72.9758 0.185524 74.6025 -0.302324 75.2161 0.275573C75.3643 0.416295 75.4844 0.596423 75.6683 0.684608C76.0191 0.85535 76.3212 0.564518 76.6664 0.594539C77.0286 0.626435 77.4864 0.891009 77.8204 1.03361C78.5765 1.35445 79.3139 1.76723 79.858 2.39579C80.6648 3.32267 80.9425 4.56853 81.5654 5.60236C82.2672 6.76379 83.0683 7.89518 83.6369 9.13166C84.3648 10.7152 84.6332 12.5071 84.3949 14.2333C84.2091 15.5748 83.725 16.9389 84.0571 18.2523C84.196 18.7983 84.4681 19.2974 84.6745 19.8209C85.1379 20.9917 85.2674 22.322 84.8808 23.5209C84.6463 24.247 84.2129 24.915 83.635 25.4122C82.9501 26.0014 82.3629 26.0595 81.5073 26.1177C79.4152 26.2622 77.3325 25.8081 75.2405 25.9639C74.1091 26.0483 72.5949 26.114 71.5179 25.6955C71.1389 25.5473 70.8912 25.234 70.4935 25.1158C69.9531 24.9563 69.3264 25.0707 68.7804 25.1364C68.7504 25.1401 68.7185 25.1439 68.6885 25.1476L70.5835 25.5623Z" fill="#404082"/>
<path d="M87.5149 37.0599C87.4868 37.4126 87.4737 37.7654 87.4718 38.1162C87.4699 38.8968 87.5281 39.6773 87.6031 40.456C87.6482 40.9194 87.7007 41.381 87.7514 41.8444C87.8527 42.7488 87.9465 43.6531 87.9728 44.5613C87.9746 44.6701 87.9784 44.7789 87.9803 44.8878C87.9896 45.719 87.9859 46.5501 87.969 47.3813C87.969 47.3813 87.969 47.3814 87.969 47.3832C87.954 48.1244 87.9296 48.8655 87.894 49.6047C87.8771 49.9669 87.8583 50.329 87.8339 50.6911C87.757 51.9482 87.65 53.2035 87.5149 54.455C87.4962 54.6201 87.4737 54.7946 87.3648 54.9184C87.2429 55.0591 87.044 55.1004 86.8601 55.1173C86.3948 55.1604 85.937 55.1079 85.4829 55.0028C84.4848 54.7739 83.5053 54.2898 82.524 53.9952C82.2088 53.9014 81.8955 53.8283 81.5803 53.7888C81.5803 53.7888 81.5802 53.7888 81.5784 53.7888C81.1731 53.7382 80.7659 53.7419 80.3569 53.8339C79.7265 53.9765 79.1824 54.3048 78.6945 54.727C78.1598 55.1904 77.6926 55.7646 77.261 56.3256C76.5049 57.3069 75.7656 58.2995 75.0433 59.307C73.88 60.9263 72.7542 62.5849 71.3695 64.0184C71.332 64.0616 71.2907 64.1009 71.2494 64.1422C69.6433 65.7727 67.6 66.8779 65.416 67.5608C64.3221 67.9042 63.1926 68.1406 62.065 68.2832C61.7216 68.3263 61.2938 68.3188 61.1325 68.013C61.0612 67.8779 61.063 67.7166 61.0687 67.5646C61.185 63.9752 61.3426 60.3878 61.5377 56.8041C61.6578 54.5957 61.8548 52.3892 61.9186 50.1808C61.9355 49.6329 61.943 49.085 61.9393 48.5371C61.9336 47.736 61.9111 46.9348 61.8717 46.1317C61.761 43.8577 61.5246 41.5817 61.2394 39.3114C61.1268 38.4164 61.0068 37.5252 60.8848 36.634C60.761 35.7352 60.6334 34.8383 60.5095 33.9434C60.4401 33.4461 60.3707 32.9489 60.3032 32.4536C60.2769 32.2622 60.2394 32.0577 60.1981 31.8419C59.9392 30.536 59.4588 28.8511 59.774 27.6221C59.8585 27.2957 59.9992 27.003 60.2131 26.7553C60.2393 26.7253 60.2656 26.6971 60.2938 26.6671C60.8341 26.1211 61.4364 25.6783 62.0687 25.2787C62.1231 25.2449 62.1757 25.213 62.2301 25.1792C62.4158 25.0648 62.6035 24.9541 62.7948 24.8471C63.2358 24.5938 63.688 24.3499 64.1364 24.1003C64.2434 24.0422 64.3484 23.9821 64.4554 23.9221C64.5192 23.8864 64.583 23.8508 64.6468 23.8133C65.1308 23.5375 65.6168 23.2598 66.099 22.9783C66.2247 22.907 66.3523 22.832 66.478 22.7588C66.5812 22.6988 66.6844 22.6368 66.7876 22.5768C66.9396 22.4886 67.0897 22.4004 67.2417 22.3122C67.5925 22.1077 67.9434 21.9013 68.2943 21.6949C68.45 21.603 68.6076 21.5111 68.7633 21.4191C68.8121 21.406 68.8609 21.391 68.9097 21.3779C68.9866 21.3554 69.0654 21.3309 69.1423 21.3066C70.0467 21.0289 70.9079 20.708 71.8536 20.5673C72.3489 20.4904 72.8687 20.5129 73.3921 20.5767C74.6511 20.7249 75.8632 20.8994 77.0903 21.2221C77.8164 21.4135 78.5069 21.7775 79.1842 22.1847C79.9985 22.6687 80.796 23.2147 81.6234 23.5862C81.9743 23.7438 82.327 23.9034 82.6798 24.0628C83.2933 24.3387 83.9068 24.6163 84.5223 24.8921C85.0476 25.1304 85.5805 25.3725 86.0702 25.6764C86.3723 25.8641 86.6594 26.0742 86.9145 26.3237C87.4193 26.8153 87.742 27.4702 87.939 28.2094C87.939 28.2094 87.939 28.2094 87.939 28.2113C88.091 28.7761 88.1698 29.3896 88.2036 30.0125C88.2786 31.3935 88.1304 32.827 88.0497 33.8965C87.9709 34.9978 87.6031 35.981 87.5149 37.0599Z" fill="#A96950"/>
<path d="M79.4222 29.5943C79.3847 30.0296 78.9569 33.679 78.2476 33.1761C76.2137 31.737 74.6414 29.75 73.101 27.793C71.7894 26.1288 70.6168 24.2956 69.5229 22.4719C69.3109 22.1173 69.1683 21.7139 69.1458 21.3105C70.0501 21.0328 70.9113 20.7119 71.857 20.5712C72.3523 20.4943 72.8721 20.5168 73.3955 20.5806C74.6545 20.7288 75.8666 20.9033 77.0937 21.226C77.8198 21.4174 78.5103 21.7814 79.1877 22.1886C79.2533 23.3143 79.3171 24.4401 79.3828 25.564C79.3978 25.8192 79.4128 26.0744 79.4259 26.3295C79.4822 27.4197 79.516 28.5079 79.4222 29.5943Z" fill="#F7967C"/>
<path d="M94.074 50.8683C93.984 51.1291 93.8695 51.3993 93.6537 51.5719C93.3085 51.8477 92.815 51.8008 92.3779 51.7389C91.7606 51.6526 91.1451 51.5663 90.5278 51.48C89.5972 51.3487 88.6159 51.1967 87.8391 50.6957C87.7228 50.6207 87.6083 50.5362 87.5014 50.4443C87.0342 50.0409 86.7134 49.4949 86.4131 48.9564C85.3399 47.0257 84.4262 45.0068 83.6794 42.926C83.6437 42.8265 83.6081 42.7271 83.5743 42.6277C83.0396 41.0985 82.5968 39.5393 82.2478 37.9576C81.6793 35.3758 81.3847 32.5801 82.4016 30.156C82.4429 30.0528 82.4879 29.9514 82.5367 29.852C83.1146 28.6287 84.0321 27.5686 85.1616 26.8218C85.49 26.6042 85.869 26.2946 86.2705 26.2552C86.37 26.2458 86.4694 26.2514 86.5689 26.2796C86.6252 26.2964 86.6814 26.3171 86.734 26.3433C87.1336 26.5441 87.4188 27.0226 87.5858 27.396C87.7078 27.668 87.826 27.9419 87.9423 28.2159C88.8748 30.4355 89.6141 32.7678 90.2258 35.1094C90.4434 35.9424 90.646 36.7793 90.8355 37.6123C90.8618 37.7324 90.8918 37.8544 90.9237 37.9763C91.1526 38.8901 91.5054 39.847 92.3647 40.1584C92.466 40.1941 92.5749 40.2222 92.6612 40.2842C92.967 40.5093 92.83 40.9803 92.8413 41.3612C92.8619 42.0347 93.4248 42.5432 93.7963 43.1042C94.4268 44.0611 94.5206 45.2657 94.5543 46.4121C94.5975 47.9113 94.5619 49.4461 94.074 50.8683Z" fill="#A96950"/>
<path d="M90.1801 49.8854C90.2608 50.2662 90.4034 50.6246 90.6398 50.9361C91.1989 51.6754 92.1727 51.9924 93.0996 52.0262C94.9534 52.0919 96.0529 50.8554 96.839 49.3375C98.4433 46.2435 99.7454 42.9919 100.721 39.6465C101.183 38.0666 101.397 36.331 102.006 34.8225C102.702 33.102 103.098 31.1919 103.566 29.3963C103.695 28.9009 103.821 28.3925 103.779 27.8802C103.738 27.3699 103.502 26.8464 103.057 26.5894C101.712 25.8126 101.134 25.8426 100.406 27.1879C99.7829 28.3381 99.1619 29.4882 98.5446 30.6421C96.9572 33.6086 95.6157 36.8864 93.745 39.6615C92.0151 42.2264 90.3996 45.2265 90.1201 48.3618C90.0769 48.8628 90.075 49.3919 90.1801 49.8854Z" fill="#F7967C"/>
<path d="M101.011 28.3417C101.026 28.353 101.041 28.3624 101.058 28.3736C101.307 28.5312 101.613 28.5668 101.908 28.5931C102.332 28.6288 102.756 28.6494 103.18 28.655C103.64 28.6625 104.264 28.6569 104.503 28.1991C104.734 27.7582 104.961 27.2234 105.141 26.7544C105.435 25.9832 105.497 25.1426 105.52 24.3171C105.527 24.0112 105.529 23.6979 105.416 23.4146C105.3 23.1256 105.071 22.893 104.818 22.711C104.463 22.4558 104.041 22.285 103.606 22.2606C103.169 22.2363 102.718 22.3695 102.392 22.6584C101.268 23.651 100.66 25.1914 100.51 26.6568C100.446 27.2685 100.518 27.989 101.011 28.3417Z" fill="#F7967C"/>
<path d="M122.104 16.6274C121.828 17.7644 121.555 18.8977 121.267 20.031C121.256 20.076 121.243 20.121 121.234 20.1661C121.224 20.2111 121.217 20.258 121.207 20.303C120.986 21.4494 120.75 22.594 120.515 23.7404C120.474 23.9412 120.337 24.2808 120.063 24.1926C119.933 24.1494 119.842 24.0312 119.759 23.9205C119.189 23.1531 118.524 22.4627 117.937 21.714C117.569 21.2506 117.063 21.0911 116.519 21.0367C116.504 21.0348 116.489 21.0329 116.475 21.031C116.419 21.0254 116.363 21.0217 116.308 21.0179C116.093 21.0029 115.873 21.0048 115.659 21.0029C114.492 20.9466 113.32 20.8547 112.149 20.8096C111.406 20.8322 110.665 20.8509 109.922 20.8415C108.961 20.8303 108.002 20.7759 107.047 20.6933C106.631 20.6577 106.216 20.6164 105.801 20.5695C105.651 20.5526 105.505 20.5132 105.358 20.4663C105.212 20.4456 105.066 20.4213 104.921 20.395C104.767 20.3687 104.617 20.3387 104.463 20.3049C103.932 20.1923 103.407 20.046 102.885 19.8527C102.606 19.7495 102.328 19.6332 102.051 19.5037C101.272 19.136 100.232 18.6219 99.4538 17.9352C99.4406 17.9239 99.4275 17.9108 99.4144 17.8995C98.9416 17.4736 98.5701 16.9839 98.4237 16.4248C98.4237 16.4191 98.4218 16.4173 98.4218 16.4116C98.191 15.511 98.4068 14.5503 98.996 13.8336C98.9997 13.8317 99.0035 13.8261 99.0072 13.8223C99.3768 13.3795 99.921 13.0925 100.531 12.9105C100.548 12.9049 100.566 12.8992 100.581 12.8954C101.578 12.6065 102.737 12.584 103.598 12.584C104.424 12.584 105.216 12.6853 105.985 12.8561C106.133 12.888 106.282 12.9236 106.428 12.963C106.621 13.0118 106.811 13.0662 107.002 13.1225C107.152 13.1412 107.3 13.1675 107.445 13.2182C108.743 13.661 110.032 14.1544 111.288 14.7267C111.959 15.0344 112.623 15.3684 113.284 15.7043C114.363 16.164 115.464 16.5805 116.545 17.0271C116.74 17.1171 116.939 17.2109 117.14 17.2897C117.192 17.3104 117.245 17.331 117.297 17.3498C117.31 17.3554 117.325 17.3591 117.339 17.3648C117.855 17.5449 118.382 17.6199 118.911 17.3554C119.763 16.9295 120.656 16.588 121.5 16.1377C121.622 16.072 121.755 16.0045 121.89 16.0213C122.176 16.0626 122.153 16.4285 122.104 16.6274Z" fill="#404082"/>
<path d="M121.206 20.303C120.984 21.4494 120.748 22.594 120.513 23.7385C120.472 23.9393 120.335 24.2808 120.063 24.1907C119.932 24.1475 119.842 24.0293 119.759 23.9186C119.187 23.1512 118.524 22.4608 117.935 21.7121C117.569 21.2487 117.061 21.0892 116.517 21.0348C116.502 21.0329 116.487 21.031 116.474 21.031C116.419 21.0254 116.361 21.0217 116.307 21.0179L117.14 17.2935C117.192 17.3141 117.245 17.3348 117.297 17.3535C117.31 17.3591 117.325 17.3629 117.339 17.3685C117.855 17.5505 118.382 17.6237 118.911 17.3591C119.763 16.9332 120.656 16.5917 121.5 16.1414C121.622 16.0758 121.755 16.0082 121.892 16.0251C122.178 16.0607 122.155 16.4266 122.108 16.6255C121.832 17.7625 121.558 18.8977 121.269 20.0291C121.258 20.0741 121.247 20.1192 121.236 20.1642C121.224 20.213 121.215 20.258 121.206 20.303Z" fill="#272443"/>
<path d="M100.529 12.916L99.4124 17.9051C98.9395 17.4791 98.5681 16.9894 98.4236 16.4303C98.4217 16.4266 98.4217 16.4228 98.4198 16.4172C98.189 15.5184 98.4048 14.5559 98.9958 13.8392C98.9996 13.8354 99.0033 13.8317 99.0052 13.8279C99.3749 13.3832 99.919 13.098 100.529 12.916Z" fill="#272443"/>
<path d="M100.962 37.3368C101.015 37.3574 101.075 37.3668 101.129 37.3874C101.219 37.4193 101.303 37.5188 101.249 37.5938C101.227 37.6239 101.189 37.6389 101.153 37.6539C100.941 37.7439 100.908 37.8922 100.896 38.1117C100.887 38.3181 100.806 38.5151 100.765 38.7177C100.756 38.7628 100.748 38.8097 100.757 38.8547C100.787 38.9917 100.953 39.0423 101.09 39.0648C101.264 39.093 101.448 39.1155 101.613 39.0536C101.883 38.9504 102.048 38.6539 102.157 38.4044C102.253 38.183 102.345 37.9597 102.433 37.7364C102.786 36.8396 103.075 35.9164 103.296 34.9783C103.381 34.6237 103.456 34.2634 103.465 33.8994C103.472 33.5711 103.362 33.5936 103.073 33.5992C102.696 33.6067 102.305 33.6142 101.93 33.6686C101.754 33.693 101.414 33.7118 101.298 33.8525C101.157 34.0214 101.082 34.4829 101.065 34.695C101.061 34.7456 101.06 34.7982 101.084 34.8451C101.178 35.0327 101.581 34.9896 101.581 35.1978C101.461 35.2654 101.318 35.2954 101.208 35.3779C101.097 35.4586 101.033 35.6256 101.127 35.7232C101.195 35.7926 101.305 35.7945 101.405 35.8057C101.502 35.8189 101.619 35.8658 101.626 35.9596C101.497 36.0234 101.345 36.029 101.213 36.0872C101.082 36.1453 100.971 36.2992 101.048 36.4174C101.103 36.5037 101.223 36.5206 101.32 36.5619C101.416 36.6031 101.502 36.7232 101.431 36.7964C101.405 36.8227 101.365 36.8339 101.328 36.8414C101.198 36.8677 101.06 36.8846 100.951 36.9578C100.844 37.031 100.786 37.1904 100.872 37.2843C100.894 37.3068 100.926 37.3237 100.962 37.3368Z" fill="#272443"/>
<path d="M107.242 20.4065C107.184 20.5097 107.118 20.6035 107.047 20.6917L107.043 20.6955C106.782 21.0182 106.452 21.2734 106.242 21.6224C105.876 22.2303 105.713 23.0765 105.523 23.7557C105.122 25.2042 104.863 26.694 104.754 28.1931C104.606 30.257 104.696 32.4561 103.503 34.2573C103.278 34.5988 102.957 34.7602 102.595 34.8277C102.576 34.8315 102.559 34.8352 102.54 34.8371C102.416 34.8577 102.289 34.8671 102.157 34.8709C102.142 34.8727 102.129 34.8727 102.112 34.8727C102.079 34.8746 102.043 34.8746 102.007 34.8727C101.925 34.8708 101.84 34.8709 101.761 34.8427C101.692 34.8164 101.632 34.7714 101.578 34.7226C101.15 34.353 100.942 33.9608 100.853 33.4055C100.555 31.5254 100.611 29.591 101.002 27.7297C101.294 26.3412 101.78 24.8928 102.368 23.6019C102.88 22.4761 102.962 21.1083 102.88 19.8587C102.872 19.7348 102.863 19.611 102.852 19.489C102.827 19.2245 102.795 18.9449 102.904 18.7029C103.15 18.1475 104.004 18.0499 104.537 18.0124C104.66 18.003 104.784 18.0086 104.906 18.0237C105.062 18.0424 105.216 18.0762 105.368 18.1175C105.447 18.1381 105.523 18.1606 105.602 18.1831C106.019 18.307 106.432 18.4477 106.805 18.671C107.03 18.8061 107.244 18.9806 107.358 19.217C107.544 19.5885 107.443 20.0444 107.242 20.4065Z" fill="#404082"/>
<path d="M106.426 12.9693C105.839 14.2133 105.711 15.6112 105.54 16.9583C105.491 17.3467 105.433 17.7332 105.371 18.1179C105.244 18.8834 105.09 19.6433 104.917 20.3994C104.827 20.7897 104.733 21.1819 104.634 21.5721C104.242 23.1294 103.797 24.6717 103.403 26.2291C103.204 27.0171 103.024 27.8126 102.904 28.6176C102.788 29.4112 102.737 30.2143 102.707 31.0155C102.658 32.2857 102.628 33.5579 102.593 34.8281C102.574 34.8319 102.557 34.8356 102.538 34.8375C102.414 34.8581 102.287 34.8675 102.155 34.8713C102.14 34.8731 102.127 34.8731 102.11 34.8731C102.15 33.3852 102.172 31.8955 102.253 30.4094C102.296 29.5914 102.382 28.779 102.532 27.974C102.681 27.1804 102.876 26.3979 103.079 25.6174C103.484 24.0619 103.928 22.5178 104.306 20.9548C104.358 20.7409 104.409 20.5252 104.458 20.3113C104.587 19.7465 104.705 19.178 104.808 18.6076C104.842 18.4143 104.876 18.2211 104.906 18.0259C104.992 17.4706 105.064 16.9114 105.135 16.3523C105.283 15.1665 105.461 13.9469 105.981 12.8643C106.133 12.8943 106.279 12.9299 106.426 12.9693Z" fill="#272443"/>
<path d="M102.763 21.4863C103.032 21.1617 103.341 20.8746 103.707 20.7283C104.206 20.5275 104.769 20.6457 105.304 20.5913C105.514 20.5707 105.722 20.5219 105.921 20.4469C106.158 20.3587 106.448 20.2404 106.638 20.4074C106.797 20.5482 106.769 20.8071 106.679 20.9985C106.417 21.5707 105.797 21.8822 105.204 22.0905C104.06 22.4939 103.593 24.2163 102.983 25.1526C102.469 25.9406 101.696 26.663 100.756 26.7118C100.414 26.7305 100.998 24.646 101.075 24.4809C101.416 23.7435 101.713 23.0024 102.165 22.3194C102.341 22.0567 102.536 21.7584 102.763 21.4863Z" fill="#F7967C"/>
<path d="M104.977 22.8788C104.904 23.044 104.863 23.2316 104.913 23.4042C104.962 23.5768 105.122 23.7269 105.302 23.7232C105.124 23.8733 104.945 24.0253 104.767 24.1754C104.538 24.3686 104.3 24.5732 104.184 24.8508C104.067 25.1285 104.116 25.4982 104.371 25.6558C104.127 25.6689 103.912 25.8865 103.902 26.1323C103.893 26.3763 104.092 26.6108 104.334 26.6408C104.12 26.8284 103.885 27.0799 103.96 27.3538C104.005 27.5208 104.163 27.639 104.332 27.6746C104.501 27.7084 104.677 27.6709 104.837 27.6033C105.067 27.5058 105.274 27.35 105.428 27.153C105.499 27.0611 105.563 26.956 105.576 26.8397C105.589 26.7234 105.542 26.5939 105.439 26.5376C105.662 26.3781 105.846 26.1642 105.968 25.9184C106.043 25.7646 106.096 25.5939 106.069 25.425C106.043 25.2561 105.925 25.0947 105.758 25.0591C105.998 24.8602 106.191 24.605 106.317 24.3198C106.379 24.1791 106.426 24.0271 106.415 23.8733C106.403 23.7194 106.326 23.5656 106.193 23.4905C106.424 23.2916 106.636 23.0477 106.702 22.7494C106.807 22.2747 106.508 21.9201 106.051 22.0402C105.585 22.1584 105.176 22.4285 104.977 22.8788Z" fill="#F7967C"/>
<path d="M105.411 26.5194C105.37 26.4969 105.317 26.5007 105.276 26.5194C105.025 26.6339 104.751 26.6864 104.475 26.6789C104.443 26.6789 104.379 26.6902 104.379 26.7315C104.377 26.7727 104.447 26.784 104.475 26.784C104.798 26.7934 105.118 26.7277 105.413 26.5926C105.449 26.5776 105.443 26.5382 105.411 26.5194Z" fill="#DB6357"/>
<path d="M105.581 25.0608C105.225 25.3028 104.834 25.4904 104.424 25.6199C104.39 25.6311 104.36 25.6593 104.39 25.6912C104.418 25.7231 104.484 25.7212 104.521 25.71C104.945 25.5767 105.349 25.3835 105.716 25.134C105.81 25.072 105.638 25.0214 105.581 25.0608Z" fill="#DB6357"/>
<path d="M106.118 23.3671C106.079 23.354 106.019 23.3559 105.987 23.3859C105.908 23.4591 105.822 23.521 105.726 23.5716C105.681 23.596 105.638 23.6148 105.591 23.6317C105.565 23.6411 105.537 23.6504 105.51 23.658C105.482 23.6655 105.464 23.6711 105.441 23.6767C105.413 23.6823 105.355 23.7011 105.374 23.7424C105.39 23.7799 105.458 23.7855 105.492 23.7799C105.738 23.7274 105.966 23.6129 106.15 23.4403C106.186 23.4084 106.148 23.3765 106.118 23.3671Z" fill="#DB6357"/>
<path d="M65.6442 37.2267C65.6311 37.343 65.6179 37.4612 65.6048 37.5775C65.5823 37.7689 65.5579 37.9603 65.5354 38.1517C65.3084 40.0017 65.0382 41.8442 64.7267 43.6811C64.5879 44.4991 64.359 45.1952 64.1188 45.9701C63.6647 47.428 63.4058 49.0079 62.1318 50.0229C62.0642 50.0773 61.9929 50.1299 61.9254 50.1843C61.7565 50.3156 61.5971 50.4601 61.5107 50.6534C61.4582 50.7697 61.4357 50.8954 61.3944 51.0155C60.7265 52.95 57.7131 53.2164 56.0188 53.4097C55.4541 53.4734 54.8574 53.5072 54.3396 53.2708C53.1331 52.7229 53.2232 51.2969 53.4521 50.2387C53.4934 50.0473 53.5365 49.8559 53.5816 49.6664C53.9155 48.2536 53.8217 47.1823 53.6116 45.7431C53.4859 44.8725 53.5084 43.8969 54.0806 43.2308C54.2476 43.0356 54.454 42.8762 54.5966 42.6641C54.7636 42.4165 54.8293 42.1144 54.8706 41.8179C54.9925 40.9717 54.9569 40.1011 55.1839 39.2756C55.3696 38.5982 55.7243 37.9809 56.0357 37.3505C56.5086 36.3898 56.8876 35.3822 57.1634 34.3484C57.4017 33.4534 57.3942 32.4553 57.6981 31.5884C57.7976 31.307 57.8989 31.0255 58.004 30.7459C58.0227 30.6934 58.0434 30.6409 58.0621 30.5902C58.6269 28.4175 59.6363 26.6594 61.6327 25.4999C61.8541 25.3723 62.0492 25.2597 62.2369 25.1865C62.5708 25.0589 62.8861 25.0552 63.3007 25.301C63.7773 25.5843 64.1394 26.0139 64.4096 26.4924C64.6047 26.8395 64.7774 27.196 64.9293 27.5619C65.5016 28.9353 65.7906 30.4289 65.8844 31.9205C65.9951 33.688 65.8469 35.463 65.6442 37.2267Z" fill="#A96950"/>
<path d="M58.58 50.4893C58.5537 50.874 58.4918 51.2699 58.2873 51.5963C58.0077 52.0429 57.5087 52.2943 57.0358 52.5251C56.2909 52.8872 55.5217 53.255 54.6942 53.3075C53.9887 53.3525 53.2795 53.118 52.7973 52.5926C51.6021 51.2905 50.6095 49.6788 49.5945 48.2321C48.495 46.6654 47.4311 45.0725 46.4048 43.457C44.3577 40.2354 42.4533 36.9219 40.6915 33.5333C40.455 33.0792 40.2186 32.6102 40.1436 32.1036C40.0685 31.597 40.183 31.0341 40.5582 30.6832C41.6953 29.625 42.2657 29.5255 43.277 30.6738C44.142 31.6551 45.0032 32.6383 45.8625 33.6234C48.1516 36.2502 50.3975 38.9164 52.6247 41.5957C53.7504 42.9504 54.8743 44.3107 55.9945 45.671C56.6287 46.4403 57.3867 47.1008 57.9721 47.9094C58.6194 48.8007 58.6513 49.4349 58.58 50.4893Z" fill="#F7967C"/>
<path d="M38.8317 31.8373C39.2539 32.0925 39.7098 32.3045 40.1939 32.4058C40.2014 32.4077 40.2108 32.4096 40.2183 32.4115C40.7118 32.509 41.2372 32.4847 41.6968 32.282C42.1847 32.0662 42.5768 31.6535 42.7832 31.1619C42.8433 31.0174 42.8883 30.8692 42.9183 30.7153C42.939 30.6121 43.0102 30.3888 42.9784 30.2913C42.6237 29.1599 42.0008 28.1148 41.1752 27.2667C40.8544 26.9365 40.5035 26.6363 40.1339 26.3586C39.875 26.1634 39.6367 25.9758 39.344 25.8351C39.0119 25.6775 38.6835 25.5124 38.3571 25.3435C38.085 25.2028 37.8148 25.0564 37.5258 24.9589C37.2369 24.8613 36.9236 24.8106 36.6233 24.865C36.4357 24.8988 36.2481 24.9795 36.1318 25.1315C36.1036 25.169 36.0773 25.2122 36.0773 25.2591C36.0773 25.366 36.1956 25.4298 36.295 25.4692C36.7904 25.6644 37.2819 25.882 37.7285 26.1747C38.1169 26.4299 38.5747 26.7995 38.7586 27.2385C38.7586 27.2385 38.4114 27.2479 38.3664 27.2367C38.2294 27.2029 38.0868 27.1278 37.9536 27.0772C37.7322 26.9928 37.5146 26.8933 37.2951 26.8051C36.7265 26.5743 36.1261 26.4374 35.5276 26.2985C35.278 26.2403 35.0248 26.1841 34.7696 26.1822C34.5707 26.1822 34.0247 26.2404 33.9759 26.4937C33.9403 26.6775 34.2067 26.8877 34.3268 26.9796C34.6683 27.2442 35.0792 27.4187 35.4751 27.5857C35.8222 27.7301 36.1712 27.8765 36.5183 28.021C36.7153 28.1035 36.9067 28.2086 37.068 28.3305C37.0436 28.3568 37.0174 28.3568 36.9836 28.3493C36.5277 28.2536 36.0548 28.5688 35.8578 28.9929C35.5764 29.6008 36.1674 30.3157 36.5652 30.7303C36.6365 30.8054 36.7097 30.8786 36.7997 30.9273C36.8898 30.9761 36.9986 31.0005 37.0962 30.9705C37.1937 30.9405 37.2744 30.8466 37.2707 30.7434C37.2688 30.7059 37.5521 30.8823 37.5709 30.8954C37.6928 30.9818 37.8017 31.0831 37.9161 31.1788C38.2032 31.4227 38.509 31.6441 38.8317 31.8373Z" fill="#F7967C"/>
<path d="M38.0661 30.078C38.0248 29.9054 37.9478 29.744 37.869 29.5845C37.6758 29.2037 37.4469 28.8397 37.1898 28.4982C37.156 28.4532 37.0022 28.4757 37.0378 28.5207C37.2292 28.7759 37.4056 29.0423 37.5632 29.3219C37.7189 29.5958 37.9009 29.8998 37.9347 30.2169C37.9422 30.2863 37.946 30.3632 37.9272 30.4326C37.9009 30.5283 37.8221 30.5433 37.7321 30.5433C37.5613 30.5415 37.3943 30.4739 37.2536 30.3801C37.0003 30.2131 36.8052 29.9598 36.6457 29.7065C36.4656 29.4213 36.3324 29.108 36.246 28.7815C36.2329 28.729 36.0772 28.7383 36.0941 28.804C36.1841 29.1417 36.323 29.4626 36.5125 29.7572C36.6795 30.0161 36.8821 30.2731 37.1448 30.442C37.1298 30.4514 37.1185 30.4626 37.126 30.4814C37.1373 30.5077 37.1448 30.534 37.1523 30.5602C37.1654 30.6146 37.1692 30.6709 37.1673 30.7291C37.1673 30.7422 37.1804 30.7535 37.1898 30.7591C37.2048 30.7685 37.2273 30.7722 37.2461 30.7722C37.2724 30.7722 37.323 30.7629 37.3249 30.7291C37.3287 30.6615 37.3211 30.594 37.3024 30.5283C37.4206 30.5827 37.5463 30.6165 37.6758 30.6259C37.7977 30.6353 37.9629 30.6334 38.0454 30.5264C38.1336 30.4082 38.0979 30.2093 38.0661 30.078Z" fill="#DB6357"/>
<path d="M38.2629 16.6747C38.2329 17.0894 38.2066 17.506 38.1897 17.9225C38.1541 18.7406 38.1428 19.5605 38.1559 20.3785C38.1672 21.0746 38.1878 21.7708 38.216 22.4669C38.2422 23.1198 38.2404 23.7821 38.3379 24.4332C38.3736 24.6696 38.4205 24.9023 38.488 25.1331C38.5237 25.2569 38.565 25.3807 38.6325 25.4914C38.6363 25.4989 38.6419 25.5065 38.6457 25.5121C38.7376 25.6509 38.8708 25.7598 38.9853 25.8817C39.0472 25.9493 39.1035 26.0187 39.1541 26.0919C39.5538 26.6754 39.5388 27.4259 39.1935 28.0263C39.0228 28.3209 38.8914 28.6286 38.8558 28.9701C38.7639 29.8594 39.6757 31.2104 40.7021 30.5668C40.7677 30.5255 40.8297 30.4767 40.8859 30.4242C41.2762 30.0715 41.4751 29.5405 41.3644 29.0189C41.2368 28.411 40.749 27.9756 40.2293 27.6529C40.1767 27.621 40.0754 27.2852 40.0529 27.2045C39.9947 26.9962 40.0266 26.7448 40.021 26.5309C40.0191 26.4108 40.0153 26.2889 39.9834 26.1725C39.9515 26.0562 39.8878 25.9418 39.7864 25.8723C39.7677 25.8592 39.7489 25.8461 39.7302 25.831C39.3812 25.5534 39.2742 25.0505 39.231 24.572C39.2104 24.3394 39.2048 24.1142 39.1935 23.921C39.1898 23.8572 39.186 23.7934 39.1823 23.7296C39.1579 23.2643 39.1354 22.799 39.1185 22.3336C39.1016 21.8665 39.0866 21.4011 39.0734 20.9339C39.0359 19.4667 38.9402 18.0088 38.6363 16.5659C38.6044 16.4121 38.5687 16.2582 38.5312 16.1044C38.4993 15.9693 38.4167 15.9449 38.3511 16.0106C38.3379 16.0237 38.3248 16.0387 38.3135 16.0593C38.2366 16.1888 38.2742 16.519 38.2629 16.6747ZM39.3887 28.6042C39.5556 28.2796 39.9816 28.0113 40.3512 28.1745C40.3643 28.1858 40.3831 28.1952 40.4037 28.2008C40.4112 28.2046 40.4188 28.2102 40.4263 28.2139C40.7771 28.4297 40.9085 28.9551 40.9385 29.3266C40.9647 29.6456 40.8897 29.912 40.672 30.1503C40.567 30.2647 40.4319 30.3585 40.2762 30.3904C39.8559 30.4786 39.6119 30.1221 39.4468 29.8032C39.2554 29.4317 39.1954 28.9832 39.3887 28.6042Z" fill="#A9CCFF"/>
<path d="M33.9134 28.7616C33.9359 28.8366 33.9622 28.9098 33.996 28.9792C34.5382 30.0637 36.0205 29.3845 36.4051 28.5758C36.5533 28.2662 36.6002 27.936 36.6078 27.5945C36.6228 26.9416 36.9586 26.328 37.5384 26.0166C37.651 25.9565 37.771 25.9077 37.9005 25.8702C38.0619 25.8252 38.2326 25.8027 38.3827 25.7314C38.3902 25.7276 38.3977 25.7239 38.4053 25.7201C38.5197 25.6619 38.621 25.5775 38.7148 25.4893C38.8912 25.3261 39.0544 25.1516 39.2064 24.9696C39.6267 24.4649 39.9701 23.8964 40.3322 23.3541C40.7187 22.7744 41.0977 22.1908 41.4711 21.6017C41.9083 20.9093 42.3248 20.2038 42.7188 19.4852C42.9196 19.1212 43.1147 18.7534 43.3042 18.3819C43.3755 18.2431 43.58 17.9804 43.5819 17.8266C43.5838 17.6896 43.49 17.6352 43.3718 17.7534C43.2611 17.866 43.1504 17.9786 43.0434 18.093C42.034 19.1662 41.1953 20.3633 40.3997 21.596C40.1464 21.9882 39.8913 22.3784 39.6342 22.7687C39.3415 23.2115 39.0451 23.6506 38.743 24.0859C38.6323 24.2454 38.5103 24.4349 38.3715 24.6225C38.0713 25.0296 37.696 25.4218 37.2213 25.4443C37.2025 25.4462 37.1838 25.4481 37.165 25.4518C37.0637 25.4706 36.9718 25.5269 36.8967 25.5982C36.8085 25.6807 36.7428 25.7839 36.6772 25.8852C36.5608 26.0654 36.4576 26.2961 36.3 26.4444C36.24 26.5006 35.9792 26.7352 35.9154 26.7352C35.3018 26.7389 34.6602 26.859 34.2342 27.3112C33.8702 27.7015 33.7633 28.2587 33.9134 28.7616ZM34.4369 27.7972C34.6564 27.4951 35.041 27.1142 35.4538 27.1123C35.4632 27.1123 35.4707 27.1123 35.4801 27.1123C35.5007 27.1179 35.5233 27.1217 35.5383 27.118C35.9398 27.1724 36.165 27.6208 36.1368 27.9867C36.1049 28.4107 35.8216 28.7616 35.4632 28.9792C35.1555 29.1668 34.7615 29.3451 34.45 29.0505C34.3337 28.9417 34.2662 28.7916 34.2361 28.6396C34.1742 28.3206 34.2493 28.0561 34.4369 27.7972Z" fill="#A9CCFF"/>
<path d="M39.1915 28.0254C39.0208 28.3199 38.8895 28.6276 38.8538 28.9691C38.7619 29.8585 39.6737 31.2094 40.7001 30.5658C40.7657 30.5246 40.8277 30.4758 40.884 30.4233C41.2742 30.0705 41.4731 29.5395 41.3624 29.0179C41.2348 28.41 40.747 27.9747 40.2272 27.652C40.1747 27.6201 40.0734 27.2842 40.0509 27.2035C39.9927 26.9953 40.0246 26.7438 40.019 26.5299C40.0171 26.4099 40.0134 26.2879 39.9815 26.1716C39.9496 26.0552 39.8858 25.9408 39.7845 25.8714C39.7657 25.8582 39.7469 25.8451 39.7281 25.8301C39.67 25.8376 39.6137 25.8489 39.5574 25.8695C39.4111 25.9202 39.2853 26.014 39.1502 26.0928C39.5518 26.6763 39.5368 27.4268 39.1915 28.0254ZM39.3885 28.6051C39.5555 28.2805 39.9814 28.0122 40.3511 28.1754C40.3642 28.1867 40.383 28.1961 40.4036 28.2017C40.4111 28.2055 40.4186 28.2111 40.4261 28.2149C40.777 28.4306 40.9083 28.956 40.9384 29.3275C40.9646 29.6465 40.8896 29.9129 40.6719 30.1512C40.5669 30.2656 40.4318 30.3595 40.276 30.3914C39.8557 30.4795 39.6118 30.123 39.4467 29.8041C39.2553 29.4326 39.1953 28.9841 39.3885 28.6051Z" fill="#404082"/>
<path d="M41.3644 29.0179C41.3025 28.7271 41.1599 28.4757 40.9685 28.2561C40.7621 28.0197 40.5013 27.8208 40.2293 27.652C40.1767 27.6201 40.0754 27.2842 40.0529 27.2035C39.9947 26.9953 40.0266 26.7438 40.021 26.5299C40.0191 26.4099 40.0154 26.2879 39.9835 26.1716C39.9516 26.0534 39.8878 25.9408 39.7846 25.8714C39.7658 25.8582 39.7471 25.8451 39.7302 25.8301C39.672 25.8357 39.6138 25.8507 39.5594 25.8695C39.4131 25.9202 39.2855 26.014 39.1523 26.0928C39.5463 26.6688 39.5369 27.4043 39.2048 28.001C39.2011 28.0103 39.1954 28.0197 39.1917 28.0272C39.0209 28.3218 38.8896 28.6295 38.8539 28.971C38.8408 29.0911 38.8483 29.2205 38.869 29.35C38.9797 30.0067 39.4975 30.7272 40.1467 30.7347C40.3231 30.7385 40.5107 30.6878 40.7002 30.5677C40.7659 30.5264 40.8278 30.4777 40.8841 30.4251C41.2762 30.0724 41.4732 29.5414 41.3644 29.0179ZM40.6721 30.1512C40.567 30.2656 40.4319 30.3595 40.2762 30.3914C39.8559 30.4795 39.6138 30.123 39.4487 29.8041C39.2555 29.4307 39.1954 28.9841 39.3887 28.6051C39.4956 28.3968 39.7095 28.213 39.9459 28.1492C40.0792 28.1135 40.2199 28.1173 40.3531 28.1754C40.3662 28.1867 40.3831 28.1961 40.4037 28.2017L40.4056 28.2036C40.4131 28.2074 40.4206 28.213 40.4281 28.2167C40.779 28.4325 40.9104 28.9579 40.9404 29.3294C40.9666 29.6465 40.8916 29.9129 40.6721 30.1512Z" fill="#404082"/>
<path d="M33.9134 28.7619C33.9359 28.837 33.9622 28.9101 33.996 28.9796C34.5382 30.064 36.0205 29.3848 36.4051 28.5762C36.5533 28.2666 36.6002 27.9364 36.6078 27.5949C36.6228 26.9419 36.9586 26.3284 37.5384 26.0169C37.4521 25.8781 37.377 25.7279 37.2832 25.5947C37.2476 25.5441 37.2082 25.4972 37.165 25.4521C37.0637 25.4709 36.9718 25.5272 36.8967 25.5985C36.8085 25.6811 36.7428 25.7843 36.6772 25.8856C36.5608 26.0657 36.4576 26.2965 36.3 26.4447C36.24 26.501 35.9792 26.7355 35.9154 26.7355C35.3018 26.7393 34.6602 26.8594 34.2342 27.3115C33.8702 27.7018 33.7633 28.2591 33.9134 28.7619ZM34.4369 27.7975C34.6564 27.4954 35.041 27.1145 35.4538 27.1127C35.4632 27.1127 35.4707 27.1127 35.4801 27.1127C35.5007 27.1183 35.5233 27.122 35.5383 27.1183C35.9398 27.1727 36.165 27.6211 36.1368 27.987C36.1049 28.4111 35.8216 28.7619 35.4632 28.9796C35.1555 29.1672 34.7615 29.3454 34.45 29.0509C34.3337 28.942 34.2662 28.7919 34.2361 28.6399C34.1742 28.321 34.2493 28.0564 34.4369 27.7975Z" fill="#404082"/>
<path d="M38.4801 24.9465C38.5289 24.9784 38.5945 24.9971 38.6583 24.9953C38.7296 25.0122 38.8084 25.0009 38.8572 24.9446C38.921 24.8733 38.9567 24.7513 38.9135 24.6632C38.816 24.4624 38.4369 24.498 38.4238 24.7101C38.3713 24.787 38.4032 24.8939 38.4801 24.9465Z" fill="#404082"/>
<path d="M38.3508 16.0057C38.4165 15.94 38.499 15.9644 38.5309 16.0995C38.5685 16.2533 38.6022 16.4072 38.636 16.561C38.94 18.002 39.0338 19.4618 39.0732 20.929C39.0863 21.3962 39.0995 21.8616 39.1182 22.3288C39.137 22.7941 39.1576 23.2594 39.182 23.7247C39.0207 23.691 38.8556 23.4996 38.7974 23.3814C38.6923 23.1693 38.6848 22.9235 38.6792 22.6871C38.6229 20.4806 38.5141 18.2741 38.3546 16.0732C38.3527 16.0507 38.3508 16.0301 38.3508 16.0057Z" fill="#6981B7"/>
<path d="M40.6048 30.1797C40.2615 30.4443 39.7324 30.3524 39.4472 30.0203C39.2539 29.7951 39.07 29.5643 38.8693 29.3486C38.6347 29.0953 38.3795 28.8663 38.0718 28.705C37.8748 28.6018 37.6609 28.5305 37.462 28.4273C37.265 28.3241 37.0774 28.1796 36.9817 27.977C36.8466 27.688 36.9254 27.5135 37.1037 27.4329C37.2331 27.3766 37.4151 27.3691 37.6047 27.4085C37.8504 27.4591 38.0756 27.5755 38.3045 27.6787C38.5935 27.8081 38.8937 27.9151 39.2014 27.9976C39.3571 28.0389 39.5147 28.0746 39.6742 28.1046C39.8112 28.129 39.95 28.1383 40.0888 28.1665C40.177 28.1852 40.2671 28.2021 40.3497 28.2378C40.7812 28.416 40.8769 28.9827 40.9032 29.3954C40.9163 29.6056 40.8825 29.8233 40.7662 29.9996C40.7249 30.0709 40.6668 30.131 40.6048 30.1797Z" fill="#F7967C"/>
<path d="M39.1487 27.829C38.7453 27.7877 38.3588 27.6696 37.9816 27.5251C37.7039 27.42 37.2968 27.1648 37.0135 27.3843C36.7658 27.5776 36.8409 27.9228 37.0172 28.133C37.2199 28.375 37.5238 28.5195 37.7996 28.6602C38.1186 28.8235 38.4545 28.9886 38.6665 29.2907C38.7002 29.3376 38.8522 29.3169 38.8184 29.2681C38.4863 28.7953 37.9085 28.6452 37.4469 28.3394C37.2086 28.1818 36.9234 27.9135 37.0341 27.5964C37.0548 27.5382 37.0867 27.4838 37.1317 27.4425C37.2199 27.3675 37.3287 27.3806 37.4338 27.4144C37.6045 27.4688 37.7696 27.5476 37.9366 27.6114C38.3156 27.754 38.704 27.8703 39.1074 27.9116C39.1825 27.921 39.2538 27.8403 39.1487 27.829Z" fill="#DB6357"/>
<path d="M41.459 31.0685C41.1269 31.0554 40.806 30.9409 40.5339 30.7514C40.4889 30.7195 40.3482 30.7608 40.4233 30.8133C40.7272 31.0254 41.0893 31.1417 41.4608 31.1567C41.4852 31.1586 41.5396 31.1473 41.5396 31.1136C41.5378 31.076 41.4834 31.0685 41.459 31.0685Z" fill="#DB6357"/>
<path d="M72.1995 46.7998C71.798 46.4208 71.3646 46.0775 70.9424 45.7266C70.5371 45.3889 70.19 45.1055 69.6534 45.0342C69.0098 44.9498 68.3213 44.9892 67.6721 44.9855C67.1636 44.9836 66.6682 45.0305 66.2461 45.342C65.8164 45.6609 65.5744 46.1375 65.4543 46.6479C65.428 46.7604 65.4168 46.9143 65.4074 47.0869C64.897 47.8581 64.4917 48.7643 64.4486 49.6762C64.3904 50.907 65.5818 50.8995 66.2329 51.665C66.914 52.4643 67.5857 52.9222 68.674 52.9353C69.8091 52.9484 70.9105 52.4794 71.8355 51.8527C72.5973 51.3348 73.3272 50.6218 73.4923 49.6762C73.6855 48.5523 72.9744 47.5335 72.1995 46.7998Z" fill="#8C4934"/>
<path d="M78.0027 35.9775C78.0102 35.5591 77.9408 35.1538 77.6987 34.8199C77.4717 34.5084 77.1208 34.3133 76.8413 34.0469C76.4472 33.6735 76.1902 33.1612 75.7549 32.8366C75.1113 32.3563 74.1807 32.3938 73.4714 32.7729C72.4207 33.3339 72.0886 34.3583 71.4375 35.2552C71.1373 35.668 70.7752 36.1539 70.7771 36.6962C70.779 37.3059 71.3287 37.6606 71.4507 38.2272C71.537 38.625 71.3513 39.0903 71.5858 39.4243C71.7622 39.6776 72.1036 39.7395 72.4095 39.7752C73.3251 39.884 74.2482 39.9459 75.1695 39.9609C75.5128 39.9665 75.8618 39.9647 76.1883 39.8596C76.7699 39.672 77.209 39.1729 77.4642 38.6175C77.7194 38.0621 77.8169 37.4504 77.9108 36.8463C77.9577 36.5629 77.9989 36.2665 78.0027 35.9775Z" fill="#8C4934"/>
<path d="M64.9154 27.7238C64.8948 28.0897 64.9811 28.4518 64.9642 28.8177C64.906 30.0129 63.8684 30.8854 62.8534 31.3451C62.0315 31.7185 61.1028 31.9323 60.2022 31.8441C59.81 31.8066 59.4216 31.7091 59.0501 31.5421C58.673 31.3732 58.2921 31.088 58.0032 30.7428C58.0219 30.6902 58.0426 30.6377 58.0613 30.587C58.6261 28.4143 59.6355 26.6562 61.6319 25.4967C61.8533 25.3691 62.0484 25.2565 62.2361 25.1833C62.4218 25.0689 62.6094 24.9582 62.8008 24.8512C63.2418 24.5979 63.6939 24.354 64.1424 24.1045C64.2493 24.0463 64.3544 23.9862 64.4613 23.9262C64.5251 23.8906 64.5889 23.8549 64.6527 23.8174C65.0148 24.0538 65.2963 24.3972 65.4126 24.8437C65.5665 25.4366 65.3713 26.0314 65.1875 26.5924C65.0843 26.9095 64.9755 27.2285 64.9342 27.5606C64.9229 27.6131 64.9173 27.6694 64.9154 27.7238Z" fill="#8C4934"/>
<path d="M62.9435 40.4368C62.8647 40.2511 62.7709 40.0747 62.6527 39.9115C62.4088 39.5775 62.0429 39.3129 61.6301 39.2848C61.2061 39.2566 60.7708 39.4762 60.3655 39.3448C59.9414 39.2079 59.7219 38.7463 59.3636 38.478C58.7369 38.0089 57.7781 38.2603 57.2584 38.8439C56.6486 39.5268 56.7555 40.2811 56.4891 41.0729C56.2377 41.8159 55.5059 42.2981 55.5003 43.1443C55.4872 44.8461 57.9788 45.7467 59.2453 46.3528C59.8326 46.6323 60.5231 46.7111 61.1442 46.5198C61.7652 46.3284 62.3056 45.8556 62.5307 45.2476C62.799 44.529 62.6264 43.7091 62.876 42.983C63.0073 42.6021 63.2531 42.255 63.2887 41.8534C63.315 41.5776 63.2362 41.3018 63.1555 41.0372C63.0936 40.8365 63.0261 40.632 62.9435 40.4368Z" fill="#8C4934"/>
<path d="M86.1342 27.9053C85.9485 28.6183 85.6088 29.4663 85.0685 29.9917C84.8883 30.1681 84.6407 30.215 84.3911 30.1737C84.1923 30.1399 84.0159 30.0274 83.8132 29.9973C83.5825 29.9598 83.3686 30.0086 83.149 30.063C82.9164 30.1212 82.6481 30.1718 82.4004 30.1531C82.0964 30.1324 81.8225 30.0105 81.6818 29.6784C81.6555 29.6165 81.6311 29.5527 81.6105 29.4889C81.4191 29.1568 81.1377 29.0386 80.8525 28.759C80.5691 28.4813 80.7099 28.2186 80.7568 27.8809C80.8206 27.4193 80.5316 27.0122 80.5016 26.5562C80.4753 26.1716 80.6085 25.7832 80.798 25.4548C81.1114 24.9126 81.6236 24.2953 82.2503 24.1246C82.3854 24.0889 82.5317 24.0683 82.6818 24.0664C83.2954 24.3422 83.9089 24.6199 84.5244 24.8957C85.0497 25.134 85.5826 25.3761 86.0723 25.68H86.0742C86.0836 25.6969 86.0929 25.7138 86.1023 25.7326C86.183 25.8958 86.2374 26.0703 86.2693 26.2504C86.3687 26.7945 86.2674 27.3874 86.1342 27.9053Z" fill="#8C4934"/>
<path d="M90.3936 40.6614C90.3786 40.2355 90.1554 39.9728 89.8308 39.7251C89.6244 39.5675 89.4855 39.4493 89.3654 39.2092C89.2754 39.029 89.2172 38.8376 89.0671 38.6969C88.917 38.5562 88.7219 38.483 88.523 38.4699C87.3484 37.7813 85.8286 38.1059 84.746 38.8958C84.4439 39.1153 84.0949 39.3762 83.8904 39.6951C83.6615 40.0516 83.7816 40.4531 83.7891 40.849C83.7966 41.3125 83.7028 41.7328 83.6071 42.1831C83.5302 42.5452 83.5433 42.8848 83.8679 43.1137C84.1006 43.2788 84.3876 43.3126 84.6597 43.3708C85.1438 43.4758 85.1719 43.7648 85.3896 44.1475C85.7817 44.8418 86.6936 44.626 87.3559 44.5885C88.1102 44.5472 88.9264 44.5997 89.5174 44.0537C89.7763 43.8155 89.9902 43.504 90.1741 43.2056C90.418 42.8097 90.403 42.5283 90.3205 42.0855C90.2285 41.5958 90.4105 41.1474 90.3936 40.6614Z" fill="#8C4934"/>
<path d="M85.8136 54.0419C85.7066 54.3496 85.6222 54.6967 85.4871 55.0044C84.4889 54.7755 83.5095 54.2914 82.5282 53.9969C82.213 53.9031 81.8997 53.8299 81.5844 53.7905H81.5825C81.1773 53.7398 80.7701 53.7436 80.3611 53.8355C79.7307 53.9781 79.1865 54.3065 78.6987 54.7286C78.5092 54.556 78.3554 54.344 78.2503 54.1057C77.9238 53.3608 78.1827 52.5127 78.588 51.8523C79.4229 50.4957 80.9033 49.3775 82.5545 49.8409C82.9072 49.8146 83.26 49.8015 83.6146 49.8071C83.9504 49.8127 84.3332 49.8109 84.5846 50.0717C84.9073 50.4057 85.0968 50.9554 85.3164 51.3588C85.5659 51.8166 85.928 52.3063 86.0613 52.8129C86.1701 53.2257 85.9449 53.6573 85.8136 54.0419Z" fill="#8C4934"/>
<path d="M71.3759 64.0204C71.3383 64.0636 71.297 64.103 71.2558 64.1443C69.6497 65.7748 67.6064 66.8799 65.4224 67.5628H65.4205C65.2629 67.4521 65.1147 67.3321 64.9796 67.2063C64.4786 67.5891 63.76 67.6585 63.1634 67.4409C62.3209 67.1332 61.8762 66.18 61.9982 65.3188C62.0638 64.8572 62.2627 64.4257 62.5629 64.0673C62.7299 63.8685 62.9288 63.6977 63.1483 63.557C63.3904 63.4031 63.6962 63.3243 63.8031 63.0335C63.897 62.7783 63.805 62.4894 63.8519 62.2248C63.8951 61.9809 64.0246 61.7782 64.1653 61.5812C64.5743 61.009 65.004 60.4498 65.4243 59.8832C65.4843 59.8006 65.6213 59.765 65.762 59.7613C66.4806 58.9076 67.9235 59.0407 68.704 59.7706C69.1825 60.2191 69.4095 60.8007 69.614 61.4068C69.7622 61.8421 69.9686 62.1104 70.3458 62.3731C70.5709 62.5288 70.8036 62.6751 70.9837 62.8834C71.2577 63.2042 71.3609 63.6076 71.3759 64.0204Z" fill="#8C4934"/>
<path d="M75.5297 35.7986C75.2577 35.3802 74.7248 35.2207 74.2482 35.2901C73.7304 35.3633 73.2857 35.6897 73.1562 36.2114C73.0286 36.7292 73.2444 37.0932 73.7585 37.2039C74.2689 37.3109 74.9068 37.5154 75.2802 37.0313C75.329 36.9694 75.3796 36.8906 75.4171 36.808C75.5203 36.7142 75.6123 36.6091 75.6517 36.4665C75.7174 36.2376 75.6554 35.9918 75.5297 35.7986Z" fill="#E6EEFC"/>
<path d="M69.4254 48.4626C69.3203 48.4232 69.189 48.4326 69.0914 48.3895C69.0295 48.3632 68.9751 48.2975 68.9169 48.2619C68.7236 48.1474 68.4628 48.1305 68.2508 48.2018C67.9018 48.32 67.6466 48.7591 67.6917 49.1212C67.7423 49.5209 68.294 49.7835 68.6242 49.9149C68.6824 49.9393 68.7499 49.9562 68.8212 49.9674C68.8625 49.9806 68.9056 49.9918 68.9544 49.9974C69.3916 50.05 69.7819 49.7816 69.8945 49.3576C69.9939 48.9748 69.7913 48.6052 69.4254 48.4626Z" fill="#E6EEFC"/>
<path d="M60.2623 41.9915C60.0353 41.6031 59.5606 41.3967 59.1215 41.4004C58.6731 41.4042 58.1759 41.7325 58.0652 42.1847C57.9732 42.5637 58.2603 43.1529 58.6112 43.3293C58.9095 43.4794 59.3167 43.44 59.6263 43.273C59.7782 43.2767 59.9321 43.2336 60.0559 43.1454C60.4106 42.894 60.4744 42.3555 60.2623 41.9915Z" fill="#E6EEFC"/>
<path d="M68.5345 64.3021C68.5007 64.0638 68.27 63.9531 68.1011 63.818C67.9003 63.6585 67.7258 63.4746 67.48 63.3865C67.1067 63.2495 66.5156 63.2758 66.3336 63.6979C66.2886 63.803 66.2736 63.9156 66.2811 64.0281C66.1197 64.2251 66.0991 64.4991 66.3318 64.7055C66.6582 64.9944 67.1498 65.4372 67.6227 65.2459C67.8591 65.1502 68.0617 64.9269 68.2568 64.7655C68.4051 64.6417 68.5664 64.5179 68.5345 64.3021Z" fill="#E6EEFC"/>
<path d="M82.5278 53.998C82.2126 53.9042 81.8992 53.831 81.584 53.7916H81.5821C81.5127 53.7428 81.4508 53.6846 81.4039 53.6171C81.3495 53.5889 81.2969 53.5552 81.2481 53.5139C81.053 53.3469 80.8016 52.936 80.9836 52.6921C81.1675 52.4444 81.6515 52.465 81.9274 52.4406C82.2276 52.4144 82.6329 52.4219 82.8299 52.6939C82.9274 52.8271 82.9218 52.9735 82.9237 53.1311C82.9256 53.2925 83.0175 53.4201 83.0288 53.5758C83.0438 53.8497 82.7736 53.9642 82.5278 53.998Z" fill="#E6EEFC"/>
<path d="M87.9537 40.7291C87.7436 40.4196 87.3721 40.3652 87.0193 40.3802C86.6403 40.3952 86.3795 40.5378 86.265 40.9055C86.1656 41.2226 86.1206 41.5791 86.3983 41.8174C86.4133 41.8305 86.4302 41.8418 86.4452 41.853C86.4921 41.9074 86.5615 41.9487 86.6591 41.9731C86.7135 41.9863 86.7735 41.9919 86.8373 41.99C86.903 41.9957 86.9687 41.9957 87.0362 41.99C87.0587 42.0032 87.0831 42.0144 87.1094 42.0238C87.5428 42.1758 87.7473 41.8718 87.9762 41.5735C88.1957 41.2883 88.1526 41.02 87.9537 40.7291Z" fill="#E6EEFC"/>
<path d="M83.9876 26.6505C83.9933 26.6355 83.9989 26.6168 84.0064 26.5943C84.0308 26.5286 84.0477 26.4723 84.0552 26.401C84.0664 26.309 83.9351 26.2359 83.8657 26.219C83.269 26.0764 82.4247 26.3034 82.4134 27.0464C82.404 27.6806 83.1658 28.0953 83.6874 27.7594C84.0008 27.675 84.2315 27.3579 84.3422 27.0633C84.4492 26.7781 84.2259 26.6843 83.9876 26.6505Z" fill="#E6EEFC"/>
<path d="M61.8044 26.6155C61.4986 26.3341 61.0089 26.4316 60.6636 26.5592C60.3578 26.6718 60.0369 26.8125 59.8437 27.0865C59.6354 27.381 59.7029 27.7225 60.0576 27.8445C60.1289 27.8689 60.2058 27.8858 60.2827 27.897C60.4122 28.0453 60.7293 28.094 60.9 28.0659C61.0839 28.0359 61.2378 27.9308 61.3935 27.837C61.5455 27.745 61.7594 27.6606 61.872 27.518C62.0371 27.3135 61.992 26.7881 61.8044 26.6155Z" fill="#E6EEFC"/>
<path d="M68.4499 40.1484C68.51 40.1053 68.5362 40.0471 68.4968 39.9758C68.3598 39.7337 68.2154 39.4955 68.0634 39.2609C67.872 38.9157 67.6431 38.5967 67.3804 38.3059C67.266 38.1633 67.1497 38.0207 67.0277 37.8837C66.7312 37.5498 65.977 36.818 65.4985 37.3433C65.0538 37.8312 65.962 38.7093 66.2359 39.0602C66.6919 39.6437 67.144 40.2516 67.902 40.4317C68.0596 40.4693 68.555 40.4768 68.4649 40.1935C68.4593 40.1784 68.4537 40.1634 68.4499 40.1484Z" fill="#8C4934"/>
<path d="M70.122 29.9778C70.0864 29.8145 69.9644 29.7113 69.8162 29.6532C69.668 29.535 69.2833 29.5162 69.1633 29.6551L69.1595 29.6588C68.8105 29.8014 68.6435 30.1673 68.4859 30.5069C68.4296 30.627 68.3771 30.7489 68.3302 30.8709C68.1726 31.1767 67.8161 31.7922 67.938 32.1336C68.0431 32.4263 68.4896 32.4301 68.7279 32.3288C69.1107 32.1655 69.4447 31.5707 69.6492 31.2274C69.8349 30.9122 70.2065 30.3624 70.122 29.9778Z" fill="#8C4934"/>
<path d="M76.3087 45.4149C76.1774 45.1579 75.9916 44.8258 75.744 44.6194C75.7233 44.4674 75.4869 44.4017 75.2824 44.4242C75.0085 44.4036 74.7383 44.5237 74.6876 44.8164C74.545 45.6344 75.1361 47.0192 75.8584 47.4301C76.0367 47.5314 76.2994 47.5108 76.4607 47.3869C76.547 47.3212 76.5883 47.2087 76.6071 47.0773C76.8322 46.6927 76.4682 45.7245 76.3087 45.4149Z" fill="#8C4934"/>
<path d="M84.0681 32.1209C83.8729 31.6143 83.1168 31.7926 82.9911 32.256C82.9854 32.2786 82.9835 32.2992 82.9854 32.3179C82.8316 32.6407 82.7002 32.9709 82.6027 33.3161C82.5257 33.592 82.3362 34.0554 82.43 34.3331C82.6027 34.8491 83.3513 34.6596 83.5839 34.3049C83.7847 33.9991 83.8992 33.6088 83.9798 33.2561C84.053 32.9446 84.1881 32.4324 84.0681 32.1209Z" fill="#8C4934"/>
<path d="M69.0155 23.5981C69.0474 23.8964 68.4264 23.7932 68.3025 23.7013C67.9536 23.4442 67.6796 23.1234 67.4882 22.7575C67.4207 22.6562 67.3587 22.5511 67.3043 22.4404C67.2874 22.4048 67.2687 22.3635 67.248 22.3185C67.5989 22.1139 67.9498 21.9076 68.3007 21.7012C68.3307 21.7425 68.357 21.7837 68.3832 21.8212C68.6834 22.2716 68.871 22.7763 68.9705 23.3035C68.9911 23.3148 69.0099 23.3279 69.0324 23.3373C69.2163 23.433 69.1562 23.5324 69.0155 23.5981Z" fill="#8C4934"/>
<path d="M61.3059 33.9854C61.0901 33.8127 60.7017 33.8296 60.469 33.9704C60.3546 33.9872 60.2551 34.0341 60.2176 34.1129C60.0337 34.507 59.9005 34.9179 59.8274 35.3475C59.7636 35.7265 59.6678 36.3401 59.8236 36.7079C59.923 36.9405 60.1763 37.0343 60.4221 36.9968C60.8105 36.9368 60.9287 36.5746 61.0601 36.2519C61.2271 35.841 61.3452 35.4057 61.4128 34.9666C61.4597 34.6627 61.5817 34.2068 61.3059 33.9854Z" fill="#8C4934"/>
<path d="M64.5268 55.2164C64.2828 55.0044 63.8813 55.0738 63.6599 55.2727C62.9601 55.9031 62.8193 57.1884 62.9694 58.0515C63.0088 58.2804 63.3691 58.301 63.5661 58.2279C64.2528 58.1791 64.5718 56.9651 64.6562 56.4341C64.7069 56.102 64.8195 55.4697 64.5268 55.2164Z" fill="#8C4934"/>
<path d="M71.4186 55.483C70.8332 55.5712 70.9646 56.1679 70.9983 56.6032C71.0415 57.1492 71.0077 57.8134 71.4749 58.1924C71.5781 58.4082 71.7226 58.5846 71.9853 58.6765C72.156 58.7365 72.5219 58.7253 72.5613 58.4945C72.6964 57.7196 72.8015 55.2766 71.4186 55.483Z" fill="#8C4934"/>
<path d="M88.2989 47.997C88.145 47.6405 88.0193 47.239 87.5822 47.1808C87.3457 47.1489 87.0906 47.2127 86.9273 47.3759C86.8617 47.4097 86.8204 47.4585 86.8223 47.5204C86.8091 47.5448 86.7979 47.5692 86.7885 47.5955C86.5371 48.3141 87.1356 49.1171 87.7116 49.483C87.7792 49.543 87.8504 49.5899 87.9274 49.62C88.2313 49.74 88.6122 49.6144 88.6742 49.271C88.7473 48.8638 88.4565 48.3591 88.2989 47.997Z" fill="#8C4934"/>
<path d="M90.9244 37.9734C90.7386 38.0935 90.3446 38.0654 90.2677 37.8834C89.8943 36.9959 89.9994 36.0315 90.2283 35.1064C90.4459 35.9395 90.6486 36.7764 90.8381 37.6094C90.8644 37.7276 90.8925 37.8496 90.9244 37.9734Z" fill="#8C4934"/>
<path d="M72.0603 26.8462C71.4317 27.4504 70.76 28.0095 70.0489 28.518C69.2759 26.9926 68.6229 25.409 68.0994 23.7823C67.9474 23.3076 67.8048 22.8291 67.6735 22.3469C67.6472 22.2512 67.3639 22.2681 67.3958 22.3882C67.8593 24.0919 68.4597 25.758 69.1933 27.3641C69.4015 27.8181 69.6192 28.2666 69.8462 28.7113C69.8838 28.7826 70.0282 28.7863 70.0864 28.7469C70.8726 28.199 71.6156 27.5911 72.306 26.9269C72.4055 26.8312 72.1315 26.7787 72.0603 26.8462Z" fill="#272443"/>
<path d="M81.0853 23.4154C81.0609 23.3047 80.7757 23.3197 80.7982 23.4154C81.0759 24.6519 81.5055 25.8789 81.4774 27.1586C80.9126 26.9315 80.3573 26.682 79.8131 26.4081C79.755 26.3781 79.6687 26.3724 79.6105 26.4081C79.5617 26.4381 79.5542 26.4906 79.6105 26.5206C80.2409 26.8377 80.8883 27.1248 81.545 27.38C81.6013 27.4025 81.757 27.3987 81.7607 27.3124C81.8283 25.9784 81.3723 24.7006 81.0853 23.4154Z" fill="#272443"/>
<path d="M80.6365 38.0103C80.6327 37.9371 80.6252 37.8583 80.5914 37.7907C80.5576 37.7232 80.5014 37.6744 80.4394 37.6331C80.385 37.5956 80.3269 37.56 80.2649 37.5318C80.1017 37.4174 79.8578 37.4267 79.6908 37.5299C79.5182 37.6369 79.4469 37.8339 79.4619 38.029C79.4657 38.0872 79.4769 38.1435 79.4938 38.1979C79.5069 38.2429 79.5313 38.2748 79.5651 38.2973C79.6608 38.53 79.9197 38.6482 80.1636 38.6201C80.2968 38.605 80.4357 38.545 80.5239 38.4418C80.6271 38.3198 80.644 38.166 80.6365 38.0103Z" fill="#272443"/>
<path d="M81.213 46.0588C81.2092 45.9856 81.2017 45.9068 81.1679 45.8393C81.1342 45.7717 81.0779 45.723 81.0178 45.6817C80.9634 45.6442 80.9052 45.6085 80.8433 45.5804C80.6801 45.464 80.4362 45.4753 80.2692 45.5785C80.0966 45.6854 80.0253 45.8806 80.0403 46.0776C80.044 46.1357 80.0553 46.1921 80.0722 46.2465C80.0853 46.2915 80.1097 46.3234 80.1435 46.3459C80.2392 46.5786 80.4981 46.6968 80.742 46.6705C80.8752 46.6555 81.0141 46.5954 81.1022 46.4904C81.2036 46.3703 81.2186 46.2146 81.213 46.0588Z" fill="#272443"/>
<path d="M87.7685 35.8684C88.2432 34.8702 88.6091 33.827 88.8624 32.7519C88.8849 32.6562 88.6016 32.6393 88.5753 32.7519C88.3351 33.7651 87.9899 34.7521 87.5508 35.6958C87.2713 34.5776 86.8735 33.4912 86.3125 32.4817C86.2618 32.3917 85.9804 32.4236 86.0348 32.523C87.1418 34.5137 87.609 36.7766 87.7816 39.0281C87.8754 40.2421 87.8886 41.4617 87.8848 42.6794C87.8811 43.9046 87.8698 45.1298 87.8717 46.3569C87.8736 47.7453 87.8848 49.1338 87.9036 50.5222C87.9054 50.6311 88.1925 50.6311 88.1906 50.5222C88.155 48.0493 88.155 45.5764 88.17 43.1034C88.1831 40.7243 88.1606 38.3207 87.624 35.9904C87.6184 35.9679 87.6128 35.9454 87.6071 35.9229C87.6728 35.9285 87.746 35.9135 87.7685 35.8684Z" fill="#272443"/>
<path d="M64.335 39.6605C63.9935 42.2873 63.47 44.8878 62.7664 47.4415C62.5675 48.162 62.3555 48.8768 62.1304 49.5879C62.0928 49.7043 62.3762 49.7268 62.4081 49.6292C63.2111 47.0981 63.8415 44.5126 64.2881 41.8951C64.4157 41.1521 64.5264 40.4054 64.6239 39.6567C64.6352 39.5573 64.35 39.5479 64.335 39.6605Z" fill="#272443"/>
<path d="M64.4288 36.1178C64.2337 35.3823 64.0405 34.6468 63.8453 33.9131C63.669 33.2433 63.502 32.5697 63.2937 31.9093C62.9166 30.7197 62.3443 29.5564 61.2973 28.8228C60.7626 28.4475 60.134 28.2205 59.4792 28.2148C59.4323 28.2148 59.3347 28.2317 59.3347 28.2937C59.3347 28.3556 59.4342 28.3725 59.4792 28.3725C60.6256 28.3837 61.6163 29.1943 62.2073 30.123C62.9109 31.23 63.198 32.5434 63.5282 33.7949C63.7365 34.583 63.9448 35.3729 64.1549 36.1609C64.1755 36.2566 64.4607 36.2379 64.4288 36.1178Z" fill="#272443"/>
<path d="M59.7703 47.754C59.1699 46.0691 58.0478 44.5793 56.605 43.5267C56.1978 43.2284 55.7663 42.9657 55.3141 42.7424C55.254 42.7124 55.1696 42.7068 55.1115 42.7424C55.0627 42.7725 55.0552 42.8269 55.1115 42.855C56.6932 43.6393 58.0178 44.9077 58.8809 46.4481C59.123 46.8797 59.3275 47.3319 59.4945 47.7991C59.5264 47.8929 59.8116 47.8704 59.7703 47.754Z" fill="#272443"/>
<path d="M91.3234 39.953C91.2934 39.8254 91.1245 39.8216 91.0195 39.8573C90.8825 39.9042 90.7699 40.0505 90.6705 40.15C90.4378 40.3826 90.2258 40.6359 90.0344 40.9024C89.6479 41.439 89.3477 42.0394 89.1507 42.6698C89.0381 43.0263 88.9593 43.3922 88.9143 43.7637C88.9011 43.8669 89.1882 43.8763 89.2013 43.7637C89.2914 43.0357 89.5147 42.3302 89.8562 41.681C90.025 41.3583 90.2239 41.0487 90.4472 40.7635C90.5579 40.6228 90.6761 40.4858 90.798 40.3545C90.86 40.2888 90.9219 40.225 90.9875 40.1612C91.0194 40.1293 91.0532 40.0993 91.0851 40.0674C91.1001 40.0524 91.117 40.0374 91.1339 40.0224C91.224 40.043 91.3384 40.0149 91.3234 39.953Z" fill="#272443"/>
<path d="M78.4004 18.4868C78.3403 19.8509 78.3159 21.2187 78.3253 22.5846C78.3272 22.8792 78.3309 23.1813 78.2296 23.459C77.7268 24.8568 75.7098 24.7799 74.5296 24.6091C73.3644 24.4403 72.1917 24.2151 71.1316 23.7123C70.6062 23.4627 70.0734 23.0931 69.927 22.5377C69.822 22.1324 69.9439 21.7084 70.0227 21.2975C70.1822 20.4607 70.0471 19.682 70.019 18.8471C70.0134 18.7101 70.0115 18.5731 70.0077 18.438C69.9927 17.7851 69.9927 17.1302 70.0171 16.4773C70.0227 16.3497 70.0265 16.2221 70.034 16.0945C70.0715 15.3328 69.9608 13.9518 70.5612 13.3495C70.565 13.3458 70.5687 13.342 70.5725 13.3383C71.171 12.7547 72.4844 12.9386 73.2349 12.9386C74.4376 12.9386 75.6385 13.0024 76.8318 13.1319C77.2727 13.1788 77.7493 13.2538 78.057 13.5672C78.421 13.9387 78.4248 14.5147 78.4135 15.0288C78.4004 15.5523 78.4454 16.0289 78.496 16.5392C78.558 17.1678 78.4285 17.8564 78.4004 18.4868Z" fill="#F7967C"/>
<path d="M77.6045 16.8869C77.5895 17.0295 77.5501 17.1871 77.4901 17.3672C77.1129 18.478 76.4675 19.2679 75.3736 19.7013C74.3904 20.0916 73.2684 20.1854 72.2421 19.9039C71.6661 19.7463 71.137 19.4349 70.7505 18.9752C70.2795 18.4161 70.2626 17.7781 70.2607 17.0708C70.2607 16.7799 70.2607 16.4854 70.3358 16.2058C70.7842 14.5397 73.3247 14.6353 74.6062 14.9093C75.3868 15.0744 76.1579 15.3258 76.8503 15.7292C77.4131 16.0595 77.6608 16.3671 77.6045 16.8869Z" fill="#DB6357"/>
<path d="M71.0708 2.21173C71.5474 1.87963 72.0465 1.60006 72.5456 1.40305C73.1347 1.17039 73.9228 1.01092 74.5645 1.04844C75.1893 1.08409 75.7897 1.54755 76.2831 1.9153C77.4352 2.77089 78.3696 3.9079 78.955 5.19691C80.5404 8.69056 80.3059 13.385 78.1594 16.5428C77.4896 17.5279 76.3094 18.3797 75.2211 18.8863C73.6938 19.5974 71.9808 19.4792 70.6074 18.4698C68.0481 16.5879 67.9018 12.961 67.5134 10.1878C67.4421 9.68125 67.3708 9.17278 67.3633 8.66056C67.3408 7.19705 67.8473 5.75791 68.6917 4.56459C69.2902 3.72402 70.1364 2.86468 71.0708 2.21173Z" fill="#F7967C"/>
<path d="M79.3503 11.2494C79.1608 10.923 78.9 10.5571 78.7499 10.2306C78.4272 9.52889 78.1045 8.82715 77.7817 8.1273C77.5022 7.52126 77.1532 7.03903 76.7723 6.49116C76.322 5.84008 75.8548 5.20028 75.3726 4.57172C74.9148 3.97694 74.6521 3.34464 74.3106 2.67293C74.0648 4.62802 72.7927 6.42551 71.029 7.30736C70.4642 7.59068 69.8469 7.78769 69.3478 8.17608C68.6255 8.73897 68.2464 9.62081 67.7642 10.3976C67.282 11.1762 66.5559 11.9343 65.6403 11.9493C65.5652 11.9512 65.4845 11.9455 65.4226 11.9024C65.2763 11.7992 65.3269 11.5722 65.3945 11.4071C65.6403 10.8066 65.9067 10.2137 66.1938 9.63208C66.4659 9.07858 66.5784 8.50441 66.8017 7.92652C67.464 6.22097 68.5335 4.70681 69.6706 3.27333C70.0796 2.75922 70.5018 2.24701 71.014 1.83611C71.6519 1.32388 72.4944 0.939238 73.3181 0.87732C74.2844 0.806021 75.2075 1.29009 76.1756 1.18314C76.3952 1.15875 76.6109 1.10434 76.8305 1.11372C77.3014 1.13248 77.5904 1.63157 77.8793 1.95054C78.7799 2.94122 79.3766 4.1702 79.9357 5.3729C80.9114 7.47059 81.8889 9.67898 81.9865 12.0243C82.0034 12.4315 81.767 15.9327 81.1328 15.9571C80.7725 15.9702 80.6337 14.0188 80.5774 13.7505C80.478 13.2702 80.2716 12.8218 80.0708 12.3771C79.9038 12.0075 79.6543 11.7598 79.446 11.4164C79.4141 11.3601 79.3822 11.3039 79.3503 11.2494Z" fill="#404082"/>
<path d="M80.7537 10.8432C80.8344 10.9801 80.8813 11.149 80.9057 11.3179C81.0389 12.226 80.5886 13.076 80.0539 13.727C79.7086 14.1492 79.264 14.6108 78.7592 14.6614C78.5266 14.6858 78.2714 14.6182 78.1457 14.4006C77.5791 13.4212 78.4422 10.9257 79.4216 10.5523C79.6505 10.4642 79.8925 10.4698 80.1271 10.4979C80.2997 10.5186 80.4779 10.5561 80.6149 10.6724C80.6693 10.7212 80.7162 10.7794 80.7537 10.8432Z" fill="#F7967C"/>
<path d="M69.4456 14.3992C69.5263 14.2622 69.5732 14.0933 69.5976 13.9245C69.7308 13.0163 69.2805 12.1664 68.7458 11.5153C68.4005 11.0931 67.9559 10.6316 67.4511 10.5809C67.2185 10.5565 66.9652 10.6241 66.8376 10.8417C66.271 11.8211 67.134 14.3166 68.1135 14.69C68.3424 14.7763 68.5844 14.7725 68.819 14.7444C68.9916 14.7238 69.1698 14.6862 69.3068 14.5699C69.3612 14.5211 69.4081 14.4629 69.4456 14.3992Z" fill="#F7967C"/>
<path d="M72.8426 9.71137C72.8501 9.70949 72.8594 9.70949 72.8669 9.71137C73.1146 9.73013 73.0358 10.4375 73.0227 10.6195C72.9945 11.0004 72.912 11.3756 72.7975 11.7378C72.6512 12.1956 72.4129 12.614 72.2647 13.0662C72.0789 13.6309 72.7056 13.9386 73.1015 14.07C73.3098 14.1394 73.1352 14.2933 72.9833 14.2426C72.6193 14.1206 72.1446 13.8974 71.9588 13.5108C71.865 13.3138 71.9025 13.1056 71.9832 12.9048C72.0845 12.6515 72.2065 12.4076 72.3078 12.1543C72.456 11.779 72.578 11.3888 72.6493 10.9891C72.685 10.7846 72.7074 10.5801 72.7112 10.3737C72.715 10.1992 72.6437 9.93839 72.7412 9.78266C72.7619 9.74138 72.8013 9.71512 72.8426 9.71137Z" fill="#DB6357"/>
<path d="M68.4966 9.48958C68.4835 9.50084 68.4704 9.51024 68.4554 9.5215C68.4329 9.53839 68.3409 9.62094 68.3146 9.58529C68.2959 9.55714 68.3053 9.51961 68.3165 9.48772C68.3916 9.30009 68.5304 9.15561 68.6711 9.02615C68.9807 8.74095 69.2959 8.54393 69.6937 8.44636C70.1684 8.33003 70.645 8.31505 71.1328 8.34882C71.3899 8.36571 71.9622 8.39947 71.7877 8.85729C71.7276 9.01114 71.5513 9.05241 71.3993 9.05804C71.2154 9.06367 71.0296 9.04678 70.8476 9.0055C70.5906 8.94734 70.3354 8.85164 70.0746 8.83851C69.8044 8.82537 69.538 8.88543 69.2885 8.9905C69.0896 9.07493 68.9019 9.18563 68.7237 9.31322C68.6468 9.36951 68.5717 9.42954 68.4966 9.48958Z" fill="#272443"/>
<path d="M78.5493 9.50343C78.4461 9.11504 77.7763 8.74355 77.448 8.57093C76.7256 8.19004 75.8812 8.04369 75.0763 8.19379C74.7761 8.25008 74.4571 8.59155 74.8118 8.83922C74.915 8.9124 75.0444 8.93492 75.1701 8.94993C75.4685 8.98558 75.7705 8.98746 76.0689 8.95368C76.4779 8.90678 76.8963 8.7942 77.296 8.89365C77.5399 8.95369 77.75 9.08879 77.9621 9.222C78.114 9.31769 78.3692 9.54847 78.5493 9.50343Z" fill="#272443"/>
<path d="M75.0541 15.2081C75.0559 15.1274 75.0034 15.0523 74.8646 14.9942C74.5475 14.8609 74.0859 14.9698 73.7538 15.0054C73.3091 15.0542 72.8569 14.996 72.4085 14.9867C72.204 14.981 71.8344 15.0148 71.7875 15.2099C71.7481 15.3751 71.992 15.6002 72.1346 15.7015C72.4029 15.8948 72.78 16.0149 73.1609 16.0374C73.2472 16.043 73.3335 16.043 73.4217 16.0393C73.508 16.043 73.5943 16.043 73.6825 16.0374C74.0634 16.0149 74.4405 15.8948 74.7088 15.7015C74.8383 15.6077 75.0578 15.3844 75.0541 15.2081Z" fill="white"/>
<path d="M70.4828 10.3616C70.6292 10.3428 70.7418 10.3897 70.8281 10.4666C70.8675 10.4891 70.9031 10.5173 70.9313 10.5529C70.9801 10.613 71.0007 10.6824 71.0101 10.7537C71.0232 10.7893 71.0345 10.825 71.042 10.8588C71.0701 10.9807 71.0682 11.1233 71.0288 11.2565C71.027 11.3278 71.0195 11.3991 70.9913 11.4686C70.9463 11.5736 70.8206 11.6506 70.6855 11.6749C70.556 11.7369 70.3721 11.6993 70.284 11.6055C70.0963 11.4104 70.0701 11.1214 70.0738 10.885C70.0738 10.6711 70.1658 10.401 70.4828 10.3616Z" fill="#272443"/>
<path d="M76.1497 10.2081C76.2979 10.1987 76.4067 10.2513 76.4874 10.332C76.5249 10.3564 76.5587 10.3864 76.585 10.4239C76.63 10.4858 76.645 10.5571 76.6507 10.6284C76.6619 10.6659 76.6694 10.7016 76.675 10.7354C76.6957 10.8573 76.6844 11.0018 76.6356 11.1313C76.63 11.2026 76.6169 11.2739 76.5831 11.3414C76.5306 11.4446 76.4011 11.514 76.2641 11.5309C76.1309 11.5853 75.9508 11.5384 75.8664 11.4408C75.6919 11.2363 75.6844 10.9455 75.7031 10.711C75.72 10.4971 75.8288 10.2306 76.1497 10.2081Z" fill="#272443"/>
<path d="M78.0257 18.4726C77.9713 18.8798 77.9657 19.2945 78.0182 19.7035C78.1139 20.4615 78.2752 21.2139 78.2733 21.9832C78.2733 22.8369 78.1627 23.7169 78.4178 24.5481C78.6336 25.2554 79.1064 25.869 79.6806 26.3343C79.8738 26.49 80.0858 26.6364 80.3279 26.6927C80.8007 26.8034 81.3186 26.5088 81.8158 26.5782C82.4368 26.6645 82.951 26.9816 83.542 26.6402C84.0561 26.3437 84.2719 25.8333 84.4426 25.2873C84.876 23.9008 85.2719 22.4129 84.876 21.015C84.5946 20.0225 83.9172 19.3245 83.4238 18.4558C82.9528 17.6246 82.5963 16.8159 81.8027 16.223C81.1422 15.7277 80.1797 15.4068 79.3578 15.54C79.1139 15.5794 78.8681 15.6676 78.703 15.8534C78.5417 16.0372 78.4835 16.2868 78.4291 16.5251C78.2902 17.1705 78.1158 17.8178 78.0257 18.4726Z" fill="#404082"/>
<path d="M80.8779 24.7984C80.1781 24.821 79.6265 24.2149 79.4051 23.6014C79.1217 22.8133 79.2381 21.954 79.2906 21.1397C79.3225 20.6462 79.3319 20.1471 79.2287 19.6612C79.2043 19.5505 78.921 19.5636 78.9416 19.6612C79.1349 20.5768 78.9285 21.5018 78.936 22.4249C78.9416 23.2149 79.1311 24.0461 79.7728 24.5677C80.0862 24.8228 80.4727 24.9711 80.8779 24.9579C80.923 24.9561 81.0224 24.9429 81.0224 24.8791C81.0224 24.8172 80.9211 24.7966 80.8779 24.7984Z" fill="#272443"/>
<path d="M82.4125 23.3931C81.7407 23.228 81.206 22.6839 81.0277 22.0178C81.0015 21.9221 80.7182 21.939 80.7501 22.0591C80.9414 22.7758 81.5475 23.3518 82.2661 23.5301C82.3261 23.5451 82.4162 23.5526 82.4631 23.5019C82.5063 23.455 82.4631 23.4063 82.4125 23.3931Z" fill="#272443"/>
<path d="M83.3756 12.7406C83.3493 12.6299 83.066 12.6449 83.0885 12.7406C83.3193 13.7219 83.3005 14.7538 83.0228 15.7239C82.989 15.8421 83.2723 15.8627 83.3005 15.7652C83.5819 14.7801 83.612 13.7388 83.3756 12.7406Z" fill="#272443"/>
<path d="M72.9209 2.88135C72.5062 3.90768 72.0015 4.93589 71.2116 5.72956C70.7932 6.14985 70.2997 6.48946 69.7499 6.71274C69.2189 6.92852 68.626 6.98291 68.1495 7.32439C67.6691 7.66963 67.3483 8.18561 67.0462 8.68282C66.988 8.77851 67.2695 8.81418 67.3239 8.726C67.5997 8.27194 67.8868 7.80285 68.3108 7.47075C68.7799 7.103 69.3972 7.05796 69.9338 6.83468C70.9883 6.3975 71.7876 5.58697 72.373 4.62256C72.6995 4.08407 72.9622 3.50802 73.1986 2.92449C73.2417 2.81379 72.9584 2.78566 72.9209 2.88135Z" fill="#272443"/>
<path d="M68.6441 4.82346C68.5916 4.79156 68.494 4.78969 68.4415 4.82346C67.781 5.23812 67.2125 5.78039 66.7679 6.42021C66.7303 6.47462 66.8335 6.51212 66.8692 6.51775C66.9311 6.52713 67.008 6.51589 67.0455 6.46335C67.4696 5.85356 68.0156 5.33196 68.646 4.93606C68.6967 4.90416 68.6967 4.85536 68.6441 4.82346Z" fill="#272443"/>
<path d="M65.0566 21.373C64.5106 20.9133 64.2329 20.2115 64.1898 19.5098C64.1391 18.6692 64.4112 17.8493 64.7545 17.095C64.8033 16.9881 64.52 16.9581 64.4768 17.0538C64.1222 17.8306 63.8408 18.6824 63.9046 19.5474C63.9571 20.2678 64.2479 20.9827 64.8089 21.4536C64.8596 21.4968 64.944 21.5043 65.0059 21.4818C65.0472 21.4668 65.1092 21.418 65.0566 21.373Z" fill="#272443"/>
<path d="M67.5935 19.6798C67.1225 19.2952 66.7904 18.753 66.6666 18.1563C66.644 18.0456 66.3588 18.0587 66.3795 18.1563C66.5089 18.783 66.8504 19.3534 67.3458 19.7587C67.3983 19.8018 67.479 19.8074 67.5428 19.7868C67.5841 19.7737 67.646 19.723 67.5935 19.6798Z" fill="#272443"/>
<path d="M36.4804 115.793H33.606V162.081H36.4804V115.793Z" fill="#272443"/>
<path d="M38.7332 123.75H31.3538V163.233H38.7332V123.75Z" fill="#272443"/>
<path d="M58.7632 160.261H11.325V163.998H58.7632V160.261Z" fill="#272443"/>
<path d="M18.2261 138.124C17.9165 138.124 17.6107 137.973 17.4268 137.694C17.1341 137.253 17.2542 136.658 17.697 136.366L33.3189 126.016C33.7599 125.723 34.3546 125.845 34.6473 126.286C34.94 126.727 34.8181 127.322 34.3772 127.615L18.7571 137.964C18.592 138.073 18.4081 138.124 18.2261 138.124Z" fill="#272443"/>
<path d="M37.6424 125.56C37.6424 125.271 36.875 125.269 36.875 125.56V159.228C36.875 159.517 37.6424 159.521 37.6424 159.228V125.56Z" fill="#404082"/>
<path d="M68.632 81.3124C67.4218 80.5694 65.6993 80.6876 64.5135 81.5V72.4169C64.5135 67.6868 60.6803 63.8535 55.9501 63.8535H14.2328C9.50263 63.8535 5.66935 67.6868 5.66935 72.4169V81.5C4.48354 80.6876 2.75924 80.5694 1.55091 81.3124C-0.434201 82.5338 0.00108854 84.8848 0.134305 86.8249C0.14181 86.9431 0.151206 87.0632 0.160587 87.1833C0.359474 89.7594 0.776013 92.3168 1.35391 94.8348C2.38399 99.3379 3.91877 103.704 5.66935 107.974C5.98081 108.736 6.29979 109.494 6.62439 110.249C6.66191 110.337 6.70131 110.431 6.74071 110.526H6.72196V114.508V115.354C6.72196 116.551 7.692 117.521 8.88907 117.521H61.1925C62.3896 117.521 63.3596 116.551 63.3596 115.354V114.551V110.526H63.4365C63.4759 110.431 63.5153 110.337 63.5529 110.249C63.8775 109.494 64.1964 108.734 64.5079 107.974C66.2604 103.704 67.7933 99.336 68.8234 94.8348C69.4013 92.3168 69.8178 89.7594 70.0167 87.1833C70.0261 87.0632 70.0354 86.945 70.0429 86.8249C70.1818 84.8848 70.6171 82.5338 68.632 81.3124Z" fill="#404082"/>
<path d="M14.48 97.5438C12.645 95.3429 11.5043 92.5923 10.4029 89.9317C9.30526 87.2843 8.17198 84.5468 6.3501 82.3477C5.92419 81.8336 5.5658 81.616 5.22432 81.6648L5.16992 81.2858C5.80786 81.1957 6.31633 81.7098 6.64468 82.1039C8.5022 84.3479 9.64863 87.1135 10.7556 89.7873C11.8458 92.4197 12.9753 95.1441 14.7728 97.2999L14.48 97.5438Z" fill="#272443"/>
<path d="M55.7018 97.5437L55.4072 97.298C57.2047 95.1421 58.3342 92.4196 59.4244 89.7853C60.5333 87.1116 61.6778 84.3459 63.5353 82.1019C63.8618 81.7079 64.3722 81.1938 65.0101 81.2838L64.9557 81.6629C64.6142 81.6141 64.2577 81.8317 63.8299 82.3458C62.0099 84.5448 60.8748 87.2823 59.7771 89.9298C58.6776 92.5922 57.5387 95.3429 55.7018 97.5437Z" fill="#272443"/>
<path d="M58.1432 110.716H12.0409L11.9827 110.641C11.0915 109.47 10.7331 107.738 10.5417 106.537C10.371 105.455 10.2978 104.471 10.3241 103.612C10.249 101.453 10.8551 99.64 12.0315 98.5067C13.2736 97.3096 15.0993 96.8781 17.4559 97.2196C19.8069 97.563 22.079 98.4617 24.278 99.3304C25.4301 99.7864 26.6197 100.255 27.8036 100.64L27.8374 100.651C27.8524 100.655 27.8655 100.661 27.8805 100.664C32.5957 102.179 37.5866 102.179 42.3054 100.663C42.3148 100.659 42.3298 100.655 42.343 100.649L42.373 100.64C43.5607 100.255 44.7521 99.7845 45.9023 99.3285C48.1013 98.4598 50.3735 97.5611 52.7245 97.2177C55.0811 96.8762 56.9067 97.3078 58.1488 98.5049C59.3252 99.6381 59.9313 101.451 59.8562 103.61C59.8825 104.468 59.8112 105.453 59.6386 106.535C59.4472 107.736 59.0888 109.468 58.1976 110.639L58.1432 110.716ZM12.2304 110.333H57.9518C58.7511 109.232 59.0813 107.61 59.2633 106.477C59.4303 105.417 59.5035 104.455 59.4753 103.62V103.614V103.608C59.5485 101.556 58.9838 99.8445 57.8861 98.7863C56.7341 97.6755 55.0173 97.2778 52.7826 97.6024C50.4767 97.9382 48.2232 98.8294 46.0467 99.6888C44.8891 100.147 43.6939 100.619 42.4968 101.006C42.4874 101.01 42.4743 101.013 42.4612 101.017C42.4499 101.021 42.4405 101.025 42.4293 101.028C37.6279 102.571 32.5562 102.571 27.7586 101.03C27.7436 101.025 27.7323 101.021 27.721 101.017C27.7079 101.013 27.6948 101.008 27.6817 101.004C26.4902 100.618 25.2931 100.145 24.1355 99.6869C21.9571 98.8257 19.7056 97.9363 17.3996 97.5986C15.1668 97.274 13.45 97.6736 12.298 98.7825C11.2003 99.8408 10.6356 101.552 10.7087 103.605V103.61V103.616C10.6825 104.451 10.7538 105.413 10.9208 106.475C11.1009 107.61 11.433 109.232 12.2304 110.333Z" fill="#272443"/>
</svg>
