<svg width="172" height="161" viewBox="0 0 172 161" fill="none" xmlns="http://www.w3.org/2000/svg">
<path d="M116.328 42.9003C116.791 44.0735 117.028 45.3582 117.051 46.6159C117.06 47.1692 117.03 47.7568 116.714 48.2113C116.42 48.6372 115.908 48.8779 115.393 48.93C114.879 48.9821 114.36 48.8635 113.876 48.6875C111.809 47.931 109.932 46.1559 108.656 44.4113C106.767 41.8276 105.457 38.8667 104.384 35.85C103.565 33.5448 102.879 31.1391 102.791 28.6776C102.727 26.8683 102.829 23.7851 104.501 22.6406C105.321 22.0801 106.478 22.7646 107.133 23.3162C108.427 24.4068 109.055 26.1676 109.753 27.675C110.521 29.337 111.227 31.0258 111.963 32.7022C112.691 34.3605 113.54 35.965 114.24 37.6305C114.972 39.3733 115.682 41.1251 116.328 42.9003Z" fill="#F7967C"/>
<path d="M107.973 40.6057C108.626 40.1065 109.287 39.6152 109.98 39.1687C110.641 38.7416 111.337 38.3829 112.046 38.0436C112.785 37.6907 113.538 37.3553 114.273 36.9888C113.848 35.9904 113.419 34.996 112.996 33.9997C112.265 32.2799 111.522 30.5641 110.769 28.8521C110.052 27.224 109.301 25.7539 108.379 24.2408C107.628 23.0105 106.577 22.0668 105.119 21.8016C104.9 21.7626 104.664 21.7411 104.469 21.8464C104.354 21.9088 104.265 22.0083 104.185 22.1116C103.959 22.3982 103.838 22.7297 103.641 23.028C103.498 23.2444 103.342 23.4297 103.227 23.6715C102.972 24.2057 102.81 24.7829 102.699 25.3639C102.481 26.5045 102.451 27.6783 102.492 28.8346C102.588 31.5039 103.333 34.1167 104.224 36.6183C104.854 38.3868 105.559 40.1358 106.4 41.8146C106.926 41.4148 107.449 41.0073 107.973 40.6057Z" fill="#E6EEFC"/>
<path d="M109.507 46.5696C109.851 47.1234 110.227 47.6617 110.735 48.0737C111.368 48.5896 112.162 48.8686 112.936 49.1344C113.912 49.4679 114.892 49.7919 115.871 50.1113C118.753 51.0517 121.651 51.9489 124.538 52.8817C125.981 53.3482 127.42 53.8241 128.852 54.3177C129.568 54.5644 130.283 54.8172 130.997 55.0741C131.624 55.3006 132.148 55.4988 132.775 55.1663C133.035 55.0976 133.147 54.8165 133.301 54.6359C133.562 54.3326 133.909 54.0702 134.203 53.7969C134.614 53.4142 134.664 53.0814 134.142 52.7192C131.8 51.1005 129.365 49.6182 126.933 48.1368C123.16 45.8415 119.335 43.5201 115.114 42.2292C113.124 41.6208 110.805 41.3665 109.411 43.1411C109.114 43.5186 108.608 43.9988 108.563 44.5078C108.514 45.0735 108.984 45.6976 109.263 46.1604C109.342 46.2998 109.425 46.4357 109.507 46.5696Z" fill="#F7967C"/>
<path d="M115.826 42.8728C115.506 43.499 115.203 44.1324 114.914 44.773C114.635 45.3943 114.343 46.019 114.202 46.6909C114.121 47.0754 114.078 47.4673 114.038 47.8575C114.031 47.9175 114.198 47.9243 114.206 47.859C114.279 47.1652 114.375 46.4928 114.63 45.8431C114.877 45.2074 115.167 44.5862 115.46 43.9721C115.63 43.6114 115.806 43.2543 115.987 42.9007C116.019 42.8392 115.853 42.8183 115.826 42.8728Z" fill="#DB6357"/>
<path d="M136.707 60.4809C136.776 60.4491 136.847 60.4199 136.913 60.3875C137.057 60.3189 137.199 60.2285 137.264 60.0862C137.434 59.724 136.971 59.8658 136.799 59.88C136.303 59.9166 135.83 60.073 135.324 59.9398C135.137 59.89 134.98 59.7705 134.825 59.6537C134.399 59.3328 133.914 59.0053 133.386 59.0466C133.138 59.0672 132.884 59.1698 132.648 59.0862C132.333 58.976 132.212 58.6061 132.136 58.2863C132.031 57.8517 131.848 57.4337 131.803 56.9931C131.752 56.5125 131.659 56.036 131.522 55.5697C131.421 55.2198 131.293 54.8524 131.379 54.5011C131.506 53.9926 132.023 53.706 132.441 53.3896C132.628 53.2463 132.809 53.0844 133.034 53.0063C133.617 52.8074 134.263 53.1414 134.786 53.3861C135.33 53.6407 136.038 53.952 136.465 54.3848C136.859 54.7814 137.223 55.2219 137.546 55.6817C137.731 55.9457 137.906 56.2178 138.063 56.5023C138.282 56.8994 138.462 57.3164 138.601 57.7467C138.884 58.6255 138.985 59.5935 138.654 60.4406C138.398 61.0963 137.87 61.3114 137.192 61.3814C136.97 61.4042 136.715 61.4657 136.497 61.3909C136.422 61.3654 136.349 61.3252 136.303 61.26C136.235 61.1631 136.238 61.0329 136.275 60.9223C136.316 60.7996 136.393 60.6884 136.493 60.6067C136.558 60.5566 136.631 60.5172 136.707 60.4809Z" fill="#F7967C"/>
<path d="M139.44 58.8071C139.578 58.8655 139.717 58.922 139.855 58.9804C140.715 59.339 141.6 59.7913 142.074 60.6228C142.635 61.6064 142.529 62.8048 142.326 63.8972C142.298 64.0499 142.257 64.2165 142.128 64.3029C142 64.3898 141.827 64.3673 141.672 64.3409C140.892 64.2113 140.111 64.0817 139.331 63.9521C139.172 63.9266 138.997 63.891 138.9 63.764C138.797 63.6314 138.817 63.4491 138.842 63.2848C138.911 62.8253 138.981 62.3658 139.049 61.9058C139.119 61.4463 139.125 60.8983 138.741 60.5537C138.521 60.3573 138.239 60.2433 137.965 60.1355C135.6 59.2079 133.195 58.3792 130.758 57.6552C130.123 57.4664 129.154 57.287 128.694 56.7678C128.404 56.4406 128.397 55.7657 128.848 55.5648C129.085 55.4586 129.364 55.5102 129.622 55.5712C131.209 55.9478 132.767 56.5428 134.321 57.0433C136.046 57.5975 137.778 58.1131 139.44 58.8071Z" fill="#272443"/>
<path d="M135.193 57.5151C135.465 57.6423 135.777 57.7263 135.96 57.9597C136.049 58.0726 136.098 58.212 136.146 58.3489C136.254 58.6557 136.362 58.9626 136.467 59.2709C136.558 59.5304 136.655 59.8001 136.848 60.0017C136.928 60.0846 137.035 60.1591 137.15 60.1474C137.36 60.128 137.43 59.8664 137.442 59.659C137.509 58.5198 137.345 57.3629 136.965 56.2756C136.907 56.1102 136.843 55.9458 136.748 55.7968C136.55 55.4973 136.222 55.2955 135.874 55.2047C135.526 55.1158 135.158 55.1318 134.81 55.2063C134.552 55.2608 134.22 55.3913 134.058 55.61C133.904 55.8221 133.999 56.0933 134.086 56.3199C134.287 56.8329 134.688 57.2788 135.193 57.5151Z" fill="#F7967C"/>
<path d="M134.829 57.6943C134.748 57.5882 134.652 57.5082 134.541 57.48C134.236 57.4068 133.892 57.7039 133.893 57.9969C133.799 57.8236 133.674 57.6657 133.527 57.5343C133.403 57.4239 133.252 57.3298 133.088 57.3309C132.837 57.3333 132.636 57.6049 132.709 57.8435C132.604 57.7271 132.449 57.6491 132.293 57.6609C131.81 57.6961 132.02 58.5037 132.181 58.7583C132.367 59.0534 132.654 59.2716 132.956 59.4507C133.014 59.487 133.082 59.5214 133.151 59.5089C133.194 59.5007 133.233 59.4743 133.275 59.4722C133.334 59.4701 133.385 59.5129 133.43 59.5521C133.572 59.6779 133.72 59.8053 133.893 59.8814C134.067 59.9575 134.274 59.9825 134.444 59.9017C134.506 59.8725 134.566 59.8302 134.635 59.8348C134.671 59.8376 134.707 59.8531 134.74 59.868C135.252 60.1029 135.752 60.1999 136.313 60.1074C136.623 60.0582 136.288 59.7315 136.178 59.6287C135.771 59.2541 135.429 58.8104 135.176 58.3251C135.086 58.1635 134.98 57.8887 134.829 57.6943Z" fill="#F7967C"/>
<path d="M137.552 59.4584C137.555 59.2748 137.557 59.0932 137.557 58.9091C137.558 58.1144 137.523 57.3148 137.315 56.5398C137.3 56.4846 137.14 56.4693 137.157 56.5337C137.329 57.1819 137.385 57.8497 137.396 58.5145C137.402 58.8438 137.398 59.1726 137.393 59.5033C137.39 59.6611 137.39 59.8327 137.294 59.9668C137.182 60.1265 137.013 60.1198 136.865 59.9985C136.633 59.8085 136.546 59.4971 136.462 59.2271C136.359 58.8988 136.278 58.5525 136.142 58.2371C135.922 57.7225 135.375 57.572 134.926 57.3116C134.269 56.9318 134.079 56.202 133.925 55.5242C133.912 55.4674 133.751 55.4542 133.767 55.5181C133.909 56.1457 134.083 56.8415 134.643 57.2481C134.875 57.4143 135.14 57.5206 135.39 57.653C135.681 57.8066 135.902 57.998 136.015 58.3097C136.143 58.6595 136.235 59.0236 136.354 59.3773C136.441 59.6417 136.561 59.9252 136.809 60.0849C137.051 60.2411 137.364 60.2138 137.489 59.9414C137.555 59.7933 137.548 59.6202 137.552 59.4584Z" fill="#DB6357"/>
<path d="M133.391 59.3678C133.085 58.9135 132.874 58.4039 132.766 57.8754C132.756 57.819 132.595 57.8037 132.607 57.8693C132.717 58.4089 132.935 58.9248 133.246 59.3867C133.274 59.4326 133.434 59.4327 133.391 59.3678Z" fill="#DB6357"/>
<path d="M134.831 59.7461C134.379 59.2979 134.087 58.7078 133.997 58.0877C133.989 58.0318 133.828 58.0145 133.839 58.0816C133.93 58.7235 134.24 59.3224 134.707 59.7855C134.748 59.8259 134.898 59.8127 134.831 59.7461Z" fill="#DB6357"/>
<path d="M91.5946 14.2875C91.6726 14.0263 91.7487 13.765 91.8267 13.5037C92.125 12.5015 92.4213 11.4973 92.782 10.5146C93.6517 8.14949 94.8879 5.92278 96.4321 3.93201C97.214 2.9259 98.1051 1.95684 99.2574 1.41479C99.8619 1.13011 100.54 0.985834 101.209 1.02483C101.862 1.06383 102.328 1.36801 102.917 1.57274C104.292 2.05435 105.665 2.46964 106.92 3.23787C108.367 4.12309 108.776 5.43923 109.4 6.92889C109.5 7.16872 109.611 7.42025 109.818 7.58014C110.288 7.94475 111.058 7.48459 111.403 8.01689C111.711 8.49265 111.346 10.0642 111.298 10.6219C111.132 12.519 110.826 14.4026 110.379 16.2529C110.017 17.7563 109.554 19.2615 108.708 20.5562C107.187 22.8882 104.637 23.5921 101.958 23.4263C101.205 23.3796 100.468 23.1826 99.7624 22.9213C98.1792 22.3403 96.5472 21.9425 94.843 21.9854C93.3144 22.0244 91.7038 22.3598 90.3097 21.728C90.025 21.5994 89.7364 21.4083 89.6331 21.1119C89.561 20.9033 89.5902 20.6732 89.6311 20.4548C89.8456 19.3064 90.3936 18.3315 90.7211 17.224C91.0136 16.249 91.3041 15.2683 91.5946 14.2875Z" fill="#272443"/>
<path d="M108.096 148.604C108.14 147.997 108.185 147.391 108.23 146.785C108.236 146.724 108.24 146.664 108.246 146.605C108.632 141.93 109.02 137.252 109.406 132.576C109.708 128.924 110.008 125.261 110.139 121.597C110.371 118.501 110.564 115.398 110.64 112.283C110.662 111.372 110.332 110.071 109.611 109.566C109.117 109.221 108.519 109.122 107.938 109.083C106.668 108.999 105.387 109.175 104.175 109.596C101.029 110.69 101.226 113.142 101.221 116.264C101.211 120.094 101.316 123.921 101.486 127.745C101.823 135.39 102.416 143.018 102.86 150.655C102.979 152.695 103.34 154.754 102.866 156.721C102.7 157.409 102.619 158.269 103.272 158.667C103.42 158.759 103.588 158.796 103.753 158.823C105.064 159.047 106.395 158.807 107.706 158.567C108.25 158.468 108.893 158.423 109.392 158.133C109.476 158.084 109.558 158.027 109.611 157.938C109.706 157.778 109.683 157.55 109.603 157.378C109.521 157.206 109.392 157.078 109.273 156.939C107.362 154.757 107.774 151.104 108.1 148.107V148.614C108.096 148.614 108.096 148.61 108.096 148.604Z" fill="#F7967C"/>
<path d="M106.995 67.4642C104.944 67.277 102.542 67.9536 101.171 68.6555C98.9153 69.8137 97.8721 71.6407 97.4568 74.0078V91.4295C97.5699 94.6506 97.6849 97.8736 97.7259 101.097C97.7707 104.653 97.7239 108.21 97.6771 111.766C97.642 114.402 97.6069 117.038 97.5738 119.675C97.5738 119.164 101.442 119.419 101.893 119.427C103.123 119.446 104.351 119.476 105.582 119.509C106.619 119.536 107.689 120.068 108.664 120.439C109.624 120.804 110.006 120.782 110.326 119.503C111.864 113.338 111.109 106.506 111.291 100.165C111.472 93.7556 111.671 87.3485 111.712 80.9355C111.73 78.0712 111.73 75.1835 111.26 72.3699C111.049 71.1084 110.721 69.8176 109.977 68.8603C109.29 67.9829 108.204 67.5734 106.995 67.4642Z" fill="#E75860"/>
<path d="M115.197 159.471C115.184 159.491 115.17 159.507 115.156 159.522L102.385 159.577C102.373 159.483 102.364 159.391 102.356 159.3C102.338 159.091 102.332 158.883 102.336 158.674C102.356 157.882 102.543 157.104 102.941 156.399C103.027 156.246 103.14 156.087 103.313 156.049C103.504 156.009 103.688 156.129 103.855 156.229C104.489 156.603 105.415 156.8 106.119 156.531C106.579 156.356 106.973 156.046 107.293 155.683C107.433 155.525 107.568 155.355 107.749 155.242C107.946 155.119 108.176 155.102 108.402 155.153C109.036 155.297 109.597 155.831 110.163 156.141C110.81 156.496 111.485 156.804 112.179 157.058C112.766 157.272 113.367 157.451 113.926 157.724C114.275 157.894 114.858 158.218 115.147 158.619C115.338 158.877 115.4 159.169 115.197 159.471Z" fill="#404082"/>
<path d="M115.196 159.477C115.182 159.497 115.169 159.512 115.155 159.528L102.384 159.582C102.372 159.489 102.362 159.397 102.354 159.305C102.337 159.097 102.331 158.888 102.335 158.68L115.147 158.625C115.336 158.882 115.399 159.175 115.196 159.477Z" fill="#D9E3F9"/>
<path d="M112.306 157.532C112.245 157.392 112.058 157.349 111.928 157.297C111.193 157 110.481 156.647 109.8 156.246C109.414 156.017 109.04 155.774 108.677 155.516C108.619 155.475 108.539 155.466 108.473 155.489C108.432 155.503 108.359 155.557 108.42 155.6C109.11 156.092 109.837 156.532 110.598 156.91C110.97 157.096 111.35 157.265 111.737 157.421C111.815 157.453 111.939 157.476 111.996 157.542C112.064 157.62 111.996 157.733 111.953 157.805C111.881 157.926 111.477 158.359 111.579 158.511C111.739 158.747 112.002 158.293 112.043 158.199C112.082 158.114 112.127 158.028 112.177 157.948C112.249 157.827 112.368 157.677 112.306 157.532Z" fill="#272443"/>
<path d="M104.763 158.465C104.583 157.607 104.154 156.761 103.359 156.301C103.3 156.268 103.205 156.268 103.146 156.303C103.092 156.336 103.092 156.385 103.146 156.416C103.891 156.847 104.295 157.666 104.463 158.467C104.486 158.578 104.784 158.565 104.763 158.465Z" fill="#272443"/>
<path d="M109.708 155.597C109.671 155.587 109.631 155.583 109.593 155.589C109.562 155.595 109.525 155.602 109.504 155.626C109.346 155.791 109.186 155.959 109.028 156.125C108.983 156.172 109.03 156.22 109.083 156.234C109.12 156.244 109.161 156.248 109.198 156.242C109.229 156.236 109.266 156.228 109.287 156.205C109.447 156.039 109.605 155.871 109.763 155.706C109.808 155.659 109.759 155.612 109.708 155.597Z" fill="#D9E3F9"/>
<path d="M110.377 155.994C110.315 155.977 110.221 155.977 110.173 156.023C110.021 156.168 109.878 156.324 109.748 156.488C109.732 156.507 109.72 156.525 109.732 156.55C109.744 156.573 109.777 156.591 109.8 156.599C109.837 156.608 109.878 156.612 109.915 156.606C109.945 156.601 109.985 156.593 110.005 156.569C110.136 156.406 110.278 156.25 110.43 156.105C110.481 156.057 110.426 156.008 110.377 155.994Z" fill="#D9E3F9"/>
<path d="M111.178 156.398C111.166 156.375 111.133 156.357 111.11 156.349C111.073 156.34 111.032 156.336 110.995 156.342C110.966 156.347 110.925 156.355 110.905 156.379C110.792 156.523 110.679 156.667 110.566 156.812C110.55 156.831 110.539 156.849 110.552 156.874C110.564 156.897 110.597 156.915 110.62 156.923C110.657 156.932 110.698 156.936 110.735 156.93C110.765 156.925 110.806 156.917 110.825 156.893C110.938 156.749 111.051 156.605 111.164 156.461C111.18 156.441 111.192 156.424 111.178 156.398Z" fill="#D9E3F9"/>
<path d="M111.955 156.672C111.891 156.654 111.801 156.654 111.75 156.701C111.581 156.855 111.434 157.033 111.317 157.226C111.306 157.247 111.317 157.272 111.333 157.288C111.355 157.31 111.394 157.321 111.423 157.325C111.483 157.333 111.573 157.325 111.606 157.269C111.633 157.224 111.663 157.179 111.694 157.134C111.709 157.113 111.725 157.091 111.741 157.07C111.741 157.07 111.746 157.064 111.748 157.058L111.758 157.046C111.766 157.037 111.776 157.025 111.783 157.015C111.852 156.931 111.928 156.853 112.008 156.781C112.058 156.736 112.002 156.684 111.955 156.672Z" fill="#D9E3F9"/>
<path d="M100.464 130.6C100.548 137.44 100.572 144.281 100.661 151.112C103.319 151.716 106.552 152.241 109.254 151.724C109.488 150.552 109.597 149.527 109.673 148.284C109.785 146.438 109.909 144.591 110.038 142.747C110.297 139.054 110.586 135.363 110.867 131.672C111.424 124.302 111.951 116.925 112.155 109.536C112.191 108.239 112.705 106.223 111.715 105.174C110.773 104.174 109.2 103.823 107.876 103.899C105.98 104.01 103.793 104.579 102.225 105.687C99.4368 107.658 100.314 112.708 100.334 115.588C100.369 120.591 100.402 125.596 100.464 130.6Z" fill="#404082"/>
<path d="M89.9399 148.596C90.0608 148.001 90.1817 147.404 90.3006 146.81C90.3143 146.751 90.3259 146.691 90.3396 146.634C91.3086 142.046 92.2777 137.456 93.2468 132.868C94.0033 129.285 94.7618 125.689 95.3487 122.072C95.9668 119.03 96.5478 115.979 97.0119 112.898C97.1464 111.997 96.9846 110.666 96.3314 110.071C95.8849 109.665 95.3038 109.49 94.7325 109.377C93.4846 109.131 92.1919 109.139 90.9343 109.4C87.6761 110.081 87.5669 112.539 87.1692 115.636C86.6817 119.432 86.3054 123.244 85.9934 127.058C85.3695 134.684 85.0049 142.327 84.4882 149.958C84.3497 151.996 84.4511 154.086 83.7336 155.978C83.4821 156.639 83.2949 157.481 83.8915 157.961C84.028 158.07 84.1879 158.128 84.3497 158.177C85.621 158.569 86.9722 158.503 88.302 158.432C88.8557 158.403 89.4973 158.442 90.0276 158.218C90.1153 158.181 90.205 158.134 90.2694 158.052C90.3844 157.906 90.3903 157.676 90.3298 157.497C90.2694 157.317 90.1583 157.171 90.0569 157.021C88.4346 154.611 89.3004 151.039 89.9984 148.108L89.934 148.611C89.9379 148.605 89.9399 148.599 89.9399 148.596Z" fill="#F7967C"/>
<path d="M95.4378 67.6604C93.1507 67.366 89.3349 67.8359 87.7107 69.657C85.6926 71.9188 85.5191 75.6644 85.3826 78.5209C84.7177 92.3861 84.7528 106.286 85.4879 120.148C85.521 120.768 87.3246 119.424 87.4494 119.391C88.3405 119.151 89.4753 119.415 90.3956 119.43C91.6123 119.45 92.829 119.479 94.0476 119.512C95.2565 119.543 98.0506 121.345 98.8676 120.181C99.2868 119.584 99.3414 118.759 99.3784 117.989C100.028 104.52 100.677 91.0505 101.326 77.5811C101.43 75.4168 101.512 73.1257 100.632 71.2169C99.6104 69.0058 97.6002 67.9372 95.4378 67.6604Z" fill="#E75860"/>
<path d="M95.6242 160.279C95.6086 160.296 95.593 160.31 95.5755 160.323L82.9016 158.734C82.9016 158.641 82.9035 158.549 82.9074 158.455C82.9152 158.247 82.9367 158.038 82.9659 157.832C83.0829 157.048 83.3676 156.301 83.8492 155.654C83.9526 155.513 84.0852 155.369 84.2626 155.355C84.4576 155.338 84.6233 155.484 84.7774 155.603C85.3584 156.055 86.2533 156.369 86.9845 156.194C87.4622 156.079 87.8932 155.823 88.2558 155.503C88.4138 155.365 88.5697 155.215 88.7647 155.125C88.9772 155.028 89.2073 155.041 89.4238 155.121C90.0341 155.346 90.5254 155.948 91.046 156.328C91.6427 156.763 92.2744 157.155 92.9315 157.498C93.4852 157.787 94.0604 158.042 94.581 158.383C94.9047 158.596 95.4448 158.994 95.6788 159.428C95.8368 159.707 95.864 160.004 95.6242 160.279Z" fill="#404082"/>
<path d="M95.6244 160.284C95.6088 160.302 95.5933 160.315 95.5757 160.329L82.9019 158.74C82.9019 158.646 82.9038 158.554 82.9077 158.461C82.9155 158.252 82.9369 158.044 82.9662 157.837L95.681 159.432C95.837 159.713 95.8643 160.009 95.6244 160.284Z" fill="#D9E3F9"/>
<path d="M92.9984 157.984C92.9555 157.836 92.7761 157.77 92.6533 157.702C91.9611 157.314 91.2982 156.871 90.6742 156.385C90.3213 156.111 89.9801 155.82 89.6506 155.516C89.5999 155.467 89.5199 155.448 89.4497 155.461C89.4088 155.469 89.3289 155.514 89.3835 155.565C90.0054 156.142 90.6723 156.67 91.38 157.144C91.7271 157.376 92.082 157.594 92.4466 157.797C92.5187 157.838 92.6416 157.879 92.6884 157.951C92.7468 158.037 92.665 158.14 92.6124 158.207C92.5246 158.316 92.0703 158.694 92.1541 158.858C92.2828 159.111 92.6007 158.696 92.6533 158.608C92.7021 158.526 92.7566 158.45 92.819 158.376C92.9048 158.269 93.0413 158.136 92.9984 157.984Z" fill="#272443"/>
<path d="M85.4045 157.934C85.3343 157.059 85.0145 156.166 84.2834 155.606C84.2307 155.565 84.1332 155.553 84.0728 155.579C84.0143 155.604 84.0084 155.653 84.0591 155.692C84.7435 156.216 85.0418 157.08 85.1062 157.895C85.114 158.012 85.4123 158.036 85.4045 157.934Z" fill="#272443"/>
<path d="M90.6652 155.725C90.6301 155.709 90.5892 155.701 90.5502 155.701C90.519 155.703 90.482 155.707 90.4566 155.727C90.2772 155.871 90.0998 156.015 89.9204 156.159C89.8697 156.2 89.9107 156.255 89.9614 156.274C89.9965 156.29 90.0374 156.3 90.0744 156.296C90.1056 156.294 90.1427 156.29 90.168 156.271C90.3474 156.126 90.5249 155.982 90.7023 155.838C90.7549 155.799 90.714 155.746 90.6652 155.725Z" fill="#D9E3F9"/>
<path d="M91.2809 156.209C91.2204 156.183 91.1288 156.171 91.0742 156.212C90.9046 156.337 90.7447 156.472 90.5945 156.618C90.577 156.636 90.5633 156.651 90.5711 156.678C90.5789 156.704 90.6101 156.725 90.6335 156.735C90.6686 156.751 90.7096 156.758 90.7466 156.758C90.7759 156.756 90.8187 156.754 90.8402 156.733C90.9903 156.587 91.1502 156.45 91.3198 156.327C91.3744 156.285 91.3276 156.228 91.2809 156.209Z" fill="#D9E3F9"/>
<path d="M92.0204 156.714C92.0126 156.689 91.9814 156.667 91.958 156.657C91.9229 156.642 91.882 156.634 91.8449 156.636C91.8157 156.638 91.7728 156.64 91.7513 156.661C91.6207 156.79 91.49 156.919 91.3594 157.047C91.3418 157.065 91.3282 157.081 91.338 157.108C91.3458 157.133 91.377 157.155 91.4004 157.164C91.4355 157.18 91.4764 157.19 91.5154 157.188C91.5447 157.186 91.5876 157.184 91.609 157.162C91.7396 157.034 91.8703 156.905 92.0009 156.776C92.0165 156.755 92.0302 156.739 92.0204 156.714Z" fill="#D9E3F9"/>
<path d="M92.7607 157.091C92.7003 157.066 92.6106 157.054 92.5521 157.095C92.3649 157.226 92.1972 157.384 92.0588 157.559C92.0432 157.579 92.053 157.606 92.0666 157.624C92.0861 157.647 92.1232 157.665 92.1505 157.672C92.2089 157.688 92.2986 157.692 92.3396 157.639C92.3727 157.598 92.4059 157.557 92.4429 157.518C92.4605 157.499 92.4799 157.479 92.4975 157.46C92.4975 157.46 92.5033 157.454 92.5072 157.45L92.519 157.438C92.5287 157.429 92.5384 157.421 92.5482 157.411C92.6262 157.337 92.712 157.269 92.8017 157.208C92.8543 157.169 92.8056 157.111 92.7607 157.091Z" fill="#D9E3F9"/>
<path d="M98.7989 116.338C97.4203 122.76 96.0964 129.193 94.8251 135.637C94.092 139.353 93.3764 143.072 92.6803 146.794C92.5107 147.704 92.3411 148.615 92.1734 149.523C92.0506 150.186 92.0681 151.744 91.6781 152.271C91.0835 153.074 89.2038 152.398 88.2835 152.251C86.8094 152.017 85.2886 151.83 83.8418 151.458C83.446 151.356 83.1516 151.3 82.8357 151.44C83.1984 145.4 84.298 139.31 85.0331 133.301C85.7721 127.245 86.513 121.191 87.252 115.134C87.5172 112.964 87.7843 110.788 88.3439 108.675C89.391 104.726 93.78 104.054 97.3618 104.373C102.624 104.845 100.062 110.506 99.3312 113.875C99.1518 114.698 98.9743 115.519 98.7989 116.338Z" fill="#404082"/>
<path d="M102.757 80.4701C105.266 80.8561 109.503 81.8915 111.174 79.3158C112.377 77.4615 111.888 74.7259 111.856 72.6513C111.786 68.1043 111.314 63.5651 110.513 59.0903C110.15 57.0644 110.419 54.553 108.292 54.1826C107.153 53.9837 105.798 54.1826 104.644 54.1826C101.77 54.1826 98.894 54.1826 96.018 54.1826C94.0584 54.1826 91.0479 52.6559 89.5348 54.2879C88.79 55.0892 88.4878 56.1948 88.2284 57.2574C86.7037 63.5398 85.9081 69.9976 85.8652 76.4632C85.836 80.63 88.4157 81.7842 92.3017 80.7138C94.2378 80.1815 95.7957 79.6433 97.9054 79.7564C99.5433 79.8461 101.14 80.2205 102.757 80.4701Z" fill="#E75860"/>
<path d="M111.666 43.2368C111.664 43.3265 111.66 43.4123 111.656 43.502C111.602 43.8608 111.549 44.2195 111.493 44.5783C111.017 47.5635 110.192 50.537 109.872 53.5183C109.57 56.3416 106.912 55.6163 104.727 55.6163H100.88C97.4694 55.6163 94.0943 56.055 90.6723 55.8795C90.0308 55.8464 89.3406 55.782 88.8473 55.3686C88.4086 55.0021 88.2136 54.4269 88.0362 53.8829C86.5329 49.2559 85.0491 44.6173 83.8948 39.8929C82.7892 35.3713 81.9839 30.6741 82.6878 26.0745C82.8223 25.1912 83.0232 24.2963 83.4931 23.5358C83.9923 22.7267 84.7702 22.1222 85.5969 21.6484C85.7958 21.5334 85.9986 21.4261 86.2033 21.3247C87.7905 20.537 89.481 19.9384 91.2202 19.5367C93.3826 19.0376 95.621 18.8407 97.8224 18.9557C99.9028 19.0629 101.72 19.8897 103.586 20.7261C105.05 21.3832 106.686 22.1008 107.453 23.6177C107.659 24.0252 107.784 24.4698 107.907 24.9085C108.305 26.3202 108.888 27.685 109.315 29.1006C110.026 31.5418 110.781 33.8523 111.229 36.3891C111.629 38.6509 111.729 40.9419 111.666 43.2368Z" fill="#E6EEFC"/>
<path d="M113.519 121.17C111.803 121.462 109.703 121.189 107.933 121.189H88.0231C87.8223 121.189 84.219 121.174 84.219 121.189C84.412 114.078 84.4998 106.963 84.4822 99.8504C84.4549 87.818 83.7491 75.9007 85.3109 63.9424C85.3674 63.5115 85.4259 63.0806 85.4883 62.6516C85.8958 59.8536 86.315 57.0342 87.1496 54.3454C87.9977 51.6137 88.9181 48.919 89.893 46.2302C91.5991 41.5292 92.8353 36.6118 93.7926 31.6963C93.8336 31.4818 93.8745 31.2693 93.9154 31.0548C93.9291 31.0684 93.9467 31.0762 93.9681 31.0743C94.126 31.0645 94.284 31.0548 94.4419 31.045C99.295 30.7506 104.166 30.737 109.023 31.0041C109.323 31.0197 109.623 31.0372 109.924 31.0567C109.927 31.0587 109.931 31.0587 109.935 31.0587L109.953 31.1308C110.126 31.8288 110.313 32.523 110.497 33.221C110.774 34.27 111.037 35.321 111.226 36.3914C111.626 38.6552 111.725 40.9462 111.663 43.2412C111.6 45.5732 111.308 47.8915 111.103 50.2118C111 51.3797 110.912 52.5496 110.873 53.7215C110.838 54.749 110.877 55.7746 110.863 56.8002C110.852 57.6874 110.818 58.5765 110.879 59.4637C110.935 60.2846 111.056 61.1347 111.452 61.8659C111.468 61.8932 111.485 61.9146 111.505 61.9322C112.961 78.5759 113.42 95.3229 113.515 112.033C113.537 115.078 113.537 118.124 113.519 121.17Z" fill="#426E5F"/>
<path d="M103.403 20.8461C103.175 22.6243 102.426 27.1128 100.474 27.0797C100.219 27.0738 99.981 26.9529 99.7529 26.834C97.7972 25.8103 95.7908 24.7379 94.1198 23.3262C93.3009 22.6341 92.5619 21.86 91.9497 20.9708C91.6455 20.5282 91.3725 20.0486 91.2205 19.5358C93.3828 19.0366 95.6212 18.8397 97.8226 18.9547C99.8114 19.0581 101.716 19.7834 103.403 20.8461Z" fill="#F7967C"/>
<path d="M110.283 32.3953C110.172 31.9741 110.063 31.553 109.955 31.1299L109.938 31.0577C109.934 31.0577 109.93 31.0577 109.926 31.0558C109.626 31.0382 109.326 31.0207 109.025 31.0031C104.168 30.736 99.2976 30.7496 94.4445 31.044C94.2866 31.0538 94.1286 31.0635 93.9707 31.0733C93.9492 31.0752 93.9336 31.0655 93.918 31.0538C93.8771 31.2683 93.8362 31.4808 93.7952 31.6953C93.7504 31.9273 93.7035 32.1593 93.6567 32.3933H110.283V32.3953Z" fill="#2B4E43"/>
<path d="M109.927 31.0569C109.626 31.0393 109.326 31.0218 109.026 31.0042C107.651 27.7558 105.848 24.7063 103.644 21.9122C101.95 19.7635 100.369 18.697 98.1848 18.2329C97.3015 18.0457 96.3753 17.9131 95.4784 17.7844C95.3068 17.7591 95.1352 17.7337 94.9637 17.7103C94.4996 17.6421 93.8854 18.1451 93.3258 19.0538C92.425 20.5181 92.6434 22.3704 92.8344 24.0024C93.1172 26.391 93.9887 28.7307 94.6848 31.0296C94.5269 31.0393 94.1291 31.0627 93.9712 31.0744C93.9497 31.0764 93.9341 31.0666 93.9185 31.0549C93.8776 31.2694 93.9303 30.817 93.8874 31.0315C93.1289 28.563 92.3314 26.6932 92.0252 24.096C91.8186 22.3353 91.5827 20.3407 92.6278 18.6443C93.164 17.7747 94.0258 16.7705 95.0806 16.9226C95.2503 16.948 95.4199 16.9714 95.5934 16.9967C96.504 17.1273 97.4438 17.2619 98.3563 17.4568C100.712 17.9579 102.486 19.1454 104.286 21.4267C106.616 24.3787 108.507 27.6096 109.927 31.0569Z" fill="#2B4E43"/>
<path d="M104.442 14.7263C104.144 14.2856 103.234 14.1238 102.779 13.9015C102.629 13.8294 102.481 13.7553 102.331 13.6831C100.8 12.9364 99.2851 12.1701 97.8033 11.357C97.1169 10.9807 96.8985 11.5383 96.6002 12.1116C96.1713 12.9383 95.7423 13.765 95.3153 14.5918C94.9682 15.2606 94.6075 15.9176 94.2624 16.5845L94.2643 16.5533C94.083 16.9042 93.9095 17.2591 93.7515 17.6199C93.4883 18.1834 93.2485 18.7566 93.0535 19.3552C92.9599 19.6379 92.878 19.9655 93.0262 20.2229C93.1256 20.3944 93.2953 20.488 93.4903 20.5348C94.0577 20.9852 95.169 21.0515 95.7559 21.1588C96.9258 21.3713 98.1172 21.4669 99.3066 21.4435C99.4099 21.4415 99.5132 21.4376 99.6146 21.4337C100.816 21.3888 101.377 21.5039 101.88 20.4003C101.956 20.2346 102.032 20.0708 102.11 19.907C102.149 19.8231 102.19 19.7393 102.231 19.6555C102.571 18.9652 102.941 18.2906 103.354 17.6452C103.571 17.3079 103.982 16.8009 104.273 16.2725C104.357 16.1185 104.433 15.9606 104.487 15.8046C104.63 15.4185 104.655 15.0402 104.442 14.7263Z" fill="#F7967C"/>
<path d="M104.492 15.8137C104.435 15.9697 104.361 16.1257 104.277 16.2817C103.987 16.812 103.574 17.317 103.359 17.6543C102.946 18.3017 102.577 18.9763 102.236 19.6646C101.877 19.7485 101.497 19.7523 101.132 19.7328C100.384 19.6899 99.6096 19.5574 98.9915 19.1304C97.5116 18.1126 97.3536 16.0165 97.5447 14.3981C97.687 13.1951 98.3109 12.8695 99.4399 12.9514C100.423 13.0235 101.37 13.3764 102.24 13.8327C103.078 14.2714 103.887 14.8291 104.389 15.6304C104.424 15.6909 104.459 15.7513 104.492 15.8137Z" fill="#DB6357"/>
<path d="M110.905 5.35866C110.189 3.69741 109.08 2.41247 107.315 1.83142C105.711 1.30302 103.93 1.32251 102.339 1.88991C99.7285 2.81803 98.1706 4.92774 97.3771 7.49175C96.9228 8.95997 96.7531 10.5042 96.7862 12.0368C96.8233 13.6532 97.1606 15.2891 97.9444 16.7339C98.7322 18.1846 100.725 19.5729 102.476 19.2531C103.71 19.0289 104.757 18.5999 105.722 17.7673C106.06 17.4749 106.368 17.1512 106.672 16.8236C108.193 15.1838 109.195 13.4543 110.145 11.4265C110.965 9.67362 111.636 7.53074 111.008 5.63357C110.979 5.53998 110.944 5.44835 110.905 5.35866Z" fill="#F7967C"/>
<path d="M106.192 11.0127C106.186 11.0069 106.178 11.001 106.172 10.9971C105.956 10.8645 105.603 11.4787 105.508 11.6308C105.307 11.9525 105.151 12.3015 105.034 12.6623C104.886 13.1166 104.833 13.5923 104.691 14.0447C104.511 14.6082 103.809 14.4776 103.404 14.3469C103.191 14.2787 103.244 14.5048 103.402 14.5555C103.776 14.6764 104.301 14.7817 104.683 14.5828C104.878 14.4814 104.969 14.2923 105.022 14.0837C105.088 13.8205 105.131 13.5514 105.198 13.2882C105.297 12.8982 105.426 12.5141 105.605 12.1514C105.697 11.9681 105.798 11.7887 105.917 11.6211C106.016 11.4787 106.231 11.313 106.243 11.1297C106.241 11.0849 106.223 11.04 106.192 11.0127Z" fill="#DB6357"/>
<path d="M109.419 12.3698C109.425 12.3835 109.429 12.3991 109.435 12.4127C109.443 12.4361 109.472 12.5434 109.509 12.5219C109.538 12.5044 109.55 12.4673 109.556 12.4342C109.593 12.2392 109.56 12.0618 109.519 11.8921C109.427 11.5236 109.285 11.2312 109.033 10.9972C108.731 10.7164 108.378 10.5273 107.99 10.3732C107.787 10.2933 107.333 10.11 107.238 10.5819C107.204 10.7398 107.318 10.8431 107.433 10.9055C107.569 10.9796 107.719 11.0323 107.879 11.0635C108.103 11.1064 108.345 11.1181 108.55 11.2039C108.76 11.2936 108.934 11.4456 109.07 11.6309C109.18 11.779 109.265 11.9487 109.338 12.1281C109.365 12.208 109.39 12.2899 109.419 12.3698Z" fill="#272443"/>
<path d="M101.644 7.78745C101.938 7.53592 102.664 7.60808 103.015 7.65098C103.785 7.74457 104.522 8.08969 105.066 8.64734C105.269 8.85597 105.329 9.29858 104.916 9.30248C104.795 9.30248 104.682 9.25177 104.576 9.19522C104.325 9.06068 104.089 8.8969 103.876 8.70776C103.584 8.44844 103.321 8.13064 102.954 7.9922C102.732 7.90641 102.492 7.89859 102.256 7.88884C102.084 7.87909 101.759 7.92004 101.644 7.78745Z" fill="#272443"/>
<path d="M108.117 13.0212C108.121 12.8574 107.996 12.7404 107.85 12.6858C107.739 12.6214 107.602 12.5942 107.479 12.6156C107.298 12.6468 107.138 12.7579 107.021 12.8944C106.912 13.0212 106.822 13.1693 106.797 13.337C106.768 13.5301 106.871 13.6997 107.037 13.7933C107.045 13.7972 107.054 13.7991 107.062 13.803C107.087 13.8147 107.113 13.8264 107.14 13.8342H107.142C107.162 13.8401 107.179 13.8479 107.199 13.8518C107.24 13.8635 107.28 13.8713 107.323 13.8713C107.522 13.8674 107.715 13.7406 107.846 13.5964C107.922 13.5125 107.99 13.4092 108.033 13.298C108.08 13.2122 108.115 13.1167 108.117 13.0212Z" fill="#272443"/>
<path d="M103.376 10.2281C103.353 10.0663 103.21 9.97074 103.056 9.94345C102.935 9.8986 102.797 9.8947 102.68 9.93565C102.506 9.99804 102.368 10.1326 102.274 10.2886C102.189 10.4329 102.124 10.5927 102.128 10.7624C102.132 10.9573 102.263 11.1075 102.442 11.1718C102.45 11.1757 102.46 11.1738 102.469 11.1777C102.497 11.1855 102.524 11.1913 102.553 11.1952C102.573 11.1972 102.594 11.203 102.614 11.203C102.655 11.2069 102.697 11.2089 102.74 11.2011C102.935 11.164 103.105 11.0061 103.208 10.8423C103.269 10.7468 103.318 10.6337 103.343 10.5167C103.372 10.4211 103.39 10.3217 103.376 10.2281Z" fill="#272443"/>
<path d="M101.47 14.9864C101.497 14.8772 101.597 14.8167 101.813 14.8499C102.028 14.883 102.185 15.0585 102.347 15.2048C102.78 15.5967 103.353 15.8287 103.936 15.8482C104.042 15.8521 104.157 15.8502 104.244 15.9106C104.621 16.166 103.765 16.4468 103.57 16.4741C103 16.5541 102.338 16.3591 101.922 15.9535C101.764 15.8014 101.402 15.2516 101.47 14.9864Z" fill="white"/>
<path d="M95.2771 8.3072C94.971 8.96039 94.5441 9.59604 94.234 10.1478C94.0118 10.5437 93.8557 10.9706 93.6471 11.3645C93.4346 11.7681 93.0895 12.0957 92.8769 12.511C92.4558 13.3417 92.2374 14.2581 92.0288 15.1608C91.7928 16.1825 91.2644 17.0717 91.1435 18.146C91.1162 18.3819 91.1143 18.653 91.2898 18.8129C91.4087 18.922 91.5823 18.9494 91.7441 18.9494C92.0658 18.9494 92.3739 18.8596 92.6663 18.7329C92.795 18.6764 93.0212 18.6003 93.1129 18.4892C93.1889 18.3956 93.1343 18.2708 93.2181 18.1733C93.3917 17.9705 93.846 17.875 94.0838 17.7521C94.3919 17.5942 94.6903 17.4187 94.9788 17.2296C96.1039 16.4867 97.0691 15.5216 97.9036 14.4687C99.1261 12.9244 100.082 11.189 101.08 9.49074C101.669 8.49048 102.285 7.48828 103.115 6.67715C104.055 5.75879 105.233 5.12509 106.422 4.56744C106.795 4.39391 107.386 4.0215 107.818 4.15603C108.177 4.26912 108.339 4.71562 108.509 5.012C109.06 5.97521 109.55 6.92868 109.85 8.00498C110.051 8.72057 110.178 9.45761 110.226 10.2005C110.258 10.6626 110.203 11.1695 110.148 11.6297C110.121 11.8559 109.94 12.2342 110.119 12.4311C110.765 13.1369 111.402 11.5303 111.496 11.1618C112.073 8.87851 112.525 6.2599 111.398 4.0605C111.043 3.36831 110.531 2.75022 109.897 2.29591C109.215 1.80651 108.458 1.69925 107.69 1.41067C107.53 1.35023 107.391 1.25079 107.251 1.15525C105.97 0.297331 104.297 -0.116038 102.765 0.0282493C101.154 0.180335 99.4849 1.19814 98.3403 2.30174C97.7983 2.8243 97.3381 3.4463 97.0437 4.14434C96.7688 4.79363 96.41 5.34738 96.1214 5.99277C95.7822 6.74345 95.6242 7.56432 95.2771 8.3072Z" fill="#272443"/>
<path d="M109.926 4.88307C109.868 4.79142 109.575 4.83043 109.638 4.92597C110.33 6.00617 110.501 7.29694 110.657 8.54288C110.673 8.65792 110.969 8.65012 110.956 8.54288C110.8 7.28525 110.624 5.97302 109.926 4.88307Z" fill="#272443"/>
<path d="M110.984 4.51257C110.933 4.41703 110.639 4.45018 110.695 4.55547C110.908 4.95129 111.054 5.38025 111.126 5.82481C111.136 5.88915 111.22 5.90672 111.276 5.90672C111.315 5.90672 111.436 5.8872 111.427 5.82481C111.351 5.3666 111.202 4.92398 110.984 4.51257Z" fill="#272443"/>
<path d="M105.139 3.6632C105.098 3.61251 104.989 3.61641 104.934 3.63396C102.444 4.45288 100.141 5.8236 98.2343 7.62134C97.6923 8.13219 97.1833 8.67814 96.7095 9.25139C96.6159 9.36448 96.9026 9.41324 96.9669 9.3333C98.6145 7.33083 100.701 5.70466 103.041 4.59131C103.704 4.27544 104.386 4.00444 105.082 3.77436C105.139 3.75876 105.182 3.7139 105.139 3.6632Z" fill="#272443"/>
<path d="M102.288 2.80489C102.231 2.7698 102.134 2.77175 102.077 2.80489C100.587 3.64137 99.2381 4.72547 98.1053 6.0026C97.7855 6.36332 97.4853 6.73963 97.2006 7.12764C97.1596 7.18419 97.2707 7.22319 97.3039 7.22904C97.3682 7.24074 97.4463 7.22709 97.4872 7.17054C98.4797 5.81542 99.7003 4.62603 101.083 3.67062C101.473 3.40154 101.874 3.15197 102.288 2.91994C102.344 2.8907 102.34 2.83804 102.288 2.80489Z" fill="#272443"/>
<path d="M109.109 16.1623C108.69 17.9211 108.208 19.8378 106.736 21.0291C106.681 21.074 106.748 21.1266 106.789 21.1422C106.853 21.1656 106.939 21.1558 106.993 21.113C108.126 20.1965 108.707 18.8141 109.086 17.4434C109.202 17.0183 109.306 16.5894 109.407 16.1623C109.433 16.0629 109.138 16.0454 109.109 16.1623Z" fill="#272443"/>
<path d="M93.4431 12.2835C92.7119 13.6581 92.1367 15.1127 91.7311 16.616C91.698 16.7408 91.9924 16.7603 92.0197 16.6589C92.4253 15.1556 93.0005 13.701 93.7316 12.3264C93.7862 12.223 93.4938 12.1879 93.4431 12.2835Z" fill="#272443"/>
<path d="M109.954 31.1314C109.944 31.1065 109.935 31.0835 109.926 31.0605C109.929 31.0625 109.933 31.0625 109.937 31.0625L109.954 31.1314Z" fill="#426E5F"/>
<path d="M124.162 59.0013C124.148 59.015 124.14 59.0286 124.152 59.0325C124.667 59.2158 125.215 59.2684 125.753 59.2723C126.022 59.2743 126.287 59.2607 126.556 59.2529C126.736 59.247 126.983 59.2704 127.1 59.4225C127.209 59.5668 127.104 59.7267 126.987 59.8242C126.396 60.3253 125.23 60.1225 124.456 60.1576C122.705 60.2355 120.97 59.8826 119.28 59.3913C118.23 59.0871 117.521 58.3111 117.392 57.2913C117.02 54.3607 121.282 54.0916 123.444 53.4502C123.68 53.38 123.93 53.3117 124.177 53.3644C124.827 53.5009 124.402 53.9942 124.074 54.1872C123.553 54.4933 122.75 54.6941 122.467 55.2362C122.772 55.4136 123.372 55.3786 123.711 55.3825C124.138 55.3883 124.562 55.3668 124.989 55.3746C125.379 55.3805 125.77 55.3824 126.155 55.3435C126.593 55.2986 127.026 55.2011 127.471 55.2089C127.633 55.2109 127.917 55.2421 128.015 55.3903C128.229 55.712 127.558 56.0844 127.313 56.1643C126.975 56.2735 126.607 56.2833 126.242 56.2911C125.638 56.3047 125.026 56.3554 124.425 56.334C124.177 56.3262 124.487 56.4783 124.583 56.4919C124.71 56.5095 124.837 56.4977 124.963 56.5075C125.236 56.5309 125.509 56.5582 125.784 56.5757C126.326 56.6128 126.874 56.6206 127.402 56.527C127.711 56.4724 128.009 56.3827 128.325 56.3691C128.559 56.3593 128.843 56.4568 128.806 56.7103C128.771 56.9696 128.535 57.1958 128.303 57.3264C128.093 57.4434 127.81 57.5487 127.556 57.5643C127.301 57.5799 127.05 57.6189 126.79 57.6364C126.19 57.6754 125.581 57.6131 124.979 57.6014C124.848 57.5994 124.464 57.5429 124.558 57.7554C124.632 57.9211 124.944 57.964 125.106 57.9855C125.646 58.0556 126.192 58.0713 126.73 58.0342C126.999 58.0167 127.266 57.9835 127.529 57.9387C127.732 57.9036 127.995 57.7885 128.2 57.8002C128.461 57.8139 128.471 58.0849 128.412 58.2487C128.331 58.4729 128.139 58.6562 127.917 58.7693C127.601 58.9292 127.227 58.9701 126.858 58.9955C126.351 59.0306 125.843 59.0559 125.33 59.0423C125.137 59.0364 124.94 58.9935 124.749 58.9721C124.63 58.9584 124.509 58.9467 124.39 58.9448C124.343 58.9428 124.271 58.9331 124.228 58.9487C124.226 58.9526 124.185 58.9799 124.162 59.0013Z" fill="#F7967C"/>
<path d="M114.194 54.0427C111.673 53.2861 109.15 52.5354 106.631 51.7692C104.384 51.0867 102.152 50.0221 99.9114 49.2168C98.5114 48.7138 97.0471 48.2029 95.5867 48.4076C93.0812 48.7567 92.311 51.0789 92.8413 53.3739C93.2293 55.0488 94.7951 56.049 96.3179 56.4409C98.1156 56.903 99.8529 57.4548 101.707 57.7707C104.675 58.2757 107.668 58.5643 110.659 58.8529C112.145 58.9952 113.646 59.1492 115.138 59.0654C115.834 59.0264 116.532 58.9347 117.237 58.8977C117.955 58.8587 118.743 58.9094 119.449 58.7807C119.482 58.7788 119.515 58.7768 119.542 58.7612C119.624 58.7164 119.616 58.5935 119.597 58.498C119.503 58.0242 119.431 57.5484 119.38 57.0688C119.345 56.7373 119.435 56.0666 119.279 55.7838C119.02 55.3159 118.109 55.2223 117.665 55.0878C116.508 54.7387 115.35 54.3917 114.194 54.0427Z" fill="#F7967C"/>
<path d="M86.0204 40.4341C86.695 42.1187 87.3794 43.7975 88.0754 45.4724C89.3136 48.4498 90.3607 51.3161 92.4275 53.8664C93.2308 54.8589 94.2272 55.8338 95.4926 56.0054C96.5475 56.1497 97.5945 55.7012 98.4992 55.1436C99.6535 54.4338 100.767 53.3595 100.81 52.0063C100.857 50.4952 99.5931 49.3233 98.5928 48.1905C96.0756 45.3379 95.167 41.4636 93.9191 37.9481C92.5601 34.1206 91.4974 30.1819 90.154 26.37C89.5827 24.7497 88.1768 20.4679 85.7903 21.359C85.2034 21.5793 84.7179 22.0083 84.3103 22.484C82.8519 24.1921 82.5965 26.2082 82.7369 28.3647C83.0079 32.5646 84.4722 36.5676 86.0204 40.4341Z" fill="#F7967C"/>
<path d="M89.0566 44.5928C90.593 43.7309 92.0788 42.719 93.6776 42.0346C94.0559 41.8728 94.7481 41.7811 95.06 41.5627C95.6157 41.1747 95.3077 40.8257 95.1069 40.153C94.7422 38.9324 94.3678 37.7138 93.9759 36.501C93.1726 34.0169 92.3089 31.5543 91.3847 29.1151C90.6944 27.2959 88.8772 20.2024 85.7867 21.3567C83.4528 22.2283 82.394 24.5622 82.1659 26.9449C81.9787 28.9006 82.3277 30.866 82.7021 32.7963C83.484 36.8344 84.3828 40.851 85.3948 44.8384C85.8783 46.7298 88.0349 45.166 89.0566 44.5928Z" fill="#E6EEFC"/>
<path d="M87.2523 45.4172C87.1879 45.5498 87.069 45.6492 86.9247 45.6551C85.71 42.8512 84.7117 39.9557 83.9474 36.9959C83.729 36.1536 83.5301 35.3054 83.3507 34.4533C83.3254 34.3383 83.0309 34.3519 83.0524 34.4533C83.4112 36.1477 83.8421 37.8285 84.349 39.4858C84.854 41.1432 85.4331 42.7771 86.0843 44.3838C86.176 44.608 86.2676 44.8342 86.3632 45.0584C86.4119 45.1735 86.4607 45.2904 86.5094 45.4055C86.5543 45.5108 86.5913 45.6297 86.6498 45.7291C86.7337 45.8734 87.0105 45.8344 87.147 45.7915C87.3167 45.7389 87.4629 45.6239 87.5409 45.462C87.5935 45.3509 87.2991 45.3197 87.2523 45.4172Z" fill="#2B4E43"/>
<path d="M92.8889 33.2879C92.2883 31.4785 91.6916 29.6691 91.0852 27.8616C90.5393 26.2393 89.9271 24.6073 88.8547 23.2502C88.3146 22.5659 87.6633 21.9712 86.9049 21.5383C86.8464 21.5051 86.7528 21.5032 86.6943 21.5383C86.6416 21.5714 86.6377 21.6222 86.6943 21.6553C88.0709 22.4411 89.0399 23.7591 89.7243 25.1611C90.1142 25.9605 90.4223 26.7989 90.7089 27.6412C91.0092 28.5226 91.2997 29.4098 91.5922 30.295L92.6022 33.3308C92.6334 33.4322 92.9298 33.4088 92.8889 33.2879Z" fill="#2B4E43"/>
<path d="M20.6973 122.39H159.466V123.523H20.6973V122.39Z" fill="#272443"/>
<path d="M20.6973 89.6807H159.466V90.8145H20.6973V89.6807Z" fill="#272443"/>
<path d="M20.6973 93.3145H159.466V94.4483H20.6973V93.3145Z" fill="#272443"/>
<path d="M20.6973 96.9443H159.466V98.0781H20.6973V96.9443Z" fill="#272443"/>
<path d="M0.357986 90.8504C0.786758 91.1429 1.4344 91.2379 1.97441 91.0675C2.25966 90.9778 2.51622 90.8092 2.68843 90.558C2.83554 90.3445 2.98627 90.131 3.13158 89.9158L6.49893 84.2233C6.76982 83.7641 7.09993 83.3532 7.47487 82.9926C8.52795 81.988 9.93806 81.4014 11.4343 81.3978L48.3695 81.2919H137.728C139.332 79.837 140.571 77.9407 141.526 76.0695C141.78 75.5672 141.847 75.0057 141.71 74.5016C142.211 73.635 142.141 72.4654 140.998 71.8285C139.256 70.8615 137.449 68.5404 135.651 67.6668C131.932 65.8584 127.974 64.9183 123.855 65.9302C123.708 65.966 123.561 66.0037 123.414 66.0396C114.749 68.2642 106.573 70.056 98.2845 69.4137C94.6049 69.1303 90.9182 68.2763 87.1938 66.6025C81.2879 63.9474 74.0096 65.1745 68.0606 67.0187C67.6301 67.1533 67.2013 67.2968 66.7743 67.4475C60.9401 69.5214 55.2675 73.1668 49.0046 73.4718C44.7115 73.6817 40.2857 71.3638 35.9854 71.258C31.5721 71.1485 27.898 71.0086 23.8758 72.3236C23.5672 72.4241 23.2586 72.5335 22.9447 72.6501C22.8155 72.6986 22.6882 72.7506 22.5572 72.8008C19.441 74.0477 16.1489 75.2263 12.8085 75.5511C11.3123 75.6982 9.7066 75.5546 8.31445 75.0236C6.8595 74.4693 6.0307 73.1363 4.25821 73.5489C1.54745 74.1804 1.88474 78.3336 1.87935 80.4649C1.87398 83.3568 1.63712 86.2721 0.582245 88.9936C0.24855 89.8512 -0.411636 90.3158 0.357986 90.8504Z" fill="#F7967C"/>
<path d="M11.1897 87.3378H168.977C170.647 87.3378 172 85.9851 172 84.3149C172 82.6447 170.647 81.292 168.977 81.292H11.1897C9.51947 81.292 8.16679 82.6447 8.16679 84.3149C8.16679 85.9851 9.51947 87.3378 11.1897 87.3378Z" fill="#446271"/>
<path d="M70.865 80.1816C68.7696 80.4417 66.6958 80.8902 64.6165 81.2921H124.669C124.352 80.9925 124.033 80.6893 123.681 80.4274C122.687 79.6864 121.559 79.3689 120.328 79.3169C117.825 79.2092 115.314 79.1428 112.806 79.0424C108.039 78.854 103.295 79.0083 98.5342 79.2379C93.8984 79.4604 89.2788 79.4729 84.6377 79.4873C80.0414 79.5034 75.4308 79.6129 70.865 80.1816Z" fill="#F78A74"/>
<path d="M7.47721 82.9924C8.5303 81.9877 9.9404 81.4011 11.4366 81.3975L48.3718 81.2917H64.4893C64.3368 81.132 64.152 80.9813 63.9295 80.8432C62.8746 80.1937 61.4627 80.1148 60.2572 80.0789C58.3465 80.0215 56.4251 80.1507 54.5109 80.1363C51.68 80.113 43.8347 80.0897 43.8347 80.0897C36.0738 79.9461 10.405 79.5784 8.16431 80.9382C7.43594 81.3814 7.29602 82.1348 7.47721 82.9924Z" fill="#F78A74"/>
<path d="M57.5055 94.96C57.597 95.4749 57.7441 95.9988 57.9702 96.4814C63.2589 97.0662 68.6571 96.702 74.0428 96.3594C78.1152 96.0992 82.1948 96.0328 86.26 95.6633C90.0705 95.3152 93.8685 94.8183 97.6826 94.5205C97.914 92.443 98.1616 90.3638 98.3087 88.2791C98.4701 85.9541 98.5939 83.6236 98.6872 81.295C98.8415 77.5132 98.9132 73.7278 98.9365 69.9425C98.7015 69.8097 98.4557 69.6698 98.2046 69.528C98.2351 69.494 98.262 69.4563 98.2853 69.4186C94.6058 69.1352 90.9191 68.2812 87.1947 66.6074C81.2888 63.9522 74.0105 65.1793 68.0615 67.0236C67.866 67.0846 66.8362 67.2496 65.7275 67.4272C63.3128 67.813 61.5079 69.9191 61.5941 72.3644C61.6999 75.4088 63.1602 78.1842 63.0418 79.1009C62.9468 79.8311 62.8768 79.806 62.8194 80.5379C62.7925 80.8878 62.6023 81.1299 62.3153 81.2932C62.1646 81.3793 61.9852 81.4439 61.7896 81.4923C60.9608 81.6933 59.8323 81.5731 59.1901 81.4852C58.8833 81.4421 58.6878 81.4044 58.6878 81.4116C58.6842 81.4278 58.6806 81.4511 58.6752 81.4834C58.6447 81.6735 57.9468 85.9236 57.7782 87.1561C57.423 89.7161 57.0552 92.3856 57.5055 94.96Z" fill="#1B3C5A"/>
<path d="M62.8191 80.5364C62.8783 79.8026 62.9482 79.8278 63.0415 79.0994C63.0846 78.7621 63.0971 78.4787 63.2622 78.1791C63.4721 77.7987 71.5577 79.1191 72.478 79.1729C75.1565 79.3272 77.8314 79.5299 80.508 79.7488C85.5474 80.1614 90.585 80.5992 95.6208 81.0531C95.3966 81.2809 95.0486 81.3957 94.6485 81.4442H94.6431L93.9793 81.4711L91.4282 81.5769L61.7893 81.4926C62.3526 81.3545 62.7778 81.071 62.8191 80.5364Z" fill="#0F253D"/>
<path d="M158.554 87.3379H162.133V150.825H158.554V87.3379Z" fill="#272443"/>
<path d="M17.9961 87.3379H21.5752V150.825H17.9961V87.3379Z" fill="#272443"/>
<path d="M158.554 145.627H162.133V150.826H158.554V145.627Z" fill="#446271"/>
<path d="M17.9961 145.627H21.5752V150.826H17.9961V145.627Z" fill="#446271"/>
<path d="M150.216 68.368C150.22 68.368 150.225 68.3662 150.235 68.368C150.23 68.3662 150.223 68.368 150.216 68.368Z" fill="#7F2F24"/>
<path d="M97.6623 75.0938C97.9565 73.0324 100.298 72.4924 102.029 72.3274C104.115 72.1282 106.204 72.453 108.29 72.2736C111.627 71.9865 114.775 70.7128 117.994 69.8768C121.067 69.0802 124.212 68.8075 127.373 69.134C130.916 69.4982 134.407 70.4777 137.497 72.2789C138.15 72.6593 138.028 73.4379 137.59 73.8218C137.402 74.1411 137.045 74.3421 136.58 74.195C133.6 73.2495 130.882 71.355 127.676 71.2617C126.015 71.2133 124.413 71.6044 122.818 72.0224C121.207 72.444 119.594 72.8459 117.963 73.1777C114.671 73.8487 111.351 74.2846 108.073 75.0399C104.962 75.7575 101.788 76.4913 98.5718 76.2868C97.9026 76.2473 97.5726 75.7235 97.6623 75.0938ZM100.687 74.4031C101.53 74.3564 102.366 74.2577 103.2 74.125C102.398 74.116 101.435 74.1537 100.687 74.4031Z" fill="#F78A74"/>
<path d="M78.7448 80.6287C79.475 79.4698 81.1523 78.4633 82.6988 78.3378C84.5107 78.1906 93.8109 75.1139 95.6211 74.4734C99.7079 73.0257 104.954 73.4616 109.214 72.8588C114.523 72.1071 113.068 71.734 118.389 71.0558C124.062 70.3329 129.63 70.5912 135.285 71.2891C138.265 71.6568 141.392 74.5362 141.257 78.6714C141.155 81.8056 136.32 81.9401 134.09 81.9437C130.063 81.9527 126.037 81.8774 122.013 81.7231C118.791 81.5993 114.611 82.0639 111.525 81.0539C111.5 81.0467 111.478 81.036 111.455 81.027C110.956 81.0521 110.456 81.1005 109.952 81.1831C109.909 81.1902 109.866 81.1992 109.823 81.2064C109.805 81.2082 109.788 81.2082 109.77 81.21C106.954 81.4988 104.159 82.0388 101.348 82.3869C97.6089 82.8497 93.8486 82.4102 90.0991 82.4766C88.9635 82.4963 87.566 82.3205 86.4609 82.5411C85.0059 82.8318 83.7931 83.7252 82.2593 83.8562C80.3576 84.0176 77.2737 82.9663 78.7448 80.6287Z" fill="#F7967C"/>
<path d="M72.9323 82.9597C72.9018 81.625 72.8624 79.5134 74.1882 78.7241C74.2474 78.672 74.3102 78.62 74.3819 78.5716C74.3891 78.5662 74.3981 78.5608 74.4053 78.5554C75.035 77.8271 75.8387 77.3929 76.7464 77.2099C77.6506 76.8332 78.6086 76.6322 79.7137 76.7363C81.4593 76.8977 83.5135 77.2565 84.8913 78.3132C85.8619 79.0595 85.5048 80.1898 84.7083 80.7567C84.728 80.8984 84.7011 81.0563 84.606 81.2213C84.3369 81.6896 84.4015 82.2152 84.0176 82.6637C83.7054 83.0297 83.291 83.2701 82.8371 83.4441C81.6674 83.8926 80.4582 83.8783 79.2509 83.6809C79.0751 83.6522 78.9423 83.584 78.84 83.4926C77.6542 83.7258 76.6191 83.3131 75.6665 82.6799C75.3884 82.9256 74.9399 83.01 74.6152 82.8306C74.6223 83.8442 72.9557 83.9823 72.9323 82.9597ZM76.3948 81.1693C76.7374 81.1603 77.0819 81.1514 77.4228 81.1173C77.7027 81.0886 77.9502 81.033 78.2211 80.9684C78.3144 80.9468 78.3557 80.954 78.3718 80.9594C78.3611 80.9504 78.3449 80.9271 78.3342 80.8661C78.3019 80.6724 78.3377 80.5109 78.4167 80.3835C78.3951 80.3799 78.3736 80.3745 78.3521 80.371C78.1906 80.3423 77.5627 80.2831 77.7026 80.2813C77.6793 80.2813 77.656 80.2831 77.6327 80.2848C77.3402 80.4391 77.0604 80.6275 76.7787 80.8231C76.6639 80.963 76.5347 81.0778 76.3948 81.1693Z" fill="#F7967C"/>
<path d="M135.861 78.9928C136.012 78.352 136.294 77.7247 136.607 77.1213C137.179 76.0251 137.878 74.9555 138.707 73.9779C139.116 73.4959 139.559 72.8717 140.038 72.4544C140.499 72.0538 141.103 72.2808 141.614 72.3826C142.309 72.519 143.007 72.6438 143.706 72.7684C144.684 72.9432 145.657 73.1354 146.624 73.3456C146.808 73.3855 146.998 73.4299 147.138 73.5359C147.397 73.7344 147.408 74.085 147.403 74.3973C147.393 74.8872 147.377 75.3967 147.125 75.852C146.865 76.32 146.38 76.6548 146.076 77.0959C145.746 77.5754 145.703 78.2256 145.434 78.7481C145.387 78.8403 145.335 78.9316 145.283 79.0195C144.76 79.8922 144.174 81.3557 142.916 81.4801C141.31 81.6384 139.56 81.4095 138.018 81.1645C137.671 81.109 137.316 81.0443 137.029 80.8755C136.961 80.8356 136.897 80.7913 136.841 80.7418C136.587 80.5293 136.415 80.2446 136.251 79.9655C136.089 79.693 135.927 79.4117 135.792 79.1243C135.825 79.088 135.848 79.043 135.861 78.9928Z" fill="#F7967C"/>
<path d="M144.179 74.817L144.102 74.8704C144.593 74.8369 145.093 74.9311 145.547 75.1786C145.555 75.1844 145.565 75.1875 145.575 75.1927C146.43 75.649 146.463 76.9211 146.511 77.7046C146.547 78.2922 146.54 78.9026 146.496 79.5106C146.462 79.6184 146.424 79.7256 146.385 79.8289C146.064 80.6721 145.772 82.0089 145.026 82.6129C144.639 82.9256 143.977 82.9578 143.343 82.8842C142.865 82.8275 142.403 82.7098 142.089 82.6052C140.657 82.1276 139.572 80.963 139.605 79.4241C139.633 78.05 140.248 76.7355 141.298 75.8119C142.059 75.1384 143.138 74.7597 144.179 74.817Z" fill="#DB6357"/>
<path d="M151.565 70.6008C152.49 70.4206 153.407 70.4058 154.335 70.2739C155.921 70.0502 157.803 70.6299 159.184 71.3538C159.313 71.4205 159.436 71.493 159.554 71.5674C160.485 72.1536 161.357 73.0529 161.809 74.0593C162.345 75.2559 162.22 76.8257 162.079 78.1034C161.966 79.1276 161.784 80.1533 161.386 81.1115C160.891 82.3028 160.124 83.1714 158.968 83.7728C157.765 84.3982 156.42 84.6811 155.097 84.8928C154.7 84.9558 154.299 85.0137 153.896 85.0186C153.604 85.0211 153.314 84.9951 153.023 84.9802C151.313 84.8961 149.612 85.2329 147.904 85.2529C146.207 85.2755 144.596 84.9209 143.151 84.0661C141.983 83.3742 141.101 81.9366 140.753 80.6519C140.341 79.1296 141.16 77.3683 142.081 76.1533C143.597 74.157 145.795 72.386 148.126 71.4553C148.601 71.2659 149.023 71.248 149.504 71.1381C150.141 70.9913 150.763 70.7723 151.405 70.6345C151.458 70.6233 151.512 70.612 151.565 70.6008Z" fill="#F7967C"/>
<path d="M158.451 80.3676C158.536 80.5847 158.655 80.788 158.804 80.9666C159.045 81.2545 159.381 81.5304 159.372 81.9077C159.365 82.1895 159.164 82.4281 159.031 82.6786C158.899 82.9311 158.86 83.2923 159.097 83.4419C159.182 83.4974 159.29 83.5112 159.393 83.5179C160.322 83.5906 161.557 83.2652 162.195 82.5223C162.807 81.8099 163.078 80.6705 163.352 79.8032C163.664 78.8181 163.98 77.8123 163.976 76.7857C163.972 76.0235 163.792 75.2788 163.615 74.5419C163.449 73.855 163.281 73.1623 162.987 72.5201C162.467 71.3847 161.576 70.4522 160.558 69.7228C160.046 69.3549 159.498 69.0312 158.907 68.8012C156.954 68.0421 154.742 68.3496 152.643 68.6689C152.187 68.7384 151.727 68.8092 151.292 68.9643C150.285 69.3218 149.161 70.305 149.087 71.452C149.056 71.9333 149.249 72.5683 149.796 72.6517C150.326 72.7338 150.857 72.8159 151.385 72.8967C151.824 72.9643 152.266 73.0326 152.711 72.9885C153.213 72.9402 153.695 72.7525 154.195 72.6815C155.589 72.484 156.986 73.2637 157.734 74.4202C158.482 75.5767 158.645 77.0409 158.438 78.4151C158.374 78.8361 158.276 79.258 158.301 79.6799C158.316 79.9201 158.367 80.1504 158.451 80.3676Z" fill="#272443"/>
<path d="M151.414 72.0114C151.668 71.5895 151.678 71.1008 151.17 70.5483C150.827 70.1764 150.293 69.9919 149.78 70.059C149.286 70.1242 148.842 70.4015 148.436 70.6962C147.698 71.2335 145.908 72.3389 146.583 73.3944C146.766 73.6823 147.085 73.7604 147.378 73.7942C148.208 73.8891 149.078 73.6742 149.814 73.2744C150.382 72.9669 151.093 72.5432 151.414 72.0114Z" fill="#F7967C"/>
<path d="M151.256 82.0581C151.558 82.0758 151.926 82.16 152.018 82.4833C152.064 82.6417 152.028 82.8082 151.908 82.9271C151.877 82.9589 151.839 82.9842 151.798 83.0063C151.772 83.0278 151.744 83.048 151.717 83.0655C151.534 83.184 151.304 83.2256 151.092 83.1888C150.916 83.1933 150.748 83.1524 150.618 83.0176C150.495 82.8931 150.435 82.6921 150.509 82.5261C150.527 82.4859 150.553 82.4496 150.583 82.4159C150.625 82.3076 150.704 82.2109 150.802 82.1503C150.939 82.0664 151.1 82.0496 151.256 82.0581Z" fill="#272443"/>
<path d="M150.586 76.5779C150.889 76.5613 151.265 76.6021 151.396 76.9122C151.46 77.0628 151.444 77.2331 151.34 77.3642C151.311 77.3993 151.277 77.4278 151.24 77.4551C151.215 77.4804 151.19 77.5039 151.165 77.5227C150.997 77.6599 150.774 77.7272 150.556 77.7157C150.382 77.739 150.21 77.7189 150.063 77.6003C149.927 77.4907 149.842 77.3001 149.898 77.1252C149.911 77.0824 149.934 77.0449 149.959 77.0066C149.989 76.8958 150.053 76.7545 150.146 76.683C150.27 76.5861 150.43 76.5868 150.586 76.5779Z" fill="#272443"/>
<path d="M147.453 79.993C147.52 79.9968 147.565 80.106 147.571 80.1577C147.598 80.4189 147.659 80.6728 147.766 80.9118C147.851 81.1024 147.975 81.3808 148.185 81.4657C148.29 81.5082 148.405 81.4853 148.513 81.4605C148.655 81.4266 148.794 81.3849 148.933 81.3432C149.191 81.2625 149.443 81.1727 149.695 81.0809C150.574 80.7673 151.498 80.46 152.431 80.6578C152.866 80.7499 153.272 80.9546 153.567 81.2857C153.615 81.3405 153.654 81.422 153.635 81.499C153.621 81.5572 153.562 81.5916 153.517 81.5381C152.929 80.8791 151.938 80.8056 151.106 80.9795C150.546 81.0958 150.011 81.3066 149.472 81.4953C149.202 81.5909 148.93 81.6807 148.653 81.7505C148.437 81.8047 148.24 81.8206 148.059 81.6788C147.85 81.5143 147.713 81.2425 147.61 81.0041C147.491 80.7263 147.413 80.4348 147.382 80.1341C147.379 80.0818 147.38 79.9893 147.453 79.993Z" fill="#DB6357"/>
<path d="M154.148 76.577C154.046 76.0594 153.824 75.5642 153.462 75.1497C153.305 74.9701 153.114 74.7606 152.934 74.6059C152.889 74.5668 152.845 74.5336 152.785 74.5233C152.724 74.7465 152.946 75.1921 153.009 75.4222C153.092 75.7383 153.17 76.0563 153.231 76.3796C153.354 77.0158 153.413 77.6705 153.346 78.3216C153.317 78.5949 153.658 78.731 153.875 78.5602C153.988 78.4712 154.046 78.3309 154.081 78.1919C154.19 77.754 154.241 77.2185 154.18 76.7738C154.17 76.708 154.16 76.6421 154.148 76.577Z" fill="#272443"/>
<path d="M154.679 82.5923C154.706 83.1037 154.611 83.6252 154.363 84.1107C154.256 84.3208 154.122 84.5681 153.987 84.7613C153.787 85.0499 153.768 84.7646 153.8 84.5964C153.992 83.5788 153.716 82.3683 153.486 81.3734C153.469 81.3012 153.452 81.227 153.468 81.1527C153.567 80.6859 154.242 81.2814 154.344 81.4485C154.521 81.7399 154.622 82.0647 154.661 82.3975C154.671 82.4633 154.676 82.5284 154.679 82.5923Z" fill="#272443"/>
<path d="M147.329 79.8156C147.248 79.3239 147.115 78.8454 146.892 78.4028C146.684 77.9877 145.732 76.8724 145.56 77.9352C145.529 78.1268 145.564 78.3202 145.605 78.5097C145.704 78.9629 145.834 79.4102 145.997 79.8443C146.225 80.4536 146.529 80.8803 146.16 81.4791C146.018 81.7093 145.895 81.9487 145.79 82.1991C145.71 82.394 145.639 82.5987 145.645 82.8085C145.65 83.0183 145.745 83.233 145.929 83.3343C146.116 83.4368 146.358 83.4024 146.544 83.2913C146.731 83.1802 146.865 83.004 146.979 82.822C147.55 81.8886 147.495 80.838 147.329 79.8156Z" fill="#272443"/>
<path d="M144.893 79.3093C144.697 79.6658 144.555 80.0607 144.569 80.4689C144.583 80.9267 144.843 81.3729 145.079 81.7514C145.115 81.8068 145.157 81.9052 145.116 81.9686C145.077 82.0267 145.015 82.0039 144.983 81.9518C144.699 81.5004 144.416 80.9882 144.378 80.445C144.345 79.9697 144.492 79.4953 144.726 79.0768C144.799 78.9404 144.948 79.2114 144.893 79.3093Z" fill="#DB6357"/>
<path d="M160.68 73.5327C160.752 73.537 160.789 73.6455 160.799 73.6982C160.989 74.6375 161.163 75.6119 160.866 76.5593C160.574 77.4943 160.051 78.3826 159.466 79.1709C159.394 79.2681 159.257 78.9902 159.327 78.8937C159.888 78.1393 160.397 77.2789 160.679 76.3843C160.962 75.4825 160.79 74.5653 160.61 73.6702C160.602 73.6234 160.611 73.5296 160.68 73.5327Z" fill="#404082"/>
<path d="M158.26 70.716C159.292 71.9736 159.58 73.6609 159.502 75.2541C159.499 75.3135 159.472 75.3724 159.404 75.347C159.338 75.3229 159.302 75.2113 159.307 75.1492C159.381 73.6593 159.131 72.0954 158.163 70.9167C158.08 70.8182 158.126 70.5562 158.26 70.716Z" fill="#404082"/>
<path d="M153.896 70.7124C154.982 70.7566 156.023 71.2087 156.784 71.9592C156.836 72.0109 156.87 72.0982 156.853 72.1728C156.837 72.2338 156.782 72.2606 156.734 72.2122C155.997 71.4855 154.995 71.0592 153.945 71.0162C153.83 71.0134 153.76 70.7058 153.896 70.7124Z" fill="#404082"/>
<path d="M163.006 77.2961C162.923 78.202 162.841 79.1397 162.44 79.9793C162.077 80.7371 161.422 81.4136 160.574 81.5936C160.451 81.6193 160.364 81.3174 160.478 81.2924C161.295 81.1184 161.922 80.4771 162.272 79.7472C162.654 78.9485 162.734 78.0542 162.812 77.1931C162.831 76.9868 163.018 77.1677 163.006 77.2961Z" fill="#404082"/>
</svg>
