<svg width="101" height="190" viewBox="0 0 101 190" fill="none" xmlns="http://www.w3.org/2000/svg">
<path d="M60.9495 36.716C60.2506 38.7495 59.5728 40.7872 58.9097 42.8312C58.3354 44.5986 57.7737 46.3745 57.2669 48.1567C57.0304 48.9866 56.682 49.7066 56.568 50.5787C56.4455 51.5311 56.4476 52.4939 56.323 53.4463C56.2744 53.82 56.2026 54.2001 56.0274 54.5338C55.7993 54.9645 55.415 55.2876 55.1025 55.6635C54.26 56.6728 53.9643 58.0158 53.7025 59.3039C53.5695 59.9522 53.4406 60.6173 53.5335 61.2719C53.6391 62.0152 54.0255 62.6846 54.4056 63.3307C54.6252 63.7066 54.8533 64.0888 55.1764 64.3823C55.8563 64.9989 56.8382 65.1214 57.7526 65.2059C58.8063 65.303 59.9275 65.379 60.8608 64.8807C61.7245 64.4203 62.2778 63.5482 62.7782 62.7057C63.6989 61.1558 64.4907 59.5826 65.2805 57.9736C68.1734 52.0695 68.866 45.3609 69.3496 38.8044C69.5143 36.5808 69.66 34.351 69.5586 32.1232C69.5058 30.983 69.3158 29.1522 68.1185 28.5947C67.1239 28.1323 65.8569 28.8355 65.0313 29.3655C62.8584 30.7591 62.3728 32.649 61.5535 34.9824C61.3486 35.563 61.148 36.1395 60.9495 36.716Z" fill="#E6EEFC"/>
<path d="M56.7365 57.3254C56.084 57.3085 55.4231 57.3613 54.7727 57.4352C53.4973 57.5788 52.2304 57.7963 50.9803 58.0814C49.8358 58.3432 48.7208 58.6853 47.57 58.9387C47.0675 59.0485 45.7371 58.9345 45.5323 59.5806C45.3824 60.0557 45.8469 60.8096 46.0053 61.2404C46.246 61.895 46.4889 62.5496 46.7296 63.2021C46.7676 63.3034 46.8056 63.4048 46.8732 63.4871C46.9978 63.637 47.1963 63.6941 47.3842 63.7426C49.3966 64.2705 51.4449 64.657 53.5121 64.8998C54.4687 65.0117 55.4273 65.0581 56.3628 65.2461C57.2877 65.4319 58.3076 65.2419 59.2262 65.1405C60.0518 65.0497 60.8352 64.3592 61.1772 63.6328C61.5024 62.9465 61.5257 62.1589 61.513 61.4008C61.4835 59.7538 60.1236 58.1067 58.5631 57.6084C57.9719 57.4226 57.3573 57.3402 56.7365 57.3254Z" fill="#F7967C"/>
<path d="M42.7264 59.4736C42.2787 60.0036 41.9704 60.6751 42.0127 61.3635C42.0549 62.0434 42.435 62.6706 42.9418 63.1288C43.7273 63.8404 44.7725 64.0516 45.5876 64.7104C46.3182 65.3017 47.089 65.7937 48.0202 66.0006C48.4847 66.1041 50.4084 66.3469 50.3261 65.4621C50.305 65.2299 50.1086 65.0377 49.8826 64.9786C49.6567 64.9195 49.4117 64.9786 49.2111 65.0968C49.3378 64.8582 49.5025 64.6112 49.6018 64.3641C49.6672 64.2015 49.6524 64.0094 49.5638 63.8573C49.4751 63.7053 49.3146 63.5976 49.1415 63.5744C48.981 63.5511 48.8205 63.5976 48.6621 63.6356C48.2904 63.7243 47.8977 63.7707 47.524 63.6884C47.1502 63.606 46.7934 63.3801 46.6286 63.0338C46.578 62.9303 46.5463 62.8142 46.5463 62.698C46.5463 62.5502 46.597 62.4088 46.6477 62.2715C46.8567 61.6993 47.0679 61.127 47.2769 60.5569C47.3741 60.2929 47.4479 60.067 47.488 59.784C47.5282 59.5053 47.5514 59.2244 47.5493 58.9415C47.5493 58.5783 47.5028 58.1982 47.2917 57.9026C47.0129 57.5119 46.4892 57.3536 46.0141 57.4063C45.5116 57.4612 44.9457 57.7273 44.5551 58.0419C43.987 58.5002 43.3409 58.8063 42.8362 59.3533C42.7982 59.3913 42.7623 59.4335 42.7264 59.4736Z" fill="#F7967C"/>
<path d="M44.7685 63.156C44.9923 63.8042 45.3576 64.423 45.9045 64.8368C46.084 64.972 46.2867 65.0881 46.4155 65.2718C46.5465 65.4555 46.5782 65.7364 46.4135 65.8905C46.3375 65.9623 46.2319 65.994 46.1284 66.0109C45.3408 66.1502 44.5827 65.6456 44.0252 65.0712C43.4086 64.4356 42.9145 63.6818 42.5809 62.8625C42.4394 62.5162 42.3254 62.1361 42.4141 61.7729C42.507 61.397 42.8195 61.0929 43.189 60.9789C43.6135 60.8459 44.2153 60.8923 44.3884 61.3252C44.608 61.8763 44.5679 62.5774 44.7685 63.156Z" fill="#F7967C"/>
<path d="M48.8831 65.1489C48.6192 65.2841 48.3362 65.4192 48.0427 65.4804C47.7344 65.5438 47.4198 65.491 47.1136 65.4403C47.0798 65.434 47.0038 65.4298 46.9869 65.472C46.97 65.5121 47.0186 65.5396 47.0545 65.5438C47.3902 65.5987 47.7344 65.6536 48.0744 65.5945C48.4059 65.5374 48.7248 65.3896 49.0225 65.2355C49.126 65.1806 48.9465 65.1151 48.8831 65.1489Z" fill="#DB6357"/>
<path d="M49.5803 63.6975C49.4199 63.5391 49.1834 63.5201 48.9701 63.5349C48.4147 63.575 47.8699 63.6869 47.3272 63.4948C47.059 63.3997 46.7719 63.2308 46.6663 62.9521C46.5713 62.7008 46.622 62.4221 46.7106 62.1771C46.9134 61.6091 47.2195 61.0812 47.4243 60.5132C47.6334 59.9282 47.7918 59.2525 47.6376 58.6359C47.6186 58.5599 47.4054 58.5409 47.4286 58.6275C47.568 59.1913 47.437 59.81 47.2554 60.3506C47.0654 60.9165 46.7846 61.4423 46.5565 61.9934C46.3643 62.4559 46.3115 62.9837 46.7423 63.3258C47.135 63.6383 47.6609 63.7376 48.1508 63.7376C48.4422 63.7355 48.7251 63.6911 49.0123 63.6637C49.1791 63.6489 49.367 63.6489 49.4578 63.8157C49.5233 63.9361 49.517 64.0818 49.4896 64.2106C49.4727 64.2908 49.6838 64.3331 49.7007 64.2528C49.7429 64.0586 49.7282 63.8432 49.5803 63.6975Z" fill="#DB6357"/>
<path d="M46.5625 65.3404C46.3787 64.6901 45.7939 64.3036 45.2913 63.9088C44.7423 63.4801 44.2608 62.9691 43.8554 62.4032C43.8153 62.3462 43.6189 62.3673 43.678 62.4496C44.0665 62.9944 44.5268 63.4843 45.0484 63.9045C45.5594 64.3163 46.1761 64.69 46.3661 65.3594C46.3851 65.427 46.5878 65.4228 46.5625 65.3404Z" fill="#DB6357"/>
<path d="M46.2403 57.0182C46.1558 57.0034 46.0692 56.9971 45.9827 56.9971C45.3999 56.9971 44.8424 57.2864 44.5447 57.7974C44.1983 58.3928 44.2765 59.1108 44.4644 59.7633C44.4834 59.8287 44.3187 60.1814 44.2786 60.2616C44.1688 60.4749 43.9576 60.6586 43.8035 60.8381C43.7169 60.9394 43.6282 61.0408 43.567 61.1612C43.5078 61.2815 43.4762 61.4209 43.5079 61.5539C43.5142 61.5793 43.5184 61.6046 43.5226 61.6299C43.6029 62.1156 43.3178 62.6097 42.999 63.0363C42.8427 63.2411 42.6801 63.4333 42.545 63.6001C42.5006 63.655 42.4562 63.7099 42.4119 63.7669C42.0867 64.166 41.7594 64.5672 41.4279 64.9621C40.6825 65.8511 39.9476 66.74 39.2529 67.6692C39.5507 67.6058 39.8294 67.4833 40.0934 67.3271C40.446 67.118 40.7691 66.8477 41.0753 66.5753C42.017 65.737 42.9292 64.8649 43.6303 63.8091C43.776 63.5895 43.9112 63.3615 44.0273 63.1229C44.0886 62.994 44.1477 62.861 44.173 62.7216C44.1751 62.7132 44.1772 62.7026 44.1772 62.6942C44.2047 62.5105 44.1751 62.3225 44.173 62.1388C44.1709 62.0375 44.1772 61.9382 44.1899 61.8411C44.2955 61.064 44.8656 60.458 45.5941 60.2215C45.9531 60.1054 46.2888 59.9512 46.5718 59.6978C47.3087 59.039 47.5622 57.2505 46.2403 57.0182ZM46.7027 58.5744C46.5845 59.0221 46.3036 59.436 45.8623 59.6049C45.4843 59.7485 44.9374 59.6514 44.7516 59.2438C44.7495 59.2248 44.741 59.2037 44.7284 59.1826C44.7263 59.1741 44.722 59.1657 44.7199 59.1551C44.5911 58.718 44.8741 58.188 45.1253 57.8607C45.3407 57.5799 45.6005 57.4152 45.9552 57.3814C46.1262 57.3645 46.3078 57.3898 46.4598 57.4764C46.8716 57.715 46.8041 58.188 46.7027 58.5744Z" fill="#A9CCFF"/>
<path d="M50.273 64.5842C50.3195 64.5124 50.3617 64.4364 50.3955 64.3583C50.9192 63.123 49.2848 62.3607 48.3261 62.6183C47.9587 62.7176 47.6462 62.9139 47.3548 63.1526C46.7931 63.6066 46.0351 63.7649 45.3572 63.501C45.2263 63.4503 45.0975 63.3848 44.975 63.3004C44.8209 63.1969 44.6794 63.0702 44.5125 62.9942C44.5041 62.99 44.4957 62.9857 44.4872 62.9836C44.3542 62.9287 44.2127 62.9055 44.0712 62.8865C43.8073 62.8548 43.5433 62.8422 43.2794 62.8464C42.5572 62.8548 41.816 62.9329 41.1023 63.0406C40.4055 63.1462 39.7276 63.3574 39.0709 63.6087C38.7415 63.7354 38.4142 63.8726 38.089 64.012C37.8293 64.1239 37.5506 64.1894 37.3584 64.409C37.3795 64.3857 37.7026 64.4512 37.766 64.4533C37.9497 64.4596 38.1334 64.4322 38.3171 64.4132C38.7394 64.3688 39.1596 64.3161 39.5798 64.2612C40.0908 64.1936 40.6039 64.1281 41.1171 64.0648C41.6999 63.9951 42.2827 63.9296 42.8676 63.8705C43.0809 63.8494 43.3301 63.8156 43.5877 63.7987C44.1473 63.7607 44.7448 63.7945 45.1059 64.1788C45.1207 64.1936 45.1355 64.2084 45.1524 64.221C45.2411 64.2928 45.3551 64.3308 45.4691 64.3414C45.6021 64.3562 45.7352 64.3372 45.8682 64.3203C46.1026 64.2886 46.3729 64.2105 46.6115 64.2358C46.7023 64.2464 47.0866 64.2992 47.133 64.3498C47.5765 64.863 48.1382 65.3191 48.8245 65.3529C49.4094 65.3824 49.9563 65.0741 50.273 64.5842ZM49.0821 64.8376C48.6703 64.8693 48.0727 64.8186 47.775 64.4723C47.7687 64.466 47.7623 64.4575 47.756 64.4512C47.7454 64.428 47.7328 64.409 47.718 64.3984C47.4751 64.0204 47.6926 63.5094 48.0199 63.2708C48.4 62.9921 48.9005 62.9815 49.3418 63.1251C49.7198 63.2497 50.1527 63.4545 50.1294 63.9296C50.121 64.1049 50.0429 64.2696 49.9352 64.4047C49.7135 64.6814 49.4368 64.8102 49.0821 64.8376Z" fill="#A9CCFF"/>
<path d="M45.5953 60.2256C45.9543 60.1094 46.29 59.9553 46.573 59.7019C47.3099 59.0388 47.5612 57.2524 46.2394 57.018C46.1549 57.0033 46.0683 56.999 45.9817 56.999C45.3989 56.999 44.8436 57.2883 44.5459 57.7993C44.1996 58.3948 44.2776 59.1128 44.4656 59.7652C44.4846 59.8307 44.3199 60.1833 44.2777 60.2657C44.17 60.479 43.9588 60.6627 43.8025 60.8422C43.716 60.9435 43.6273 61.0449 43.566 61.1652C43.5048 61.2856 43.4732 61.425 43.5069 61.558C43.5133 61.5833 43.5175 61.6087 43.5217 61.6319C43.5745 61.6699 43.6294 61.7016 43.6907 61.7269C43.849 61.7924 44.0222 61.8114 44.189 61.8452C44.2967 61.0681 44.8668 60.4621 45.5953 60.2256ZM45.8614 59.6026C45.4834 59.7462 44.9344 59.6491 44.7507 59.2416C44.7485 59.2226 44.7401 59.2014 44.7275 59.1803C44.7253 59.1719 44.7211 59.1634 44.719 59.1529C44.5902 58.7158 44.871 58.1858 45.1244 57.8585C45.3398 57.5776 45.5996 57.4129 45.9564 57.3791C46.1275 57.3622 46.309 57.3876 46.4611 57.4763C46.8728 57.7149 46.8074 58.1879 46.706 58.5743C46.5856 59.022 46.3027 59.4358 45.8614 59.6026Z" fill="#404082"/>
<path d="M50.2731 64.5842C50.3196 64.5124 50.3619 64.4364 50.3957 64.3583C50.9193 63.123 49.2849 62.3607 48.3262 62.6183C47.9588 62.7176 47.6463 62.9139 47.3549 63.1526C46.7932 63.6066 46.0352 63.7649 45.3574 63.501C45.3025 63.6741 45.2285 63.8452 45.1863 64.0204C45.1694 64.088 45.1588 64.1535 45.1504 64.221C45.2391 64.2928 45.3532 64.3308 45.4672 64.3414C45.6002 64.3562 45.7332 64.3372 45.8663 64.3203C46.1007 64.2886 46.3709 64.2105 46.6095 64.2358C46.7003 64.2464 47.0847 64.2992 47.1311 64.3498C47.5746 64.863 48.1362 65.3191 48.8225 65.3529C49.4095 65.3824 49.9564 65.0741 50.2731 64.5842ZM49.0822 64.8376C48.6704 64.8693 48.0729 64.8186 47.7751 64.4723C47.7688 64.466 47.7625 64.4575 47.7561 64.4512C47.7456 64.428 47.7329 64.409 47.7181 64.3984C47.4753 64.0204 47.6928 63.5094 48.0201 63.2708C48.4002 62.9921 48.9006 62.9815 49.342 63.1251C49.72 63.2497 50.1528 63.4545 50.1296 63.9296C50.1211 64.1049 50.043 64.2696 49.9353 64.4047C49.7136 64.6814 49.437 64.8102 49.0822 64.8376Z" fill="#404082"/>
<path d="M43.8965 63.2836C43.8796 63.2203 43.8395 63.1569 43.7867 63.1126C43.7402 63.045 43.6684 62.9964 43.5861 63.0049C43.4805 63.0154 43.3622 63.0893 43.3306 63.1928C43.2609 63.4314 43.6009 63.6806 43.7677 63.518C43.869 63.4948 43.9218 63.3828 43.8965 63.2836Z" fill="#404082"/>
<path d="M42.4753 64.3354C42.4035 64.5867 42.2282 64.7937 42.0572 64.9943C41.3962 65.7671 40.7416 66.5442 40.0934 67.3297C39.8294 67.486 39.5528 67.6063 39.2529 67.6718C39.9476 66.7427 40.6846 65.8537 41.4279 64.9647C41.7594 64.5698 42.0867 64.1707 42.4119 63.7695C42.5238 63.9131 42.5175 64.194 42.4753 64.3354Z" fill="#6981B7"/>
<path d="M45.8742 60.8395C46.2015 60.9198 46.5858 60.7889 46.6977 60.4447C46.7589 60.2567 46.7526 60.054 46.7653 59.8555C46.7864 59.4691 46.8772 59.0869 46.9047 58.7005C46.9279 58.3858 46.9258 57.9825 46.7547 57.7038C46.6006 57.4483 46.2332 57.3195 45.9439 57.3005C45.8066 57.292 45.6652 57.3026 45.5363 57.3532C44.6875 57.6911 44.8184 58.8356 44.9767 59.5451C45.076 59.9907 45.2555 60.4911 45.6609 60.7466C45.7243 60.7888 45.7982 60.8205 45.8742 60.8395Z" fill="#F7967C"/>
<path d="M46.9009 58.1271C46.8861 58.0912 46.865 58.0595 46.8354 58.0553C46.753 58.0447 46.7699 58.1778 46.7699 58.2284C46.7699 58.3636 46.7657 58.4987 46.7573 58.6339C46.7446 58.9042 46.7192 59.1744 46.696 59.4447C46.6559 59.8692 46.5904 60.2661 46.4067 60.6526C46.1935 60.8363 45.9147 60.8595 45.6825 60.699C45.4608 60.547 45.2834 60.3168 45.1715 60.074C45.0532 59.8185 45.011 59.5355 44.973 59.261C44.9329 58.9612 44.916 58.6571 44.9392 58.3551C44.9455 58.2791 44.7428 58.2601 44.7365 58.3361C44.7111 58.6951 44.7407 59.0541 44.7956 59.4109C44.8462 59.7403 44.9244 60.0529 45.1123 60.3337C45.277 60.5787 45.5241 60.8257 45.8176 60.8996C46.0499 60.9566 46.3012 60.9165 46.4997 60.7835C46.5334 60.7835 46.563 60.7729 46.5757 60.7518C46.7721 60.3591 46.8523 59.9494 46.8924 59.5144C46.9325 59.0921 47.0276 58.6486 46.9304 58.2284C46.9262 58.2052 46.9156 58.163 46.9009 58.1271Z" fill="#DB6357"/>
<path d="M82.2049 185.526C82.2154 185.5 82.2513 185.481 82.2766 185.475C82.3463 185.454 82.4308 185.458 82.4878 185.505C82.6589 185.646 82.8215 185.796 82.9735 185.957C82.9904 185.976 83.0009 185.999 82.9883 186.022C82.9756 186.047 82.9418 186.066 82.9165 186.073C82.8785 186.083 82.8362 186.087 82.7961 186.081C82.7644 186.075 82.7264 186.066 82.7032 186.041C82.5512 185.881 82.3886 185.731 82.2176 185.589C82.2007 185.576 82.1943 185.549 82.2049 185.526Z" fill="#414184"/>
<path d="M81.5953 185.965C81.608 185.939 81.6418 185.92 81.6671 185.914C81.7326 185.895 81.8276 185.895 81.8783 185.944C82.0282 186.087 82.1633 186.246 82.2879 186.415C82.3027 186.436 82.2858 186.465 82.2732 186.48C82.2499 186.501 82.2098 186.516 82.1802 186.518C82.1127 186.527 82.0324 186.518 81.9902 186.459C81.9775 186.442 81.9649 186.425 81.9522 186.408C81.8487 186.273 81.7347 186.146 81.6122 186.03C81.5911 186.013 81.5826 185.99 81.5953 185.965Z" fill="#414184"/>
<path d="M73.4579 184.781C73.46 184.79 73.46 184.798 73.4621 184.807C73.5149 185.111 74.2329 186.678 73.8908 186.874C73.8401 186.904 73.781 186.906 73.724 186.908C72.6428 186.944 71.6947 187.189 70.6262 187.32C69.4923 187.457 68.3752 187.44 67.235 187.44C66.9351 187.425 66.591 187.377 66.4368 187.121C66.1433 186.631 66.6859 186.365 67.0027 186.162C67.9888 185.533 68.0901 184.26 68.1577 183.198C68.2042 182.452 67.8516 178.994 68.73 178.822C69.5451 178.662 70.3728 178.565 71.2027 178.529C71.8763 178.499 72.8793 178.601 73.3249 179.207C73.8169 179.878 73.4452 181.173 73.365 181.92C73.2615 182.868 73.2932 183.838 73.4579 184.781Z" fill="#F7967C"/>
<path d="M59.5707 189.988L68.5978 189.992C69.3348 189.901 70.0717 189.794 70.8129 189.694C71.1254 189.654 71.4759 189.625 71.7188 189.83C71.7842 189.887 71.837 189.942 71.8856 189.994L74.5906 189.996C74.6687 189.813 74.6539 189.542 74.6603 189.291C74.6645 189.154 74.6751 189.021 74.711 188.911C74.7553 188.778 74.8186 188.649 74.8482 188.512C74.8777 188.373 74.8714 188.229 74.8587 188.088C74.8102 187.522 74.5547 186.217 73.936 185.885C73.7966 185.809 73.6361 185.784 73.4566 185.828C71.628 186.278 69.8015 186.728 67.9728 187.177C68.2895 186.772 68.5577 186.288 68.5514 185.769C68.545 185.357 68.393 185.07 68.1628 184.92C67.8799 184.732 67.4808 184.753 67.0923 185C66.1188 185.619 65.2636 186.426 64.2542 186.981C62.926 187.71 61.3867 187.971 60.0711 188.725C59.8389 188.858 59.6488 189.057 59.5538 189.287C59.463 189.5 59.4546 189.745 59.5707 189.988Z" fill="#C9644D"/>
<path d="M59.5707 189.987L68.5979 189.992C69.3348 189.901 70.0718 189.793 70.813 189.694C71.1255 189.654 71.476 189.624 71.7188 189.829C71.7843 189.886 71.8371 189.941 71.8857 189.994L74.5906 189.996C74.6688 189.812 74.654 189.542 74.6603 189.291L59.5517 189.284C59.463 189.5 59.4546 189.744 59.5707 189.987Z" fill="#EC8161"/>
<path d="M64.4689 186.343C64.7012 186.262 65.0052 186.294 65.1995 186.444C65.8308 186.934 66.3714 187.51 66.8233 188.161C66.9606 188.357 66.5805 188.49 66.4496 188.509C66.2257 188.545 65.9301 188.507 65.7928 188.311C65.3747 187.709 64.8638 187.183 64.2767 186.729C64.0803 186.579 64.3169 186.395 64.4689 186.343Z" fill="#EC8161"/>
<path d="M78.799 114.076C78.6659 119.701 78.44 125.322 78.1465 130.943C77.8572 136.484 77.4983 142.023 77.0928 147.564V147.572C76.5839 154.486 76.9914 161.538 76.8964 168.481C76.8225 173.822 76.6916 179.162 76.5037 184.5L64.0684 184.496C64.0536 183.168 64.0325 181.839 64.0029 180.511C63.9333 177.34 63.8256 174.168 63.7031 170.998C63.456 164.657 63.1456 158.318 62.9429 151.977C62.9387 151.831 62.9345 151.683 62.9281 151.536C62.7951 147.661 62.6452 143.784 62.472 139.903C62.4699 139.848 62.4678 139.795 62.4636 139.74C62.4572 139.594 62.4509 139.449 62.4446 139.301C62.4023 138.399 62.3622 137.495 62.3179 136.594C62.2946 136.157 62.2756 135.715 62.2524 135.278C62.2165 134.493 62.1785 133.709 62.1384 132.926C61.7266 124.237 62.3221 115.433 62.3728 106.723C62.4256 97.3854 62.358 88.0479 62.17 78.7125C62.1447 77.4159 62.1236 76.0729 62.6388 74.882C63.4265 73.0555 65.3607 71.9321 67.3182 71.5837C69.2756 71.2353 71.2838 71.5372 73.2497 71.8413C75.3233 72.1601 77.6123 72.6036 78.8771 74.2781C79.8654 75.5852 79.9773 77.3357 80.0279 78.9743C80.3616 89.4838 79.0418 99.7357 78.8771 110.159C78.8581 111.464 78.8306 112.771 78.799 114.076Z" fill="#42264F"/>
<path d="M88.0247 184.768C88.0352 184.865 88.0458 184.962 88.0585 185.06C88.0965 185.355 88.5336 186.711 88.2295 186.882C88.1809 186.909 88.1197 186.912 88.0627 186.914C86.9816 186.95 86.0334 187.194 84.9671 187.323C83.831 187.461 82.7161 187.444 81.5758 187.444C81.2781 187.429 80.9318 187.38 80.7776 187.125C80.4841 186.635 81.0268 186.369 81.3435 186.166C82.3466 185.526 82.3022 183.915 82.4289 182.842C82.5915 181.474 82.6464 180.093 82.5957 178.714C82.5788 178.271 82.5683 177.777 82.8618 177.443C83.1131 177.158 83.5164 177.076 83.8901 177.01C84.3378 176.93 84.7834 176.852 85.231 176.772C85.8181 176.666 86.3417 176.645 86.9287 176.748C87.3299 176.82 87.784 176.772 87.9972 177.213C88.1282 177.487 88.1218 177.804 88.1092 178.106C88.0479 179.656 87.9191 181.202 87.9254 182.754C87.9276 183.429 87.955 184.101 88.0247 184.768Z" fill="#F7967C"/>
<path d="M73.9108 189.994L82.938 189.998C83.6749 189.907 84.4119 189.8 85.153 189.701C85.4655 189.66 85.8161 189.631 86.0589 189.836C86.1244 189.893 86.1772 189.948 86.2237 190H88.9286C89.0067 189.817 88.992 189.546 88.9983 189.295C89.0025 189.158 89.0131 189.025 89.049 188.915C89.0933 188.782 89.1567 188.653 89.1862 188.516C89.2158 188.377 89.2095 188.231 89.1968 188.091C89.1482 187.526 88.8927 186.221 88.274 185.889C88.1325 185.813 87.9742 185.788 87.7947 185.832C85.966 186.282 84.1395 186.729 82.3108 187.181C82.6276 186.776 82.8957 186.292 82.8894 185.771C82.8831 185.359 82.731 185.074 82.5009 184.924C82.2179 184.736 81.8188 184.757 81.4303 185.004C80.4568 185.623 79.6016 186.43 78.5923 186.985C77.2641 187.716 75.7247 187.975 74.4092 188.729C74.1769 188.862 73.9869 189.061 73.8918 189.291C73.8032 189.504 73.7947 189.749 73.9108 189.994Z" fill="#C9644D"/>
<path d="M73.9113 189.993L82.9385 189.998C83.6755 189.907 84.4124 189.799 85.1536 189.7C85.4661 189.66 85.8166 189.63 86.0595 189.835C86.1249 189.892 86.1777 189.947 86.2242 190H88.9291C89.0072 189.816 88.9925 189.546 88.9988 189.294L73.8903 189.288C73.8037 189.503 73.7952 189.748 73.9113 189.993Z" fill="#EC8161"/>
<path d="M78.8107 186.346C79.043 186.265 79.3471 186.297 79.5392 186.447C80.1727 186.937 80.7112 187.513 81.1631 188.164C81.3004 188.36 80.9203 188.493 80.7893 188.512C80.5655 188.548 80.2699 188.51 80.1326 188.314C79.7145 187.712 79.2035 187.186 78.6165 186.732C78.4222 186.582 78.6587 186.398 78.8107 186.346Z" fill="#EC8161"/>
<path d="M91.0577 184.504L78.7132 184.5C78.6414 182.756 78.5591 181.012 78.4683 179.267C78.2107 174.221 77.9129 169.098 77.8137 164.091C77.8116 163.946 77.8052 163.8 77.8031 163.654C77.7018 159.762 77.5877 155.873 77.4547 151.983C77.4505 151.838 77.4463 151.692 77.4399 151.544C77.3048 147.614 77.1528 143.685 76.9754 139.751C76.969 139.605 76.9627 139.459 76.9564 139.311C76.9141 138.41 76.874 137.506 76.8297 136.604C76.8064 136.167 76.7874 135.726 76.7642 135.289C76.703 134.011 76.6417 132.732 76.5784 131.454C76.5699 131.285 76.5615 131.116 76.553 130.947C76.515 130.183 76.477 129.423 76.439 128.66C76.4327 128.515 76.4242 128.369 76.4179 128.223C76.3102 126.048 76.2004 123.873 76.0949 121.699C76.0716 121.259 76.0484 120.82 76.0294 120.383C75.9808 119.399 75.9301 118.417 75.8815 117.435C75.8731 117.292 75.8689 117.15 75.8604 117.009C75.7401 114.58 75.6197 112.154 75.5015 109.724C75.4445 108.569 75.3874 107.413 75.3346 106.258C75.3262 106.113 75.3198 105.967 75.3135 105.821C75.3051 105.659 75.2987 105.496 75.2903 105.336C75.2671 104.899 75.2481 104.461 75.227 104.02C75.0432 100.154 74.8616 96.2832 74.6969 92.4126C74.6906 92.2669 74.6843 92.1212 74.6779 91.9755C74.6631 91.6186 74.6483 91.2596 74.6315 90.9028C74.4118 85.875 74.7349 80.9339 75.588 75.9293C75.8414 74.4428 76.1835 72.8654 77.2583 71.8032C77.9425 71.1275 78.8526 70.7369 79.7606 70.4201C82.1552 69.5839 84.6912 69.1532 87.2251 69.1553C87.979 69.1553 88.7772 69.2081 89.4001 69.6325C90.4517 70.3504 90.8381 72.1179 91.3259 73.2349C92.0734 74.9474 92.3395 76.9492 92.6478 78.7863C93.353 82.9863 93.4544 87.1293 93.3087 91.3547C93.1524 95.8988 93.4544 100.498 93.4269 105.048C93.372 114.175 93.0806 123.297 92.7322 132.417C92.3205 143.178 91.8264 153.936 91.5413 164.704C91.366 171.3 91.2077 177.901 91.0577 184.504Z" fill="#42264F"/>
<path d="M86.5191 145.795H62.0371V74.29C67.6371 74.29 73.2392 74.29 78.8413 74.29C80.6425 74.29 82.4458 74.29 84.2471 74.29C86.0124 74.29 87.7776 74.2055 89.5408 74.2393C90.3221 74.2541 91.4941 74.064 91.8256 74.7207C92.7061 76.4607 91.8805 78.0697 90.0117 77.9578C88.0374 77.8396 86.7789 77.9431 86.4241 80.0948C86.1792 81.5877 86.5191 83.1017 86.5191 84.5967C86.5191 87.9246 86.5191 91.2504 86.5191 94.5783C86.5191 102.438 86.5191 110.295 86.5191 118.154C86.5191 124.912 86.5191 131.671 86.5191 138.428C86.5191 140.882 86.5191 143.34 86.5191 145.795Z" fill="#281734"/>
<path d="M95.6863 50.7623C95.6271 51.1445 95.5765 51.5309 95.5258 51.9152C95.0254 55.6317 94.5545 59.3544 94.0413 63.0709C93.7457 65.2057 93.4438 67.3384 93.1122 69.4669C92.975 70.3412 92.7955 71.2154 92.6793 72.0917C92.5758 72.8751 93.0869 74.6784 92.3478 75.2274C92.238 75.3077 92.0945 75.3182 91.9593 75.3246C88.9144 75.4787 85.8694 75.616 82.8244 75.7511C76.2257 76.0467 69.5994 76.3403 63.0302 75.6624C62.534 75.6118 61.9491 75.4935 61.7506 75.0353C61.6661 74.8431 61.6725 74.6256 61.6767 74.4166C61.7231 72.797 61.9828 71.1436 61.9554 69.5493C61.9216 67.727 61.8266 65.9068 61.8055 64.0845C61.7633 60.3617 61.8266 56.6389 61.8752 52.9161C61.8963 51.2775 61.9131 49.6432 61.9152 48.013C61.9195 46.4018 61.928 44.778 61.9955 43.1584C62.099 40.7174 62.3418 38.2827 62.9225 35.9071C62.9943 35.6136 63.0704 35.3201 63.1527 35.0266C63.5919 33.464 64.1853 31.9352 65.0088 30.5373C65.7373 29.3041 66.6643 28.6432 67.7961 28.0709C68.2796 27.826 68.8013 27.5979 69.3587 27.3466C70.0809 27.0236 70.6996 26.7744 71.3584 26.3478C72.0383 25.9086 72.7964 25.6067 73.5461 25.3089C75.8942 24.3735 78.7533 23.1783 81.3379 23.702C81.8299 23.8012 82.2902 24.0166 82.7442 24.2341C83.3883 24.5424 83.8845 24.8803 84.3934 25.3744C84.9002 25.8685 85.6308 26.2212 86.2242 26.635C87.8142 27.7436 89.4105 28.8564 90.8422 30.1656C91.8938 31.1264 92.8482 32.1865 93.7985 33.2486C94.5206 34.0573 95.2492 34.8745 95.7623 35.8311C98.2266 40.4217 96.438 45.9521 95.6863 50.7623Z" fill="#E6EEFC"/>
<path d="M75.1475 30.4666C75.8465 30.1921 76.4947 29.7909 77.107 29.3623C78.222 28.5831 79.2736 27.6835 80.1879 26.6763C80.6398 26.178 81.2437 25.6205 81.6027 25.0673C81.9469 24.5351 81.5351 23.9861 81.2923 23.5047C80.9629 22.8501 80.644 22.187 80.3273 21.5261C79.8839 20.5991 79.4193 19.6805 78.9358 18.7725C78.845 18.5994 78.7457 18.422 78.5894 18.3059C78.2959 18.0905 77.8926 18.1475 77.5357 18.2172C76.9761 18.3249 76.3955 18.4389 75.9372 18.7789C75.4642 19.1273 75.2024 19.67 74.7716 20.0564C74.3028 20.4766 73.568 20.6476 73.038 21.0151C72.9451 21.0805 72.8522 21.1481 72.7635 21.2178C71.8914 21.9062 70.3605 22.7698 70.5315 24.0305C70.7511 25.6395 71.4501 27.314 72.1174 28.7816C72.2673 29.1131 72.4298 29.4467 72.6959 29.6959C72.7593 29.755 72.8247 29.8078 72.8965 29.8564C73.2027 30.0633 73.5743 30.1774 73.9333 30.2829C74.2859 30.3864 74.6492 30.492 75.0124 30.5659C75.0483 30.5215 75.0947 30.4878 75.1475 30.4666Z" fill="#F7967C"/>
<path d="M70.5804 25.1326C70.9098 25.8928 71.2561 26.6424 71.5961 27.3984C71.9445 27.5821 72.3182 27.7067 72.7068 27.7658C75.0697 28.1248 77.3396 27.0436 78.3025 24.8412C78.8938 23.4877 78.6679 21.6801 77.5508 20.599C77.5424 20.5926 77.536 20.5842 77.5276 20.5757C76.8096 19.9 75.5638 20.2548 74.7867 20.4469C74.2039 20.5905 73.6147 20.7827 73.0383 21.0107C72.9454 21.0762 72.8524 21.1438 72.7638 21.2134C71.9254 21.8702 71.0555 22.3917 70.5677 23.399C70.4136 23.7157 70.3101 24.0683 70.3502 24.4189C70.3798 24.668 70.4811 24.9024 70.5804 25.1326Z" fill="#DB6357"/>
<path d="M79.5086 13.3797C79.3861 12.44 79.1053 11.5595 78.9322 10.6325C78.6366 9.04878 77.4646 7.42706 76.3137 6.32691C76.2082 6.22555 76.0962 6.13052 75.9864 6.03973C75.1143 5.32811 73.9551 4.76854 72.8275 4.64395C71.4887 4.49614 69.9979 5.09373 68.7985 5.6153C67.8377 6.03551 66.8939 6.52118 66.0894 7.19267C65.2827 7.86416 64.6176 8.73415 64.3241 9.74139C64.153 10.3242 64.1129 10.9387 64.1298 11.5447C64.1509 12.2626 64.2544 12.9764 64.3599 13.6859C64.4423 14.2476 64.5268 14.8093 64.6176 15.3688C64.6999 15.8756 64.892 16.3655 65.0377 16.8617C65.6543 18.948 66.1485 21.1082 67.1262 23.0593C67.6435 24.075 68.2263 24.7697 69.0963 25.5193C70.1478 26.4252 71.835 26.8307 73.2012 26.7736C74.8187 26.7061 76.2715 25.3863 77.1605 24.1341C78.6175 22.0795 79.6332 19.4379 79.7874 16.9251C79.8191 16.4141 79.6987 16.0044 79.6522 15.5103C79.5889 14.8578 79.6015 14.1969 79.5297 13.5402C79.5234 13.4874 79.5171 13.4325 79.5086 13.3797Z" fill="#F7967C"/>
<path d="M67.7252 11.0071C66.8004 11.0071 65.715 10.0738 64.9189 10.8382C64.6803 11.0683 64.3783 11.3428 64.0658 11.2352C63.5801 11.0662 63.5696 10.0168 63.6076 9.59865C63.6815 8.81524 63.8969 8.03184 64.2833 7.34345C64.7732 6.47135 65.563 5.74708 66.5153 5.443C66.6715 5.39233 66.8321 5.35432 66.9735 5.26985C67.1784 5.14949 67.3177 4.94888 67.4655 4.76306C68.0526 4.03033 68.8824 3.45809 69.8031 3.24693C70.1768 3.16035 70.635 3.08222 70.9919 3.25326C71.3952 3.44541 71.5641 3.86774 72.0477 3.58056C72.47 3.32928 72.9599 3.19202 73.4498 3.17302C73.8764 3.15613 74.1593 3.33772 74.5626 3.40952C74.4444 2.87528 74.4719 2.37272 74.664 1.85326C75.0927 0.689765 76.3533 -0.71657 77.6054 0.419477C78.1397 0.905147 78.2854 1.75191 77.9792 2.4044C77.7765 2.8415 77.4091 3.17513 77.0501 3.49821C76.8875 3.64602 76.7228 3.79172 76.5602 3.93953C76.5095 3.98388 76.4567 4.0409 76.461 4.10636C76.4652 4.16126 76.5095 4.20348 76.5539 4.23727C76.8474 4.46532 77.1683 4.36608 77.4872 4.52867C78.0235 4.80107 78.4797 5.23395 78.7626 5.76608C78.9569 6.1335 79.0815 6.54948 79.3687 6.84722C79.6052 7.09217 79.9304 7.23576 80.1795 7.46593C80.6694 7.91993 80.7961 8.64209 80.8003 9.30936C80.8045 9.97663 80.718 10.6587 80.889 11.3027C81.0136 11.7715 81.2712 12.2044 81.3325 12.6858C81.4085 13.2834 81.1804 14.0394 80.8214 14.544C80.7982 14.5778 80.7729 14.6095 80.7475 14.6412C80.4118 15.0593 79.9747 15.7181 79.4595 15.9166C78.5283 16.2735 77.7174 15.6759 77.2254 14.9178C76.9783 14.5377 76.8052 14.1259 76.6975 13.6867C76.5454 13.0723 76.2583 12.4916 76.1189 11.8644C75.9711 11.1971 75.8824 10.4391 75.3503 10.0104C75.0842 9.79503 74.7421 9.70001 74.4106 9.61765C73.813 9.47406 73.2091 9.36426 72.6009 9.28825C71.9548 9.20801 71.2559 9.17844 70.7026 9.52052C70.4281 9.69157 70.2148 9.94073 69.972 10.154C69.3617 10.6988 68.5467 11.0071 67.7252 11.0071Z" fill="#C9644D"/>
<path d="M78.723 14.5617C79.0524 14.1901 79.5275 14.0317 80.2285 14.3484C80.7015 14.5617 81.0563 15.0199 81.1555 15.5288C81.2526 16.0229 81.126 16.5297 80.9676 17.0091C80.6825 17.879 80.1821 19.9294 78.932 19.6042C78.5921 19.5155 78.4126 19.2347 78.2859 18.9665C77.9248 18.2 77.8551 17.3026 78.005 16.4748C78.1233 15.8413 78.3091 15.0305 78.723 14.5617Z" fill="#F7967C"/>
<path d="M68.3754 17.6332C68.2593 17.3502 68.0607 17.0229 67.7144 17.0335C67.5455 17.0377 67.3956 17.1221 67.3175 17.2742C67.2964 17.3143 67.2837 17.3586 67.2752 17.403C67.2625 17.4347 67.252 17.4684 67.2436 17.498C67.1887 17.7092 67.2203 17.9414 67.3259 18.1336C67.3787 18.3025 67.4737 18.4503 67.6448 18.5348C67.8053 18.6129 68.0206 18.6108 68.1579 18.4884C68.1916 18.4588 68.2191 18.4229 68.2423 18.3849C68.3331 18.311 68.4029 18.2075 68.4303 18.0935C68.4704 17.9393 68.4345 17.781 68.3754 17.6332Z" fill="#272443"/>
<path d="M73.8615 16.5622C73.7792 16.2666 73.6186 15.9203 73.2744 15.8907C73.1055 15.8759 72.9472 15.9414 72.8522 16.0829C72.8268 16.1209 72.8099 16.1631 72.7951 16.2054C72.7782 16.237 72.7656 16.2666 72.7529 16.2983C72.6727 16.501 72.679 16.7354 72.7614 16.9381C72.7952 17.1112 72.8712 17.2696 73.0338 17.3731C73.1837 17.4702 73.3969 17.4913 73.549 17.3857C73.5849 17.3604 73.6166 17.3266 73.644 17.2928C73.7433 17.2295 73.8235 17.1345 73.8636 17.0247C73.9206 16.8747 73.9037 16.7142 73.8615 16.5622Z" fill="#272443"/>
<path d="M73.6023 27.1504C73.6107 27.1546 73.6192 27.1567 73.6276 27.161C73.6171 27.1631 73.6086 27.1567 73.6023 27.1504Z" fill="#EC8161"/>
<path d="M79.3188 21.2488C79.2998 21.8147 79.2534 22.3785 79.1752 22.9423C79.0591 23.7869 78.9641 24.7625 78.4995 25.4825C78.0349 26.2026 77.5999 26.8171 76.8588 27.2922C76.2358 27.6934 75.5285 27.9447 74.8169 28.1474C73.8476 28.4219 72.8383 28.6077 71.8332 28.5402C70.8281 28.4705 69.8187 28.1284 69.0712 27.4527C68.4989 26.9332 68.1061 26.247 67.7746 25.548C67.4895 24.9462 67.2404 24.3275 67.006 23.7046C66.8075 23.1767 66.5414 22.6445 66.5647 22.0702C66.5647 22.066 66.5647 22.0638 66.5647 22.0596C66.5921 21.481 67.1581 21.688 67.5635 21.7936C68.0302 21.9139 68.5306 21.9752 68.9909 21.8316C69.4111 21.6985 69.692 21.3818 70.0699 21.1854C70.4585 20.9827 70.9082 20.8391 71.3348 20.7462C72.2449 20.5456 73.1846 20.573 74.1074 20.6406C74.7197 20.685 75.3405 20.7504 75.9402 20.6216C76.5399 20.4949 77.1291 20.1338 77.355 19.5637C77.4247 19.3863 77.4585 19.1942 77.4817 19.0041C77.7034 17.2789 77.298 15.539 77.298 13.799C77.298 13.4062 77.5176 13.3028 77.8702 13.4464C78.1469 13.5583 78.263 13.8771 78.339 14.1432C78.9852 16.4448 79.399 18.8521 79.3188 21.2488Z" fill="#C9644D"/>
<path d="M70.8173 21.8941C70.8384 21.892 70.8616 21.8899 70.8827 21.8878C71.1784 21.8582 71.4761 21.8709 71.7696 21.8202C72.1476 21.7568 72.5003 21.5668 72.8698 21.4654C73.2034 21.3746 73.5476 21.2458 73.8538 21.4718C73.9995 21.5816 74.1072 21.7336 74.1917 21.8962C74.3416 22.1813 74.4282 22.5023 74.4429 22.8232C74.445 22.8908 74.445 22.9584 74.4239 23.0238C74.3965 23.0998 74.3416 23.1632 74.2867 23.2202C74.1346 23.3807 73.9805 23.4989 73.7989 23.6193C73.4188 23.8748 73.0176 23.7375 72.76 23.3786C72.6797 23.2667 72.6037 23.121 72.4665 23.1019C72.4221 23.0956 72.3757 23.1041 72.3313 23.1125C72.1708 23.1442 72.0125 23.1759 71.852 23.2075C71.7528 23.2265 71.6324 23.2645 71.6091 23.3638C71.6028 23.3955 71.607 23.4292 71.6113 23.4609C71.664 23.8537 71.7295 24.2443 71.191 24.2612C70.8637 24.2697 70.5048 24.1409 70.2999 23.8832C70.0254 23.5454 69.6876 22.9415 69.865 22.4938C70.017 22.1053 70.4351 21.9406 70.8173 21.8941Z" fill="#F7967C"/>
<path d="M70.5131 22.4543C70.5701 22.4226 70.6462 22.4036 70.7391 22.4036C71.267 22.4057 71.8139 22.4691 72.3122 22.2917C72.5529 22.2051 72.7705 22.0679 72.9985 21.956C73.0999 21.9074 73.2054 21.8609 73.3174 21.8567C73.4293 21.8525 73.5496 21.8989 73.6045 21.9961C73.9445 22.581 72.6923 23.2609 72.2784 23.3602C71.8223 23.47 71.3303 23.4172 70.9059 23.2187C70.6842 23.1152 70.0444 22.7161 70.5131 22.4543Z" fill="white"/>
<path d="M71.6907 20.2044C71.6653 20.141 71.545 20.1305 71.4922 20.1431C71.2283 20.198 70.9622 20.217 70.694 20.1875C70.4808 20.1642 70.1704 20.1305 70.0204 19.9573C69.9444 19.8707 69.9296 19.7525 69.9212 19.6427C69.9085 19.497 69.9043 19.3513 69.9001 19.2035C69.8958 18.9332 69.9022 18.6629 69.9085 18.3926C69.9317 17.455 69.9338 16.4753 69.4418 15.6433C69.2117 15.2547 68.8823 14.9296 68.4642 14.748C68.3945 14.7184 68.3037 14.7078 68.2361 14.748C68.1833 14.7796 68.1707 14.8451 68.2361 14.8747C69.066 15.2357 69.4566 16.1627 69.5559 17.0116C69.6213 17.5839 69.5896 18.1603 69.5791 18.7326C69.5749 19.0198 69.5728 19.3069 69.5939 19.5941C69.6087 19.8158 69.6593 20.0101 69.8557 20.141C70.0838 20.2909 70.3921 20.3395 70.6581 20.3648C70.9664 20.3944 71.2769 20.3796 71.5788 20.3163C71.6295 20.3036 71.7181 20.2719 71.6907 20.2044Z" fill="#DB6357"/>
<path d="M73.0655 13.2491C73.5977 13.1878 74.1467 13.2491 74.6619 13.4644C74.8858 13.5574 75.1476 13.6756 75.3545 13.7981C75.6628 13.9797 75.3651 14.0156 75.1877 13.9945C74.8942 13.9607 74.6155 13.8762 74.3177 13.8678C74.02 13.8593 73.7222 13.8741 73.4308 13.9163C72.8311 14.0008 72.2526 14.1887 71.712 14.4717C71.4185 14.6258 71.2918 14.2183 71.4122 14.0029C71.484 13.8741 71.6085 13.7875 71.7373 13.7178C72.0984 13.5193 72.4532 13.3483 72.8629 13.2765C72.9325 13.2659 73.0001 13.2554 73.0655 13.2491Z" fill="#C9644D"/>
<path d="M67.088 14.6132C66.5896 14.7589 66.1251 15.027 65.7492 15.4198C65.5845 15.5908 65.3966 15.7999 65.2593 15.992C65.0545 16.2771 65.3333 16.1969 65.4811 16.1103C65.7302 15.9667 65.9456 15.7851 66.2074 15.6626C66.4693 15.5423 66.7374 15.443 67.0141 15.3691C67.58 15.2192 68.167 15.1727 68.754 15.2276C68.8005 15.2319 69.0159 15.2086 68.9737 15.0946C68.828 14.6976 68.6485 14.6089 68.2937 14.5371C67.9538 14.4696 67.6053 14.4843 67.2759 14.5625C67.2125 14.5794 67.1492 14.5941 67.088 14.6132Z" fill="#C9644D"/>
<path d="M67.4676 5.71947C67.3958 5.69413 67.305 5.70469 67.2459 5.75115C66.7771 6.12068 66.3843 6.57889 66.0908 7.09835C65.9451 7.35385 65.8269 7.62203 65.734 7.90076C65.6347 8.20061 65.6094 8.53636 65.4721 8.82143C65.4151 8.93968 65.7339 8.97558 65.7846 8.86788C65.9155 8.59337 65.9409 8.27663 66.0338 7.98945C66.1246 7.71072 66.2407 7.44043 66.3843 7.18282C66.6715 6.66336 67.0622 6.20726 67.5288 5.83984C67.5859 5.79338 67.514 5.73636 67.4676 5.71947Z" fill="#EC8161"/>
<path d="M72.0558 4.40311C71.9904 4.36087 71.8932 4.37354 71.8278 4.40311C70.5312 4.9838 69.4522 6.01849 68.8019 7.28123C68.616 7.6402 68.4703 8.01818 68.3584 8.40672C68.3204 8.53975 68.6392 8.56298 68.6709 8.45318C69.0489 7.11653 69.8893 5.92769 71.019 5.12105C71.3442 4.88878 71.6926 4.69239 72.0558 4.5298C72.1213 4.50024 72.1086 4.43689 72.0558 4.40311Z" fill="#EC8161"/>
<path d="M74.2081 5.51887L72.3457 7.58614C72.2401 7.70228 72.5505 7.75929 72.6244 7.67483C73.2452 6.98644 73.866 6.29806 74.4868 5.60756C74.5924 5.49142 74.282 5.43441 74.2081 5.51887Z" fill="#EC8161"/>
<path d="M77.483 6.33639C77.4683 6.21181 77.1452 6.22025 77.1599 6.33639C77.2761 7.32463 77.141 8.32764 76.7567 9.2483C76.706 9.37289 77.0248 9.40245 77.0691 9.29475C77.4577 8.36142 77.6034 7.33941 77.483 6.33639Z" fill="#EC8161"/>
<path d="M80.127 9.23621C80.1059 9.11163 79.7829 9.1243 79.804 9.23621C79.9962 10.3448 79.8019 11.4935 79.2508 12.4754C79.1874 12.5873 79.5041 12.6253 79.5632 12.5219C80.1186 11.5294 80.3213 10.3596 80.127 9.23621Z" fill="#EC8161"/>
<path d="M70.7554 27.3156C70.6308 27.1403 70.5337 26.9482 70.4661 26.7434C70.4577 26.7159 70.4133 26.6969 70.3922 26.6906C70.3542 26.6779 70.3057 26.6737 70.2677 26.6821C70.2128 26.6927 70.1325 26.7223 70.1557 26.7919C70.2233 26.9968 70.3204 27.1889 70.445 27.3642C70.4872 27.4233 70.5759 27.4381 70.6435 27.4254C70.6773 27.4191 70.7174 27.4106 70.7407 27.3853C70.7554 27.3663 70.7723 27.3388 70.7554 27.3156Z" fill="#EC8161"/>
<path d="M73.0741 27.2005C72.9981 27.0485 72.9242 26.8964 72.8481 26.7444C72.8355 26.7169 72.8017 26.7 72.7742 26.6916C72.7362 26.6789 72.6877 26.6768 72.6497 26.6831C72.6032 26.6916 72.504 26.7254 72.5357 26.793C72.6117 26.945 72.6856 27.097 72.7616 27.2491C72.7743 27.2765 72.8081 27.2934 72.8355 27.3018C72.8735 27.3145 72.9221 27.3187 72.9601 27.3103C73.0086 27.3018 73.1079 27.2681 73.0741 27.2005Z" fill="#EC8161"/>
<path d="M71.3876 25.6215L71.1489 25.2541C71.132 25.2267 71.1046 25.2119 71.075 25.2013C71.037 25.1886 70.9885 25.1844 70.9505 25.1929C70.9167 25.1992 70.8765 25.2076 70.8533 25.233C70.8364 25.2499 70.8216 25.2773 70.8364 25.3027C70.9166 25.4251 70.9948 25.5476 71.075 25.6701C71.094 25.6975 71.1194 25.7123 71.1489 25.7229C71.1869 25.7356 71.2355 25.7398 71.2735 25.7313C71.3073 25.725 71.3474 25.7166 71.3707 25.6912C71.3876 25.6722 71.4045 25.6448 71.3876 25.6215Z" fill="#EC8161"/>
<path d="M73.9924 24.9238C73.9206 24.7823 73.8573 24.6345 73.8045 24.4846C73.7961 24.4592 73.7538 24.4381 73.7306 24.4318C73.6926 24.4191 73.6441 24.4149 73.6061 24.4233C73.5533 24.4339 73.4688 24.4635 73.492 24.5331C73.5448 24.6831 73.6082 24.8309 73.68 24.9724C73.6947 24.9998 73.7264 25.0167 73.7539 25.0251C73.7919 25.0378 73.8404 25.042 73.8784 25.0336C73.9249 25.0252 74.0262 24.9914 73.9924 24.9238Z" fill="#EC8161"/>
<path d="M69.246 25.3727C69.1425 25.2144 69.0538 25.0454 68.9799 24.8723C68.9694 24.8448 68.9313 24.8279 68.906 24.8195C68.868 24.8068 68.8194 24.8026 68.7814 24.811C68.7329 24.8195 68.6399 24.8533 68.6695 24.9208C68.7434 25.0961 68.8321 25.2629 68.9356 25.4213C68.9757 25.4825 69.0686 25.4952 69.1341 25.4825C69.1678 25.4762 69.208 25.4678 69.2312 25.4424C69.246 25.4234 69.2608 25.396 69.246 25.3727Z" fill="#EC8161"/>
<path d="M69.4227 23.4192C69.3953 23.3284 69.3699 23.2376 69.3425 23.1447C69.334 23.1194 69.2897 23.0983 69.2686 23.0919C69.2306 23.0793 69.182 23.0751 69.144 23.0835C69.1102 23.0898 69.0701 23.0983 69.0469 23.1236C69.0406 23.1299 69.0364 23.1384 69.03 23.1447C69.0216 23.1595 69.0216 23.1764 69.03 23.1912C69.0554 23.282 69.0828 23.3728 69.1102 23.4657C69.1187 23.491 69.163 23.5121 69.1842 23.5185C69.2222 23.5312 69.2707 23.5333 69.3087 23.5269C69.3425 23.5206 69.3826 23.5122 69.4058 23.4868C69.4122 23.4805 69.4164 23.472 69.4227 23.4657C69.4312 23.4509 69.4312 23.4361 69.4227 23.4192Z" fill="#EC8161"/>
<path d="M68.0065 22.9609C67.9452 22.8448 67.884 22.7287 67.8228 22.6125C67.808 22.5851 67.7763 22.5682 67.7488 22.5597C67.7108 22.547 67.6623 22.5428 67.6243 22.5513C67.5905 22.5576 67.5504 22.5661 67.5272 22.5914C67.5103 22.6104 67.4976 22.6336 67.5103 22.659C67.5715 22.7751 67.6327 22.8912 67.6939 23.0074C67.7087 23.0348 67.7404 23.0517 67.7678 23.0602C67.8059 23.0728 67.8545 23.0771 67.8925 23.0686C67.9263 23.0623 67.9664 23.0538 67.9896 23.0285C68.0086 23.0116 68.0213 22.9863 68.0065 22.9609Z" fill="#EC8161"/>
<path d="M75.7328 27.0376L75.566 26.7082C75.5512 26.6808 75.5195 26.6639 75.4921 26.6554C75.4541 26.6427 75.4054 26.6385 75.3674 26.647C75.3337 26.6533 75.2936 26.6618 75.2703 26.6871C75.2534 26.7061 75.2408 26.7293 75.2534 26.7547L75.4203 27.0841C75.4351 27.1115 75.4667 27.1284 75.4941 27.1369C75.5321 27.1495 75.5807 27.1538 75.6188 27.1453C75.6525 27.139 75.6926 27.1305 75.7159 27.1052C75.7328 27.0883 75.7454 27.063 75.7328 27.0376Z" fill="#EC8161"/>
<path d="M78.4563 24.4923C78.4478 24.4628 78.4373 24.4459 78.4098 24.429C78.3781 24.41 78.3317 24.4015 78.2958 24.4036C78.2578 24.4036 78.2155 24.41 78.1818 24.429C78.1628 24.4416 78.1269 24.4649 78.1353 24.4923C78.1733 24.6507 78.2113 24.8091 78.2514 24.9674C78.2578 24.997 78.2704 25.0139 78.2979 25.0308C78.3296 25.0498 78.376 25.0582 78.4119 25.0561C78.45 25.0561 78.4922 25.0498 78.5259 25.0308C78.5449 25.0202 78.5787 24.9949 78.5724 24.9674C78.5323 24.8091 78.4943 24.6507 78.4563 24.4923Z" fill="#EC8161"/>
<path d="M76.5563 24.5807C76.4908 24.4582 76.4253 24.3336 76.3599 24.2111C76.3451 24.1837 76.3134 24.1668 76.2859 24.1584C76.2479 24.1457 76.1994 24.1415 76.1614 24.1499C76.1276 24.1562 76.0875 24.1647 76.0643 24.19C76.0474 24.209 76.0347 24.2323 76.0474 24.2576C76.1128 24.3801 76.1783 24.5047 76.2437 24.6271C76.2585 24.6546 76.2902 24.6715 76.3177 24.6799C76.3557 24.6926 76.4042 24.6968 76.4422 24.6884C76.476 24.682 76.5162 24.6736 76.5394 24.6482C76.5584 24.6292 76.5711 24.606 76.5563 24.5807Z" fill="#EC8161"/>
<path d="M76.522 22.3192C76.4756 22.1376 76.4038 21.9644 76.3046 21.804C76.2665 21.7427 76.1715 21.7301 76.1061 21.7427C76.066 21.7491 75.954 21.7892 75.9941 21.8525C76.0934 22.013 76.1674 22.1862 76.2117 22.3678C76.218 22.3931 76.2665 22.4142 76.2855 22.4205C76.3236 22.4332 76.3722 22.4374 76.4102 22.429C76.444 22.4227 76.4841 22.4142 76.5073 22.3889C76.5263 22.3678 76.5305 22.3488 76.522 22.3192Z" fill="#EC8161"/>
<path d="M78.4969 22.0976C78.4357 21.9202 78.3723 21.7428 78.3089 21.5676C78.3005 21.5401 78.2583 21.5211 78.235 21.5148C78.197 21.5021 78.1485 21.4979 78.1105 21.5063C78.0577 21.5148 77.9732 21.5465 77.9985 21.6162C78.0619 21.7935 78.1232 21.9709 78.1865 22.1462C78.1949 22.1736 78.2372 22.1905 78.2604 22.199C78.2984 22.2116 78.347 22.2158 78.385 22.2074C78.4357 22.1968 78.5201 22.1652 78.4969 22.0976Z" fill="#EC8161"/>
<path d="M78.6893 19.1067C78.6787 19.0792 78.6386 19.0602 78.6154 19.0539C78.5774 19.0412 78.5288 19.037 78.4908 19.0454C78.438 19.056 78.3536 19.0855 78.3789 19.1552C78.4169 19.2608 78.4486 19.3685 78.476 19.4783C78.4866 19.5205 78.495 19.5649 78.5056 19.6071C78.5119 19.6367 78.5246 19.6536 78.5521 19.6704C78.5837 19.6895 78.6302 19.6979 78.6661 19.6958C78.7041 19.6958 78.7463 19.6895 78.78 19.6704C78.7991 19.6578 78.8328 19.6346 78.8265 19.6071C78.7927 19.4382 78.7463 19.2692 78.6893 19.1067Z" fill="#EC8161"/>
<path d="M80.6764 70.49L78.5247 70.3507C78.6936 67.7513 78.8836 65.4285 79.1053 63.2493C79.5551 58.8339 80.0386 54.4122 80.8917 50.0518C81.3183 47.8683 81.7765 45.6849 82.4332 43.5564C83.0836 41.4469 84.1626 39.5718 84.9524 37.5447C85.6851 35.6675 86.8085 33.9402 88.0923 32.3712C88.6751 31.6617 90.356 29.1383 91.4625 29.8816C91.6631 30.0168 91.8151 30.211 91.9629 30.4032C92.1234 30.6101 92.2839 30.8171 92.4444 31.0261C92.7083 31.3682 91.9313 31.5224 91.718 31.6786C91.3907 31.9193 91.0993 32.2572 90.8184 32.5486C90.2209 33.1673 89.6655 33.8304 89.1524 34.5209C88.0353 36.0243 87.1147 37.6714 86.3524 39.3797C85.6112 41.0415 85.1826 42.7329 84.7307 44.5236C84.566 45.1718 84.397 45.8433 84.2112 46.5127C82.8788 51.3124 81.9391 56.6991 81.2507 63.4647C81.0311 65.6186 80.8432 67.916 80.6764 70.49Z" fill="#404082"/>
<path d="M67.8517 27.8084C67.837 27.8971 67.8201 27.9857 67.7968 28.0723C67.6068 28.8642 67.1697 29.5716 66.8614 30.3212C66.532 31.1236 66.2849 31.9682 66.021 32.796C65.4339 34.6247 64.9039 36.4723 64.4309 38.3326C63.4744 42.0976 62.7501 45.9218 62.2665 49.7776C62.1356 50.8228 62.0216 51.8723 61.8738 52.9154C61.8949 51.2768 61.9118 49.6424 61.9139 48.0123C61.9181 46.4011 61.9266 44.7773 61.9942 43.1577C62.123 41.8611 62.2771 40.5667 62.465 39.2765C62.672 37.8575 62.881 36.4343 63.1534 35.0259C63.2864 34.3354 63.4363 33.647 63.6074 32.9649C64.0846 31.0666 64.4373 28.8747 66.4876 28.199C66.891 28.066 67.4442 27.7746 67.8517 27.8084Z" fill="#404082"/>
<path d="M61.9737 52.9385C61.9779 52.8182 61.6548 52.814 61.6506 52.9385C61.5577 55.3584 61.5176 57.7805 61.5366 60.2004C61.5408 60.8888 61.5514 61.5771 61.5662 62.2634C61.5683 62.3859 61.8934 62.3859 61.8892 62.2634C61.8385 59.8435 61.8449 57.4215 61.9061 54.9995C61.9251 54.3153 61.9462 53.6269 61.9737 52.9385Z" fill="#A9CCFF"/>
<path d="M84.1233 25.9592C83.4243 27.3972 82.4994 28.7106 81.4795 29.9396C80.9727 30.5498 80.4427 31.1432 79.9021 31.7239C79.6297 32.0174 79.3531 32.3088 79.0765 32.6002C78.9414 32.7417 78.8062 32.8853 78.669 33.0267C78.6077 33.0901 78.5486 33.1619 78.481 33.2189C78.3754 33.3097 78.2614 33.1999 78.1685 33.1365C77.3323 32.5495 76.4982 31.9646 75.662 31.3776C75.5987 31.3332 75.4065 31.3902 75.51 31.462C76.2871 32.0068 77.0642 32.5537 77.8412 33.0985C77.9954 33.2062 78.1664 33.3709 78.3649 33.3857C78.5465 33.4005 78.6563 33.2928 78.7745 33.1703C79.0617 32.8684 79.351 32.5685 79.6361 32.2644C80.7869 31.0439 81.9124 29.7917 82.8795 28.4213C83.4243 27.6485 83.9163 26.8397 84.3302 25.9887C84.3703 25.9106 84.1592 25.8874 84.1233 25.9592Z" fill="#A9CCFF"/>
<path d="M74.7532 34.7775C74.7342 34.6867 74.6898 34.617 74.6222 34.5536C74.5652 34.4987 74.4976 34.4502 74.4301 34.4058C74.2442 34.2876 74.012 34.2644 73.8008 34.3193C73.5348 34.3889 73.3341 34.6423 73.3405 34.919C73.3447 35.0668 73.3975 35.204 73.4883 35.3202C73.596 35.4553 73.7607 35.525 73.9254 35.5567C74.2485 35.62 74.6729 35.4806 74.7215 35.1132C74.7215 35.1069 74.7215 35.1006 74.7215 35.0942C74.7595 34.995 74.7764 34.8788 74.7532 34.7775Z" fill="#A9CCFF"/>
<path d="M73.3513 41.464C73.3323 41.3732 73.2879 41.3035 73.2204 41.2402C73.1633 41.1853 73.0958 41.1367 73.0282 41.0924C72.8424 40.9741 72.6102 40.9509 72.399 41.0058C72.135 41.0755 71.9323 41.3289 71.9386 41.6055C71.9428 41.7554 71.9957 41.8905 72.0864 42.0067C72.1941 42.1418 72.3588 42.2115 72.5236 42.2432C72.8466 42.3065 73.271 42.1672 73.3196 41.7997C73.3196 41.7934 73.3196 41.7871 73.3196 41.7829C73.3576 41.6815 73.3745 41.5654 73.3513 41.464Z" fill="#A9CCFF"/>
<path d="M72.2727 48.1495C72.2516 48.0587 72.2093 47.9891 72.1417 47.9257C72.0847 47.8708 72.0172 47.8222 71.9496 47.7779C71.7638 47.6597 71.5315 47.6364 71.3203 47.6913C71.0543 47.761 70.8537 48.0144 70.86 48.291C70.8642 48.4388 70.917 48.5761 71.0078 48.6922C71.1155 48.8274 71.2802 48.8971 71.4449 48.9287C71.768 48.9921 72.1924 48.8527 72.241 48.4853C72.241 48.479 72.241 48.4726 72.241 48.4684C72.279 48.367 72.2959 48.253 72.2727 48.1495Z" fill="#A9CCFF"/>
<path d="M71.0857 54.8371C71.0667 54.7463 71.0223 54.6766 70.9547 54.6132C70.8977 54.5583 70.8301 54.5097 70.7626 54.4654C70.5767 54.3472 70.3445 54.3239 70.1334 54.3788C69.8673 54.4485 69.6667 54.704 69.673 54.9785C69.6772 55.1263 69.73 55.2636 69.8208 55.3797C69.9285 55.5149 70.0932 55.5846 70.2579 55.6183C70.581 55.6817 71.0054 55.5423 71.054 55.1749C71.054 55.1686 71.054 55.1622 71.054 55.158C71.092 55.0545 71.1089 54.9384 71.0857 54.8371Z" fill="#A9CCFF"/>
<path d="M71.1951 61.5246C71.1739 61.4338 71.1317 61.3641 71.0641 61.3007C71.0071 61.2458 70.9395 61.1972 70.8719 61.1529C70.6861 61.0347 70.4538 61.0114 70.2427 61.0663C69.9766 61.136 69.776 61.3894 69.7824 61.666C69.7845 61.8159 69.8394 61.9511 69.9302 62.0672C70.0379 62.2024 70.2026 62.2721 70.3673 62.3037C70.6904 62.3671 71.1148 62.2277 71.1633 61.8603C71.1633 61.854 71.1633 61.8476 71.1633 61.8434C71.1992 61.742 71.2162 61.6259 71.1951 61.5246Z" fill="#A9CCFF"/>
<path d="M61.1274 56.9532C60.5657 55.5743 59.1107 54.7909 57.6474 54.9788C57.5946 54.9851 57.5081 55.0231 57.5355 55.0886C57.5609 55.1541 57.6791 55.1583 57.734 55.1498C59.0601 54.9788 60.3165 55.777 60.8169 56.9996C60.8592 57.1094 61.178 57.0799 61.1274 56.9532Z" fill="#A9CCFF"/>
<path d="M79.0247 28.5764C78.8262 28.5257 78.6425 28.5637 78.4503 28.6228C78.2371 28.6883 78.0238 28.758 77.8105 28.8276C77.3692 28.9733 76.93 29.1233 76.4929 29.2816C75.6546 29.5857 74.8268 29.913 74.0075 30.2657C73.8723 30.3227 72.4449 29.3703 72.2126 29.269C71.8557 29.1127 70.8908 28.5595 70.5233 28.8762C70.1686 29.1824 70.2826 30.4937 70.253 30.9414C70.1981 31.748 70.1644 32.5568 70.1475 33.3655C71.085 33.3064 72.0078 33.0108 72.8081 32.5166C73.127 32.3181 73.4289 32.0901 73.7689 31.9296C74.7487 31.4693 75.4138 32.2105 76.2205 32.7193C76.476 32.8819 76.7314 33.0424 76.9869 33.205C77.1157 33.2853 77.2425 33.3676 77.3713 33.4478C77.4832 33.5175 77.5951 33.6105 77.7197 33.6569C77.8042 33.6886 77.9076 33.6949 77.9878 33.6485C78.0744 33.5978 78.0977 33.5028 78.1209 33.412C78.1948 33.1374 78.2624 32.8608 78.33 32.5842C78.6467 31.2792 78.8938 29.9595 79.0775 28.6292C79.0817 28.6038 79.0437 28.5827 79.0247 28.5764Z" fill="#272443"/>
<path d="M19.8119 70.6159C19.6683 71.7498 21.7207 72.9197 22.5781 73.3188C24.8882 74.3915 27.2427 73.9544 29.5126 73.0126C30.011 72.8057 30.5156 72.5734 30.8746 72.1722C31.2526 71.7477 31.2315 71.3655 31.2188 70.8482C31.2061 70.333 31.3899 69.7966 31.4954 69.2729C31.6496 68.5064 31.7678 67.7336 31.8523 66.9586C31.9642 65.9176 32.0613 64.9061 31.9072 63.939C31.8185 63.39 31.6496 62.8578 31.3582 62.3426C30.258 60.4084 28.6405 58.7613 26.6281 57.9864C25.7328 57.6401 25.0044 57.4838 24.2062 58.1659C23.5347 58.7402 23.0806 59.5827 22.8251 60.4358C22.4471 61.6901 22.4239 63.0141 22.2529 64.3107C22.1431 65.1426 21.8094 65.9345 21.5581 66.7369C21.2541 67.7082 20.8339 68.6437 20.306 69.5137C20.0948 69.86 19.8604 70.2253 19.8119 70.6159Z" fill="#F7967C"/>
<path d="M28.1238 67.2633C28.6496 67.7975 29.3929 68.1713 30.02 68.5767C30.4761 68.8723 30.9723 69.1067 31.4918 69.2693C31.6459 68.5028 31.7642 67.73 31.8487 66.955C31.9606 65.914 32.0577 64.9025 31.9036 63.9354C31.4116 63.7369 30.8921 63.5891 30.3938 63.4371C29.3338 63.1119 27.8957 62.4488 26.9835 63.4666C25.9805 64.5921 27.3171 66.4419 28.1238 67.2633Z" fill="#DB6357"/>
<path d="M32.4358 50.773C32.8011 51.3537 33.1432 51.9598 33.329 52.6186C33.5042 53.2415 33.2424 53.9151 33.4156 54.5359C33.4937 54.8168 33.7133 55.0195 33.8949 55.2412C34.1103 55.503 34.3341 55.7585 34.5685 56.0056C35.0457 56.5082 35.5588 56.9727 36.1057 57.3993C36.4858 57.6949 36.9103 58.0116 37.0117 58.4825C37.1764 59.2448 36.4479 59.6608 35.939 60.0367C34.8937 60.8032 36.0297 63.6137 36.1395 64.6717C36.1733 64.9947 36.1818 65.3305 36.0741 65.6367C35.8503 66.268 34.7966 66.6882 34.2053 66.8952C31.891 67.6976 29.0256 66.9881 26.9097 65.9069C25.9616 65.4234 24.9205 64.7962 24.2195 63.9811C23.4994 63.1428 22.6358 63.525 21.6455 63.2611C20.6234 62.9887 19.7091 62.0976 19.0777 61.291C18.3724 60.3935 17.8551 59.3673 17.3399 58.3474C16.831 57.3359 16.3115 56.2907 16.246 55.161C16.17 53.837 16.7402 52.5362 17.5742 51.5058C18.4104 50.4753 19.4958 49.6792 20.596 48.938C21.789 48.1356 22.9061 47.4113 24.3314 47.1326C25.6723 46.8708 27.0596 46.8412 28.4089 47.0545C28.9495 47.141 29.4943 47.2677 29.9652 47.5465C30.9809 48.1504 31.5574 49.411 32.1782 50.3655C32.2626 50.5006 32.3513 50.6358 32.4358 50.773Z" fill="#F7967C"/>
<path d="M21.5014 63.9395C21.0348 63.1793 20.3316 62.6134 19.6263 61.9546C18.6909 61.0804 17.9771 60.0013 17.2718 58.9328C17.048 58.5929 16.8221 58.2508 16.6299 57.8918C15.9563 56.6312 15.7093 55.1446 15.9395 53.7341C16.1696 52.3235 16.8749 50.9932 17.9159 50.0113C18.7944 49.1835 19.8692 48.6113 20.8173 47.8743C21.2692 47.5217 21.7189 47.1268 22.0484 46.6517C22.4031 46.1365 22.5974 45.5199 22.9648 45.011C23.3111 44.5338 23.9974 44.3374 24.5422 44.5633C24.9138 44.7154 25.2685 45.0448 25.6549 44.9392C26.1955 44.7914 26.204 43.989 26.639 43.6342C27.0317 43.3133 27.623 43.4695 28.0664 43.7124C28.8224 44.1283 29.4707 44.7745 29.7832 45.579C31.0544 48.8647 26.6622 49.8213 25.6275 52.2053C25.1482 53.3096 25.1545 54.982 25.6444 56.0927C25.8387 56.5341 26.1913 56.8614 26.4109 57.2985C26.4658 57.4083 26.8206 58.7914 26.734 58.7576C26.677 58.7344 25.6866 57.9066 25.6824 58.0354C25.6486 59.5494 25.4861 61.1648 24.9434 62.5859C24.8589 62.8098 24.7343 63.0547 24.5041 63.1138C24.4324 63.1329 24.3521 63.1307 24.2887 63.1688C24.2021 63.2215 24.1705 63.3292 24.143 63.4264C23.9234 64.1886 23.4399 64.8707 22.7958 65.331C22.5699 65.4936 22.2067 65.6055 22.0504 65.3733C22.004 65.3036 21.9913 65.217 21.9744 65.1347C21.8794 64.6764 21.7147 64.2879 21.5014 63.9395Z" fill="#272443"/>
<path d="M32.7447 53.4918C32.6919 53.4305 32.6201 53.3841 32.5335 53.3587C32.202 53.2679 31.8557 53.3735 31.5432 53.477C30.9414 53.6776 30.5106 53.9225 30.1136 54.4251C29.8222 54.7967 29.5477 55.2191 29.5371 55.6921C29.5371 55.6562 30.0101 55.4471 30.065 55.4154C30.4916 55.1663 30.8674 54.8453 31.3109 54.6194C31.4925 54.5264 31.6804 54.442 31.8789 54.385C32.0436 54.3385 32.2125 54.3132 32.3751 54.2583C32.5356 54.2013 32.6919 54.1084 32.7806 53.9627C32.8777 53.8001 32.8503 53.6164 32.7447 53.4918Z" fill="#272443"/>
<path d="M27.3118 59.7744C27.3097 59.7554 27.3055 59.7385 27.3012 59.7195C27.1218 58.708 26.4355 57.893 25.5508 57.3946C25.3227 57.2658 25.0841 57.156 24.8264 57.1096C22.9809 56.778 22.7191 59.236 23.4349 60.448C23.9881 61.3856 25.3417 62.4203 26.4714 62.0507C27.3815 61.753 27.4427 60.5726 27.3118 59.7744Z" fill="#F7967C"/>
<path d="M29.9531 60.3748C31.5558 60.9238 33.3296 60.9745 34.9555 60.493C36.1021 60.1531 36.6828 62.2119 37.3374 62.9425C37.8104 63.4704 38.3911 63.8864 38.9654 64.3003C40.1902 65.1787 41.4149 66.0593 42.6396 66.9377C43.5075 67.5606 44.3923 68.1983 45.0363 69.0535C45.7986 70.065 46.563 72.3202 45.0447 73.0043C44.4176 73.2873 43.6996 73.2493 43.0134 73.205C38.8767 72.941 34.417 72.5504 31.2876 69.8327C30.6689 69.2942 30.1199 68.6798 29.5941 68.0505C28.3271 66.5365 27.1467 64.9084 26.376 63.0819C25.9114 61.9817 25.9072 60.7718 25.8586 59.5998C25.8143 58.5166 25.998 57.6339 25.3139 56.6626C25.1935 56.4915 25.0499 56.31 25.0668 56.1009C25.3751 56.0101 25.7362 56.1495 25.9051 56.4219C26.1057 56.7428 26.3 57.0659 26.5006 57.3869C26.8258 57.9084 27.172 58.4173 27.5395 58.9093C27.8562 59.3338 28.3588 59.6421 28.8233 59.887C29.1865 60.0792 29.5645 60.2418 29.9531 60.3748Z" fill="#272443"/>
<path d="M32.2144 56.5761C32.1637 56.6732 32.1004 56.7556 32.0159 56.8253C31.9695 56.8654 31.9441 56.8823 31.8892 56.9118C31.8829 56.914 31.8385 56.9372 31.8322 56.9414C31.8069 56.952 31.7815 56.9604 31.754 56.9689C31.7139 56.9815 31.6675 56.9921 31.602 56.9984C31.6105 56.9963 31.5344 56.9984 31.526 56.9984C31.5112 56.9984 31.5006 56.9984 31.5006 56.9984C31.4922 56.9984 31.4838 56.9963 31.4753 56.9963C31.3719 56.9836 31.2789 56.9689 31.1902 56.9013C31.0889 56.8232 30.9432 56.8084 30.8207 56.8485C30.7468 56.8738 30.6201 56.9731 30.7236 57.0512C31.0551 57.3046 31.5302 57.3447 31.9272 57.2539C32.265 57.1758 32.5713 56.9689 32.7317 56.6563C32.8331 56.4621 32.3052 56.4008 32.2144 56.5761Z" fill="#272443"/>
<path d="M32.4899 61.6171C32.4561 61.6445 32.4245 61.6741 32.3949 61.7058C32.1795 61.9275 32.3167 62.3181 32.4624 62.5483C32.7095 62.9432 33.1719 63.1966 33.6365 63.1818C34.2636 63.1607 34.8634 62.6222 34.876 61.9845C34.8802 61.8367 34.8676 61.6825 34.7958 61.5516C34.7008 61.3806 34.5171 61.275 34.327 61.2328C33.9575 61.1483 33.362 61.2433 33.003 61.3447C32.813 61.3975 32.6377 61.4904 32.4899 61.6171Z" fill="#F7967C"/>
<path d="M34.3298 62.1253C34.2559 62.1021 34.1694 62.1106 34.1082 62.157C33.9076 62.309 33.6457 62.271 33.4177 62.2161C33.1875 62.1591 32.9404 62.081 32.8538 61.836C32.8158 61.7284 32.497 61.7537 32.5413 61.8825C32.6596 62.214 33.0418 62.3217 33.3479 62.3914C33.7006 62.4716 34.087 62.4737 34.3869 62.2478C34.4502 62.2014 34.3763 62.1401 34.3298 62.1253Z" fill="#DB6357"/>
<path d="M28.092 44.8507C28.0666 44.7261 27.7456 44.7409 27.7689 44.8507C28.0434 46.1578 27.6823 47.5683 26.8376 48.6009C26.599 48.8923 26.3224 49.1541 26.0141 49.3716C25.86 49.4793 26.1493 49.5638 26.2422 49.4983C27.3698 48.7044 28.0835 47.4015 28.1764 46.0268C28.1996 45.632 28.1722 45.2371 28.092 44.8507Z" fill="#404082"/>
<path d="M26.0235 46.1979C26.0024 46.0733 25.6814 46.0839 25.7004 46.1979C25.8862 47.3319 25.162 48.3011 24.3786 49.0317C24.2666 49.1352 24.577 49.1985 24.6573 49.1225C25.4618 48.3729 26.2135 47.3635 26.0235 46.1979Z" fill="#404082"/>
<path d="M18.2881 57.1397C17.2872 55.8938 17.1901 54.1285 18.0241 52.7729C18.0896 52.6652 17.775 52.6251 17.7116 52.7264C16.8458 54.1349 16.9747 55.9466 18.0073 57.2305C18.0769 57.3149 18.3873 57.2622 18.2881 57.1397Z" fill="#404082"/>
<path d="M19.8926 55.9886C19.4724 55.4269 19.2064 54.7639 19.1282 54.0649C19.1134 53.9403 18.7904 53.9488 18.8052 54.0649C18.8854 54.7786 19.1515 55.4607 19.5823 56.035C19.6266 56.0942 19.7111 56.1089 19.7808 56.0963C19.8145 56.0942 19.937 56.0498 19.8926 55.9886Z" fill="#404082"/>
<path d="M33.0753 69.5304C32.7205 69.3298 32.4102 69.0511 32.1694 68.7217C32.1251 68.6626 32.0406 68.6478 31.9709 68.6604C31.935 68.6668 31.8126 68.709 31.859 68.7703C32.123 69.1335 32.4587 69.4354 32.8472 69.6571C32.9127 69.6951 33.0119 69.6951 33.0753 69.6571C33.1344 69.6233 33.1344 69.5642 33.0753 69.5304Z" fill="#404082"/>
<path d="M37.1019 70.3219C36.7915 70.098 36.4959 69.8531 36.2192 69.5891C36.1665 69.5385 36.0651 69.5321 35.9975 69.5574C35.9468 69.5764 35.8835 69.6271 35.9405 69.6799C36.2192 69.9439 36.5127 70.1888 36.8231 70.4127C36.8844 70.457 36.971 70.4718 37.0449 70.4443C37.085 70.4274 37.1652 70.3683 37.1019 70.3219Z" fill="#404082"/>
<path d="M38.6711 67.4358C38.3923 67.2268 38.1369 66.9903 37.9109 66.7242C37.8898 66.701 37.8434 66.6883 37.8138 66.6841C37.7758 66.6778 37.7251 66.6799 37.6892 66.6926C37.6322 66.7137 37.5815 66.758 37.6322 66.815C37.8581 67.079 38.1136 67.3176 38.3924 67.5266C38.4536 67.571 38.5423 67.5858 38.6141 67.5583C38.6563 67.5414 38.7344 67.4823 38.6711 67.4358Z" fill="#404082"/>
<path d="M35.1887 67.4629C34.9522 67.2728 34.7305 67.0638 34.532 66.8336C34.5109 66.8104 34.4644 66.7977 34.4349 66.7935C34.3969 66.7872 34.3482 66.7893 34.3102 66.802C34.2532 66.8231 34.2026 66.8674 34.2533 66.9244C34.4539 67.1525 34.6735 67.3636 34.91 67.5537C34.9691 67.6001 35.062 67.6107 35.1317 67.5853C35.176 67.5685 35.2499 67.5114 35.1887 67.4629Z" fill="#404082"/>
<path d="M30.4931 65.8441L29.8681 65.2191C29.8174 65.1684 29.7118 65.1641 29.6464 65.1874C29.5936 65.2064 29.5344 65.255 29.5893 65.3099L30.2143 65.9349C30.265 65.9856 30.3706 65.9898 30.4361 65.9666C30.4868 65.9476 30.5459 65.8969 30.4931 65.8441Z" fill="#404082"/>
<path d="M33.6171 64.4437C33.4567 64.2367 33.2962 64.0298 33.1357 63.8229C33.1167 63.7996 33.066 63.787 33.0386 63.7828C33.0006 63.7764 32.952 63.7785 32.914 63.7912C32.8866 63.8018 32.8528 63.8165 32.8401 63.844C32.8274 63.8714 32.8401 63.8904 32.857 63.9116C33.0175 64.1185 33.178 64.3254 33.3384 64.5324C33.3574 64.5556 33.4081 64.5683 33.4355 64.5725C33.4736 64.5788 33.5222 64.5767 33.5602 64.564C33.5876 64.5535 33.6214 64.5408 33.6341 64.5112C33.6468 64.4859 33.634 64.4648 33.6171 64.4437Z" fill="#404082"/>
<path d="M30.1312 63.0455C29.9137 62.8449 29.7489 62.6105 29.6328 62.3381C29.5864 62.2325 29.2675 62.2621 29.3203 62.3845C29.4407 62.6675 29.6244 62.9251 29.8524 63.1342C29.9073 63.1848 30.0066 63.1912 30.0742 63.1658C30.1227 63.149 30.1882 63.0983 30.1312 63.0455Z" fill="#404082"/>
<path d="M27.6103 61.459C27.5216 61.2647 27.4329 61.0704 27.3421 60.8762C27.3295 60.8487 27.2936 60.8318 27.2682 60.8234C27.2302 60.8107 27.1817 60.8065 27.1437 60.8149C27.0951 60.8234 27 60.8572 27.0317 60.9247C27.1204 61.119 27.2091 61.3133 27.2999 61.5076C27.3126 61.535 27.3485 61.5519 27.3738 61.5603C27.4118 61.573 27.4604 61.5772 27.4984 61.5688C27.5449 61.5582 27.642 61.5266 27.6103 61.459Z" fill="#404082"/>
<path d="M37.3207 63.7135C37.1264 63.4917 36.93 63.2721 36.7358 63.0504C36.7146 63.0272 36.6682 63.0145 36.6386 63.0103C36.6006 63.004 36.552 63.0061 36.514 63.0187C36.4591 63.0399 36.4063 63.0842 36.457 63.1412C36.6513 63.3629 36.8476 63.5825 37.0419 63.8043C37.063 63.8275 37.1095 63.8402 37.1391 63.8444C37.1771 63.8507 37.2257 63.8486 37.2637 63.8359C37.3186 63.8148 37.3693 63.7705 37.3207 63.7135Z" fill="#404082"/>
<path d="M40.6341 70.5656C40.4863 70.4685 40.3385 70.3735 40.1907 70.2763C40.1611 70.2573 40.1104 70.251 40.0767 70.251C40.0408 70.251 39.9943 70.2573 39.9626 70.2763C39.9415 70.289 39.914 70.3101 39.9161 70.3397C39.9182 70.3692 39.9394 70.3861 39.9626 70.403L40.4061 70.6923C40.4356 70.7113 40.4863 70.7176 40.5201 70.7176C40.556 70.7176 40.6025 70.7113 40.6341 70.6923C40.6553 70.6796 40.6848 70.6585 40.6805 70.629C40.6784 70.5973 40.6574 70.5804 40.6341 70.5656Z" fill="#404082"/>
<path d="M40.3829 72.2612C40.2246 72.2253 40.0641 72.1873 39.9058 72.1514C39.8699 72.1429 39.817 72.1493 39.7811 72.1598C39.7579 72.1683 39.7178 72.1873 39.7072 72.2126C39.6798 72.2823 39.7706 72.3119 39.8191 72.3224C39.9775 72.3583 40.138 72.3963 40.2964 72.4322C40.3323 72.4407 40.3851 72.4343 40.421 72.4238C40.4442 72.4153 40.4843 72.3963 40.4949 72.371C40.5223 72.3013 40.4315 72.2739 40.3829 72.2612Z" fill="#404082"/>
<path d="M43.2869 68.6397C43.0905 68.5194 42.8942 68.3969 42.6978 68.2766C42.6365 68.2385 42.531 68.2385 42.4697 68.2766C42.4486 68.2892 42.419 68.3103 42.4233 68.3399C42.4254 68.3695 42.4465 68.3885 42.4697 68.4032C42.6661 68.5236 42.8625 68.6461 43.061 68.7664C43.1222 68.8044 43.2278 68.8044 43.289 68.7664C43.3101 68.7538 43.3397 68.7327 43.3376 68.7031C43.3334 68.6735 43.3122 68.6545 43.2869 68.6397Z" fill="#404082"/>
<path d="M43.7558 71.8872C43.5215 71.7795 43.2892 71.6718 43.0548 71.5641C42.9872 71.5325 42.8922 71.524 42.8267 71.5641C42.8035 71.5789 42.7803 71.5979 42.7803 71.6275C42.7803 71.6549 42.8056 71.6803 42.8267 71.6908C43.0611 71.7985 43.2934 71.9062 43.5278 72.0139C43.5954 72.0456 43.6904 72.054 43.7558 72.0139C43.7791 71.9991 43.8023 71.9801 43.8023 71.9505C43.8044 71.9231 43.7791 71.8978 43.7558 71.8872Z" fill="#404082"/>
<path d="M84.993 170.071C84.1293 170.27 83.2446 170.379 82.3598 170.403C82.2732 170.405 82.1888 170.407 82.1022 170.405C81.965 170.407 81.8298 170.405 81.701 170.394C81.6018 170.388 81.5046 170.377 81.4117 170.363C80.774 170.259 80.5903 170.054 80.4192 169.438C80.4171 169.429 80.415 169.423 80.4129 169.414C80.4045 169.389 80.3981 169.359 80.3918 169.334C80.377 169.279 80.3623 169.226 80.3454 169.172C79.9589 167.767 79.5704 166.365 79.1776 164.963C76.7408 156.289 73.5966 147.756 71.3034 138.961C70.4841 135.819 69.6944 132.615 69.7936 129.37C69.8633 127.043 71.6687 124.536 74.2132 124.604C76.2192 124.657 77.9698 126.131 78.9221 127.896C79.8766 129.661 80.1827 131.695 80.4741 133.68C81.7157 142.137 83.3375 150.646 84.2497 159.116C84.3975 160.497 84.5348 161.897 84.7755 163.272C85.0015 164.562 85.3203 165.829 85.8292 167.032C86.015 167.474 86.224 167.907 86.4648 168.329C87.056 169.368 85.8398 169.879 84.993 170.071Z" fill="#F7967C"/>
<path d="M93.9478 172.069C93.933 172.09 93.9182 172.109 93.9013 172.128L79.2067 172.483C79.1919 172.378 79.1771 172.274 79.1665 172.171C79.1412 171.934 79.1306 171.698 79.1306 171.461C79.1348 170.562 79.3333 169.675 79.7746 168.866C79.8697 168.693 79.9964 168.507 80.197 168.461C80.4166 168.41 80.6278 168.543 80.8241 168.651C81.5611 169.06 82.6338 169.263 83.4362 168.942C83.962 168.733 84.4076 168.372 84.7686 167.954C84.9249 167.772 85.0769 167.576 85.2839 167.443C85.5098 167.297 85.7738 167.274 86.0335 167.327C86.7662 167.474 87.4251 168.068 88.0818 168.408C88.8335 168.796 89.6169 169.13 90.4235 169.402C91.1034 169.632 91.7982 169.823 92.4507 170.118C92.8561 170.304 93.5339 170.659 93.876 171.106C94.0956 171.391 94.1737 171.721 93.9478 172.069Z" fill="#272443"/>
<path d="M93.9478 172.069C93.933 172.09 93.9182 172.109 93.9013 172.128L79.2067 172.482C79.1919 172.377 79.1771 172.273 79.1665 172.17C79.1412 171.933 79.1306 171.697 79.1306 171.46L93.8717 171.104C94.0956 171.391 94.1737 171.72 93.9478 172.069Z" fill="#D9E3F9"/>
<path d="M90.5744 169.941C90.5026 169.783 90.2851 169.739 90.1352 169.682C89.2821 169.363 88.4543 168.978 87.6625 168.539C87.2148 168.29 86.7777 168.022 86.3533 167.737C86.2857 167.693 86.1928 167.682 86.1168 167.709C86.0703 167.726 85.988 167.79 86.0577 167.836C86.8622 168.379 87.7089 168.86 88.5937 169.272C89.0266 169.475 89.4679 169.658 89.9156 169.827C90.0043 169.861 90.15 169.886 90.2175 169.958C90.2978 170.045 90.2218 170.176 90.1732 170.258C90.093 170.395 89.6368 170.898 89.7593 171.067C89.9472 171.331 90.2408 170.809 90.2872 170.702C90.3294 170.602 90.3802 170.505 90.4372 170.414C90.5153 170.277 90.6483 170.104 90.5744 169.941Z" fill="#CB9018"/>
<path d="M81.918 171.161C81.692 170.191 81.181 169.241 80.254 168.736C80.1865 168.7 80.0745 168.703 80.009 168.743C79.9478 168.781 79.9478 168.838 80.0112 168.872C80.8769 169.345 81.3605 170.263 81.5717 171.169C81.6033 171.298 81.9454 171.275 81.918 171.161Z" fill="#CB9018"/>
<path d="M87.5424 167.798C87.5002 167.787 87.4516 167.783 87.4094 167.792C87.3735 167.798 87.3312 167.808 87.308 167.836C87.1285 168.028 86.9491 168.22 86.7696 168.412C86.7189 168.467 86.7759 168.52 86.835 168.535C86.8772 168.545 86.9258 168.55 86.9681 168.541C87.004 168.535 87.0441 168.524 87.0694 168.497C87.2489 168.305 87.4284 168.113 87.6058 167.92C87.6586 167.866 87.6016 167.813 87.5424 167.798Z" fill="#D9E3F9"/>
<path d="M88.3226 168.233C88.2508 168.214 88.1431 168.217 88.0861 168.272C87.9129 168.44 87.7525 168.62 87.6068 168.808C87.5899 168.831 87.5772 168.85 87.592 168.88C87.6067 168.907 87.6448 168.924 87.6723 168.932C87.7145 168.943 87.7609 168.947 87.8053 168.939C87.8391 168.932 87.8855 168.922 87.9066 168.894C88.0544 168.704 88.2128 168.525 88.3859 168.358C88.443 168.303 88.3796 168.248 88.3226 168.233Z" fill="#D9E3F9"/>
<path d="M89.2523 168.674C89.2397 168.647 89.1995 168.63 89.1721 168.621C89.1299 168.611 89.0813 168.606 89.039 168.615C89.0052 168.621 88.9588 168.632 88.9377 168.659C88.811 168.826 88.6822 168.993 88.5555 169.158C88.5386 169.181 88.5259 169.2 88.5407 169.229C88.5555 169.257 88.5935 169.274 88.6209 169.282C88.6632 169.293 88.7118 169.297 88.754 169.288C88.7878 169.282 88.8342 169.272 88.8554 169.244C88.9821 169.077 89.1087 168.91 89.2354 168.746C89.2544 168.723 89.2671 168.704 89.2523 168.674Z" fill="#D9E3F9"/>
<path d="M90.1535 168.964C90.0796 168.945 89.9761 168.95 89.917 169.002C89.727 169.18 89.5622 169.385 89.4313 169.608C89.4165 169.634 89.4313 169.661 89.4503 169.678C89.4757 169.701 89.52 169.714 89.5538 169.718C89.6235 169.725 89.7249 169.716 89.765 169.649C89.7967 169.596 89.8283 169.545 89.8621 169.494C89.879 169.469 89.898 169.446 89.9149 169.421C89.9149 169.421 89.9212 169.412 89.9233 169.408C89.9254 169.404 89.9339 169.393 89.9339 169.393C89.9423 169.38 89.9529 169.37 89.9613 169.357C90.0395 169.262 90.1239 169.171 90.2147 169.085C90.276 169.036 90.2084 168.979 90.1535 168.964Z" fill="#D9E3F9"/>
<path d="M68.4615 130.632C70.1951 138.135 71.9076 145.625 73.6244 153.125C74.4775 156.846 75.0687 160.968 76.6883 164.439C77.1529 165.436 81.4141 164.384 82.3517 164.279C83.8762 164.107 85.4114 163.934 86.8832 163.501C87.1281 163.43 87.3836 163.343 87.5568 163.151C88.5936 162 86.7861 158.06 86.5707 156.666C85.025 146.691 83.2343 136.642 81.2747 126.692C80.8334 124.449 80.3562 122.173 79.254 120.173C78.1517 118.174 76.3104 116.455 74.0615 116.056C67.5852 114.907 66.5927 122.547 67.6232 126.985C67.8998 128.204 68.1806 129.418 68.4615 130.632Z" fill="#E6EEFC"/>
<path d="M27.6485 69.8541C27.7266 69.8815 27.8048 69.9132 27.8808 69.947C28.2588 70.1096 28.605 70.3355 28.9492 70.5614C29.7474 71.0809 30.6765 71.6067 31.2973 72.3373C31.8273 72.9602 32.2729 73.6718 32.6635 74.3877C33.4913 75.8996 34.0699 77.5403 34.5176 79.2022C35.2672 81.9874 35.6367 84.8486 36.0484 87.6972C36.7875 92.7988 37.2289 97.9427 37.3725 103.095C37.4464 105.716 37.4401 108.34 37.3577 110.961C37.2775 113.543 36.2048 114.295 33.58 114.523C31.99 114.662 30.4021 114.8 28.812 114.939C24.8612 115.283 20.9125 115.627 16.9595 115.953C16.3767 116.001 15.7517 116.039 15.247 115.744C14.225 115.148 14.1088 113.275 13.8618 112.247C13.4796 110.653 13.2072 109.033 13.0277 107.403C12.6772 104.221 12.6856 101.002 12.939 97.8139C13.3761 92.2942 14.5333 86.8589 15.7855 81.4658C16.4781 78.48 17.0609 75.3632 18.5813 72.6604C19.1556 71.6405 19.9094 70.5762 20.904 69.9237C21.5227 69.5162 22.6123 69.5373 23.3471 69.4909C24.2488 69.4338 25.1568 69.4486 26.0584 69.5373C26.5969 69.5901 27.1396 69.6704 27.6485 69.8541Z" fill="#E6EEFC"/>
<path d="M39.1721 128.813C38.9377 130.448 38.395 131.501 36.8789 132.188C35.2044 132.944 33.3567 133.206 31.5365 133.459C30.4385 133.613 29.3404 133.765 28.2403 133.917C23.8523 134.527 20.0071 133.995 17.4373 129.977C15.8873 127.557 15.256 124.673 14.7809 121.837C14.4071 119.619 12.8593 115.202 15.0913 113.601C15.7902 113.101 16.6475 112.877 17.4922 112.719C21.9582 111.88 26.5784 112.567 31.0931 112.035C32.9344 111.819 36.7248 110.225 37.6855 112.537C38.6062 114.754 38.8047 117.936 39.1151 120.325C39.4762 123.142 39.5733 125.999 39.1721 128.813Z" fill="#8FC2FF"/>
<path d="M73.2126 115.211C74.3571 115.487 75.4931 115.912 76.2702 116.782C77.193 117.814 77.4359 119.276 77.533 120.657C77.7885 124.257 75.3284 126.991 71.9646 128.123C69.9143 128.812 67.7161 128.875 65.558 129.012C54.1025 129.734 42.8772 132.682 31.4259 133.447C29.2721 133.59 26.8248 133.546 25.3424 131.977C23.9762 130.531 23.9361 128.322 23.9783 126.333C24.0037 125.076 24.3119 123.873 24.39 122.644C24.4724 121.337 24.2781 120.408 25.3276 119.362C26.2335 118.461 27.4836 118.004 28.7062 117.633C35.0283 115.709 41.6989 115.323 48.2956 114.962C52.6814 114.721 57.0693 114.487 61.4615 114.389C65.2265 114.305 69.0274 114.324 72.7143 115.099C72.879 115.133 73.0458 115.171 73.2126 115.211Z" fill="#8FC2FF"/>
<path d="M50.541 117.103C50.9865 117.12 51.43 117.073 51.8101 116.852C52.6442 116.364 53.4086 114.62 52.8828 113.707C52.6801 113.355 52.338 113.11 51.998 112.886C49.6267 111.332 46.9069 110.415 44.2801 109.347C39.7021 107.484 35.348 105.128 30.9664 102.841C29.6804 102.17 27.6258 100.911 26.1793 101.654C25.6979 101.901 25.2903 102.271 24.792 102.457C24.3063 102.638 23.8376 102.792 23.3857 103.056C22.5453 103.551 21.821 104.247 21.31 105.079C21.0376 105.525 20.818 106.023 20.8116 106.545C20.8032 107.286 21.2192 107.966 21.69 108.54C23.732 111.017 26.9163 112.21 29.9908 113.129C36.4671 115.063 43.1504 116.246 49.8632 117.044C50.087 117.069 50.3129 117.094 50.541 117.103Z" fill="#F7967C"/>
<path d="M34.7556 105.538C33.968 107.081 33.3577 108.705 32.7813 110.335C32.4624 111.237 32.0507 113.957 30.8344 114.119C30.6295 114.147 30.4247 114.092 30.2262 114.035C27.8063 113.344 25.3991 112.415 23.4606 110.811C20.8464 108.644 19.2754 105.143 20.7936 101.891C21.2983 100.81 22.145 99.8492 23.2536 99.4057C24.0265 99.0953 24.8796 99.0468 25.7095 99.0953C26.6534 99.1481 27.6015 99.3234 28.4482 99.7436C29.3098 100.172 30.0277 100.837 30.7879 101.427C31.7719 102.187 32.8362 102.841 33.9891 103.302C35.0745 103.732 35.2962 104.478 34.7556 105.538Z" fill="#E6EEFC"/>
<path d="M51.6854 112.107C50.9062 112.495 50.5578 113.036 50.2854 113.967C50.1693 114.364 50.07 114.763 49.9877 115.162C49.8251 115.948 49.766 116.408 50.4649 116.966C51.6918 117.945 53.4127 118.579 54.8739 119.236C56.2401 119.85 57.6443 120.629 59.2513 120.6C59.5068 120.595 59.7708 120.566 60.0094 120.448C60.0833 120.41 60.1572 120.361 60.2015 120.291C60.2881 120.154 60.2311 119.979 60.1171 119.888C60.003 119.795 59.851 119.768 59.7032 119.736C59.4498 119.683 56.8441 118.695 56.8863 118.625C56.9137 118.581 56.9412 118.534 56.9666 118.488C56.9265 118.56 60.0326 119.396 60.2712 119.457C60.7189 119.569 61.1919 119.683 61.6649 119.559C61.9647 119.48 62.2941 119.221 62.2561 118.927C62.2266 118.703 62.0027 118.585 61.8 118.501C60.9744 118.161 60.1023 117.977 59.2619 117.677C58.6981 117.477 58.1364 117.278 57.5726 117.077C57.5937 117.02 57.6148 116.966 57.6359 116.909C57.6423 116.892 59.5237 117.468 59.7053 117.527C60.5141 117.795 61.3735 117.952 62.2498 117.992C62.423 117.998 62.6003 118.002 62.7693 117.943C62.9382 117.884 63.1029 117.751 63.1493 117.578C63.1916 117.424 63.1346 117.267 63.0353 117.16C62.9361 117.052 62.8009 116.982 62.6658 116.923C62.0513 116.649 61.3714 116.52 60.7316 116.298C59.8764 116.003 59.0211 115.711 58.1617 115.422C58.1765 115.373 58.1934 115.327 58.2082 115.28C58.8881 115.458 59.5871 115.593 60.2523 115.76C60.8245 115.903 61.4284 116.138 62.0239 116.195C62.3448 116.226 62.5602 116.155 62.7883 115.895C62.8939 115.775 63.0205 115.397 62.8411 115.304C61.9141 114.82 60.9491 114.398 59.9566 114.037C59.604 114.117 58.7888 113.648 58.4235 113.553C57.8196 113.397 57.1841 113.317 56.5717 113.203C56.4534 113.179 56.3098 113.131 56.2972 113.013C56.2824 112.871 56.4619 112.801 56.6033 112.778C57.5346 112.632 58.8881 112.692 59.6082 112.031C60.2522 111.439 57.921 111.423 57.5873 111.418C56.8652 111.41 56.143 111.444 55.4208 111.458C54.3059 111.48 53.1509 111.539 52.0951 111.934C51.9473 111.986 51.81 112.045 51.6854 112.107Z" fill="#F7967C"/>
<path d="M19.1425 100.164C18.6441 96.5571 18.2556 92.9314 17.8354 89.3501C17.4448 86.0222 17.0161 82.65 17.3581 79.2988C17.5756 77.183 18.2577 72.0602 20.8423 71.5471C21.5666 71.4035 22.3225 71.5619 23.0088 71.8406C24.7509 72.548 25.6568 74.0726 26.2016 75.8062C27.1624 78.8702 27.2109 82.1326 27.3714 85.3381C27.6417 90.7586 28.2456 96.1622 29.1832 101.509C29.5569 103.644 29.9856 105.823 29.6182 107.958C29.3246 109.66 28.4251 109.581 26.9512 109.774C25.623 109.947 22.8188 110.92 21.7735 109.829C21.2879 109.32 21.0915 108.606 20.9205 107.922C20.2912 105.346 19.7042 102.759 19.1425 100.164Z" fill="#E6EEFC"/>
<path d="M34.5709 104.634C33.4729 103.848 32.377 103.063 31.2789 102.275C30.7911 101.924 30.2442 101.591 29.8873 101.095C29.5642 100.643 29.4144 100.094 29.3405 99.5509C29.2602 98.9702 29.2497 98.379 29.2222 97.7941C29.1905 97.1268 29.1588 96.4595 29.1272 95.7923C29.0638 94.4472 28.9983 93.1021 28.935 91.757L28.5486 83.6843C28.4895 82.4321 28.4451 81.1778 28.3543 79.9256C28.272 78.7727 28.1347 77.6197 27.839 76.5006C27.3259 74.5621 26.1688 72.3323 24.0719 71.7727C23.8397 71.7114 23.6053 71.6755 23.3667 71.6587C23.316 71.6544 23.2041 71.6798 23.2041 71.7473C23.2041 71.8191 23.316 71.8339 23.3667 71.836C24.3866 71.9036 25.2714 72.5265 25.9238 73.2783C26.6397 74.1039 27.1084 75.1301 27.4209 76.1691C27.7567 77.2861 27.913 78.4496 28.008 79.611C28.1073 80.8336 28.1495 82.0626 28.2065 83.2894L28.5866 91.2312C28.6499 92.5552 28.7132 93.8791 28.7766 95.2031C28.8378 96.4912 28.8674 97.7856 28.9688 99.0716C29.0089 99.5889 29.0849 100.113 29.2813 100.596C29.4946 101.12 29.8599 101.521 30.3033 101.861C31.3401 102.655 32.4276 103.39 33.4898 104.15C33.7579 104.342 34.0239 104.532 34.2921 104.724C34.3534 104.769 34.44 104.781 34.5139 104.756C34.5561 104.739 34.6364 104.68 34.5709 104.634Z" fill="#A9CCFF"/>
<path d="M25.0117 111.935C23.5188 111.443 22.3426 110.282 21.5402 108.96C20.5879 107.393 20.1297 105.588 19.7073 103.82C19.2533 101.918 18.7993 100.015 18.396 98.0998C17.9885 96.174 17.6337 94.2376 17.3824 92.2844C17.1332 90.3396 16.9897 88.38 17.0087 86.4183C17.0108 86.1734 17.0171 85.9284 17.0235 85.6856C17.0277 85.5653 16.7046 85.561 16.7004 85.6856C16.6412 87.6726 16.7511 89.6618 16.9791 91.6361C17.2072 93.6168 17.5534 95.5827 17.9547 97.5339C18.358 99.4913 18.8162 101.434 19.2787 103.379C19.7073 105.182 20.1296 107.028 21.0313 108.666C21.7767 110.022 22.8832 111.249 24.3169 111.882C24.4901 111.958 24.6675 112.028 24.8491 112.087C24.9103 112.108 25.0244 112.11 25.0708 112.055C25.1173 112.001 25.0708 111.954 25.0117 111.935Z" fill="#A9CCFF"/>
<path d="M17.5905 72.2982C11.925 87.354 10.4363 103.983 12.2565 119.9C12.5838 122.759 12.9956 125.646 14.1148 128.298C15.2339 130.948 17.1513 133.37 19.7802 134.536C21.0789 135.11 22.4958 135.361 23.9021 135.562C27.116 136.022 30.3615 136.261 33.6071 136.274C37.1989 136.288 40.7633 136.103 44.3425 136.113C48.1434 136.122 51.9337 136.481 55.7135 136.835C55.9543 136.859 56.2034 136.882 56.4188 136.994C56.6827 137.129 56.8664 137.376 57.0375 137.617C62.1961 144.821 65.2158 153.336 69.9648 160.817C74.7835 158.674 79.7057 156.67 84.6046 154.666C85.1769 154.431 85.7575 154.216 86.3382 154.005C87.7994 153.477 89.2628 152.903 90.7409 152.428C92.3352 151.917 92.0459 151.583 91.4399 150.058C90.2194 146.999 89.1171 143.894 88.0529 140.778C85.9434 134.606 83.9795 128.378 81.5427 122.324C80.8945 120.713 80.204 119.1 79.2031 117.679C75.8604 112.936 69.2151 112.748 63.972 111.726C58.7078 110.7 53.1754 109.266 49.4758 105.383C48.1962 104.04 47.1974 102.458 46.2641 100.856C41.2595 92.2529 38.2336 82.681 33.4424 74.0044C32.7899 72.824 32.1163 71.6161 31.0921 70.7398C29.0333 68.983 26.0601 68.9386 23.3531 68.983C20.6206 69.0273 18.6104 69.589 17.5905 72.2982Z" fill="#FFC858"/>
<path d="M72.4171 152.209C71.6295 149.377 70.7891 146.56 69.9001 143.76C69.009 140.96 68.0672 138.175 67.0768 135.409C66.5151 133.844 65.9387 132.286 65.3454 130.734C65.3052 130.626 64.9843 130.654 65.0328 130.78C66.0823 133.525 67.0811 136.289 68.0292 139.073C68.9773 141.854 69.8747 144.654 70.7215 147.468C71.2008 149.061 71.6612 150.657 72.1067 152.257C72.1363 152.363 72.4552 152.344 72.4171 152.209Z" fill="#CB9018"/>
<path d="M85.5624 148.33C84.7156 146.297 83.8498 144.272 82.9629 142.255C82.0739 140.23 81.166 138.213 80.2369 136.205C79.7153 135.078 79.1873 133.952 78.6552 132.831C78.6045 132.725 78.2857 132.759 78.3427 132.877C79.2887 134.867 80.2157 136.866 81.1216 138.872C82.0317 140.887 82.9249 142.912 83.797 144.943C84.2869 146.086 84.7705 147.23 85.2477 148.377C85.2941 148.482 85.6151 148.455 85.5624 148.33Z" fill="#CB9018"/>
<path d="M43.6276 114.229C42.5295 112.297 41.5877 110.28 40.7663 108.217C39.9428 106.152 39.2354 104.04 38.5892 101.914C37.9388 99.7729 37.3518 97.6127 36.769 95.4525C36.1841 93.2881 35.6055 91.1216 34.9763 88.9678C34.3512 86.8308 33.6734 84.7086 32.89 82.6224C32.7908 82.3584 32.6894 82.0945 32.5881 81.8305C32.5458 81.7228 32.227 81.7503 32.2755 81.877C33.0885 83.959 33.7874 86.0833 34.4293 88.2245C35.0734 90.372 35.6583 92.5364 36.2411 94.7008C36.8239 96.8631 37.4047 99.0254 38.0402 101.173C38.6716 103.306 39.36 105.426 40.156 107.503C40.9479 109.567 41.8474 111.589 42.9032 113.532C43.0384 113.779 43.1757 114.026 43.315 114.271C43.372 114.377 43.6909 114.341 43.6276 114.229Z" fill="#CB9018"/>
<path d="M20.7331 113.469C20.1144 110.616 19.6394 107.734 19.31 104.835C18.9827 101.952 18.7968 99.0553 18.7546 96.154C18.7314 94.5112 18.7546 92.8683 18.8221 91.2276C18.8264 91.1072 18.5033 91.103 18.4991 91.2276C18.3766 94.1437 18.3998 97.0641 18.5688 99.9781C18.7377 102.873 19.0481 105.762 19.5021 108.627C19.7597 110.249 20.0617 111.864 20.4101 113.469C20.4354 113.596 20.7564 113.579 20.7331 113.469Z" fill="#CB9018"/>
<path d="M19.506 165.247H8.32503C7.31356 165.247 6.49219 164.423 6.49219 163.414C6.49219 162.403 7.31568 161.581 8.32503 161.581H18.5346C18.7479 161.581 18.9528 161.49 19.0964 161.332L32.0236 146.969L32.826 147.691L19.8988 162.054C19.5525 162.441 19.0541 162.66 18.5346 162.66H8.32503C7.90904 162.66 7.56907 162.998 7.56907 163.414C7.56907 163.83 7.90693 164.17 8.32503 164.17H19.506C19.7256 164.17 19.9326 164.075 20.0761 163.91L34.2345 147.592L35.0496 148.299L20.8913 164.618C20.5429 165.017 20.0382 165.247 19.506 165.247Z" fill="#404082"/>
<path d="M53.6295 188.009L48.891 185.181C41.4581 180.745 36.9055 172.727 36.9055 164.069V136.289H26.6051V164.069C26.6051 172.727 22.0525 180.745 14.6196 185.181L9.88108 188.009C8.94775 188.566 9.34264 190 10.4301 190H53.0805C54.17 190 54.5649 188.566 53.6295 188.009Z" fill="#272443"/>
<path d="M75.1553 174.176C74.8744 174.176 74.6147 174.03 74.4669 173.791L52.5589 138.223C52.3245 137.843 52.4427 137.345 52.8228 137.111C53.2029 136.876 53.7013 136.995 53.9357 137.375L75.5945 172.539L99.9688 171.557C100.419 171.543 100.792 171.887 100.809 172.332C100.826 172.778 100.48 173.156 100.034 173.173L75.1869 174.174C75.1764 174.174 75.1658 174.176 75.1553 174.176Z" fill="#272443"/>
<path d="M18.1406 139.469H9.29712L0.0398697 84.2354C-0.251533 82.4913 1.09143 80.9033 2.85885 80.9033H6.83501C8.24979 80.9033 9.45127 81.938 9.66243 83.3359L18.1406 139.469Z" fill="#42264F"/>
<path d="M48.6646 132.998H9.29785V139.47H55.1346C55.1346 135.895 52.2375 132.998 48.6646 132.998Z" fill="#42264F"/>
<path d="M18.1383 137.582C17.9166 137.582 17.6885 137.527 17.4816 137.411C16.8312 137.048 16.601 136.227 16.9642 135.576L18.1848 133.395C21.7787 126.973 27.9594 122.379 35.141 120.789L41.3597 119.41C41.3724 119.408 41.3808 119.395 41.3808 119.382C41.3808 119.367 41.3681 119.355 41.3533 119.355H12.154C11.4086 119.355 10.8047 118.751 10.8047 118.008C10.8047 117.264 11.4086 116.658 12.154 116.658H41.3533C42.8547 116.658 44.0773 117.881 44.0773 119.382C44.0773 120.67 43.1989 121.764 41.9425 122.041L35.7238 123.42C29.2897 124.845 23.7531 128.96 20.535 134.71L19.3145 136.892C19.0695 137.333 18.6113 137.582 18.1383 137.582Z" fill="#272443"/>
<path d="M34.9277 145.524V164.579C34.9277 164.784 35.4662 164.784 35.4662 164.579V145.524C35.4662 145.321 34.9277 145.319 34.9277 145.524Z" fill="#404082"/>
<path d="M46.8485 185.506C45.571 184.718 44.3842 183.791 43.3073 182.748C42.2241 181.698 41.2506 180.533 40.4165 179.276C39.9477 178.569 39.5212 177.832 39.1411 177.074C39.0545 176.901 38.5224 176.958 38.6217 177.152C39.3079 178.523 40.1441 179.813 41.1091 181.004C42.0678 182.188 43.1553 183.269 44.3441 184.22C45.0198 184.76 45.7315 185.261 46.4684 185.715C46.5719 185.778 46.745 185.776 46.8506 185.715C46.9478 185.658 46.9456 185.565 46.8485 185.506Z" fill="#404082"/>
<path d="M56.3558 73.4653C55.9144 73.3998 55.4879 73.2731 55.1564 72.9838C54.4258 72.3503 53.9971 70.4963 54.6834 69.696C54.9473 69.3877 55.3295 69.2082 55.7033 69.052C58.3217 67.9603 61.1639 67.5633 63.9407 66.9974C68.7826 66.0113 73.4978 64.4972 78.2257 63.0571C79.613 62.6348 81.864 61.7775 83.1479 62.7742C83.5744 63.1057 83.9081 63.5449 84.3642 63.8173C84.8076 64.0855 85.2405 64.322 85.6354 64.6662C86.3702 65.306 86.953 66.1253 87.3014 67.0375C87.4872 67.5253 87.6097 68.0553 87.5189 68.5705C87.3901 69.3012 86.858 69.8924 86.2878 70.3696C83.8236 72.4284 80.4746 73.0134 77.2818 73.3491C70.5585 74.0565 63.7739 73.9868 57.0294 73.5328C56.8076 73.518 56.5796 73.499 56.3558 73.4653Z" fill="#F7967C"/>
<path d="M74.0019 65.0048C74.4918 66.6666 74.7916 68.3749 75.0577 70.0832C75.2055 71.0271 75.1084 73.7765 76.274 74.1629C76.4704 74.2283 76.6815 74.2114 76.8863 74.1924C79.3928 73.9581 81.9289 73.4914 84.1292 72.2688C87.0981 70.6217 89.2879 67.4712 88.3946 63.9934C88.0969 62.8362 87.4423 61.7381 86.4351 61.0962C85.734 60.6486 84.9041 60.4458 84.0785 60.3381C83.1409 60.2157 82.1759 60.2136 81.268 60.4712C80.341 60.7351 79.5153 61.2546 78.658 61.6938C77.5515 62.2597 76.3859 62.7074 75.1654 62.9481C74.023 63.1698 73.6661 63.8645 74.0019 65.0048Z" fill="#E6EEFC"/>
<path d="M48.408 74.4363C48.7142 74.3793 49.012 74.2843 49.2949 74.1555C49.447 74.0858 49.6497 74.014 49.751 73.8704C49.8271 73.7627 49.8671 73.6888 49.6813 73.7331C48.8493 73.9253 48.0069 74.128 47.1474 74.1343C46.7314 74.1386 46.3366 74.0182 45.929 74.0055C45.5933 73.995 45.285 73.9696 44.9725 73.8218C44.6916 73.6888 44.4171 73.3742 44.5079 73.0933C44.6367 72.6921 45.2702 72.8632 45.5806 72.8737C46.0916 72.8885 46.6027 72.9054 47.1137 72.9202C47.7978 72.9413 48.5305 72.9497 49.1028 72.5717C49.2084 72.5021 49.3055 72.4239 49.3752 72.3163C49.3857 72.3015 49.4786 72.084 49.4575 72.0903C48.5664 72.3057 47.6542 72.4683 46.7356 72.4746C46.2753 72.4788 45.815 72.4408 45.3631 72.3479C45.0084 72.2761 44.5016 72.2107 44.1869 72.0312C44.0307 71.9425 43.8956 71.7799 43.8808 71.6025C43.8322 70.9986 44.6346 71.1464 44.9915 71.1696C45.5954 71.2076 46.1972 71.309 46.8053 71.2816C47.1896 71.2647 47.5697 71.195 47.9372 71.0767C48.2539 70.9754 48.974 70.8191 49.0965 70.4601C48.5158 70.5045 47.9477 70.6396 47.3586 70.6586C46.7842 70.6755 46.2098 70.646 45.6418 70.5657C45.3019 70.5172 44.8542 70.4728 44.643 70.1793C44.5544 70.0568 44.3728 69.7527 44.4741 69.6113C44.5903 69.4466 44.9725 69.5015 45.1351 69.5184C46.9342 69.7105 48.8071 69.7337 50.4922 69.0686C50.7202 68.9799 51.8965 68.338 51.1996 68.0909C50.3106 67.7763 48.9697 67.5862 48.3827 66.8007C47.859 66.0997 50.1523 66.5135 50.4817 66.5706C51.1933 66.6951 51.8964 66.862 52.6038 67.0098C53.6955 67.2357 54.821 67.506 55.786 68.0888C55.9212 68.1711 56.0436 68.2535 56.1555 68.338C56.8503 68.8638 57.0931 69.4592 57.1882 70.4242C57.2283 70.836 57.2536 71.2457 57.2599 71.6553C57.2747 72.4577 57.2494 72.9202 56.4596 73.3404C55.0744 74.0773 53.2648 74.3835 51.7085 74.7594C50.2515 75.112 48.729 75.6188 47.1559 75.2915C46.9067 75.2408 46.6512 75.1627 46.4379 75.0001C46.3725 74.9494 46.3091 74.8882 46.2774 74.8122C46.2035 74.6242 46.3577 74.43 46.5372 74.3835C46.723 74.3349 47.0376 74.4511 47.2319 74.4743C47.5149 74.5081 47.802 74.5102 48.0871 74.4828C48.1927 74.4722 48.3003 74.4553 48.408 74.4363Z" fill="#F7967C"/>
<path d="M90.3405 62.5982C91.4956 59.1457 92.5451 55.6531 93.6178 52.2091C94.6145 49.01 95.6576 45.775 95.9384 42.4175C96.1158 40.2974 96.3882 35.1367 93.9429 34.1569C93.2567 33.8824 92.4838 33.8972 91.7595 34.045C89.9182 34.4208 88.7442 35.7512 87.8911 37.3539C86.3834 40.1876 85.7331 43.3846 84.9855 46.5077C83.7207 51.7846 82.1306 56.9855 80.2238 62.0661C79.4637 64.0932 78.6401 66.1583 78.6084 68.3249C78.5831 70.0522 79.4805 70.1409 80.8953 70.5991C82.1686 71.013 84.7469 72.489 85.9737 71.6063C86.546 71.1945 86.8691 70.5294 87.1647 69.8896C88.2564 67.4781 89.3101 65.0434 90.3405 62.5982Z" fill="#E6EEFC"/>
<path d="M79.2479 61.3553C79.1804 61.313 79.0875 61.3257 79.0199 61.3553C78.1921 61.71 77.3644 62.0648 76.5345 62.4195C76.1354 62.5905 75.7384 62.7489 75.3224 62.8714C74.9592 62.9791 74.5855 63.091 74.2856 63.3317C73.99 63.5682 73.7704 63.9399 73.838 64.3263C73.8612 64.453 74.1822 64.4382 74.1611 64.3263C74.0787 63.8681 74.4081 63.4753 74.7945 63.2747C75.2422 63.0424 75.7617 62.9601 76.2284 62.77C77.2419 62.3583 78.2407 61.9106 79.2458 61.4819C79.3134 61.4524 79.2986 61.3869 79.2479 61.3553Z" fill="#A9CCFF"/>
<path d="M96.2548 45.3187C95.4292 48.1018 94.6015 50.887 93.7758 53.6702C92.9671 56.392 92.171 59.1202 91.3496 61.8379C90.6802 64.0508 89.9348 66.2934 88.6383 68.2297C87.99 69.1968 87.2003 70.0626 86.2711 70.7679C85.3251 71.4837 84.2545 72.0285 83.1481 72.4529C82.9116 72.5437 82.673 72.6303 82.4323 72.7106C82.6772 72.0834 82.4048 71.3739 81.9994 70.8713C81.4968 70.2505 80.8 69.8197 80.2911 69.201C79.7801 68.5802 79.3958 67.8665 78.8552 67.2668C78.5701 66.9501 78.2407 66.6798 77.9239 66.3968C77.6135 66.1202 77.3243 65.8246 77.0646 65.5015C76.4796 64.7709 76.0341 63.941 75.5928 63.1196C75.5379 63.0161 75.219 63.052 75.2802 63.1661C75.6645 63.8798 76.051 64.5956 76.5261 65.2523C76.7562 65.5691 77.0075 65.8731 77.2842 66.1519C77.5861 66.4538 77.9198 66.7199 78.2323 67.0113C78.8257 67.5667 79.2374 68.255 79.7125 68.9054C79.9384 69.2158 80.1834 69.5115 80.4622 69.7754C80.7536 70.0499 81.0681 70.297 81.3553 70.5736C81.9276 71.1226 82.4724 71.9905 82.0585 72.7887C82.05 72.8056 82.0501 72.8182 82.0543 72.833C81.2793 73.0822 80.4917 73.2891 79.7019 73.4771C79.1403 73.6101 78.5764 73.7474 78.0084 73.8466C77.5143 73.9332 76.9737 73.9923 76.4881 73.8276C76.2516 73.7474 76.051 73.608 75.8884 73.42C75.8166 73.3356 75.5062 73.3905 75.6097 73.5108C76.3318 74.3449 77.6199 74.1295 78.568 73.9226C79.759 73.665 80.9499 73.3884 82.1134 73.021C84.4066 72.2988 86.59 71.1838 88.1631 69.3193C89.6919 67.5054 90.583 65.2608 91.3031 63.0267C91.7085 61.7682 92.0718 60.497 92.4476 59.23C92.8721 57.8005 93.2944 56.373 93.7188 54.9456C94.5635 52.097 95.4102 49.2505 96.2548 46.402C96.3583 46.0557 96.4597 45.7094 96.5632 45.3652C96.6054 45.2321 96.2865 45.2089 96.2548 45.3187Z" fill="#A9CCFF"/>
<path d="M85.4671 63.3274C84.973 62.5566 84.4198 61.8028 83.7018 61.2263C83.0092 60.6689 82.1793 60.2951 81.2861 60.2423C81.2354 60.2402 81.1235 60.2634 81.1235 60.331C81.1235 60.4028 81.2354 60.4176 81.2861 60.4197C83.0409 60.5232 84.2783 62.0076 85.1546 63.376C85.2179 63.4752 85.5347 63.433 85.4671 63.3274Z" fill="#A9CCFF"/>
<path d="M86.5779 58.6807C85.4778 58.1274 84.2002 57.7473 82.9797 58.1211C82.9206 58.138 82.8762 58.1887 82.9227 58.2436C82.9691 58.2985 83.0832 58.2942 83.1444 58.2752C84.2298 57.9416 85.3743 58.3154 86.3499 58.8052C86.4153 58.839 86.5125 58.8454 86.5779 58.8052C86.6328 58.7736 86.6413 58.7123 86.5779 58.6807Z" fill="#A9CCFF"/>
<path d="M94.8252 34.5114C94.6795 34.2918 94.4471 34.1841 94.2085 34.0933C93.9171 33.9814 93.611 33.9033 93.3027 33.8589C92.703 33.7702 92.0927 33.8104 91.5078 33.9645C90.3886 34.2601 89.4151 34.9591 88.6634 35.8248C88.2305 36.3232 87.8631 36.8743 87.5401 37.4487C87.4767 37.5606 87.7935 37.5986 87.8526 37.4951C88.8641 35.6939 90.5575 33.9223 92.7874 33.9898C93.1084 34.0004 93.4293 34.0511 93.7376 34.1419C94.0037 34.22 94.3521 34.3129 94.5126 34.5579C94.576 34.6571 94.8927 34.6149 94.8252 34.5114Z" fill="#A9CCFF"/>
</svg>
