<svg width="56" height="56" viewBox="0 0 56 56" fill="none" xmlns="http://www.w3.org/2000/svg">
<path d="M28 32C36.8178 32 44 24.8178 44 16C44 7.18222 36.8178 0 28 0C19.1822 0 12 7.18222 12 16C12 24.8178 19.1822 32 28 32Z" fill="url(#paint0_linear_3663_15873)"/>
<path d="M44.3333 15.75C43.8692 15.7499 43.4242 15.5655 43.096 15.2373C42.7679 14.9092 42.5835 14.4641 42.5833 14V6.41669H35C34.5359 6.41669 34.0908 6.23231 33.7626 5.90412C33.4344 5.57594 33.25 5.13082 33.25 4.66669C33.25 4.20256 33.4344 3.75744 33.7626 3.42925C34.0908 3.10106 34.5359 2.91669 35 2.91669H44.3333C44.7974 2.91681 45.2425 3.10122 45.5706 3.42939C45.8988 3.75755 46.0832 4.2026 46.0833 4.66669V14C46.0832 14.4641 45.8988 14.9092 45.5706 15.2373C45.2425 15.5655 44.7974 15.7499 44.3333 15.75Z" fill="#100E3B"/>
<path d="M9.33325 27.4167C8.9801 27.4164 8.63529 27.3094 8.34407 27.1096C8.05285 26.9099 7.82883 26.6267 7.70143 26.2974C7.57402 25.968 7.54918 25.6078 7.63016 25.2641C7.71114 24.9203 7.89416 24.6091 8.1552 24.3713L20.9885 12.7046C21.3013 12.4204 21.7064 12.2589 22.1289 12.2499C22.5515 12.2409 22.963 12.385 23.2877 12.6556L29.0595 17.4658L43.096 3.4294C43.4245 3.10322 43.8689 2.92055 44.3319 2.92139C44.7949 2.92223 45.2387 3.10652 45.566 3.4339C45.8934 3.76127 46.0777 4.20504 46.0785 4.66801C46.0794 5.13099 45.8967 5.57543 45.5705 5.90399L30.4039 21.0707C30.0954 21.3802 29.6821 21.5629 29.2455 21.5827C28.8089 21.6025 28.3808 21.458 28.0455 21.1778L22.2168 16.3198L10.5114 26.9621C10.189 27.255 9.76886 27.4171 9.33325 27.4167Z" fill="#100E3B"/>
<path d="M14 48.4167H9.33333C8.25077 48.4154 7.21292 47.9847 6.44743 47.2192C5.68194 46.4537 5.25132 45.4159 5.25 44.3333V37.3333C5.25132 36.2508 5.68194 35.2129 6.44743 34.4474C7.21292 33.6819 8.25077 33.2513 9.33333 33.25H14C15.0826 33.2513 16.1204 33.6819 16.8859 34.4474C17.6514 35.2129 18.082 36.2508 18.0833 37.3333V44.3333C18.082 45.4159 17.6514 46.4537 16.8859 47.2192C16.1204 47.9847 15.0826 48.4154 14 48.4167ZM9.33333 36.75C9.17871 36.7503 9.03051 36.8118 8.92118 36.9212C8.81185 37.0305 8.7503 37.1787 8.75 37.3333V44.3333C8.7503 44.488 8.81185 44.6362 8.92118 44.7455C9.03051 44.8548 9.17871 44.9164 9.33333 44.9167H14C14.1546 44.9164 14.3028 44.8548 14.4122 44.7455C14.5215 44.6362 14.583 44.488 14.5833 44.3333V37.3333C14.583 37.1787 14.5215 37.0305 14.4122 36.9212C14.3028 36.8118 14.1546 36.7503 14 36.75H9.33333Z" fill="#100E3B"/>
<path d="M30.3333 48.4167H25.6666C24.584 48.4153 23.5462 47.9847 22.7807 47.2192C22.0152 46.4537 21.5846 45.4159 21.5833 44.3333V30.3333C21.5846 29.2508 22.0152 28.2129 22.7807 27.4474C23.5462 26.6819 24.584 26.2513 25.6666 26.25H30.3333C31.4158 26.2513 32.4537 26.6819 33.2192 27.4474C33.9846 28.2129 34.4153 29.2508 34.4166 30.3333V44.3333C34.4153 45.4159 33.9846 46.4537 33.2192 47.2192C32.4537 47.9847 31.4158 48.4153 30.3333 48.4167ZM25.6666 29.75C25.512 29.7503 25.3638 29.8118 25.2544 29.9212C25.1451 30.0305 25.0835 30.1787 25.0833 30.3333V44.3333C25.0835 44.488 25.1451 44.6362 25.2544 44.7455C25.3638 44.8548 25.512 44.9164 25.6666 44.9167H30.3333C30.4879 44.9164 30.6361 44.8548 30.7454 44.7455C30.8547 44.6362 30.9163 44.488 30.9166 44.3333V30.3333C30.9163 30.1787 30.8547 30.0305 30.7454 29.9212C30.6361 29.8118 30.4879 29.7503 30.3333 29.75H25.6666Z" fill="#100E3B"/>
<path d="M49 48.4167H42C40.9174 48.4153 39.8795 47.9847 39.1141 47.2192C38.3486 46.4537 37.9179 45.4159 37.9166 44.3333V23.3333C37.9179 22.2508 38.3486 21.2129 39.1141 20.4474C39.8795 19.6819 40.9174 19.2513 42 19.25H46.6666C47.7492 19.2513 48.787 19.6819 49.5525 20.4474C50.318 21.2129 50.7486 22.2508 50.75 23.3333V38.1556C50.75 38.6197 50.5656 39.0649 50.2374 39.393C49.9092 39.7212 49.4641 39.9056 49 39.9056C48.5358 39.9056 48.0907 39.7212 47.7625 39.393C47.4343 39.0649 47.25 38.6197 47.25 38.1556V23.3333C47.2497 23.1787 47.1881 23.0305 47.0788 22.9212C46.9694 22.8118 46.8212 22.7503 46.6666 22.75H42C41.8453 22.7503 41.6971 22.8118 41.5878 22.9212C41.4785 23.0305 41.4169 23.1787 41.4166 23.3333V44.3333C41.4169 44.488 41.4785 44.6362 41.5878 44.7455C41.6971 44.8548 41.8453 44.9164 42 44.9167H49C49.4641 44.9167 49.9092 45.101 50.2374 45.4292C50.5656 45.7574 50.75 46.2025 50.75 46.6667C50.75 47.1308 50.5656 47.5759 50.2374 47.9041C49.9092 48.2323 49.4641 48.4167 49 48.4167Z" fill="#100E3B"/>
<path d="M50.1666 53.0834H5.83329C5.05996 53.0826 4.31852 52.7751 3.77169 52.2283C3.22486 51.6815 2.91734 50.94 2.91663 50.1667V47.8334C2.91734 47.06 3.22486 46.3186 3.77169 45.7717C4.31852 45.2249 5.05996 44.9174 5.83329 44.9167H50.1666C50.94 44.9174 51.6814 45.2249 52.2282 45.7717C52.7751 46.3186 53.0826 47.06 53.0833 47.8334V50.1667C53.0826 50.94 52.7751 51.6815 52.2282 52.2283C51.6814 52.7751 50.94 53.0826 50.1666 53.0834ZM6.41663 49.5834H49.5833V48.4167H6.41663V49.5834Z" fill="#100E3B"/>
<defs>
<linearGradient id="paint0_linear_3663_15873" x1="28" y1="0" x2="28" y2="32" gradientUnits="userSpaceOnUse">
<stop stop-color="#EC923E"/>
<stop offset="1" stop-color="#EC923E" stop-opacity="0"/>
</linearGradient>
</defs>
</svg>
