<svg width="56" height="56" viewBox="0 0 56 56" fill="none" xmlns="http://www.w3.org/2000/svg">
<path d="M27.6665 44C36.5198 44 43.6665 36.8533 43.6665 28C43.6665 19.1467 36.5198 12 27.6665 12C18.8132 12 11.6665 19.1467 11.6665 28C11.6665 36.8533 18.8132 44 27.6665 44Z" fill="url(#paint0_linear_3663_15905)"/>
<path d="M18.6668 22.75C17.6284 22.75 16.6134 22.4421 15.75 21.8652C14.8866 21.2883 14.2137 20.4684 13.8164 19.5091C13.419 18.5498 13.3151 17.4942 13.5176 16.4758C13.7202 15.4574 14.2202 14.5219 14.9544 13.7877C15.6887 13.0535 16.6241 12.5535 17.6425 12.3509C18.6609 12.1483 19.7165 12.2523 20.6758 12.6496C21.6351 13.047 22.4551 13.7199 23.032 14.5833C23.6088 15.4466 23.9168 16.4617 23.9168 17.5C23.9168 17.9641 23.7324 18.4093 23.4042 18.7374C23.076 19.0656 22.6309 19.25 22.1668 19.25C21.7026 19.25 21.2575 19.0656 20.9293 18.7374C20.6011 18.4093 20.4168 17.9641 20.4168 17.5C20.4168 17.1539 20.3141 16.8155 20.1218 16.5278C19.9295 16.24 19.6562 16.0157 19.3364 15.8832C19.0167 15.7508 18.6648 15.7161 18.3253 15.7836C17.9859 15.8512 17.6741 16.0178 17.4293 16.2626C17.1846 16.5073 17.0179 16.8191 16.9504 17.1586C16.8829 17.4981 16.9175 17.8499 17.05 18.1697C17.1824 18.4895 17.4067 18.7628 17.6945 18.9551C17.9823 19.1474 18.3206 19.25 18.6668 19.25C19.1309 19.25 19.576 19.4344 19.9042 19.7626C20.2324 20.0908 20.4168 20.5359 20.4168 21C20.4168 21.4641 20.2324 21.9093 19.9042 22.2374C19.576 22.5656 19.1309 22.75 18.6668 22.75Z" fill="#100E3B"/>
<path d="M18.6667 29.75C17.2748 29.7485 15.9404 29.1949 14.9561 28.2106C13.9719 27.2264 13.4183 25.8919 13.4167 24.5C13.4167 24.0359 13.6011 23.5908 13.9293 23.2626C14.2575 22.9344 14.7026 22.75 15.1667 22.75C15.6309 22.75 16.076 22.9344 16.4042 23.2626C16.7324 23.5908 16.9167 24.0359 16.9167 24.5C16.9167 24.8461 17.0194 25.1845 17.2117 25.4722C17.404 25.76 17.6773 25.9843 17.9971 26.1168C18.3168 26.2492 18.6687 26.2839 19.0082 26.2164C19.3476 26.1488 19.6594 25.9822 19.9042 25.7374C20.1489 25.4927 20.3156 25.1809 20.3831 24.8414C20.4506 24.5019 20.416 24.1501 20.2835 23.8303C20.1511 23.5105 19.9268 23.2372 19.639 23.0449C19.3512 22.8526 19.0129 22.75 18.6667 22.75C18.2026 22.75 17.7575 22.5656 17.4293 22.2374C17.1011 21.9092 16.9167 21.4641 16.9167 21C16.9167 20.5359 17.1011 20.0908 17.4293 19.7626C17.7575 19.4344 18.2026 19.25 18.6667 19.25C20.0591 19.25 21.3945 19.8031 22.3791 20.7877C23.3636 21.7723 23.9167 23.1076 23.9167 24.5C23.9167 25.8924 23.3636 27.2277 22.3791 28.2123C21.3945 29.1969 20.0591 29.75 18.6667 29.75Z" fill="#100E3B"/>
<path d="M18.6667 15.75C18.2027 15.7499 17.7576 15.5655 17.4294 15.2373C17.1013 14.9092 16.9169 14.4641 16.9167 14V11.6667C16.9167 11.2026 17.1011 10.7574 17.4293 10.4292C17.7575 10.1011 18.2026 9.91669 18.6667 9.91669C19.1309 9.91669 19.576 10.1011 19.9042 10.4292C20.2324 10.7574 20.4167 11.2026 20.4167 11.6667V14C20.4166 14.4641 20.2322 14.9092 19.904 15.2373C19.5759 15.5655 19.1308 15.7499 18.6667 15.75Z" fill="#100E3B"/>
<path d="M18.6667 32.0833C18.2027 32.0832 17.7576 31.8988 17.4294 31.5706C17.1013 31.2425 16.9169 30.7974 16.9167 30.3333V28C16.9167 27.5359 17.1011 27.0908 17.4293 26.7626C17.7575 26.4344 18.2026 26.25 18.6667 26.25C19.1309 26.25 19.576 26.4344 19.9042 26.7626C20.2324 27.0908 20.4167 27.5359 20.4167 28V30.3333C20.4166 30.7974 20.2322 31.2425 19.904 31.5706C19.5759 31.8988 19.1308 32.0832 18.6667 32.0833Z" fill="#100E3B"/>
<path d="M18.0675 52.8897C17.5024 52.8911 16.9562 52.687 16.5305 52.3155L13.1205 49.3384L10.2825 51.8107C9.94478 52.1047 9.52964 52.2953 9.08659 52.3598C8.64355 52.4243 8.19129 52.36 7.78378 52.1746C7.37627 51.9892 7.0307 51.6904 6.78831 51.314C6.54592 50.9375 6.41694 50.4993 6.41675 50.0516V7.00002C6.41806 5.91746 6.84869 4.87961 7.61418 4.11412C8.37967 3.34863 9.41752 2.918 10.5001 2.91669H45.5001C46.5826 2.918 47.6205 3.34863 48.386 4.11412C49.1515 4.87961 49.5821 5.91746 49.5834 7.00002V50.0539C49.5835 50.5015 49.4548 50.9396 49.2128 51.3161C48.9707 51.6926 48.6254 51.9915 48.2182 52.1771C47.8109 52.3628 47.3589 52.4274 46.9159 52.3633C46.473 52.2991 46.0578 52.1089 45.72 51.8153L42.866 49.3349L39.4275 52.3223C39.0016 52.6887 38.4584 52.8901 37.8966 52.8899C37.3348 52.8897 36.7917 52.6879 36.3662 52.3211L32.9368 49.3372L29.5098 52.32C29.0838 52.6871 28.5402 52.8891 27.9779 52.8891C27.4156 52.8891 26.872 52.6871 26.4461 52.32L23.0201 49.3373L19.5998 52.3189C19.1747 52.6879 18.6304 52.8907 18.0675 52.8897ZM32.9368 45.459C33.5011 45.4576 34.0466 45.6618 34.4714 46.0333L37.8985 49.0149L41.3359 46.0275C41.7615 45.6611 42.3045 45.4597 42.8662 45.4599C43.4278 45.4601 43.9707 45.6619 44.3961 46.0287L46.0834 47.495V7.00002C46.0831 6.8454 46.0216 6.6972 45.9122 6.58787C45.8029 6.47854 45.6547 6.41698 45.5001 6.41669H10.5001C10.3455 6.41698 10.1973 6.47854 10.0879 6.58787C9.9786 6.6972 9.91704 6.8454 9.91675 7.00002V47.488L11.5881 46.032C12.0134 45.6632 12.5574 45.46 13.1203 45.4598C13.6833 45.4596 14.2274 45.6623 14.6529 46.0309L18.0675 49.0113L21.4866 46.0309C21.9123 45.6631 22.4561 45.4606 23.0188 45.4603C23.5814 45.4601 24.1254 45.6622 24.5514 46.0297L27.9785 49.0124L31.4055 46.0297C31.8301 45.6605 32.3741 45.4578 32.9368 45.459Z" fill="#100E3B"/>
<path d="M16.3335 39.0834C17.3 39.0834 18.0835 38.2999 18.0835 37.3334C18.0835 36.3669 17.3 35.5834 16.3335 35.5834C15.367 35.5834 14.5835 36.3669 14.5835 37.3334C14.5835 38.2999 15.367 39.0834 16.3335 39.0834Z" fill="#100E3B"/>
<path d="M40.8334 39.0834H22.1667C21.7026 39.0834 21.2575 38.899 20.9293 38.5708C20.6011 38.2426 20.4167 37.7975 20.4167 37.3334C20.4167 36.8692 20.6011 36.4241 20.9293 36.0959C21.2575 35.7677 21.7026 35.5834 22.1667 35.5834H40.8334C41.2975 35.5834 41.7427 35.7677 42.0709 36.0959C42.399 36.4241 42.5834 36.8692 42.5834 37.3334C42.5834 37.7975 42.399 38.2426 42.0709 38.5708C41.7427 38.899 41.2975 39.0834 40.8334 39.0834Z" fill="#100E3B"/>
<path d="M40.8334 15.75H29.1667C28.7026 15.75 28.2575 15.5656 27.9293 15.2374C27.6011 14.9092 27.4167 14.4641 27.4167 14C27.4167 13.5359 27.6011 13.0908 27.9293 12.7626C28.2575 12.4344 28.7026 12.25 29.1667 12.25H40.8334C41.2975 12.25 41.7427 12.4344 42.0709 12.7626C42.399 13.0908 42.5834 13.5359 42.5834 14C42.5834 14.4641 42.399 14.9092 42.0709 15.2374C41.7427 15.5656 41.2975 15.75 40.8334 15.75Z" fill="#100E3B"/>
<path d="M40.8334 23.5282H29.1667C28.7026 23.5282 28.2575 23.3438 27.9293 23.0156C27.6011 22.6874 27.4167 22.2423 27.4167 21.7782C27.4167 21.3141 27.6011 20.869 27.9293 20.5408C28.2575 20.2126 28.7026 20.0282 29.1667 20.0282H40.8334C41.2975 20.0282 41.7427 20.2126 42.0709 20.5408C42.399 20.869 42.5834 21.3141 42.5834 21.7782C42.5834 22.2423 42.399 22.6874 42.0709 23.0156C41.7427 23.3438 41.2975 23.5282 40.8334 23.5282Z" fill="#100E3B"/>
<path d="M40.8334 31.3052H29.1667C28.7026 31.3052 28.2575 31.1208 27.9293 30.7926C27.6011 30.4644 27.4167 30.0193 27.4167 29.5552C27.4167 29.091 27.6011 28.6459 27.9293 28.3177C28.2575 27.9896 28.7026 27.8052 29.1667 27.8052H40.8334C41.2975 27.8052 41.7427 27.9896 42.0709 28.3177C42.399 28.6459 42.5834 29.091 42.5834 29.5552C42.5834 30.0193 42.399 30.4644 42.0709 30.7926C41.7427 31.1208 41.2975 31.3052 40.8334 31.3052Z" fill="#100E3B"/>
<defs>
<linearGradient id="paint0_linear_3663_15905" x1="27.6665" y1="12" x2="27.6665" y2="44" gradientUnits="userSpaceOnUse">
<stop stop-color="#63ECF1"/>
<stop offset="1" stop-color="#63ECF1" stop-opacity="0"/>
</linearGradient>
</defs>
</svg>
