<svg width="56" height="56" viewBox="0 0 56 56" fill="none" xmlns="http://www.w3.org/2000/svg">
<path d="M16.3335 44C25.1869 44 32.3336 36.8533 32.3336 28C32.3336 19.1467 25.1869 12 16.3335 12C7.48018 12 0.333496 19.1467 0.333496 28C0.333496 36.8533 7.48018 44 16.3335 44Z" fill="url(#paint0_linear_3663_15888)"/>
<path d="M43.169 46.6237C42.8907 46.6242 42.6164 46.5583 42.3687 46.4315C42.121 46.3047 41.9071 46.1206 41.7448 45.8945L39.4115 42.6475C39.1977 42.3501 39.0828 41.9929 39.0834 41.6266V36.96C39.0834 36.4958 39.2678 36.0507 39.5959 35.7225C39.9241 35.3943 40.3692 35.21 40.8334 35.21C41.2975 35.21 41.7426 35.3943 42.0708 35.7225C42.399 36.0507 42.5834 36.4958 42.5834 36.96V41.0627L44.5886 43.8529C44.776 44.1143 44.8877 44.4223 44.9116 44.743C44.9354 45.0638 44.8704 45.3849 44.7238 45.6712C44.5771 45.9574 44.3544 46.1978 44.0802 46.3658C43.8059 46.5338 43.4906 46.6231 43.169 46.6237Z" fill="#100E3B"/>
<path d="M40.8333 53.1669C37.5843 53.1669 34.4685 51.8762 32.1712 49.5789C29.8739 47.2816 28.5833 44.1658 28.5833 40.9169C28.5833 37.668 29.8739 34.5521 32.1712 32.2548C34.4685 29.9575 37.5843 28.6669 40.8333 28.6669C41.2974 28.6669 41.7425 28.8512 42.0707 29.1794C42.3989 29.5076 42.5833 29.9527 42.5833 30.4169C42.5833 30.881 42.3989 31.3261 42.0707 31.6543C41.7425 31.9825 41.2974 32.1669 40.8333 32.1669C39.1027 32.1669 37.4109 32.68 35.972 33.6415C34.5331 34.603 33.4116 35.9695 32.7493 37.5684C32.087 39.1672 31.9138 40.9266 32.2514 42.6239C32.589 44.3212 33.4224 45.8803 34.6461 47.1041C35.8698 48.3278 37.4289 49.1611 39.1262 49.4987C40.8235 49.8364 42.5829 49.6631 44.1817 49.0008C45.7806 48.3385 47.1472 47.217 48.1086 45.7781C49.0701 44.3392 49.5833 42.6475 49.5833 40.9169C49.587 39.4825 49.2344 38.0697 48.557 36.8053C47.8797 35.5409 46.8989 34.4646 45.7027 33.6731C45.3156 33.4174 45.0459 33.0185 44.953 32.564C44.907 32.339 44.9057 32.1071 44.9493 31.8816C44.9929 31.6561 45.0805 31.4413 45.2071 31.2497C45.3337 31.058 45.4968 30.8932 45.687 30.7645C45.8773 30.6359 46.0911 30.546 46.3161 30.5C46.7706 30.407 47.2434 30.4984 47.6305 30.7541C49.3107 31.8631 50.6888 33.3726 51.6407 35.1466C52.5925 36.9207 53.0883 38.9036 53.0833 40.9169C53.0795 44.1646 51.7877 47.2783 49.4912 49.5748C47.1947 51.8713 44.081 53.1631 40.8333 53.1669Z" fill="#100E3B"/>
<path d="M32.1061 48.5002H7.07059C5.96944 48.4991 4.9137 48.0612 4.13496 47.2827C3.35622 46.5041 2.91807 45.4485 2.91663 44.3474V11.8197C2.91807 10.7186 3.35622 9.66294 4.13496 8.88441C4.9137 8.10588 5.96944 7.66802 7.07059 7.66687H44.2627C45.3638 7.66802 46.4196 8.10588 47.1983 8.88441C47.977 9.66294 48.4152 10.7186 48.4166 11.8197V32.2135C48.4166 32.6777 48.2323 33.1228 47.9041 33.451C47.5759 33.7792 47.1308 33.9635 46.6666 33.9635C46.2025 33.9635 45.7574 33.7792 45.4292 33.451C45.101 33.1228 44.9166 32.6777 44.9166 32.2135V11.8197C44.9175 11.7337 44.9011 11.6483 44.8685 11.5686C44.8359 11.489 44.7878 11.4166 44.7269 11.3558C44.666 11.295 44.5935 11.247 44.5138 11.2145C44.4341 11.1821 44.3487 11.1659 44.2627 11.1669H7.07059C6.98453 11.1659 6.89914 11.1821 6.81943 11.2145C6.73971 11.247 6.66728 11.295 6.60637 11.3558C6.54546 11.4166 6.4973 11.489 6.46472 11.5686C6.43214 11.6483 6.41579 11.7337 6.41663 11.8197V44.3474C6.41579 44.4334 6.43214 44.5188 6.46472 44.5984C6.4973 44.6781 6.54546 44.7504 6.60637 44.8113C6.66728 44.8721 6.73971 44.9201 6.81943 44.9525C6.89914 44.985 6.98453 45.0012 7.07059 45.0002H32.1061C32.5702 45.0002 33.0153 45.1846 33.3435 45.5128C33.6717 45.841 33.8561 46.2861 33.8561 46.7502C33.8561 47.2143 33.6717 47.6595 33.3435 47.9876C33.0153 48.3158 32.5702 48.5002 32.1061 48.5002Z" fill="#100E3B"/>
<path d="M11.6666 11.1669C11.2025 11.1667 10.7575 10.9823 10.4293 10.6542C10.1012 10.326 9.91675 9.88094 9.91663 9.41685V4.75018C9.91663 4.28605 10.101 3.84093 10.4292 3.51275C10.7574 3.18456 11.2025 3.00018 11.6666 3.00018C12.1308 3.00018 12.5759 3.18456 12.9041 3.51275C13.2323 3.84093 13.4166 4.28605 13.4166 4.75018V9.41685C13.4165 9.88094 13.2321 10.326 12.9039 10.6542C12.5758 10.9823 12.1307 11.1667 11.6666 11.1669Z" fill="#100E3B"/>
<path d="M21 11.1669C20.5359 11.1667 20.0909 10.9823 19.7627 10.6542C19.4345 10.326 19.2501 9.88094 19.25 9.41685V4.75018C19.25 4.28605 19.4344 3.84093 19.7626 3.51275C20.0908 3.18456 20.5359 3.00018 21 3.00018C21.4641 3.00018 21.9092 3.18456 22.2374 3.51275C22.5656 3.84093 22.75 4.28605 22.75 4.75018V9.41685C22.7499 9.88094 22.5655 10.326 22.2373 10.6542C21.9091 10.9823 21.4641 11.1667 21 11.1669Z" fill="#100E3B"/>
<path d="M30.3333 11.1669C29.8692 11.1667 29.4241 10.9823 29.096 10.6542C28.7678 10.326 28.5834 9.88094 28.5833 9.41685V4.75018C28.5833 4.28605 28.7676 3.84093 29.0958 3.51275C29.424 3.18456 29.8691 3.00018 30.3333 3.00018C30.7974 3.00018 31.2425 3.18456 31.5707 3.51275C31.8989 3.84093 32.0833 4.28605 32.0833 4.75018V9.41685C32.0831 9.88094 31.8987 10.326 31.5706 10.6542C31.2424 10.9823 30.7973 11.1667 30.3333 11.1669Z" fill="#100E3B"/>
<path d="M39.6666 11.1669C39.2025 11.1667 38.7575 10.9823 38.4293 10.6542C38.1012 10.326 37.9167 9.88094 37.9166 9.41685V4.75018C37.9166 4.28605 38.101 3.84093 38.4292 3.51275C38.7574 3.18456 39.2025 3.00018 39.6666 3.00018C40.1308 3.00018 40.5759 3.18456 40.9041 3.51275C41.2323 3.84093 41.4166 4.28605 41.4166 4.75018V9.41685C41.4165 9.88094 41.2321 10.326 40.9039 10.6542C40.5758 10.9823 40.1307 11.1667 39.6666 11.1669Z" fill="#100E3B"/>
<path d="M46.6666 20.5002H4.66663C4.2025 20.5002 3.75738 20.3158 3.42919 19.9876C3.101 19.6594 2.91663 19.2143 2.91663 18.7502C2.91663 18.2861 3.101 17.8409 3.42919 17.5127C3.75738 17.1846 4.2025 17.0002 4.66663 17.0002H46.6666C47.1308 17.0002 47.5759 17.1846 47.9041 17.5127C48.2323 17.8409 48.4166 18.2861 48.4166 18.7502C48.4166 19.2143 48.2323 19.6594 47.9041 19.9876C47.5759 20.3158 47.1308 20.5002 46.6666 20.5002Z" fill="#100E3B"/>
<defs>
<linearGradient id="paint0_linear_3663_15888" x1="16.3335" y1="12" x2="16.3335" y2="44" gradientUnits="userSpaceOnUse">
<stop stop-color="#6366F1"/>
<stop offset="1" stop-color="#6366F1" stop-opacity="0"/>
</linearGradient>
</defs>
</svg>
