<svg width="33" height="32" viewBox="0 0 33 32" fill="none" xmlns="http://www.w3.org/2000/svg">
<path fill-rule="evenodd" clip-rule="evenodd" d="M2.73804 9.33317C2.73804 5.65127 5.72281 2.6665 9.4047 2.6665H22.738C26.4199 2.6665 29.4047 5.65127 29.4047 9.33317V22.6665C29.4047 26.3484 26.4199 29.3332 22.738 29.3332H9.4047C5.72281 29.3332 2.73804 26.3484 2.73804 22.6665V9.33317ZM9.4047 4.6665H22.738C25.3154 4.6665 27.4047 6.75584 27.4047 9.33317V22.6665C27.4047 25.2438 25.3154 27.3332 22.738 27.3332H18.2323V17.9938H21.0126C21.0126 17.9938 21.2747 16.3798 21.4007 14.6138H18.2483V12.3138C18.2483 11.9678 18.7003 11.5058 19.1484 11.5058H21.4047V7.99984H18.3343C14.0735 7.99984 14.0854 11.2351 14.0876 11.8398C14.0876 11.8523 14.0877 11.8637 14.0877 11.8738V14.6278H12.0714V17.9938H14.0877V27.3332H9.4047C6.82738 27.3332 4.73804 25.2438 4.73804 22.6665V9.33317C4.73804 6.75584 6.82738 4.6665 9.4047 4.6665Z" fill="#94A3B8"/>
</svg>
