<svg width="33" height="32" viewBox="0 0 33 32" fill="none" xmlns="http://www.w3.org/2000/svg">
<path fill-rule="evenodd" clip-rule="evenodd" d="M9.73796 16C9.73796 12.5038 12.5755 9.66667 16.0698 9.66667C19.5667 9.66667 22.4046 12.5034 22.4046 16C22.4046 19.4966 19.5667 22.3333 16.0698 22.3333C12.5755 22.3333 9.73796 19.4962 9.73796 16ZM16.0698 11.6667C13.6803 11.6667 11.738 13.6082 11.738 16C11.738 18.3918 13.6803 20.3333 16.0698 20.3333C18.4626 20.3333 20.4046 18.3915 20.4046 16C20.4046 13.6085 18.4626 11.6667 16.0698 11.6667Z" fill="#94A3B8"/>
<path d="M22.7376 6.66667C23.4738 6.66667 24.0713 7.26399 24.0713 8C24.0713 8.73601 23.4738 9.33333 22.7376 9.33333C22.0021 9.33333 21.4046 8.73601 21.4046 8C21.4046 7.26399 22.0021 6.66667 22.7376 6.66667Z" fill="#94A3B8"/>
<path fill-rule="evenodd" clip-rule="evenodd" d="M4.76885 4.91116C6.10955 3.47276 8.01956 2.66699 10.2772 2.66699H21.8092C24.0716 2.66699 25.9821 3.4724 27.3219 4.91159C28.6543 6.34272 29.3479 8.31922 29.3479 10.539V21.4043C29.3479 23.6241 28.6543 25.6006 27.3217 27.0318C25.9816 28.471 24.0708 29.2763 21.8079 29.2763H10.2772C8.0148 29.2763 6.10431 28.4709 4.76445 27.0317C3.4321 25.6006 2.73853 23.6241 2.73853 21.4043V10.539C2.73853 8.31811 3.43543 6.34175 4.76885 4.91116ZM6.23187 6.27482C5.30096 7.27357 4.73853 8.73321 4.73853 10.539V21.4043C4.73853 23.2112 5.29896 24.6707 6.22827 25.6689C7.15007 26.6591 8.50891 27.2763 10.2772 27.2763H21.8079C23.5769 27.2763 24.9361 26.659 25.858 25.6689C26.7874 24.6707 27.3479 23.2112 27.3479 21.4043V10.539C27.3479 8.7321 26.7874 7.2726 25.8581 6.27439C24.9363 5.28426 23.5775 4.66699 21.8092 4.66699H10.2772C8.51483 4.66699 7.1555 5.28389 6.23187 6.27482Z" fill="#94A3B8"/>
</svg>
