<svg width="33" height="32" viewBox="0 0 33 32" fill="none" xmlns="http://www.w3.org/2000/svg">
<path d="M18.6873 8.00425C18.1623 8.00493 17.6363 8.0056 17.1086 8.01334C17.0948 9.72481 17.0958 11.4369 17.0969 13.151C17.0974 14.1202 17.098 15.09 17.0959 16.0608C17.0936 16.3839 17.094 16.7066 17.0943 17.0291C17.0953 17.8972 17.0962 18.764 17.0458 19.6335C17.0385 19.8747 16.9108 20.0869 16.7868 20.2928C16.7769 20.3093 16.767 20.3256 16.7572 20.342C16.3479 20.9745 15.595 21.4066 14.8095 21.4146C13.6246 21.5141 12.5146 20.5945 12.3473 19.5005C12.3461 19.4468 12.3441 19.3929 12.3421 19.3387C12.3306 19.0301 12.319 18.7154 12.4428 18.4279C12.6191 17.9498 12.9563 17.5399 13.4025 17.2613C14.0123 16.8598 14.8279 16.7998 15.5259 17.0138C15.5259 16.5921 15.5335 16.1705 15.5411 15.749C15.5513 15.1835 15.5615 14.618 15.5533 14.0522C14.0255 13.7811 12.3938 14.2392 11.2289 15.2007C10.2012 16.0263 9.53913 17.2398 9.41251 18.5084C9.3998 18.839 9.40261 19.17 9.42095 19.5005C9.56656 21.0605 10.5663 22.5141 11.987 23.3082C12.8443 23.7872 13.8493 24.0472 14.8554 23.9927C16.4956 23.9667 18.0925 23.1331 19.0126 21.8546C19.5844 21.0865 19.9089 20.159 19.9638 19.2269C19.978 17.9466 19.9772 16.6638 19.9763 15.3795C19.9758 14.7177 19.9753 14.0556 19.977 13.3931C20.3426 13.6196 20.7161 13.8411 21.117 14.0132C22.0376 14.4272 23.0569 14.6272 24.0714 14.6587V11.974C22.9888 11.8595 21.8762 11.521 21.0896 10.7815C20.3014 10.0599 19.9142 9.02039 19.8588 7.99984C19.4686 8.00325 19.0782 8.00375 18.6873 8.00425Z" fill="#94A3B8"/>
<path fill-rule="evenodd" clip-rule="evenodd" d="M2.73804 9.33317C2.73804 5.65127 5.72281 2.6665 9.4047 2.6665H22.738C26.4199 2.6665 29.4047 5.65127 29.4047 9.33317V22.6665C29.4047 26.3484 26.4199 29.3332 22.738 29.3332H9.4047C5.72281 29.3332 2.73804 26.3484 2.73804 22.6665V9.33317ZM9.4047 4.6665H22.738C25.3154 4.6665 27.4047 6.75584 27.4047 9.33317V22.6665C27.4047 25.2438 25.3154 27.3332 22.738 27.3332H9.4047C6.82738 27.3332 4.73804 25.2438 4.73804 22.6665V9.33317C4.73804 6.75584 6.82738 4.6665 9.4047 4.6665Z" fill="#94A3B8"/>
</svg>
